<svg xmlns="http://www.w3.org/2000/svg" id="CAP4_04" viewBox="0 0 1008.29 739.2"><defs><style>.cls-1{stroke:#c9c9c8;stroke-width:3px}.cls-1,.cls-2{stroke-linecap:round;stroke-linejoin:round}.cls-1,.cls-2,.cls-3,.cls-4{fill:none}.cls-2,.cls-3{stroke:#79b6c9}.cls-2,.cls-3,.cls-4{stroke-width:5px}.cls-5{fill:#dbdbdb}.cls-10,.cls-11,.cls-12,.cls-5,.cls-6,.cls-7,.cls-8,.cls-9{stroke-width:0}.cls-13,.cls-14,.cls-3,.cls-4{stroke-miterlimit:10}.cls-13{stroke:#353535;stroke-width:.2px}.cls-10,.cls-13,.cls-14{fill:#020302}.cls-6{fill:#c9c9c8}.cls-7{fill:#b5b5b5}.cls-8{fill:#cfe8f6}.cls-14{stroke:#cdcccc}.cls-4{stroke:#9bc6d2}.cls-9{fill:#232323}.cls-11{fill:#fff;opacity:.61}.cls-12{fill:#606161}</style></defs><path d="M181.65,37.79h676.37c10.3,0,18.66,8.36,18.66,18.66v420.46H162.99V56.46c0-10.3,8.36-18.66,18.66-18.66Z" class="cls-14"/><polyline points="59.51 655.12 162.99 476.92 876.68 476.92 981.48 655.12" class="cls-5"/><path d="M59.51,655.12h921.97v15.12c0,5.52-4.48,10-10,10H69.51c-5.52,0-10-4.48-10-10v-15.12h0Z" class="cls-7"/><rect width="665.94" height="392.67" x="188.34" y="62.94" class="cls-8"/><polygon points="894.68 585.83 146.5 585.83 195.14 487.52 843.39 487.52 894.68 585.83" class="cls-6"/><path d="M600.3,639.05l-162.14-.36c-3.12,0-5.34-3.05-4.39-6.02l11.22-35.28c.61-1.92,2.39-3.22,4.4-3.22h142.97c2.16,0,4.04,1.5,4.51,3.61l7.96,35.65c.65,2.89-1.56,5.64-4.52,5.63Z" class="cls-12"/><rect width="76.94" height="10.67" x="482.84" y="45.55" class="cls-9" rx="1.49" ry="1.49"/><circle cx="521.31" cy="50.88" r="3.48" class="cls-13"/><circle cx="554.01" cy="50.88" r=".88" class="cls-10"/><polygon points="388.85 455.61 349.94 455.61 243.52 62.94 282.43 62.94 388.85 455.61" class="cls-11"/><polyline points="329.16 62.94 435.58 455.61 405.51 455.61 299.09 62.94" class="cls-11"/><polygon points="879.38 579.53 163.24 579.53 203.12 492.35 835.75 491.55 879.38 579.53" class="cls-12"/><line x1="545.63" x2="548.89" y1="489.56" y2="583.02" class="cls-1"/><line x1="503.05" x2="499.79" y1="489.71" y2="583.18" class="cls-1"/><line x1="580.44" x2="593.45" y1="491.1" y2="583.71" class="cls-1"/><line x1="465.73" x2="454.34" y1="490.99" y2="583.82" class="cls-1"/><line x1="433.12" x2="408.91" y1="491.5" y2="581.84" class="cls-1"/><line x1="612.08" x2="637.86" y1="490.21" y2="580.11" class="cls-1"/><line x1="393.82" x2="361.83" y1="490.59" y2="578.47" class="cls-1"/><line x1="651.14" x2="684.66" y1="492.39" y2="579.7" class="cls-1"/><line x1="353.36" x2="317.04" y1="491.24" y2="579.16" class="cls-1"/><line x1="690.18" x2="728.07" y1="491.27" y2="580.65" class="cls-1"/><line x1="313.08" x2="276.75" y1="491.86" y2="579.78" class="cls-1"/><line x1="730.73" x2="768.62" y1="491.13" y2="580.51" class="cls-1"/><line x1="273.26" x2="229.44" y1="490.63" y2="579.77" class="cls-1"/><line x1="769.13" x2="812.62" y1="491.15" y2="579.77" class="cls-1"/><line x1="234.1" x2="190.28" y1="492.1" y2="581.24" class="cls-1"/><line x1="805.35" x2="848.84" y1="492.36" y2="580.98" class="cls-1"/><line x1="193.18" x2="847.37" y1="504.23" y2="504.23" class="cls-1"/><line x1="187.14" x2="850.39" y1="522.36" y2="522.36" class="cls-1"/><line x1="176.56" x2="863.99" y1="542" y2="542" class="cls-1"/><line x1="167.5" x2="876.07" y1="561.64" y2="561.64" class="cls-1"/><path d="M521.28,198.8v120.33c-5.94-4.32-31.64-23.99-33.87-55.69-2.61-37.12,29.06-61.12,33.87-64.64" class="cls-2"/><path d="M521.28,199.31v119.83c5.94-4.3,31.64-23.89,33.87-55.46,2.61-36.97-29.06-60.86-33.87-64.37" class="cls-2"/><line x1="461.87" x2="583.73" y1="259.23" y2="259.23" class="cls-3"/><line x1="521.03" x2="521.03" y1="195.27" y2="175.63" class="cls-4"/><line x1="521.03" x2="521.03" y1="342.33" y2="322.69" class="cls-4"/><line x1="585.24" x2="604.88" y1="259.48" y2="259.48" class="cls-4"/><line x1="439.18" x2="458.82" y1="259.48" y2="259.48" class="cls-4"/><line x1="568.99" x2="582.88" y1="217.57" y2="203.68" class="cls-4"/><line x1="461.38" x2="475.27" y1="316.72" y2="302.83" class="cls-4"/><line x1="475.27" x2="461.38" y1="215.98" y2="202.09" class="cls-4"/><line x1="582.56" x2="568.67" y1="312.69" y2="298.81" class="cls-4"/><circle cx="521.03" cy="162.03" r="11.33" class="cls-3"/><circle cx="521.03" cy="355.68" r="11.33" class="cls-3"/><circle cx="452.61" cy="193.32" r="11.33" class="cls-3"/><circle cx="592" cy="194.55" r="11.33" class="cls-3"/><circle cx="426.35" cy="259.48" r="11.33" class="cls-3"/><circle cx="452.46" cy="325.64" r="11.33" class="cls-3"/><circle cx="617.67" cy="259.48" r="11.33" class="cls-3"/><circle cx="592" cy="322.14" r="11.33" class="cls-3"/><circle cx="521.28" cy="259.23" r="61.44" class="cls-3"/></svg>