<svg xmlns="http://www.w3.org/2000/svg" xmlns:xlink="http://www.w3.org/1999/xlink" id="CAP4_01" version="1.1" viewBox="0 0 660 430"><defs><style>.cls-1{fill:#ee2e30}.cls-1,.cls-2,.cls-3{stroke-width:0}.cls-2{fill:#fbac31}.cls-4{opacity:.3}.cls-5{opacity:0}.cls-3{fill:#fff}</style></defs><g id="palavras"><path d="M564.5,183.2c-14.6-25.7-42.1-43-73.7-43s-15,1-22,2.9c-13-8.1-28.3-12.8-44.8-12.8-30.4,0-57.1,16-72,40.1-44,4.8-78.3,42-78.3,87.3s39.3,87.9,87.9,87.9,16.1-1.1,23.6-3.2c15.6,14.3,36.4,23,59.3,23s29.1-3.8,41.5-10.4c28.3,31.5,55.4,54.5,48.1,36.5-3.3-8.2-10-23.8-17.3-40.9,10.8,4.8,22.8,7.4,35.4,7.4,48.5,0,87.9-39.3,87.9-87.9s-32.8-80.9-75.4-87Z" class="cls-1"/><path d="M385,195.3c0-98.7-80.1-178.8-178.8-178.8S27.4,96.6,27.4,195.3s59.2,156,138.5,174.2c-14.6,13.7-28.2,26.4-35,32.9-18.7,18,50.7-3.8,100.7-30.1,86.7-12.4,153.3-86.9,153.3-177Z" class="cls-2"/><g class="cls-4"><image width="405" height="404" transform="translate(358.1 207.5) scale(.2)" xlink:href="chapter4simbolos_folhear-07-1.png"/></g><g class="cls-4"><image width="405" height="404" transform="translate(406.3 207.5) scale(.2)" xlink:href="chapter4simbolos_folhear-07-2.png"/></g><g class="cls-4"><image width="404" height="404" transform="translate(454.8 207.5) scale(.2)" xlink:href="chapter4simbolos_folhear-07-3.png"/></g><circle cx="503.2" cy="255.9" r="12.4" class="cls-3"/><circle cx="454.9" cy="255.9" r="12.4" class="cls-3"/><circle cx="406.7" cy="255.9" r="12.4" class="cls-3"/><g class="cls-5"><image width="872" height="696" transform="translate(100.7 112.5) scale(.2)" xlink:href="chapter4simbolos_folhear-07-4.png"/></g><g><path d="M193.7,215.8c-5.9,6-13.3,9-22.1,9s-16.1-3-22-9c-5.9-6-8.9-13.4-8.9-22.3s3-16.3,8.9-22.3c5.9-6,13.3-9,22-9s16.1,3,22.1,9c5.9,6,8.9,13.4,8.9,22.3s-3,16.3-8.9,22.3ZM171.7,212.1c5,0,9.1-1.8,12.2-5.4,3.1-3.6,4.6-8.1,4.6-13.4s-1.5-9.7-4.6-13.3c-3.1-3.6-7.1-5.3-12.2-5.3s-9.2,1.8-12.3,5.3c-3.1,3.6-4.6,8-4.6,13.3s1.5,9.7,4.6,13.4c3.1,3.6,7.2,5.4,12.3,5.4Z" class="cls-3"/><path d="M210.8,223.3v-59.4h12.8v59.4h-12.8Z" class="cls-3"/><path d="M257.7,223.3l-.4-3.9c-3,3.4-7.2,5.2-12.7,5.2s-3.2-.2-4.7-.7c-1.5-.4-3-1.1-4.5-2-1.5-.9-2.6-2.3-3.5-4s-1.3-3.8-1.3-6.2c0-4.8,1.8-8.5,5.4-11.1,3.6-2.7,8.2-4,13.9-4s6.6.1,7.5.4v-.9c0-2-.8-3.5-2.3-4.5-1.5-1-3.4-1.5-5.7-1.5-4.5,0-8.5,1.2-11.8,3.5l-5.3-7.8c5.1-3.7,11.4-5.5,18.9-5.5s10.8,1.7,13.9,5c3.1,3.3,4.7,8,4.7,13.9v24.3h-12ZM257.3,208.2v-3.4c-1.7-.2-3.2-.4-4.5-.4-6.5,0-9.8,1.9-9.8,5.8s2.1,5.2,6.2,5.2,4-.7,5.7-2c1.6-1.3,2.4-3.1,2.4-5.3ZM245.4,175.2l4.3-12.7h12.7l-7.5,12.7h-9.4Z" class="cls-3"/></g></g></svg>