<?xml version="1.0" encoding="UTF-8"?>
<svg id="CAP4_04" xmlns="http://www.w3.org/2000/svg" viewBox="0 0 1008.29 739.2">
  <defs>
    <style>
      .cls-1 {
        stroke: #c9c9c8;
        stroke-width: 3px;
      }

      .cls-1, .cls-2 {
        stroke-linecap: round;
        stroke-linejoin: round;
      }

      .cls-1, .cls-2, .cls-3, .cls-4 {
        fill: none;
      }

      .cls-2, .cls-3 {
        stroke: #79b6c9;
      }

      .cls-2, .cls-3, .cls-4 {
        stroke-width: 5px;
      }

      .cls-5 {
        fill: #dbdbdb;
      }

      .cls-5, .cls-6, .cls-7, .cls-8, .cls-9, .cls-10, .cls-11, .cls-12 {
        stroke-width: 0px;
      }

      .cls-3, .cls-13, .cls-14, .cls-4 {
        stroke-miterlimit: 10;
      }

      .cls-13 {
        stroke: #353535;
        stroke-width: .2px;
      }

      .cls-13, .cls-14, .cls-10 {
        fill: #020302;
      }

      .cls-6 {
        fill: #c9c9c8;
      }

      .cls-7 {
        fill: #b5b5b5;
      }

      .cls-8 {
        fill: #cfe8f6;
      }

      .cls-14 {
        stroke: #cdcccc;
      }

      .cls-4 {
        stroke: #9bc6d2;
      }

      .cls-9 {
        fill: #232323;
      }

      .cls-11 {
        fill: #fff;
        opacity: .61;
      }

      .cls-12 {
        fill: #606161;
      }
    </style>
  </defs>
  <path class="cls-14" d="M181.65,37.79h676.37c10.3,0,18.66,8.36,18.66,18.66v420.46H162.99V56.46c0-10.3,8.36-18.66,18.66-18.66Z"/>
  <polyline class="cls-5" points="59.51 655.12 162.99 476.92 876.68 476.92 981.48 655.12"/>
  <path class="cls-7" d="M59.51,655.12h921.97v15.12c0,5.52-4.48,10-10,10H69.51c-5.52,0-10-4.48-10-10v-15.12h0Z"/>
  <rect class="cls-8" x="188.34" y="62.94" width="665.94" height="392.67"/>
  <polygon class="cls-6" points="894.68 585.83 146.5 585.83 195.14 487.52 843.39 487.52 894.68 585.83"/>
  <path class="cls-12" d="M600.3,639.05l-162.14-.36c-3.12,0-5.34-3.05-4.39-6.02l11.22-35.28c.61-1.92,2.39-3.22,4.4-3.22h142.97c2.16,0,4.04,1.5,4.51,3.61l7.96,35.65c.65,2.89-1.56,5.64-4.52,5.63Z"/>
  <rect class="cls-9" x="482.84" y="45.55" width="76.94" height="10.67" rx="1.49" ry="1.49"/>
  <circle class="cls-13" cx="521.31" cy="50.88" r="3.48"/>
  <circle class="cls-10" cx="554.01" cy="50.88" r=".88"/>
  <polygon class="cls-11" points="388.85 455.61 349.94 455.61 243.52 62.94 282.43 62.94 388.85 455.61"/>
  <polyline class="cls-11" points="329.16 62.94 435.58 455.61 405.51 455.61 299.09 62.94"/>
  <polygon class="cls-12" points="879.38 579.53 163.24 579.53 203.12 492.35 835.75 491.55 879.38 579.53"/>
  <line class="cls-1" x1="545.63" y1="489.56" x2="548.89" y2="583.02"/>
  <line class="cls-1" x1="503.05" y1="489.71" x2="499.79" y2="583.18"/>
  <line class="cls-1" x1="580.44" y1="491.1" x2="593.45" y2="583.71"/>
  <line class="cls-1" x1="465.73" y1="490.99" x2="454.34" y2="583.82"/>
  <line class="cls-1" x1="433.12" y1="491.5" x2="408.91" y2="581.84"/>
  <line class="cls-1" x1="612.08" y1="490.21" x2="637.86" y2="580.11"/>
  <line class="cls-1" x1="393.82" y1="490.59" x2="361.83" y2="578.47"/>
  <line class="cls-1" x1="651.14" y1="492.39" x2="684.66" y2="579.7"/>
  <line class="cls-1" x1="353.36" y1="491.24" x2="317.04" y2="579.16"/>
  <line class="cls-1" x1="690.18" y1="491.27" x2="728.07" y2="580.65"/>
  <line class="cls-1" x1="313.08" y1="491.86" x2="276.75" y2="579.78"/>
  <line class="cls-1" x1="730.73" y1="491.13" x2="768.62" y2="580.51"/>
  <line class="cls-1" x1="273.26" y1="490.63" x2="229.44" y2="579.77"/>
  <line class="cls-1" x1="769.13" y1="491.15" x2="812.62" y2="579.77"/>
  <line class="cls-1" x1="234.1" y1="492.1" x2="190.28" y2="581.24"/>
  <line class="cls-1" x1="805.35" y1="492.36" x2="848.84" y2="580.98"/>
  <line class="cls-1" x1="193.18" y1="504.23" x2="847.37" y2="504.23"/>
  <line class="cls-1" x1="187.14" y1="522.36" x2="850.39" y2="522.36"/>
  <line class="cls-1" x1="176.56" y1="542" x2="863.99" y2="542"/>
  <line class="cls-1" x1="167.5" y1="561.64" x2="876.07" y2="561.64"/>
  <path class="cls-2" d="M521.28,198.8v120.33c-5.94-4.32-31.64-23.99-33.87-55.69-2.61-37.12,29.06-61.12,33.87-64.64"/>
  <path class="cls-2" d="M521.28,199.31v119.83c5.94-4.3,31.64-23.89,33.87-55.46,2.61-36.97-29.06-60.86-33.87-64.37"/>
  <line class="cls-3" x1="461.87" y1="259.23" x2="583.73" y2="259.23"/>
  <line class="cls-4" x1="521.03" y1="195.27" x2="521.03" y2="175.63"/>
  <line class="cls-4" x1="521.03" y1="342.33" x2="521.03" y2="322.69"/>
  <line class="cls-4" x1="585.24" y1="259.48" x2="604.88" y2="259.48"/>
  <line class="cls-4" x1="439.18" y1="259.48" x2="458.82" y2="259.48"/>
  <line class="cls-4" x1="568.99" y1="217.57" x2="582.88" y2="203.68"/>
  <line class="cls-4" x1="461.38" y1="316.72" x2="475.27" y2="302.83"/>
  <line class="cls-4" x1="475.27" y1="215.98" x2="461.38" y2="202.09"/>
  <line class="cls-4" x1="582.56" y1="312.69" x2="568.67" y2="298.81"/>
  <circle class="cls-3" cx="521.03" cy="162.03" r="11.33"/>
  <circle class="cls-3" cx="521.03" cy="355.68" r="11.33"/>
  <circle class="cls-3" cx="452.61" cy="193.32" r="11.33"/>
  <circle class="cls-3" cx="592" cy="194.55" r="11.33"/>
  <circle class="cls-3" cx="426.35" cy="259.48" r="11.33"/>
  <circle class="cls-3" cx="452.46" cy="325.64" r="11.33"/>
  <circle class="cls-3" cx="617.67" cy="259.48" r="11.33"/>
  <circle class="cls-3" cx="592" cy="322.14" r="11.33"/>
  <circle class="cls-3" cx="521.28" cy="259.23" r="61.44"/>
</svg>