<svg xmlns="http://www.w3.org/2000/svg" id="CAP4_02" viewBox="0 0 771.51 567.97"><defs><style>.cls-1{fill:#e2a945}.cls-1,.cls-10,.cls-11,.cls-12,.cls-2,.cls-3,.cls-4,.cls-5,.cls-6,.cls-7,.cls-8,.cls-9{stroke-width:0}.cls-13{stroke:#8c7867}.cls-13,.cls-14{fill:none;stroke-linecap:round;stroke-linejoin:round;stroke-width:2px}.cls-2{fill:#5e3433}.cls-3{fill:#912428}.cls-4{fill:#b26d6d}.cls-5{fill:#70874c}.cls-6{fill:#854d4d}.cls-7{fill:#020302;opacity:.25}.cls-8{fill:#506033}.cls-9{fill:#f5dec9}.cls-14{stroke:#ac9b8e}.cls-10{fill:#eac7a2}.cls-11{fill:#86a05c}.cls-12{fill:#aac171}</style></defs><g id="livro_01"><path d="M342.52,386.68L53.36,175.38c-20.54,5.16-24.24,46.05-16.17,93,6.98,40.65,20.46,44.01,38.82,60.14l301.09,219.54.48-5.52c-4.23-2.53-25.79-23.15-34.57-58.09-8.77-34.94-11.05-69.75-1.15-90.45l.67-7.32Z" class="cls-11"/><polygon points="736.96 449.12 730.2 450.81 720.26 446.35 715.5 433.9 736.96 449.12" class="cls-5"/><path d="M701.78,304.22l-361.22,90.1c-8.42,20.08-9.55,49.12,3,92.39,13.27,45.75,32.36,55.8,32.81,56.12l354.94-91.74-.25-.98c-17.61-13.79-22.52-25.11-31.3-60.05-8.77-34.94-6.75-64.4,2.25-84.87l-.25-.98Z" class="cls-10"/><polygon points="736.96 456.26 377.09 548.06 376.6 542.79 736.85 449.1 736.96 456.26" class="cls-8"/><polygon points="729.32 291.3 342.52 386.68 51.67 175.8 381.26 93.03 729.32 291.3" class="cls-12"/><polygon points="728.62 298.66 340.56 394.33 342.52 386.68 729.32 291.3 728.62 298.66" class="cls-8"/><line x1="398.25" x2="658.53" y1="414.53" y2="349.16" class="cls-13"/><line x1="386.32" x2="646.61" y1="477.84" y2="412.47" class="cls-13"/><line x1="407.03" x2="667.32" y1="502.97" y2="437.61" class="cls-13"/><polygon points="481.06 249.31 231.27 310.91 51.61 175.77 260.44 123.32 481.06 249.31" class="cls-5"/><line x1="389.35" x2="649.64" y1="447.21" y2="381.84" class="cls-13"/><polygon points="377.09 548.06 61.28 317.89 52.17 307.44 377.09 543.17 377.09 548.06" class="cls-8"/><polygon points="340.56 394.33 49.17 176.78 51.67 175.8 343.29 387.19 340.56 394.33" class="cls-8"/><polygon points="624.57 434.81 616.8 391.56 547.06 408.22 554.33 451.53 587.93 428.58 624.57 434.81" class="cls-7"/><polygon points="625.66 433.89 618.08 388.74 547.88 406.37 555.46 451.53 589.81 427.75 625.66 433.89" class="cls-3"/></g><g id="livro_02"><path d="M456.64,255.32l238.99-165.67c16.97,4.04,20.03,36.1,13.37,72.92-5.77,31.87-16.91,34.51-32.08,47.15l-248.85,172.13-.4-4.33c3.5-1.98,21.32-18.15,28.57-45.54,7.25-27.39,9.13-54.69.95-70.91l-.55-5.74Z" class="cls-4"/><polygon points="130.63 304.27 136.22 305.6 144.43 302.1 148.37 292.34 130.63 304.27" class="cls-6"/><path d="M159.71,190.67l298.55,70.64c6.96,15.75,7.89,38.51-2.48,72.44-10.97,35.87-26.74,43.75-27.12,44l-293.36-71.93.2-.77c14.55-10.81,18.62-19.69,25.87-47.08s5.58-50.49-1.86-66.54l.2-.77Z" class="cls-9"/><polygon points="130.63 309.87 428.07 381.84 428.48 377.72 130.73 304.26 130.63 309.87" class="cls-2"/><polygon points="136.95 180.54 456.64 255.32 697.03 89.99 424.62 25.09 136.95 180.54" class="cls-6"/><polygon points="137.53 186.31 458.26 261.32 456.64 255.32 136.95 180.54 137.53 186.31" class="cls-2"/><line x1="410.58" x2="195.45" y1="277.15" y2="225.91" class="cls-14"/><line x1="420.44" x2="205.31" y1="326.79" y2="275.54" class="cls-14"/><line x1="403.32" x2="188.19" y1="346.5" y2="295.25" class="cls-14"/><line x1="417.93" x2="202.8" y1="302.78" y2="251.53" class="cls-14"/><polygon points="428.07 381.84 689.09 201.38 696.62 193.2 428.07 378.01 428.07 381.84" class="cls-2"/><polygon points="458.26 261.32 699.1 90.76 697.03 89.99 456 255.72 458.26 261.32" class="cls-2"/><polygon points="398.48 355.23 401.99 323.57 385.43 317.87 381.16 352.86 388.81 345.99 398.48 355.23" class="cls-7"/><polygon points="399.99 355.72 404.59 321.77 386.27 317.38 381.76 354.42 391.59 347.52 399.99 355.72" class="cls-1"/></g></svg>