<svg xmlns="http://www.w3.org/2000/svg" xmlns:xlink="http://www.w3.org/1999/xlink" id="Camada_1" data-name="Camada 1" version="1.1" viewBox="0 0 1920 1080"><defs><style>.cls-1{fill:url(#linear-gradient-38)}.cls-1,.cls-10,.cls-11,.cls-12,.cls-13,.cls-14,.cls-15,.cls-16,.cls-17,.cls-18,.cls-19,.cls-2,.cls-20,.cls-21,.cls-22,.cls-23,.cls-24,.cls-25,.cls-26,.cls-27,.cls-28,.cls-29,.cls-3,.cls-30,.cls-31,.cls-32,.cls-33,.cls-34,.cls-35,.cls-36,.cls-37,.cls-38,.cls-39,.cls-4,.cls-40,.cls-41,.cls-42,.cls-43,.cls-44,.cls-45,.cls-46,.cls-47,.cls-48,.cls-49,.cls-5,.cls-50,.cls-51,.cls-52,.cls-53,.cls-54,.cls-55,.cls-56,.cls-57,.cls-58,.cls-59,.cls-6,.cls-60,.cls-61,.cls-62,.cls-63,.cls-64,.cls-65,.cls-66,.cls-67,.cls-68,.cls-69,.cls-7,.cls-70,.cls-71,.cls-72,.cls-73,.cls-74,.cls-75,.cls-8,.cls-9{stroke-width:0}.cls-2{fill:url(#linear-gradient-12)}.cls-3{fill:url(#linear-gradient-17)}.cls-4{fill:url(#linear-gradient-19)}.cls-5{fill:url(#linear-gradient-33)}.cls-6{fill:url(#linear-gradient)}.cls-7{fill:url(#linear-gradient-62)}.cls-8{fill:#999}.cls-9{fill:url(#linear-gradient-67)}.cls-10{fill:url(#linear-gradient-57)}.cls-11{fill:url(#linear-gradient-21)}.cls-12{fill:url(#linear-gradient-6)}.cls-13{fill:url(#linear-gradient-42)}.cls-14{fill:url(#linear-gradient-15)}.cls-15{fill:url(#linear-gradient-11)}.cls-16{fill:url(#linear-gradient-5)}.cls-17{fill:url(#linear-gradient-31)}.cls-18{fill:url(#linear-gradient-71)}.cls-19{fill:url(#linear-gradient-58)}.cls-20{fill:url(#linear-gradient-63)}.cls-21{fill:url(#linear-gradient-34)}.cls-22{fill:url(#linear-gradient-41)}.cls-23{fill:url(#linear-gradient-40)}.cls-24{fill:url(#linear-gradient-66)}.cls-25{fill:url(#linear-gradient-13)}.cls-26{fill:url(#linear-gradient-23)}.cls-27{fill:url(#linear-gradient-25)}.cls-28{fill:url(#linear-gradient-43)}.cls-29{fill:url(#linear-gradient-16)}.cls-30{fill:url(#linear-gradient-22)}.cls-31{fill:#010101}.cls-32{fill:url(#linear-gradient-54)}.cls-33{fill:url(#linear-gradient-55)}.cls-34{fill:url(#linear-gradient-35)}.cls-35{fill:url(#linear-gradient-50)}.cls-36{fill:url(#linear-gradient-32)}.cls-37{fill:url(#linear-gradient-60)}.cls-38{fill:url(#linear-gradient-59)}.cls-39{fill:url(#linear-gradient-20)}.cls-40{fill:url(#linear-gradient-14)}.cls-41{fill:url(#linear-gradient-2)}.cls-42{fill:url(#linear-gradient-52)}.cls-43{fill:url(#linear-gradient-45)}.cls-44{fill:url(#linear-gradient-7)}.cls-45{fill:url(#linear-gradient-39)}.cls-46{fill:url(#linear-gradient-3)}.cls-47{fill:url(#linear-gradient-69)}.cls-48{fill:url(#linear-gradient-9)}.cls-49{fill:url(#linear-gradient-27)}.cls-50{fill:url(#radial-gradient)}.cls-51{fill:url(#linear-gradient-53)}.cls-52{fill:url(#linear-gradient-65)}.cls-53{fill:url(#linear-gradient-36)}.cls-54{fill:url(#linear-gradient-48)}.cls-55{fill:url(#linear-gradient-49)}.cls-56{fill:url(#linear-gradient-8)}.cls-57{fill:url(#linear-gradient-47)}.cls-58{fill:url(#linear-gradient-24)}.cls-59{fill:url(#linear-gradient-26)}.cls-60{fill:url(#linear-gradient-61)}.cls-61{fill:url(#linear-gradient-18)}.cls-62{fill:url(#linear-gradient-51)}.cls-63{fill:url(#linear-gradient-30)}.cls-64{fill:url(#linear-gradient-44)}.cls-65{fill:url(#linear-gradient-68)}.cls-66{fill:url(#linear-gradient-72)}.cls-67{fill:url(#linear-gradient-29)}.cls-68{fill:url(#linear-gradient-46)}.cls-69{fill:url(#linear-gradient-64)}.cls-70{fill:url(#linear-gradient-28)}.cls-71{fill:url(#linear-gradient-56)}.cls-72{fill:url(#linear-gradient-10)}.cls-73{fill:url(#linear-gradient-70)}.cls-74{fill:url(#linear-gradient-4)}.cls-75{fill:url(#linear-gradient-37)}</style><linearGradient id="linear-gradient" x1="1800.84" x2="1896.81" y1="727.08" y2="727.08" gradientTransform="translate(2716.44) rotate(-180) scale(1 -1)" gradientUnits="userSpaceOnUse"><stop offset="0" stop-color="#811517"/><stop offset=".06" stop-color="#92181b"/><stop offset=".14" stop-color="#a61b1f"/><stop offset=".24" stop-color="#b51e23"/><stop offset=".36" stop-color="#bd1f25"/><stop offset=".56" stop-color="#c02026"/><stop offset=".66" stop-color="#ba1f24"/><stop offset=".79" stop-color="#aa1c20"/><stop offset=".93" stop-color="#90171a"/><stop offset="1" stop-color="#811517"/></linearGradient><linearGradient id="linear-gradient-2" x1="1376.03" x2="1473.5" y1="727.08" y2="727.08" gradientTransform="matrix(1,0,0,1,0,0)" xlink:href="#linear-gradient"/><linearGradient id="linear-gradient-3" x1="1281.89" x2="1379.36" y1="727.08" y2="727.08" gradientTransform="matrix(1,0,0,1,0,0)" xlink:href="#linear-gradient"/><linearGradient id="linear-gradient-4" x1="1188.75" x2="1285.31" gradientTransform="matrix(1,0,0,1,0,0)" xlink:href="#linear-gradient"/><linearGradient id="linear-gradient-5" x1="1094.34" x2="1190.91" gradientTransform="matrix(1,0,0,1,0,0)" xlink:href="#linear-gradient"/><linearGradient id="linear-gradient-6" x1="1004.4" x2="1100.36" gradientTransform="matrix(1,0,0,1,0,0)" xlink:href="#linear-gradient"/><linearGradient id="linear-gradient-7" x1="912.8" x2="1007.2" gradientTransform="matrix(1,0,0,1,0,0)" xlink:href="#linear-gradient"/><linearGradient id="linear-gradient-8" x1="2172.48" x2="2269.94" y1="727.08" y2="727.08" xlink:href="#linear-gradient"/><linearGradient id="linear-gradient-9" x1="2078.33" x2="2175.8" y1="727.08" y2="727.08" xlink:href="#linear-gradient"/><linearGradient id="linear-gradient-10" x1="1985.19" x2="2081.76" xlink:href="#linear-gradient"/><linearGradient id="linear-gradient-11" x1="1890.79" x2="1987.35" xlink:href="#linear-gradient"/><linearGradient id="linear-gradient-12" x1="960" x2="960" y1="688.97" y2="772.11" gradientUnits="userSpaceOnUse"><stop offset="0" stop-color="#321111"/><stop offset="1" stop-color="#010101"/></linearGradient><linearGradient id="linear-gradient-13" x1="1807.46" x2="1917.72" y1="761.91" y2="761.91" xlink:href="#linear-gradient"/><linearGradient id="linear-gradient-14" x1="1438.01" x2="1550" y1="761.91" y2="761.91" gradientTransform="matrix(1,0,0,1,0,0)" xlink:href="#linear-gradient"/><linearGradient id="linear-gradient-15" x1="1329.85" x2="1441.83" y1="761.91" y2="761.91" gradientTransform="matrix(1,0,0,1,0,0)" xlink:href="#linear-gradient"/><linearGradient id="linear-gradient-16" x1="1222.82" x2="1333.78" y1="761.91" y2="761.91" gradientTransform="matrix(1,0,0,1,0,0)" xlink:href="#linear-gradient"/><linearGradient id="linear-gradient-17" x1="1114.36" x2="1225.31" y1="761.91" y2="761.91" gradientTransform="matrix(1,0,0,1,0,0)" xlink:href="#linear-gradient"/><linearGradient id="linear-gradient-18" x1="1011.02" x2="1121.27" y1="761.91" y2="761.91" gradientTransform="matrix(1,0,0,1,0,0)" xlink:href="#linear-gradient"/><linearGradient id="linear-gradient-19" x1="905.77" x2="1014.23" y1="761.91" y2="761.91" gradientTransform="matrix(1,0,0,1,0,0)" xlink:href="#linear-gradient"/><linearGradient id="linear-gradient-20" x1="2234.46" x2="2346.44" y1="761.91" y2="761.91" xlink:href="#linear-gradient"/><linearGradient id="linear-gradient-21" x1="2126.29" x2="2238.28" y1="761.91" y2="761.91" xlink:href="#linear-gradient"/><linearGradient id="linear-gradient-22" x1="2019.27" x2="2130.22" y1="761.91" y2="761.91" xlink:href="#linear-gradient"/><linearGradient id="linear-gradient-23" x1="1910.8" x2="2021.76" y1="761.91" y2="761.91" xlink:href="#linear-gradient"/><linearGradient id="linear-gradient-24" x1="960" x2="960" y1="718.13" y2="813.65" xlink:href="#linear-gradient-12"/><linearGradient id="linear-gradient-25" x1="1816.14" x2="1945.15" y1="799.4" y2="799.4" xlink:href="#linear-gradient"/><linearGradient id="linear-gradient-26" x1="1519.32" x2="1650.36" y1="799.4" y2="799.4" gradientTransform="matrix(1,0,0,1,0,0)" xlink:href="#linear-gradient"/><linearGradient id="linear-gradient-27" x1="1392.76" x2="1523.8" y1="799.4" y2="799.4" gradientTransform="matrix(1,0,0,1,0,0)" xlink:href="#linear-gradient"/><linearGradient id="linear-gradient-28" x1="1267.53" x2="1397.36" y1="799.4" y2="799.4" gradientTransform="matrix(1,0,0,1,0,0)" xlink:href="#linear-gradient"/><linearGradient id="linear-gradient-29" x1="1140.62" x2="1270.44" y1="799.4" y2="799.4" gradientTransform="matrix(1,0,0,1,0,0)" xlink:href="#linear-gradient"/><linearGradient id="linear-gradient-30" x1="1019.69" x2="1148.71" y1="799.4" y2="799.4" gradientTransform="matrix(1,0,0,1,0,0)" xlink:href="#linear-gradient"/><linearGradient id="linear-gradient-31" x1="896.54" x2="1023.46" y1="799.4" y2="799.4" gradientTransform="matrix(1,0,0,1,0,0)" xlink:href="#linear-gradient"/><linearGradient id="linear-gradient-32" x1="2315.77" x2="2446.8" y1="799.4" y2="799.4" xlink:href="#linear-gradient"/><linearGradient id="linear-gradient-33" x1="2189.2" x2="2320.24" y1="799.4" y2="799.4" xlink:href="#linear-gradient"/><linearGradient id="linear-gradient-34" x1="2063.97" x2="2193.8" y1="799.4" y2="799.4" xlink:href="#linear-gradient"/><linearGradient id="linear-gradient-35" x1="1937.06" x2="2066.89" y1="799.4" y2="799.4" xlink:href="#linear-gradient"/><linearGradient id="linear-gradient-36" x1="960" x2="960" y1="748.17" y2="859.94" xlink:href="#linear-gradient-12"/><linearGradient id="linear-gradient-37" x1="1826.13" x2="1976.74" y1="848.39" y2="848.39" xlink:href="#linear-gradient"/><linearGradient id="linear-gradient-38" x1="1612.97" x2="1765.94" y1="848.39" y2="848.39" gradientTransform="matrix(1,0,0,1,0,0)" xlink:href="#linear-gradient"/><linearGradient id="linear-gradient-39" x1="1465.21" x2="1618.19" y1="848.39" y2="848.39" gradientTransform="matrix(1,0,0,1,0,0)" xlink:href="#linear-gradient"/><linearGradient id="linear-gradient-40" x1="1319.02" x2="1470.58" y1="848.39" y2="848.39" gradientTransform="matrix(1,0,0,1,0,0)" xlink:href="#linear-gradient"/><linearGradient id="linear-gradient-41" x1="1170.85" x2="1322.42" y1="848.39" y2="848.39" gradientTransform="matrix(1,0,0,1,0,0)" xlink:href="#linear-gradient"/><linearGradient id="linear-gradient-42" x1="1029.69" x2="1180.3" y1="848.39" y2="848.39" gradientTransform="matrix(1,0,0,1,0,0)" xlink:href="#linear-gradient"/><linearGradient id="linear-gradient-43" x1="885.92" x2="1034.08" y1="848.39" y2="848.39" gradientTransform="matrix(1,0,0,1,0,0)" xlink:href="#linear-gradient"/><linearGradient id="linear-gradient-44" x1="2409.41" x2="2562.39" y1="848.39" y2="848.39" xlink:href="#linear-gradient"/><linearGradient id="linear-gradient-45" x1="2261.65" x2="2414.63" y1="848.39" y2="848.39" xlink:href="#linear-gradient"/><linearGradient id="linear-gradient-46" x1="2115.46" x2="2267.02" y1="848.39" y2="848.39" xlink:href="#linear-gradient"/><linearGradient id="linear-gradient-47" x1="1967.3" x2="2118.86" y1="848.39" y2="848.39" xlink:href="#linear-gradient"/><linearGradient id="linear-gradient-48" x1="960" x2="960" y1="788.58" y2="919.07" xlink:href="#linear-gradient-12"/><linearGradient id="linear-gradient-49" x1="1835.37" x2="2005.96" y1="903.83" y2="903.83" xlink:href="#linear-gradient"/><linearGradient id="linear-gradient-50" x1="1699.57" x2="1872.83" y1="903.83" y2="903.83" gradientTransform="matrix(1,0,0,1,0,0)" xlink:href="#linear-gradient"/><linearGradient id="linear-gradient-51" x1="1532.22" x2="1705.48" y1="903.83" y2="903.83" gradientTransform="matrix(1,0,0,1,0,0)" xlink:href="#linear-gradient"/><linearGradient id="linear-gradient-52" x1="1366.64" x2="1538.3" y1="903.83" y2="903.83" gradientTransform="matrix(1,0,0,1,0,0)" xlink:href="#linear-gradient"/><linearGradient id="linear-gradient-53" x1="1198.82" x2="1370.49" y1="903.83" y2="903.83" gradientTransform="matrix(1,0,0,1,0,0)" xlink:href="#linear-gradient"/><linearGradient id="linear-gradient-54" x1="1038.93" x2="1209.52" y1="903.83" y2="903.83" gradientTransform="matrix(1,0,0,1,0,0)" xlink:href="#linear-gradient"/><linearGradient id="linear-gradient-55" x1="876.09" x2="1043.91" y1="903.83" y2="903.83" gradientTransform="matrix(1,0,0,1,0,0)" xlink:href="#linear-gradient"/><linearGradient id="linear-gradient-56" x1="2496.01" x2="2669.28" y1="903.83" y2="903.83" xlink:href="#linear-gradient"/><linearGradient id="linear-gradient-57" x1="2328.66" x2="2501.92" y1="903.83" y2="903.83" xlink:href="#linear-gradient"/><linearGradient id="linear-gradient-58" x1="2163.08" x2="2334.74" y1="903.83" y2="903.83" xlink:href="#linear-gradient"/><linearGradient id="linear-gradient-59" x1="1995.26" x2="2166.93" y1="903.83" y2="903.83" xlink:href="#linear-gradient"/><linearGradient id="linear-gradient-60" x1="960" x2="960" y1="836.1" y2="983.9" xlink:href="#linear-gradient-12"/><linearGradient id="linear-gradient-61" x1="1844.12" x2="2033.63" y1="983.9" y2="983.9" xlink:href="#linear-gradient"/><linearGradient id="linear-gradient-62" x1="1781.58" x2="1919.5" y1="983.9" y2="983.9" gradientTransform="matrix(1,0,0,1,0,0)" xlink:href="#linear-gradient"/><linearGradient id="linear-gradient-63" x1="1595.67" x2="1788.15" y1="983.9" y2="983.9" gradientTransform="matrix(1,0,0,1,0,0)" xlink:href="#linear-gradient"/><linearGradient id="linear-gradient-64" x1="1411.73" x2="1602.43" y1="983.9" y2="983.9" gradientTransform="matrix(1,0,0,1,0,0)" xlink:href="#linear-gradient"/><linearGradient id="linear-gradient-65" x1="1225.3" x2="1416" y1="983.9" y2="983.9" gradientTransform="matrix(1,0,0,1,0,0)" xlink:href="#linear-gradient"/><linearGradient id="linear-gradient-66" x1="1047.68" x2="1237.19" y1="983.9" y2="983.9" gradientTransform="matrix(1,0,0,1,0,0)" xlink:href="#linear-gradient"/><linearGradient id="linear-gradient-67" x1="866.79" x2="1053.21" y1="983.9" y2="983.9" gradientTransform="matrix(1,0,0,1,0,0)" xlink:href="#linear-gradient"/><linearGradient id="linear-gradient-68" x1=".27" x2="138.42" y1="983.9" y2="983.9" gradientTransform="matrix(1,0,0,1,0,0)" xlink:href="#linear-gradient"/><linearGradient id="linear-gradient-69" x1="2392.11" x2="2584.59" y1="983.9" y2="983.9" xlink:href="#linear-gradient"/><linearGradient id="linear-gradient-70" x1="2208.17" x2="2398.87" y1="983.9" y2="983.9" xlink:href="#linear-gradient"/><linearGradient id="linear-gradient-71" x1="2021.74" x2="2212.45" y1="983.9" y2="983.9" xlink:href="#linear-gradient"/><linearGradient id="linear-gradient-72" x1="959.75" x2="959.75" y1="908.65" y2="1078.87" xlink:href="#linear-gradient-12"/><radialGradient id="radial-gradient" cx="960" cy="5423.38" r="677.57" fx="960" fy="5423.38" gradientTransform="translate(0 -2970.75) scale(1 .61)" gradientUnits="userSpaceOnUse"><stop offset="0" stop-color="#fff"/><stop offset=".28" stop-color="#fbfbfb"/><stop offset=".51" stop-color="#f1f1f1"/><stop offset=".72" stop-color="#e0e0e0"/><stop offset=".92" stop-color="#c8c8c8"/><stop offset="1" stop-color="#bdbdbd"/></radialGradient></defs><rect width="1920.53" height="1082.02" x="-.53" class="cls-31"/><path d="M819.64,704.27l2.68-6.68c.07-.19.15-.38.23-.57v-.03s.01,0,.01,0c1.95-4.61,5.87-8.27,10.88-9.78h.01c22.79-6.89,47.11-6.89,69.91,0h.01c7.26,2.2,12.23,8.89,12.23,16.48v68.43h-94.4v-67.51l-1.56-.34Z" class="cls-6"/><path d="M1473.5,698.1l-8.88-7.32h0c-1.82-1.6-3.99-2.84-6.42-3.58h-.01c-22.79-6.89-47.11-6.89-69.91,0h-.01c-7.26,2.2-12.23,8.89-12.23,16.48v68.43h94.4v-68.43c0-1.39-.17-2.74-.48-4.05l3.55-1.53Z" class="cls-41"/><path d="M1379.36,698.1l-8.88-7.32h0c-1.82-1.6-3.99-2.84-6.42-3.58h-.01c-22.79-6.89-47.11-6.89-69.91,0h-.01c-7.26,2.2-12.23,8.89-12.23,16.48v68.43h94.4v-68.43c0-1.39-.17-2.74-.48-4.05l3.55-1.53Z" class="cls-46"/><path d="M1285.31,698.38l-7.41-7.07h0c-1.93-1.86-4.3-3.3-6.99-4.11h-.01c-22.79-6.89-47.11-6.89-69.91,0h-.01c-7.26,2.2-12.23,8.89-12.23,16.48v68.43h94.4v-68.43c0-1.65-.24-3.26-.68-4.79l2.84-.51Z" class="cls-74"/><path d="M1190.91,698.38l-7.41-7.07h0c-1.93-1.86-4.3-3.3-6.99-4.11h-.01c-22.79-6.89-47.11-6.89-69.91,0h-.01c-7.26,2.2-12.23,8.89-12.23,16.48v68.43h94.4v-68.43c0-1.65-.24-3.26-.68-4.79l2.84-.51Z" class="cls-16"/><path d="M1100.36,704.27l-2.68-6.68c-.07-.19-.15-.38-.23-.57v-.03s-.01,0-.01,0c-1.95-4.61-5.87-8.27-10.88-9.78h-.01c-22.79-6.89-47.11-6.89-69.91,0h-.01c-7.26,2.2-12.23,8.89-12.23,16.48v68.43h94.4v-67.51l1.56-.34Z" class="cls-12"/><path d="M1007.2,703.68c0-7.59-4.97-14.28-12.23-16.48h-.01c-22.79-6.89-47.11-6.89-69.91,0h-.01c-7.26,2.2-12.23,8.89-12.23,16.48v68.43h94.4v-68.43Z" class="cls-44"/><path d="M446.5,698.1l8.88-7.32h0c1.82-1.6,3.99-2.84,6.42-3.58h.01c22.79-6.89,47.11-6.89,69.91,0h.01c7.26,2.2,12.23,8.89,12.23,16.48v68.43h-94.4v-68.43c0-1.39.17-2.74.48-4.05l-3.55-1.53Z" class="cls-56"/><path d="M540.64,698.1l8.88-7.32h0c1.82-1.6,3.99-2.84,6.42-3.58h.01c22.79-6.89,47.11-6.89,69.91,0h.01c7.26,2.2,12.23,8.89,12.23,16.48v68.43h-94.4v-68.43c0-1.39.17-2.74.48-4.05l-3.55-1.53Z" class="cls-48"/><path d="M634.69,698.38l7.41-7.07h0c1.93-1.86,4.3-3.3,6.99-4.11h.01c22.79-6.89,47.11-6.89,69.91,0h.01c7.26,2.2,12.23,8.89,12.23,16.48v68.43h-94.4v-68.43c0-1.65.24-3.26.68-4.79l-2.84-.51Z" class="cls-72"/><path d="M729.09,698.38l7.41-7.07h0c1.93-1.86,4.3-3.3,6.99-4.11h.01c22.79-6.89,47.11-6.89,69.91,0h.01c7.26,2.2,12.23,8.89,12.23,16.48v68.43h-94.4v-68.43c0-1.65.24-3.26.68-4.79l-2.84-.51Z" class="cls-15"/><path d="M1466.73,694.21h-.01c-22.79-6.89-47.11-6.89-69.91,0h-.01c-6.58,1.99-11.28,7.67-12.1,14.36-.83-6.69-5.52-12.37-12.1-14.36h-.01c-22.79-6.89-47.11-6.89-69.91,0h-.01c-7.26,2.2-12.23,8.89-12.23,16.48v-.07c0-7.59-4.97-14.28-12.23-16.48h-.01c-22.79-6.89-47.11-6.89-69.91,0h-.01c-7.26,2.2-12.23,8.89-12.23,16.48,0-7.59-4.97-14.28-12.23-16.48h-.01c-22.79-6.89-47.11-6.89-69.91,0h-.01c-7.26,2.2-12.23,8.89-12.23,16.48v.07c0-7.59-4.97-14.28-12.24-16.48h-.01c-22.8-6.89-47.12-6.89-69.91,0h-.01c-7.26,2.2-12.24,8.89-12.24,16.48,0-7.59-4.97-14.28-12.24-16.48h-.01c-22.8-6.89-47.12-6.89-69.91,0h-.01c-7.26,2.2-12.24,8.89-12.24,16.48,0-7.59-4.97-14.28-12.24-16.48h-.01c-22.8-6.89-47.12-6.89-69.91,0h-.01c-6.31,1.91-10.9,7.22-12,13.56-1.07-6.37-5.67-11.71-12.01-13.62h-.01c-22.82-6.89-47.18-6.89-70,0h-.01c-7.27,2.2-12.25,8.89-12.25,16.48,0-7.59-4.98-14.28-12.25-16.48h-.01c-22.82-6.89-47.18-6.89-70,0h-.01c-7.27,2.2-12.25,8.89-12.25,16.48v.07c0-7.59-4.98-14.28-12.25-16.48h-.01c-22.82-6.89-47.18-6.89-70,0h-.01c-6.59,1.99-11.29,7.67-12.12,14.36-.83-6.69-5.53-12.37-12.12-14.36h-.01c-22.82-6.89-47.18-6.89-70,0h-.01c-7.27,2.2-12.25,8.89-12.25,16.48v61.43h188.79v-.07h188.57v.07h283.22v-.07h188.8v.07h188.54v-61.43c0-7.59-4.97-14.28-12.23-16.48Z" class="cls-2"/><path d="M798.73,735.7l3.07-7.68c.08-.22.17-.44.26-.65v-.04s.01,0,.01,0c2.24-5.3,6.74-9.5,12.5-11.24h.01c26.19-7.92,54.13-7.92,80.32,0h.01c8.35,2.53,14.06,10.22,14.06,18.94v78.63h-108.47v-77.56l-1.79-.39Z" class="cls-25"/><path d="M1550,728.62l-10.21-8.41h0c-2.09-1.84-4.58-3.27-7.37-4.11h-.01c-26.19-7.92-54.13-7.92-80.32,0h-.01c-8.35,2.53-14.06,10.22-14.06,18.94v78.63h108.47v-78.63c0-1.59-.19-3.15-.55-4.65l4.08-1.76Z" class="cls-40"/><path d="M1441.83,728.62l-10.21-8.41h0c-2.09-1.84-4.58-3.27-7.37-4.11h-.01c-26.19-7.92-54.13-7.92-80.32,0h-.01c-8.35,2.53-14.06,10.22-14.06,18.94v78.63h108.47v-78.63c0-1.59-.19-3.15-.55-4.65l4.08-1.76Z" class="cls-14"/><path d="M1333.78,728.93l-8.51-8.12h0c-2.21-2.14-4.94-3.79-8.03-4.72h-.01c-26.19-7.92-54.13-7.92-80.32,0h-.01c-8.35,2.53-14.06,10.22-14.06,18.94v78.63h108.47v-78.63c0-1.9-.27-3.74-.78-5.5l3.27-.59Z" class="cls-29"/><path d="M1225.31,728.93l-8.51-8.12h0c-2.21-2.14-4.94-3.79-8.03-4.72h-.01c-26.19-7.92-54.13-7.92-80.32,0h-.01c-8.35,2.53-14.06,10.22-14.06,18.94v78.63h108.47v-78.63c0-1.9-.27-3.74-.78-5.5l3.27-.59Z" class="cls-3"/><path d="M1121.27,735.7l-3.07-7.68c-.08-.22-.17-.44-.26-.65v-.04s-.01,0-.01,0c-2.24-5.3-6.74-9.5-12.5-11.24h-.01c-26.19-7.92-54.13-7.92-80.32,0h-.01c-8.35,2.53-14.06,10.22-14.06,18.94v78.63h108.47v-77.56l1.79-.39Z" class="cls-61"/><path d="M1014.23,735.03c0-8.72-5.71-16.41-14.06-18.93h-.01c-26.19-7.92-54.13-7.92-80.32,0h-.01c-8.35,2.53-14.06,10.22-14.06,18.94v78.63h108.47v-78.63Z" class="cls-4"/><path d="M370,728.62l10.21-8.41h0c2.09-1.84,4.58-3.27,7.37-4.11h.01c26.19-7.92,54.13-7.92,80.32,0h.01c8.35,2.53,14.06,10.22,14.06,18.94v78.63h-108.47v-78.63c0-1.59.19-3.15.55-4.65l-4.08-1.76Z" class="cls-39"/><path d="M478.17,728.62l10.21-8.41h0c2.09-1.84,4.58-3.27,7.37-4.11h.01c26.19-7.92,54.13-7.92,80.32,0h.01c8.35,2.53,14.06,10.22,14.06,18.94v78.63h-108.47v-78.63c0-1.59.19-3.15.55-4.65l-4.08-1.76Z" class="cls-11"/><path d="M586.22,728.93l8.51-8.12h0c2.21-2.14,4.94-3.79,8.03-4.72h.01c26.19-7.92,54.13-7.92,80.32,0h.01c8.35,2.53,14.06,10.22,14.06,18.94v78.63h-108.47v-78.63c0-1.9.27-3.74.78-5.5l-3.27-.59Z" class="cls-30"/><path d="M694.69,728.93l8.51-8.12h0c2.21-2.14,4.94-3.79,8.03-4.72h.01c26.19-7.92,54.13-7.92,80.32,0h.01c8.35,2.53,14.06,10.22,14.06,18.94v78.63h-108.47v-78.63c0-1.9.27-3.74.78-5.5l-3.27-.59Z" class="cls-26"/><path d="M1542.22,724.14h-.01c-26.19-7.92-54.13-7.92-80.32,0h-.01c-7.56,2.29-12.96,8.81-13.91,16.5-.95-7.69-6.35-14.22-13.91-16.5h-.01c-26.19-7.92-54.13-7.92-80.32,0h-.01c-8.35,2.53-14.06,10.22-14.06,18.94v-.08c0-8.72-5.71-16.41-14.06-18.93h-.01c-26.19-7.92-54.13-7.92-80.32,0h-.01c-8.35,2.53-14.06,10.22-14.06,18.94,0-8.72-5.71-16.41-14.06-18.93h-.01c-26.19-7.92-54.13-7.92-80.32,0h-.01c-8.35,2.53-14.06,10.22-14.06,18.94v.08c0-8.72-5.71-16.41-14.06-18.93h-.01c-26.19-7.92-54.13-7.92-80.33,0h-.01c-8.35,2.53-14.06,10.22-14.06,18.94,0-8.72-5.71-16.41-14.06-18.93h-.01c-26.19-7.92-54.13-7.92-80.33,0h-.01c-8.35,2.53-14.06,10.22-14.06,18.94,0-8.72-5.71-16.41-14.06-18.93h-.01c-26.19-7.92-54.13-7.92-80.33,0h-.01c-8.35,2.53-14.08,10.23-14.08,18.95v-.09c0-8.72-5.71-16.41-14.06-18.93h-.01c-26.19-7.92-54.13-7.92-80.33,0h-.01c-8.35,2.53-14.06,10.22-14.06,18.94,0-8.72-5.71-16.41-14.06-18.93h-.01c-26.19-7.92-54.13-7.92-80.33,0h-.01c-8.35,2.53-14.06,10.22-14.06,18.94v.08c0-8.72-5.71-16.41-14.06-18.93h-.01c-26.19-7.92-54.13-7.92-80.32,0h-.01c-7.56,2.29-12.96,8.81-13.91,16.5-.95-7.69-6.35-14.22-13.91-16.5h-.01c-26.19-7.92-54.13-7.92-80.32,0h-.01c-8.35,2.53-14.06,10.22-14.06,18.94v70.58h216.63v-.08h216.38v.08s109.04,0,109.04,0h216.94v-.08h216.93v.08h216.63v-70.58c0-8.72-5.71-16.41-14.06-18.93Z" class="cls-58"/><path d="M771.29,768.73l3.6-8.98c.1-.26.2-.51.31-.76l.02-.04h0c2.62-6.2,7.89-11.11,14.63-13.15h.02c30.64-9.26,63.34-9.26,93.99,0h.02c9.77,2.96,16.45,11.95,16.45,22.16v92h-126.92v-90.76l-2.1-.46Z" class="cls-27"/><path d="M1650.36,760.44l-11.94-9.84h0c-2.44-2.16-5.36-3.82-8.63-4.81h-.02c-30.64-9.26-63.34-9.26-93.99,0h-.02c-9.77,2.96-16.45,11.95-16.45,22.16v92h126.92v-92c0-1.87-.22-3.69-.65-5.45l4.77-2.06Z" class="cls-59"/><path d="M1523.8,760.44l-11.94-9.84h0c-2.44-2.16-5.36-3.82-8.63-4.81h-.02c-30.64-9.26-63.34-9.26-93.99,0h-.02c-9.77,2.96-16.45,11.95-16.45,22.16v92h126.92v-92c0-1.87-.22-3.69-.65-5.45l4.77-2.06Z" class="cls-49"/><path d="M1397.36,760.82l-9.96-9.5h0c-2.59-2.51-5.78-4.43-9.4-5.52h-.02c-30.64-9.26-63.34-9.26-93.99,0h-.02c-9.77,2.96-16.45,11.95-16.45,22.16v92h126.92v-92c0-2.22-.32-4.38-.91-6.44l3.82-.69Z" class="cls-70"/><path d="M1270.44,760.82l-9.96-9.5h0c-2.59-2.51-5.78-4.43-9.4-5.52h-.02c-30.64-9.26-63.34-9.26-93.99,0h-.02c-9.77,2.96-16.45,11.95-16.45,22.16v92h126.92v-92c0-2.22-.32-4.38-.91-6.44l3.82-.69Z" class="cls-67"/><path d="M1148.71,768.73l-3.6-8.98c-.1-.26-.2-.51-.31-.76l-.02-.04h0c-2.62-6.2-7.89-11.11-14.63-13.15h-.02c-30.64-9.26-63.34-9.26-93.99,0h-.02c-9.77,2.96-16.45,11.95-16.45,22.16v92h126.92v-90.76l2.1-.46Z" class="cls-63"/><path d="M1023.46,767.94c0-10.2-6.68-19.2-16.45-22.15h-.02c-30.64-9.26-63.34-9.26-93.99,0h-.02c-9.77,2.96-16.45,11.95-16.45,22.16v92h126.92v-92Z" class="cls-17"/><path d="M269.64,760.44l11.94-9.84h0c2.44-2.16,5.36-3.82,8.63-4.81h.02c30.64-9.26,63.34-9.26,93.99,0h.02c9.77,2.96,16.45,11.95,16.45,22.16v92h-126.92v-92c0-1.87.22-3.69.65-5.45l-4.77-2.06Z" class="cls-36"/><path d="M396.2,760.44l11.94-9.84h0c2.44-2.16,5.36-3.82,8.63-4.81h.02c30.64-9.26,63.34-9.26,93.99,0h.02c9.77,2.96,16.45,11.95,16.45,22.16v92h-126.92v-92c0-1.87.22-3.69.65-5.45l-4.77-2.06Z" class="cls-5"/><path d="M522.64,760.82l9.96-9.5h0c2.59-2.51,5.78-4.43,9.4-5.52h.02c30.64-9.26,63.34-9.26,93.99,0h.02c9.77,2.96,16.45,11.95,16.45,22.16v92h-126.92v-92c0-2.22.32-4.38.91-6.44l-3.82-.69Z" class="cls-21"/><path d="M649.56,760.82l9.96-9.5h0c2.59-2.51,5.78-4.43,9.4-5.52h.02c30.64-9.26,63.34-9.26,93.99,0h.02c9.77,2.96,16.45,11.95,16.45,22.16v92h-126.92v-92c0-2.22.32-4.38.91-6.44l-3.82-.69Z" class="cls-34"/><path d="M1641.26,755.2h-.02c-30.64-9.26-63.34-9.26-93.99,0h-.02c-8.85,2.68-15.16,10.31-16.27,19.31-1.11-9-7.43-16.63-16.27-19.31h-.02c-30.64-9.26-63.34-9.26-93.99,0h-.02c-9.77,2.96-16.45,11.95-16.45,22.16v-.09c0-10.2-6.68-19.2-16.45-22.15h-.02c-30.64-9.26-63.34-9.26-93.99,0h-.02c-9.77,2.95-16.45,11.95-16.45,22.16,0-10.2-6.68-19.2-16.45-22.15h-.02c-30.64-9.26-63.34-9.26-93.99,0h-.02c-9.77,2.96-16.45,11.95-16.45,22.16v.09c0-10.2-6.68-19.2-16.45-22.15h-.02c-30.65-9.26-63.34-9.26-93.99,0h-.02c-9.77,2.96-16.45,11.95-16.45,22.16,0-10.2-6.68-19.2-16.45-22.15h-.02c-30.65-9.26-63.34-9.26-93.99,0h-.02c-9.77,2.96-16.45,11.95-16.45,22.16,0-10.2-6.68-19.2-16.45-22.15h-.02c-30.65-9.26-63.34-9.26-93.99,0h-.02c-9.77,2.96-16.47,11.96-16.47,22.16v-.09c0-10.2-6.68-19.2-16.45-22.15h-.02c-30.65-9.26-63.34-9.26-93.99,0h-.02c-9.77,2.95-16.45,11.95-16.45,22.16,0-10.2-6.68-19.2-16.45-22.15h-.02c-30.65-9.26-63.34-9.26-93.99,0h-.02c-9.77,2.96-16.45,11.95-16.45,22.16v.09c0-10.2-6.68-19.2-16.45-22.15h-.02c-30.65-9.26-63.34-9.26-93.99,0h-.02c-8.85,2.68-15.16,10.31-16.27,19.31-1.11-9-7.43-16.63-16.27-19.31h-.02c-30.65-9.26-63.34-9.26-93.99,0h-.02c-9.77,2.96-16.45,11.95-16.45,22.16v82.59h253.49v-.09h253.84l126.94.09h253.84v-.09h253.83v.09h253.48v-82.59c0-10.2-6.68-19.2-16.45-22.15Z" class="cls-53"/><path d="M739.7,812.59l4.2-10.49c.11-.3.23-.6.36-.89l.02-.05h0c3.06-7.24,9.21-12.98,17.08-15.35h.02c35.78-10.81,73.95-10.81,109.72,0h.02c11.4,3.45,19.2,13.95,19.2,25.87v107.4h-148.16v-105.95l-2.45-.53Z" class="cls-75"/><path d="M1765.94,802.91l-13.94-11.49h0c-2.85-2.52-6.26-4.46-10.07-5.61h-.02c-35.78-10.81-73.95-10.81-109.72,0h-.02c-11.4,3.45-19.2,13.95-19.2,25.87v107.4h148.16v-107.4c0-2.18-.26-4.31-.76-6.36l5.57-2.4Z" class="cls-1"/><path d="M1618.19,802.91l-13.94-11.49h0c-2.85-2.52-6.26-4.46-10.07-5.61h-.02c-35.78-10.81-73.95-10.81-109.72,0h-.02c-11.4,3.45-19.2,13.95-19.2,25.87v107.4h148.16v-107.4c0-2.18-.26-4.31-.76-6.36l5.57-2.4Z" class="cls-45"/><path d="M1470.58,803.35l-11.63-11.09h0c-3.02-2.93-6.75-5.17-10.97-6.45h-.02c-35.78-10.81-73.95-10.81-109.72,0h-.02c-11.4,3.45-19.2,13.95-19.2,25.87v107.4h148.16v-107.4c0-2.59-.37-5.12-1.06-7.52l4.46-.81Z" class="cls-23"/><path d="M1322.42,803.35l-11.63-11.09h0c-3.02-2.93-6.75-5.17-10.97-6.45h-.02c-35.78-10.81-73.95-10.81-109.72,0h-.02c-11.4,3.45-19.2,13.95-19.2,25.87v107.4h148.16v-107.4c0-2.59-.37-5.12-1.06-7.52l4.46-.81Z" class="cls-22"/><path d="M1180.3,812.59l-4.2-10.49c-.11-.3-.23-.6-.36-.89l-.02-.05h0c-3.06-7.24-9.21-12.98-17.08-15.35h-.02c-35.78-10.81-73.95-10.81-109.72,0h-.02c-11.4,3.45-19.2,13.95-19.2,25.87v107.4h148.16v-105.95l2.45-.53Z" class="cls-13"/><path d="M1034.08,811.67c0-11.91-7.8-22.42-19.2-25.86h-.02c-35.78-10.81-73.95-10.81-109.72,0h-.02c-11.4,3.45-19.2,13.95-19.2,25.87v107.4h148.16v-107.4Z" class="cls-28"/><path d="M154.06,802.91l13.94-11.49h0c2.85-2.52,6.26-4.46,10.07-5.61h.02c35.78-10.81,73.95-10.81,109.72,0h.02c11.4,3.45,19.2,13.95,19.2,25.87v107.4h-148.16v-107.4c0-2.18.26-4.31.76-6.36l-5.57-2.4Z" class="cls-64"/><path d="M301.81,802.91l13.94-11.49h0c2.85-2.52,6.26-4.46,10.07-5.61h.02c35.78-10.81,73.95-10.81,109.72,0h.02c11.4,3.45,19.2,13.95,19.2,25.87v107.4h-148.16v-107.4c0-2.18.26-4.31.76-6.36l-5.57-2.4Z" class="cls-43"/><path d="M449.42,803.35l11.63-11.09h0c3.02-2.93,6.75-5.17,10.97-6.45h.02c35.78-10.81,73.95-10.81,109.72,0h.02c11.4,3.45,19.2,13.95,19.2,25.87v107.4h-148.16v-107.4c0-2.59.37-5.12,1.06-7.52l-4.46-.81Z" class="cls-68"/><path d="M597.58,803.35l11.63-11.09h0c3.02-2.93,6.75-5.17,10.97-6.45h.02c35.78-10.81,73.95-10.81,109.72,0h.02c11.4,3.45,19.2,13.95,19.2,25.87v107.4h-148.16v-107.4c0-2.59.37-5.12,1.06-7.52l-4.46-.81Z" class="cls-57"/><path d="M1755.32,796.8h-.02c-35.78-10.81-73.95-10.81-109.72,0h-.02c-10.33,3.13-17.7,12.04-19,22.54-1.3-10.5-8.67-19.42-19-22.54h-.02c-35.78-10.81-73.95-10.81-109.72,0h-.02c-11.4,3.45-19.2,13.95-19.2,25.87v-.1c0-11.91-7.8-22.42-19.2-25.86h-.02c-35.78-10.81-73.95-10.81-109.72,0h-.02c-11.4,3.45-19.2,13.95-19.2,25.87,0-11.91-7.8-22.42-19.2-25.86h-.02c-35.78-10.81-73.95-10.81-109.72,0h-.02c-11.4,3.45-19.2,13.95-19.2,25.87v.1c0-11.91-7.8-22.42-19.2-25.86h-.02c-35.78-10.81-73.95-10.81-109.73,0h-.02c-11.4,3.45-19.2,13.95-19.2,25.87,0-11.91-7.8-22.42-19.2-25.86h-.02c-35.78-10.81-73.95-10.81-109.73,0h-.02c-11.4,3.45-19.2,13.95-19.2,25.87,0-11.91-7.8-22.42-19.2-25.86h-.02c-35.78-10.81-73.95-10.81-109.73,0h-.02c-9.82,2.97-16.99,11.19-18.78,21.02-1.76-9.88-8.93-18.14-18.81-21.12h-.02c-35.83-10.81-74.05-10.81-109.88,0h-.02c-11.42,3.45-19.23,13.95-19.23,25.87,0-11.91-7.81-22.42-19.23-25.86h-.02c-35.83-10.81-74.05-10.81-109.88,0h-.02c-11.42,3.45-19.23,13.95-19.23,25.87v.1c0-11.91-7.81-22.42-19.23-25.86h-.02c-35.83-10.81-74.05-10.81-109.88,0h-.02c-10.34,3.13-17.73,12.04-19.03,22.54-1.3-10.5-8.68-19.42-19.03-22.54h-.02c-35.83-10.81-74.05-10.81-109.88,0h-.02c-11.42,3.45-19.23,13.95-19.23,25.87v96.42h296.35v-.1h295.92v.1h444.52v-.1h296.33v.1h295.92v-96.42c0-11.91-7.8-22.42-19.2-25.86Z" class="cls-54"/><path d="M710.48,863.29l4.76-11.88c.13-.34.26-.68.4-1.01l.02-.06h0c3.47-8.2,10.43-14.7,19.34-17.39h.02c40.52-12.25,83.75-12.25,124.27,0h.02c12.91,3.91,21.75,15.81,21.75,29.3v121.65h-167.82v-120l-2.77-.6Z" class="cls-55"/><path d="M1872.83,852.33l-15.79-13.02h0c-3.23-2.85-7.09-5.05-11.41-6.36h-.02c-40.52-12.25-83.75-12.25-124.27,0h-.02c-12.91,3.91-21.75,15.81-21.75,29.3v121.65h167.82v-121.65c0-2.47-.3-4.88-.86-7.2l6.31-2.72Z" class="cls-35"/><path d="M1705.48,852.33l-15.79-13.02h0c-3.23-2.85-7.09-5.05-11.41-6.36h-.02c-40.52-12.25-83.75-12.25-124.27,0h-.02c-12.91,3.91-21.75,15.81-21.75,29.3v121.65h167.82v-121.65c0-2.47-.3-4.88-.86-7.2l6.31-2.72Z" class="cls-62"/><path d="M1538.3,852.82l-13.17-12.56h0c-3.42-3.31-7.65-5.86-12.43-7.3h-.02c-40.52-12.25-83.75-12.25-124.27,0h-.02c-12.91,3.91-21.75,15.81-21.75,29.3v121.65h167.82v-121.65c0-2.93-.42-5.79-1.21-8.51l5.06-.91Z" class="cls-42"/><path d="M1370.49,852.82l-13.17-12.56h0c-3.42-3.31-7.65-5.86-12.43-7.3h-.02c-40.52-12.25-83.75-12.25-124.27,0h-.02c-12.91,3.91-21.75,15.81-21.75,29.3v121.65h167.82v-121.65c0-2.93-.42-5.79-1.21-8.51l5.06-.91Z" class="cls-51"/><path d="M1209.52,863.29l-4.76-11.88c-.13-.34-.26-.68-.4-1.01l-.02-.06h0c-3.47-8.2-10.43-14.7-19.34-17.39h-.02c-40.52-12.25-83.75-12.25-124.27,0h-.02c-12.91,3.91-21.75,15.81-21.75,29.3v121.65h167.82v-120l2.77-.6Z" class="cls-32"/><path d="M1043.91,862.25c0-13.49-8.84-25.39-21.75-29.29h-.02c-40.52-12.25-83.75-12.25-124.27,0h-.02c-12.91,3.91-21.75,15.81-21.75,29.3v121.65h167.82v-121.65Z" class="cls-33"/><path d="M47.17,852.33l15.79-13.02h0c3.23-2.85,7.09-5.05,11.41-6.36h.02c40.52-12.25,83.75-12.25,124.27,0h.02c12.91,3.91,21.75,15.81,21.75,29.3v121.65H52.61v-121.65c0-2.47.3-4.88.86-7.2l-6.31-2.72Z" class="cls-71"/><path d="M214.52,852.33l15.79-13.02h0c3.23-2.85,7.09-5.05,11.41-6.36h.02c40.52-12.25,83.75-12.25,124.27,0h.02c12.91,3.91,21.75,15.81,21.75,29.3v121.65h-167.82v-121.65c0-2.47.3-4.88.86-7.2l-6.31-2.72Z" class="cls-10"/><path d="M381.7,852.82l13.17-12.56h0c3.42-3.31,7.65-5.86,12.43-7.3h.02c40.52-12.25,83.75-12.25,124.27,0h.02c12.91,3.91,21.75,15.81,21.75,29.3v121.65h-167.82v-121.65c0-2.93.42-5.79,1.21-8.51l-5.06-.91Z" class="cls-19"/><path d="M549.51,852.82l13.17-12.56h0c3.42-3.31,7.65-5.86,12.43-7.3h.02c40.52-12.25,83.75-12.25,124.27,0h.02c12.91,3.91,21.75,15.81,21.75,29.3v121.65h-167.82v-121.65c0-2.93.42-5.79,1.21-8.51l-5.06-.91Z" class="cls-38"/><path d="M1860.8,845.4h-.02c-40.52-12.25-83.75-12.25-124.27,0h-.02c-11.7,3.54-20.05,13.64-21.52,25.53-1.47-11.9-9.82-21.99-21.52-25.53h-.02c-40.52-12.25-83.75-12.25-124.27,0h-.02c-12.05,3.65-20.54,14.24-21.63,26.6-1.05-12.41-9.56-23.06-21.64-26.71h-.02c-40.53-12.25-83.77-12.25-124.29,0h-.02c-12.92,3.91-21.75,15.81-21.75,29.3,0-13.49-8.84-25.39-21.75-29.29h-.02c-40.53-12.25-83.77-12.25-124.29,0h-.02c-12.6,3.81-21.31,15.23-21.73,28.31-.47-13.03-9.17-24.39-21.74-28.19h-.02c-40.54-12.25-83.8-12.25-124.34,0h-.02c-12.92,3.91-21.76,15.81-21.76,29.3,0-13.49-8.84-25.39-21.75-29.29h-.02c-40.53-12.25-83.77-12.25-124.29,0h-.02c-12.92,3.91-21.75,15.81-21.75,29.3,0-13.49-8.84-25.39-21.76-29.29h-.02c-40.53-12.25-83.78-12.25-124.31,0h-.02c-11.52,3.49-19.79,13.33-21.45,24.99-1.62-11.71-9.94-21.61-21.54-25.1h-.02c-40.67-12.25-84.07-12.25-124.74,0h-.02c-12.96,3.91-21.83,15.81-21.83,29.3,0-13.49-8.84-25.39-21.75-29.29h-.02c-40.53-12.25-83.77-12.25-124.29,0h-.02c-11.86,3.59-20.27,13.91-21.57,26.02-1.34-12.06-9.76-22.33-21.61-25.9h-.02c-40.62-12.25-83.95-12.25-124.57,0h-.02c-11.73,3.54-20.1,13.64-21.57,25.54-1.47-11.9-9.82-22-21.52-25.53h-.02c-40.53-12.25-83.77-12.25-124.29,0h-.02c-12.92,3.91-21.75,15.81-21.75,29.3v109.2h335.59v-.12h335.31v.12h503.62v-.12h335.41v.12h335.17v-109.2c0-13.49-8.84-25.39-21.75-29.29Z" class="cls-37"/><path d="M682.81,938.85l5.28-13.2c.14-.38.29-.75.45-1.12l.02-.06h0c3.85-9.11,11.59-16.33,21.48-19.31h.02c45.01-13.6,93.04-13.6,138.05,0h.02c14.35,4.34,24.16,17.56,24.16,32.54v135.14h-186.42v-133.31l-3.08-.67Z" class="cls-60"/><path d="M1919.5,899.18v173.65h-137.92v-135.14c0-1.41.09-2.8.26-4.17h0c.19-1.53.48-3.03.87-4.5.48-1.81,1.1-3.57,1.86-5.26,0,0,0-.01,0-.02,3.95-8.76,11.54-15.67,21.16-18.58h.02c20.12-6.08,40.84-9.44,61.62-10.09,5.05-.16,10.11-.15,15.16.01,12.38.4,24.73,1.77,36.95,4.1Z" class="cls-7"/><path d="M1788.15,926.68l-17.54-14.46h0c-3.59-3.17-7.87-5.61-12.67-7.06h-.02c-45.01-13.6-93.04-13.6-138.05,0h-.02c-14.35,4.34-24.16,17.56-24.16,32.54v135.14h186.42v-135.14c0-2.74-.33-5.42-.95-8l7.01-3.02Z" class="cls-20"/><path d="M1602.43,927.23l-14.63-13.95h0c-3.8-3.68-8.49-6.51-13.81-8.11h-.02c-45.01-13.6-93.04-13.6-138.05,0h-.02c-14.35,4.34-24.16,17.56-24.16,32.54v135.14h186.42v-135.14c0-3.26-.46-6.44-1.34-9.46l5.62-1.02Z" class="cls-69"/><path d="M1416,927.23l-14.63-13.95h0c-3.8-3.68-8.49-6.51-13.81-8.11h-.02c-45.01-13.6-93.04-13.6-138.05,0h-.02c-14.35,4.34-24.16,17.56-24.16,32.54v135.14h186.42v-135.14c0-3.26-.46-6.44-1.34-9.46l5.62-1.02Z" class="cls-52"/><path d="M1237.19,938.85l-5.28-13.2c-.14-.38-.29-.75-.45-1.12l-.02-.06h0c-3.85-9.11-11.59-16.33-21.48-19.31h-.02c-45.01-13.6-93.04-13.6-138.05,0h-.02c-14.35,4.34-24.16,17.56-24.16,32.54v135.14h186.42v-133.31l3.08-.67Z" class="cls-24"/><path d="M1053.21,937.7c0-14.99-9.81-28.2-24.16-32.54h-.02c-45.01-13.6-93.04-13.6-138.05,0h-.02c-14.35,4.34-24.16,17.56-24.16,32.54v135.14h186.42v-135.14Z" class="cls-9"/><path d="M138.42,937.7v135.14H.27v-173.65c12.24-2.33,24.61-3.7,37.01-4.1,5.06-.17,10.13-.17,15.19-.01,20.82.65,41.57,4.01,61.73,10.08h.02c9.64,2.92,17.24,9.83,21.2,18.59,0,0,0,.02,0,.02.76,1.69,1.39,3.45,1.87,5.26.39,1.47.68,2.97.87,4.5h0c.17,1.37.26,2.77.26,4.17Z" class="cls-65"/><path d="M131.85,926.68l17.54-14.46h0c3.59-3.17,7.87-5.61,12.67-7.06h.02c45.01-13.6,93.04-13.6,138.05,0h.02c14.35,4.34,24.16,17.56,24.16,32.54v135.14h-186.42v-135.14c0-2.74.33-5.42.95-8l-7.01-3.02Z" class="cls-47"/><path d="M317.57,927.23l14.63-13.95h0c3.8-3.68,8.49-6.51,13.81-8.11h.02c45.01-13.6,93.04-13.6,138.05,0h.02c14.35,4.34,24.16,17.56,24.16,32.54v135.14h-186.42v-135.14c0-3.26.46-6.44,1.34-9.46l-5.62-1.02Z" class="cls-73"/><path d="M504,927.23l14.63-13.95h0c3.8-3.68,8.49-6.51,13.81-8.11h.02c45.01-13.6,93.04-13.6,138.05,0h.02c14.35,4.34,24.16,17.56,24.16,32.54v135.14h-186.42v-135.14c0-3.26.46-6.44,1.34-9.46l-5.62-1.02Z" class="cls-18"/><path d="M1882.54,908.96c-5.06.2-10.12.57-15.17,1.1-15.11,1.6-30.11,4.7-44.79,9.29h-.02c-13,4.08-22.28,15.7-23.91,29.41h0c-1.63-13.7-10.91-25.33-23.91-29.4h-.02c-45.03-14.1-93.06-14.1-138.09,0h-.02c-13.06,4.1-22.37,15.82-23.93,29.61-1.52-13.85-10.85-25.63-23.95-29.74h-.02c-45.04-14.1-93.09-14.1-138.13,0h-.02c-14.35,4.5-24.17,18.2-24.17,33.74,0-15.54-9.82-29.24-24.17-33.73h-.02c-45.04-14.1-93.09-14.1-138.13,0h-.02c-14.35,4.5-24.17,18.2-24.17,33.74v.13c0-15.54-9.82-29.24-24.18-33.73h-.02c-45.05-14.1-93.11-14.1-138.15,0h-.02c-14.36,4.5-24.18,18.2-24.18,33.74,0-15.54-9.82-29.24-24.17-33.73h-.02c-45.04-14.1-93.09-14.1-138.13,0h-.02c-14.35,4.5-24.17,18.2-24.17,33.74,0-15.54-9.82-29.24-24.18-33.73h-.02c-45.05-14.1-93.11-14.1-138.15,0h-.02c-14.36,4.5-24.18,18.2-24.18,33.74v-.13c0-15.54-9.82-29.24-24.17-33.73h-.02c-45.04-14.1-93.09-14.1-138.13,0h-.02c-14.35,4.5-24.17,18.2-24.17,33.74,0-15.54-9.82-29.24-24.17-33.73h-.02c-45.04-14.1-93.09-14.1-138.13,0h-.02c-14.35,4.5-24.17,18.2-24.17,33.74v.13c0-15.54-9.82-29.24-24.17-33.73h-.02c-45.04-14.1-93.09-14.1-138.13,0h-.02c-13,4.08-22.29,15.71-23.92,29.41,0,0,0,0,0,0-1.63-13.7-10.92-25.33-23.92-29.4h-.02c-14.68-4.6-29.69-7.7-44.8-9.3-5.05-.53-10.11-.9-15.17-1.1-12.33-.49-24.69.02-36.97,1.51v168.39h120.62s186.52,0,186.52,0v-.13h373.05v.13h559.64v-.13h372.59v.13h186.47s120.59,0,120.59,0v-168.39c-12.27-1.5-24.63-2-36.96-1.51Z" class="cls-66"/><path d="M1534.43,77.58H385.57c-3,0-5.43,2.68-5.43,5.98v526.53c0,3.3,2.43,5.98,5.43,5.98h1148.87c3,0,5.43-2.68,5.43-5.98V83.56c0-3.3-2.43-5.98-5.43-5.98Z" class="cls-50"/><rect width="1161.44" height="542.11" x="380.13" y="74.87" class="cls-8" rx="8.35" ry="8.35"/></svg>