<svg xmlns="http://www.w3.org/2000/svg" xmlns:xlink="http://www.w3.org/1999/xlink" id="BOOK_FLIP" version="1.1" viewBox="0 0 660 793"><defs><style>.cls-1{fill:#b6998d}.cls-1,.cls-2,.cls-3,.cls-4,.cls-5,.cls-6,.cls-7,.cls-8,.cls-9{stroke-width:0}.cls-1,.cls-4{opacity:.4}.cls-10{stroke:#d9b39b}.cls-10,.cls-11,.cls-12,.cls-13,.cls-14{stroke-miterlimit:10}.cls-10,.cls-12,.cls-13,.cls-14{fill:none;stroke-width:8px}.cls-2{fill:url(#linear-gradient)}.cls-3{fill:#231f20}.cls-4{fill:#b59a8e}.cls-5{fill:#fdfefe}.cls-6{fill:#fbdaca}.cls-15{opacity:.1}.cls-7{fill:url(#linear-gradient-2)}.cls-8{fill:url(#linear-gradient-3)}.cls-11{fill:#dd8426;stroke:#613600;stroke-width:5px}.cls-9{fill:#ecc9b7}.cls-12{stroke:#b9977f}.cls-13{stroke:#8f7a6b}.cls-14{stroke:#ddb9a1}</style><linearGradient id="linear-gradient" x1="35" x2="333" y1="248.5" y2="248.5" gradientUnits="userSpaceOnUse"><stop offset="0" stop-color="#fff" stop-opacity="0"/><stop offset="1" stop-color="rgba(24, 22, 25, .2)" stop-opacity=".2"/><stop offset="1" stop-color="#09070a" stop-opacity=".2"/></linearGradient><linearGradient id="linear-gradient-2" x1="-2315" x2="-2017" y1="3096.5" y2="3096.5" gradientTransform="translate(2648 -2848)" xlink:href="#linear-gradient"/><linearGradient id="linear-gradient-3" x1="-2315" x2="-2017" y1="3096.5" y2="3096.5" gradientTransform="translate(2648 -2848)" xlink:href="#linear-gradient"/></defs><path d="M156.7,517.1h305.6v107.8c0,84.3-68.5,152.8-152.8,152.8h0c-84.3,0-152.8-68.5-152.8-152.8v-107.8h0Z" class="cls-9" transform="translate(129.3 -47.2) rotate(11)"/><path d="M272.8,317.9h0c18.4,0,33.4,15,33.4,33.4v199.1h-66.8v-199.1c0-18.4,15-33.4,33.4-33.4Z" class="cls-9" transform="translate(87.9 -44.1) rotate(11)"/><path d="M342.8,286.5h0c18.4,0,33.4,15,33.4,33.4v199.1h-66.8v-199.1c0-18.4,15-33.4,33.4-33.4Z" class="cls-9" transform="translate(83.2 -58) rotate(11)"/><path d="M404.8,317.4h0c18.4,0,33.4,15,33.4,33.4v199.1h-66.8v-199.1c0-18.4,15-33.4,33.4-33.4Z" class="cls-9" transform="translate(90.2 -69.3) rotate(11)"/><path d="M456.8,399.6h0c18.4,0,33.4,15,33.4,33.4v199.1h-66.8v-199.1c0-18.4,15-33.4,33.4-33.4Z" class="cls-9" transform="translate(106.9 -77.7) rotate(11)"/><g><path d="M281.8,499.9c12.3-11.5,44.9-13.4,83-.8,16.2,5.4,48,7.4,73,43.7" class="cls-13"/><path d="M281.8,499.9c12.3-11.5,44.9-13.4,83-.8,16.2,5.4,48,7.4,73,43.7" class="cls-14"/></g><g><path d="M374.5,673.6c-4.1-11.1,2.3-27.1,18.7-38.7,7-4.9,15.6-18.6,43.4-13" class="cls-13"/><path d="M374.5,673.6c-4.1-11.1,2.3-27.1,18.7-38.7,7-4.9,15.6-18.6,43.4-13" class="cls-14"/></g><g><path d="M300,493.1c.5-8.6-.6-16,4.2-47.9,2-13.1,9.9-50.2,14.2-78.8" class="cls-13"/><path d="M300,493.1c.5-8.6-.6-16,4.2-47.9,2-13.1,9.9-50.2,14.2-78.8" class="cls-12"/></g><g><path d="M363.4,499.7c.7-9.3,3-34.3,8.2-68.6,2.1-14.1,7.3-36.9,12.1-67.6" class="cls-13"/><path d="M363.4,499.7c.7-9.3,3-34.3,8.2-68.6,2.1-14.1,7.3-36.9,12.1-67.6" class="cls-10"/></g><g><path d="M421.2,525.2c.4-5.9,2-21.9,6.1-43.6,1.7-8.9,6.1-23,9.9-42.4" class="cls-13"/><path d="M421.2,525.2c.4-5.9,2-21.9,6.1-43.6,1.7-8.9,6.1-23,9.9-42.4" class="cls-14"/></g><circle cx="257.2" cy="644.7" r="93.5" class="cls-4"/><rect width="627" height="475" x="17" y="19.5" class="cls-11" rx="7.7" ry="7.7"/><g class="cls-15"><image width="2805" height="2217" transform="translate(-4.1 -9) scale(.2)" xlink:href="chapter4simbolos_folhear-03-1.png"/></g><rect width="601" height="463" x="31" y="17" class="cls-5"/><path d="M215.5,429.5h0c18.4,0,33.4,15,33.4,33.4v167.4h-66.8v-167.4c0-18.4,15-33.4,33.4-33.4Z" class="cls-1" transform="translate(105.2 -31.4) rotate(11)"/><rect width="298" height="463" x="35" y="17" class="cls-2"/><rect width="298" height="463" x="333" y="17" class="cls-7" transform="translate(964 497) rotate(180)"/><rect width="298" height="463" x="333" y="17" class="cls-8" transform="translate(964 497) rotate(180)"/><circle cx="249.2" cy="644.7" r="93.5" class="cls-6"/><path d="M212.5,421.9h0c18.4,0,33.4,15,33.4,33.4v167.4h-66.8v-167.4c0-18.4,15-33.4,33.4-33.4Z" class="cls-6" transform="translate(103.6 -31) rotate(11)"/><g><path d="M415.4,110.8h-5.4v-2.7h13.9v2.7h-5.4v13.3h-3.1v-13.3Z" class="cls-3"/><path d="M424.9,112.9h2.7v1.8c.5-.6,1-1.1,1.6-1.4.6-.3,1.3-.5,2-.5s.4,0,.6,0,.4,0,.6.1l-.4,2.6c-.2,0-.4-.1-.6-.2-.2,0-.4,0-.6,0-.9,0-1.6.3-2.2.9-.6.6-.9,1.3-.9,2.3v5.6h-2.9v-11.2Z" class="cls-3"/><path d="M434,108.3h3.1v2.8h-3.1v-2.8ZM434.1,112.9h2.9v11.2h-2.9v-11.2Z" class="cls-3"/><path d="M439.7,108.1h2.9v16h-2.9v-16Z" class="cls-3"/><path d="M445.4,108.1h2.9v6.3c.4-.6.9-1,1.5-1.4.6-.3,1.4-.5,2.2-.5,1.3,0,2.3.4,3,1.2.7.8,1.1,2,1.1,3.4v6.9h-2.9v-6.4c0-1.7-.7-2.5-2.2-2.5s-1.5.3-1.9.9c-.5.6-.7,1.3-.7,2.3v5.8h-2.9v-16Z" class="cls-3"/><path d="M458.2,118.5c0-1.2.3-2.2.8-3.1.5-.9,1.2-1.6,2.2-2.1.9-.5,1.9-.8,3.1-.8s2.2.3,3.1.8,1.6,1.2,2.2,2.1.8,1.9.8,3.1-.3,2.2-.8,3.1c-.5.9-1.2,1.6-2.2,2.1-.9.5-1.9.8-3.1.8s-2.2-.3-3.1-.8c-.9-.5-1.6-1.2-2.2-2.1-.5-.9-.8-1.9-.8-3.1ZM461.1,118.5c0,1,.3,1.8.9,2.5.6.6,1.3.9,2.2.9s1.6-.3,2.2-.9c.6-.6.9-1.5.9-2.5s-.3-1.8-.9-2.5c-.6-.6-1.3-.9-2.2-.9s-1.7.3-2.2.9c-.6.6-.9,1.5-.9,2.5Z" class="cls-3"/><path d="M478.8,121c0-.4-.2-.7-.5-.9-.3-.2-.9-.4-1.8-.6l-.8-.2c-1.2-.2-2-.6-2.6-1.2-.6-.6-.8-1.3-.8-2.1s.4-2,1.3-2.6,2-1,3.5-1,3,.5,4.2,1.4l-1.2,1.9c-.4-.3-.9-.6-1.5-.8-.5-.2-1.1-.3-1.7-.3-1.3,0-1.9.4-1.9,1.1s.1.6.4.8.8.3,1.5.5l.9.2c1.3.3,2.2.7,2.8,1.2.6.6.9,1.3.9,2.1,0,1.2-.5,2.1-1.4,2.8-.9.6-2.1.9-3.6.9s-1.9-.1-2.8-.4c-.9-.3-1.6-.7-2.1-1.2l1.4-2c.5.4,1.1.7,1.7,1,.6.2,1.2.4,2,.4,1.4,0,2.1-.4,2.1-1.2Z" class="cls-3"/><path d="M488.5,108.1h5.7c1.8,0,3.4.3,4.7.9,1.3.6,2.3,1.5,3,2.7.7,1.2,1,2.6,1,4.3s-.3,3.1-1,4.3c-.7,1.2-1.7,2.1-3,2.8-1.3.6-2.9,1-4.7,1h-5.7v-16ZM499.7,116.1c0-1.7-.5-3-1.5-3.9-1-.9-2.3-1.4-4.1-1.4h-2.5v10.5h2.5c1.8,0,3.1-.5,4.1-1.4,1-.9,1.5-2.2,1.5-3.9Z" class="cls-3"/><path d="M505.2,108.3h3.1v2.8h-3.1v-2.8ZM505.3,112.9h2.9v11.2h-2.9v-11.2Z" class="cls-3"/><path d="M518.9,123.8v-1.2c-.8,1.1-1.9,1.6-3.5,1.6s-1.9-.2-2.6-.7c-.7-.5-1.3-1.1-1.7-1.9-.4-.8-.6-1.8-.6-2.9s.3-2.4.8-3.3c.6-.9,1.3-1.6,2.3-2.1,1-.5,2.2-.8,3.6-.8s1.5,0,2.4.2c.8.2,1.6.4,2.2.6v10.2c0,1.8-.5,3.2-1.5,4.2-1,1-2.5,1.4-4.5,1.4s-3.5-.5-4.7-1.4l1.2-2.1c1.1.7,2.2,1.1,3.4,1.1,2.2,0,3.2-1,3.2-3ZM518.8,118.9v-3.6c-.6-.2-1.2-.2-1.7-.2-1.2,0-2.1.3-2.7.9-.7.6-1,1.5-1,2.6s.3,1.8.8,2.3,1.2.9,2,.9,1.4-.3,1.9-.8c.5-.5.7-1.2.7-2.1Z" class="cls-3"/><path d="M524.4,108.3h3.1v2.8h-3.1v-2.8ZM524.4,112.9h2.9v11.2h-2.9v-11.2Z" class="cls-3"/><path d="M529.1,112.9h1.9v-3.7h2.9v3.7h3.1v2.3h-3.1v5c0,1.2.5,1.8,1.5,1.8s1.1-.2,1.6-.6l1.1,1.9c-.9.8-2,1.2-3.2,1.2s-2.2-.4-2.9-1.1c-.7-.7-1-1.7-1-3.1v-5.1h-1.9v-2.3Z" class="cls-3"/><path d="M539,120.9c0-1.2.4-2.2,1.3-2.9.9-.7,2.2-1,3.9-1s.7,0,1,0c.4,0,.8,0,1.2.1v-.3c0-1.3-.9-2-2.6-2s-2.3.3-3.2,1l-1.2-1.9c1.3-.9,2.8-1.4,4.6-1.4s2.9.4,3.8,1.1,1.3,1.8,1.3,3.2v7.3h-2.6v-1.3c-.5.5-1,.9-1.6,1.2s-1.4.4-2.2.4-2.1-.3-2.8-1-1.1-1.5-1.1-2.6ZM541.8,120.6c0,.5.2,1,.5,1.2.3.3.8.4,1.4.4s1.4-.2,1.9-.6c.5-.4.8-.9.8-1.5v-1.2c-.7-.1-1.3-.2-1.8-.2-.9,0-1.6.2-2,.5-.5.3-.7.8-.7,1.4Z" class="cls-3"/><path d="M551.8,108.3h3.1v2.8h-3.1v-2.8ZM551.9,112.9h2.9v11.2h-2.9v-11.2Z" class="cls-3"/><path d="M563.9,121c0-.4-.2-.7-.5-.9-.3-.2-.9-.4-1.8-.6l-.8-.2c-1.2-.2-2-.6-2.6-1.2-.6-.6-.8-1.3-.8-2.1s.4-2,1.3-2.6,2-1,3.5-1,3,.5,4.2,1.4l-1.2,1.9c-.4-.3-.9-.6-1.5-.8-.5-.2-1.1-.3-1.7-.3-1.3,0-1.9.4-1.9,1.1s.1.6.4.8.8.3,1.5.5l.9.2c1.3.3,2.2.7,2.8,1.2.6.6.9,1.3.9,2.1,0,1.2-.5,2.1-1.4,2.8-.9.6-2.1.9-3.6.9s-1.9-.1-2.8-.4c-.9-.3-1.6-.7-2.1-1.2l1.4-2c.5.4,1.1.7,1.7,1,.6.2,1.2.4,2,.4,1.4,0,2.1-.4,2.1-1.2Z" class="cls-3"/></g><g><path d="M437.9,146.2h3.8v4.4c-.5.4-1.2.8-1.9,1.1s-1.6.4-2.4.4c-1.2,0-2.2-.3-3.1-.8s-1.6-1.3-2.2-2.2c-.5-.9-.8-2-.8-3.2s.1-1.7.4-2.5c.3-.8.7-1.4,1.2-2,.5-.6,1.1-1,1.9-1.3.7-.3,1.5-.5,2.3-.5s1.8.2,2.6.6c.8.4,1.4,1,1.9,1.7l-.5.4c-.5-.6-1.1-1.1-1.7-1.5-.7-.3-1.4-.5-2.2-.5s-1.9.2-2.6.7c-.8.5-1.4,1.2-1.8,2-.4.9-.7,1.8-.7,2.9s.2,2.1.7,2.9c.5.8,1.1,1.5,1.9,2s1.7.7,2.8.7,1.3,0,2-.3c.6-.2,1.2-.5,1.7-.8v-3.5h-3.1v-.6Z" class="cls-3"/><path d="M447.9,148.4v-4.9h.6v4.7c0,2.1.8,3.2,2.4,3.2s1.2-.2,1.7-.5.8-.7,1.1-1.3c.3-.6.4-1.2.4-1.9v-4.2h.6v8.3h-.6v-2c-.3.7-.7,1.2-1.3,1.6-.6.4-1.3.6-2.1.6s-1.7-.3-2.2-.9-.8-1.5-.8-2.7Z" class="cls-3"/><path d="M460.8,140.6h1v1h-1v-1ZM461,143.5h.6v8.3h-.6v-8.3Z" class="cls-3"/><path d="M467.3,147.8c0-.9.2-1.7.5-2.4.4-.7.8-1.2,1.5-1.6.6-.4,1.4-.6,2.2-.6s1.9.3,2.7.9v-4.4h.6v12h-.6v-1.9c-.3.7-.7,1.2-1.3,1.5s-1.2.5-2,.5-1.4-.2-2-.5c-.6-.3-1-.8-1.3-1.5-.3-.6-.5-1.4-.5-2.2ZM468,147.8c0,1.1.3,2,.9,2.6.6.7,1.3,1,2.3,1s1.7-.3,2.3-1c.6-.6.9-1.5.9-2.6v-2.9c-.8-.7-1.7-1-2.8-1s-1.3.2-1.8.5c-.5.3-.9.8-1.2,1.4-.3.6-.4,1.3-.4,2Z" class="cls-3"/><path d="M480.7,147.6c0-.8.2-1.6.5-2.2.3-.7.8-1.2,1.4-1.5.6-.4,1.3-.6,2.1-.6s1.4.2,2,.6c.6.4,1,.9,1.3,1.5.3.7.5,1.4.5,2.3h0c0,.1-7.2.1-7.2.1,0,.7.2,1.3.5,1.9.3.5.7,1,1.3,1.3s1.1.5,1.8.5,1.1-.1,1.6-.3c.5-.2.9-.6,1.3-1l.4.4c-.4.5-.9.8-1.4,1.1s-1.2.4-1.9.4-1.5-.2-2.2-.6c-.6-.4-1.1-.9-1.5-1.5-.4-.7-.5-1.4-.5-2.2ZM481.8,145.5c-.3.5-.5,1.1-.5,1.7h6.5c0-1-.4-1.8-.9-2.4-.6-.6-1.3-.9-2.2-.9s-1.2.1-1.7.4c-.5.3-.9.7-1.2,1.2Z" class="cls-3"/><path d="M494.2,139.8h.6v5.6c.3-.7.7-1.2,1.2-1.5.6-.4,1.2-.5,1.9-.5s1.4.2,2,.5c.6.3,1,.8,1.3,1.5.3.6.5,1.4.5,2.2,0,1.4-.4,2.5-1.3,3.3s-2,1.2-3.5,1.2-1,0-1.5-.1-1-.2-1.3-.4v-11.7ZM501.1,147.5c0-1.1-.3-2-.8-2.6-.6-.7-1.3-1-2.3-1s-1.7.3-2.3,1c-.6.6-.9,1.5-.9,2.6v3.6c.8.2,1.5.4,2.2.4,1.3,0,2.3-.3,3-1,.7-.7,1.1-1.6,1.1-2.9Z" class="cls-3"/><path d="M507.1,147.6c0-.8.2-1.6.6-2.2.4-.7.9-1.2,1.5-1.6.6-.4,1.4-.6,2.2-.6s1.5.2,2.2.6c.6.4,1.1.9,1.5,1.6.4.7.6,1.4.6,2.2s-.2,1.6-.6,2.2c-.4.7-.9,1.2-1.5,1.6-.6.4-1.4.6-2.2.6s-1.5-.2-2.2-.6c-.6-.4-1.1-.9-1.5-1.6-.4-.7-.6-1.4-.6-2.2ZM507.8,147.6c0,.7.2,1.3.5,1.9.3.6.7,1,1.3,1.4s1.1.5,1.8.5,1.3-.2,1.8-.5,1-.8,1.3-1.4c.3-.6.5-1.2.5-1.9s-.2-1.3-.5-1.9c-.3-.6-.7-1-1.3-1.3-.5-.3-1.2-.5-1.8-.5s-1.3.2-1.8.5c-.5.3-1,.8-1.3,1.3-.3.6-.5,1.2-.5,1.9Z" class="cls-3"/><path d="M520.9,147.6c0-.8.2-1.6.6-2.2.4-.7.9-1.2,1.5-1.6.6-.4,1.4-.6,2.2-.6s1.5.2,2.2.6c.6.4,1.1.9,1.5,1.6.4.7.6,1.4.6,2.2s-.2,1.6-.6,2.2c-.4.7-.9,1.2-1.5,1.6-.6.4-1.4.6-2.2.6s-1.5-.2-2.2-.6c-.6-.4-1.1-.9-1.5-1.6-.4-.7-.6-1.4-.6-2.2ZM521.6,147.6c0,.7.2,1.3.5,1.9.3.6.7,1,1.3,1.4s1.1.5,1.8.5,1.3-.2,1.8-.5,1-.8,1.3-1.4c.3-.6.5-1.2.5-1.9s-.2-1.3-.5-1.9c-.3-.6-.7-1-1.3-1.3-.5-.3-1.2-.5-1.8-.5s-1.3.2-1.8.5c-.5.3-1,.8-1.3,1.3-.3.6-.5,1.2-.5,1.9Z" class="cls-3"/><path d="M535.8,151.8h-.6v-12h.6v8l4.6-4.3h.8l-3.3,3.1,4,5.2h-.8l-3.6-4.7-1.7,1.5v3.2Z" class="cls-3"/></g><g><path d="M372.4,456.1h.3v5.3h-.3v-5.3Z" class="cls-3"/><path d="M376.3,460.4c0-.2,0-.4-.2-.5-.1-.1-.4-.2-.7-.3h-.3c-.7-.2-1.1-.5-1.1-1s.1-.5.4-.7c.2-.2.5-.3.9-.3s.9.2,1.3.6l-.2.2c-.3-.3-.7-.5-1.1-.5s-.5,0-.7.2c-.2.1-.3.3-.3.5s0,.4.2.5c.1.1.4.2.7.3h.3c.8.2,1.1.5,1.1,1.1s-.1.6-.4.8c-.3.2-.6.3-1,.3s-1.1-.2-1.4-.6l.2-.2c.3.3.8.5,1.3.5s.6,0,.8-.2c.2-.1.3-.3.3-.6Z" class="cls-3"/><path d="M377.3,457.7h.8v-1.2h.3v1.2h1.2v.2h-1.2v2.4c0,.6.2.9.7.9s.3,0,.4,0c.1,0,.2-.1.3-.3l.2.2c-.1.1-.2.2-.4.3-.1,0-.3,0-.5,0-.6,0-.9-.4-.9-1.2v-2.4h-.8v-.2Z" class="cls-3"/><path d="M380.2,459.6c0-.4,0-.7.2-1s.4-.5.7-.7c.3-.2.6-.3,1-.3s.7,0,1,.3c.3.2.5.4.7.7.2.3.2.6.2,1s0,.7-.2,1c-.2.3-.4.5-.7.7-.3.2-.6.3-1,.3s-.7,0-1-.3c-.3-.2-.5-.4-.7-.7-.2-.3-.2-.6-.2-1ZM380.5,459.6c0,.3,0,.6.2.9.1.3.3.5.6.6s.5.2.8.2.6,0,.8-.2.4-.3.6-.6c.1-.3.2-.5.2-.9s0-.6-.2-.8c-.1-.2-.3-.4-.6-.6s-.5-.2-.8-.2-.6,0-.8.2-.4.3-.6.6c-.1.3-.2.5-.2.8Z" class="cls-3"/><path d="M386.4,457.7h.3v.9c.1-.3.3-.6.6-.7s.6-.3.9-.3.8.1,1,.4c.2.3.3.7.3,1.2v2.2h-.3v-2.1c0-.9-.4-1.4-1.1-1.4s-.8.1-1,.4c-.3.3-.4.7-.4,1.2v1.9h-.3v-3.7Z" class="cls-3"/><path d="M390.4,460.4c0-.4.1-.7.4-.9.3-.2.7-.3,1.2-.3s.3,0,.5,0c.2,0,.4,0,.6,0v-.3c0-.4,0-.6-.3-.8-.2-.2-.5-.3-.8-.3s-.9.1-1.2.4l-.2-.2c.3-.3.8-.5,1.4-.5.9,0,1.4.4,1.4,1.3v2.5h-.3v-.7c-.1.3-.3.5-.6.6-.3.1-.5.2-.9.2s-.7,0-.9-.3c-.2-.2-.3-.5-.3-.8ZM391.4,456.2c0,0,.2,0,.3,0s.2,0,.3.2c.2.1.4.2.6.2s.2,0,.2,0c0,0,.2-.1.2-.2h.2c-.2.4-.4.5-.7.5s-.2,0-.3,0c0,0-.2,0-.3-.2-.2-.1-.4-.2-.6-.2s-.2,0-.2,0c0,0-.2.1-.2.2h-.2c.2-.4.4-.5.7-.5ZM390.7,460.4c0,.3,0,.5.3.6.2.2.4.2.7.2s.5,0,.7-.2c.2-.1.4-.3.5-.5.1-.2.2-.4.2-.6v-.5c-.2,0-.3,0-.5,0-.2,0-.4,0-.5,0-.4,0-.8,0-1,.2s-.4.4-.4.7Z" class="cls-3"/><path d="M394.3,459.6c0-.4,0-.7.2-1s.4-.5.7-.7c.3-.2.6-.3,1-.3s.7,0,1,.3c.3.2.5.4.7.7.2.3.2.6.2,1s0,.7-.2,1c-.2.3-.4.5-.7.7-.3.2-.6.3-1,.3s-.7,0-1-.3c-.3-.2-.5-.4-.7-.7-.2-.3-.2-.6-.2-1ZM394.6,459.6c0,.3,0,.6.2.9.1.3.3.5.6.6s.5.2.8.2.6,0,.8-.2.4-.3.6-.6c.1-.3.2-.5.2-.9s0-.6-.2-.8c-.1-.2-.3-.4-.6-.6s-.5-.2-.8-.2-.6,0-.8.2-.4.3-.6.6c-.1.3-.2.5-.2.8Z" class="cls-3"/><path d="M400.3,459.6c0-.4,0-.7.2-1,.2-.3.4-.5.6-.7.3-.2.6-.3.9-.3s.6,0,.9.2c.3.2.5.4.6.7.1.3.2.6.2,1h0s-3.2,0-3.2,0c0,.3,0,.6.2.8.1.2.3.4.6.6s.5.2.8.2.5,0,.7-.2c.2-.1.4-.2.6-.4l.2.2c-.2.2-.4.4-.6.5-.3.1-.5.2-.8.2s-.7,0-1-.2c-.3-.2-.5-.4-.7-.7s-.2-.6-.2-1ZM400.8,458.6c-.1.2-.2.5-.2.8h2.9c0-.4-.2-.8-.4-1.1-.3-.3-.6-.4-1-.4s-.5,0-.7.2c-.2.1-.4.3-.5.5ZM402.5,455.9h.4l-.8,1.2h-.3l.7-1.2Z" class="cls-3"/><path d="M404.9,460.9h.3c0,.7-.2,1.2-.5,1.6h-.2c.3-.5.4-1,.4-1.6Z" class="cls-3"/><path d="M407.8,459.6c0-.4,0-.8.2-1.1.2-.3.4-.5.7-.7.3-.2.6-.3,1-.3s.9.1,1.2.4v-2h.3v5.3h-.3v-.8c-.1.3-.3.5-.6.7-.2.2-.5.2-.9.2s-.6,0-.9-.2c-.3-.2-.4-.4-.6-.6s-.2-.6-.2-1ZM408.1,459.6c0,.5.1.9.4,1.2.3.3.6.4,1,.4s.8-.1,1-.4.4-.7.4-1.1v-1.3c-.3-.3-.7-.5-1.2-.5s-.6,0-.8.2c-.2.1-.4.3-.5.6s-.2.6-.2.9Z" class="cls-3"/><path d="M412.1,459.6c0-.4,0-.7.2-1,.2-.3.4-.5.6-.7.3-.2.6-.3.9-.3s.6,0,.9.2c.3.2.5.4.6.7.1.3.2.6.2,1h0s-3.2,0-3.2,0c0,.3,0,.6.2.8.1.2.3.4.6.6s.5.2.8.2.5,0,.7-.2c.2-.1.4-.2.6-.4l.2.2c-.2.2-.4.4-.6.5-.3.1-.5.2-.8.2s-.7,0-1-.2c-.3-.2-.5-.4-.7-.7s-.2-.6-.2-1ZM412.6,458.6c-.1.2-.2.5-.2.8h2.9c0-.4-.2-.8-.4-1.1-.3-.3-.6-.4-1-.4s-.5,0-.7.2c-.2.1-.4.3-.5.5Z" class="cls-3"/><path d="M417.6,457.7h.7v-.4c0-.4,0-.8.3-1,.2-.2.5-.4.8-.4s.7.1.9.4l-.2.2c-.1-.1-.2-.2-.4-.3-.1,0-.2,0-.4,0-.6,0-.9.4-.9,1.1v.4h1.3v.2h-1.3v3.4h-.3v-3.4h-.7v-.2Z" class="cls-3"/><path d="M420.2,460.4c0-.4.1-.7.4-.9.3-.2.7-.3,1.2-.3s.3,0,.5,0c.2,0,.4,0,.6,0v-.3c0-.4,0-.6-.3-.8-.2-.2-.5-.3-.8-.3s-.9.1-1.2.4l-.2-.2c.3-.3.8-.5,1.4-.5.9,0,1.4.4,1.4,1.3v2.5h-.3v-.7c-.1.3-.3.5-.6.6-.3.1-.5.2-.9.2s-.7,0-.9-.3c-.2-.2-.3-.5-.3-.8ZM420.5,460.4c0,.3,0,.5.3.6.2.2.4.2.7.2s.5,0,.7-.2c.2-.1.4-.3.5-.5.1-.2.2-.4.2-.6v-.5c-.2,0-.3,0-.5,0-.2,0-.4,0-.5,0-.4,0-.8,0-1,.2s-.4.4-.4.7Z" class="cls-3"/><path d="M424.1,459.6c0-.4,0-.7.2-1s.4-.5.7-.7.6-.3,1-.3c.6,0,1,.2,1.4.6l-.2.2c-.3-.4-.7-.6-1.2-.6s-.6,0-.8.2c-.2.1-.4.3-.6.6-.1.3-.2.5-.2.9s0,.6.2.9c.1.2.3.4.6.6.2.1.5.2.8.2s.5,0,.7-.1c.2,0,.4-.2.5-.4l.2.2c-.2.2-.4.4-.6.5-.3.1-.5.2-.8.2s-.7,0-1-.3c-.3-.2-.5-.4-.7-.7s-.2-.6-.2-1Z" class="cls-3"/><path d="M427.9,457.7h.8v-1.2h.3v1.2h1.2v.2h-1.2v2.4c0,.6.2.9.7.9s.3,0,.4,0c.1,0,.2-.1.3-.3l.2.2c-.1.1-.2.2-.4.3-.1,0-.3,0-.5,0-.6,0-.9-.4-.9-1.2v-2.4h-.8v-.2Z" class="cls-3"/><path d="M430.8,459.6c0-.4,0-.7.2-1s.4-.5.7-.7c.3-.2.6-.3,1-.3s.7,0,1,.3c.3.2.5.4.7.7.2.3.2.6.2,1s0,.7-.2,1c-.2.3-.4.5-.7.7-.3.2-.6.3-1,.3s-.7,0-1-.3c-.3-.2-.5-.4-.7-.7-.2-.3-.2-.6-.2-1ZM431.1,459.6c0,.3,0,.6.2.9.1.3.3.5.6.6s.5.2.8.2.6,0,.8-.2.4-.3.6-.6c.1-.3.2-.5.2-.9s0-.6-.2-.8c-.1-.2-.3-.4-.6-.6s-.5-.2-.8-.2-.6,0-.8.2-.4.3-.6.6c-.1.3-.2.5-.2.8Z" class="cls-3"/><path d="M435.5,460.9h.3c0,.7-.2,1.2-.5,1.6h-.2c.3-.5.4-1,.4-1.6Z" class="cls-3"/><path d="M438.6,459.9v-2.2h.3v2.1c0,.9.4,1.4,1.1,1.4s.5,0,.7-.2c.2-.1.4-.3.5-.6.1-.2.2-.5.2-.8v-1.9h.3v3.7h-.3v-.9c-.1.3-.3.5-.6.7s-.6.3-.9.3-.7-.1-1-.4c-.2-.3-.3-.7-.3-1.2Z" class="cls-3"/><path d="M442.8,457.7h.3v.9c.1-.3.3-.5.6-.7.2-.2.5-.3.9-.3.7,0,1.1.4,1.2,1.1.1-.3.3-.6.5-.8s.5-.3.9-.3.8.1,1,.4c.2.3.3.7.3,1.2v2.2h-.3v-2.1c0-.5,0-.8-.3-1-.2-.2-.4-.3-.8-.3s-.7.1-1,.4c-.2.3-.4.7-.4,1.2v1.9h-.3v-2.1c0-.5,0-.8-.3-1-.2-.2-.4-.3-.8-.3s-.7.1-1,.4-.4.7-.4,1.2v1.9h-.3v-3.7Z" class="cls-3"/><path d="M450.8,459.5c0-.4.2-.7.4-1s.5-.5.8-.7.7-.2,1.1-.2.9,0,1.2.3l-.7,3.5c-.1.6-.3,1-.6,1.3-.3.3-.7.4-1.2.4s-1-.1-1.5-.4l.2-.2c.4.3.9.4,1.3.4s.8-.1,1-.3.4-.6.5-1.1l.2-.8c-.2.3-.4.5-.7.7-.3.2-.6.2-.9.2s-.6,0-.8-.3c-.2-.2-.4-.4-.5-.7,0-.3-.1-.6,0-1ZM451.1,459.5c0,.3,0,.6,0,.9s.2.5.4.6c.2.1.4.2.7.2s.5,0,.7-.2c.2-.1.4-.3.6-.6.2-.2.3-.5.3-.8l.3-1.6c-.1,0-.3-.1-.4-.1-.1,0-.3,0-.5,0-.4,0-.7,0-1,.2-.3.1-.5.3-.7.6-.2.2-.3.5-.4.9Z" class="cls-3"/><path d="M457.8,460.5c-.2.3-.4.6-.7.7s-.6.3-.9.3-.7-.1-.9-.4c-.2-.3-.2-.7-.1-1.2l.4-2.1h.3l-.4,2.1c0,.4,0,.8,0,1,.1.2.4.4.7.4s.5,0,.7-.2c.2-.1.4-.3.6-.6.2-.2.3-.5.3-.8l.4-1.9h.3l-.7,3.7h-.3l.2-.9Z" class="cls-3"/><path d="M459.7,457.7h.3l-.7,3.7h-.3l.7-3.7ZM460.2,456.9h-.4v-.4h.5v.4Z" class="cls-3"/><path d="M463.4,460.6c-.2.3-.4.5-.7.7-.3.2-.6.2-.9.2s-.6,0-.8-.3-.4-.4-.5-.7c0-.3,0-.6,0-1,0-.4.2-.7.4-1,.2-.3.5-.5.8-.7.3-.2.6-.2,1-.2s.8.1,1.2.4l.4-1.9h.3l-1,5.3h-.3v-.8ZM460.9,460.4c0,.3.2.5.4.6.2.1.4.2.7.2s.5,0,.7-.2.4-.3.6-.6c.2-.2.3-.5.3-.8l.3-1.4c-.3-.2-.7-.4-1.1-.4s-.6,0-.9.2c-.3.1-.5.3-.7.6s-.3.5-.4.9c0,.3,0,.6,0,.9Z" class="cls-3"/><path d="M465.2,460.4c.1.2.3.4.5.6.2.1.5.2.8.2.5,0,.9-.2,1.2-.6l.2.2c-.4.4-.9.6-1.4.6s-.7,0-1-.3c-.3-.2-.5-.4-.6-.8-.1-.3-.1-.7,0-1.1,0-.3.2-.7.4-.9.2-.3.4-.5.7-.6.3-.2.6-.2.9-.2s.6,0,.8.2c.2.2.4.4.5.7.1.3.1.6,0,1h0c0,0-3.2,0-3.2,0,0,.3,0,.6.1.8ZM465.5,458.6c-.2.2-.3.5-.3.8h2.9c0-.4,0-.8-.2-1.1s-.5-.4-.9-.4-.5,0-.8.2-.4.3-.6.5Z" class="cls-3"/><path d="M472.5,459.6c0,.4-.2.7-.4,1-.2.3-.5.5-.8.7-.3.2-.7.2-1.1.2s-.9,0-1.2-.3l1-5.2h.3l-.5,2.5c.2-.3.4-.5.7-.7.3-.2.6-.2.9-.2s.6,0,.8.3c.2.2.4.4.5.7,0,.3.1.6,0,1ZM472.2,459.6c0-.3,0-.6,0-.9,0-.3-.2-.5-.4-.6s-.4-.2-.7-.2-.5,0-.7.2c-.2.1-.4.3-.6.6-.2.2-.3.5-.3.8l-.3,1.6c.1,0,.3.1.4.1.1,0,.3,0,.5,0,.4,0,.7,0,1-.2.3-.1.5-.3.7-.6.2-.2.3-.5.4-.9Z" class="cls-3"/><path d="M476.5,460.6c-.2.3-.4.5-.7.6-.3.2-.6.2-.9.2s-.7,0-1-.3c-.3-.2-.5-.4-.6-.8-.1-.3-.1-.7,0-1.1,0-.3.2-.7.4-.9.2-.3.4-.5.7-.6.3-.2.6-.2.9-.2s.7,0,1,.3c.3.2.5.4.6.8.1.3.1.7,0,1.1,0,.3-.2.6-.4.9ZM476.6,458.8c0-.3-.3-.5-.5-.7-.2-.2-.5-.2-.8-.2s-.5,0-.8.2c-.2.1-.4.3-.6.5s-.3.5-.3.8c0,.3,0,.7,0,.9,0,.3.3.5.5.7.2.2.5.2.8.2s.5,0,.8-.2c.2-.1.4-.3.6-.5.2-.2.3-.5.3-.8,0-.3,0-.7,0-.9Z" class="cls-3"/><path d="M481,460.6c-.2.3-.4.5-.7.6-.3.2-.6.2-.9.2s-.7,0-1-.3c-.3-.2-.5-.4-.6-.8-.1-.3-.1-.7,0-1.1,0-.3.2-.7.4-.9.2-.3.4-.5.7-.6.3-.2.6-.2.9-.2s.7,0,1,.3c.3.2.5.4.6.8.1.3.1.7,0,1.1,0,.3-.2.6-.4.9ZM481,458.8c0-.3-.3-.5-.5-.7-.2-.2-.5-.2-.8-.2s-.5,0-.8.2c-.2.1-.4.3-.6.5s-.3.5-.3.8c0,.3,0,.7,0,.9,0,.3.3.5.5.7.2.2.5.2.8.2s.5,0,.8-.2c.2-.1.4-.3.6-.5.2-.2.3-.5.3-.8,0-.3,0-.7,0-.9Z" class="cls-3"/><path d="M483,456.1h.3l-.7,3.6,2.4-1.9h.4l-1.7,1.4,1.2,2.3h-.3l-1.1-2.1-.9.7-.3,1.4h-.3l1-5.3Z" class="cls-3"/><path d="M486,460.9h.3c0,.7-.2,1.2-.5,1.6h-.2c.3-.5.4-1,.4-1.6Z" class="cls-3"/><path d="M489.1,457.7h.3v.9c.1-.3.3-.5.6-.7.2-.2.5-.3.9-.3.7,0,1.1.4,1.2,1.1.1-.3.3-.6.5-.8s.5-.3.9-.3.8.1,1,.4c.2.3.3.7.3,1.2v2.2h-.3v-2.1c0-.5,0-.8-.3-1-.2-.2-.4-.3-.8-.3s-.7.1-1,.4c-.2.3-.4.7-.4,1.2v1.9h-.3v-2.1c0-.5,0-.8-.3-1-.2-.2-.4-.3-.8-.3s-.7.1-1,.4-.4.7-.4,1.2v1.9h-.3v-3.7Z" class="cls-3"/><path d="M495.7,460.4c0-.4.1-.7.4-.9.3-.2.7-.3,1.2-.3s.3,0,.5,0c.2,0,.4,0,.6,0v-.3c0-.4,0-.6-.3-.8-.2-.2-.5-.3-.8-.3s-.9.1-1.2.4l-.2-.2c.3-.3.8-.5,1.4-.5.9,0,1.4.4,1.4,1.3v2.5h-.3v-.7c-.1.3-.3.5-.6.6-.3.1-.5.2-.9.2s-.7,0-.9-.3c-.2-.2-.3-.5-.3-.8ZM496,460.4c0,.3,0,.5.3.6.2.2.4.2.7.2s.5,0,.7-.2c.2-.1.4-.3.5-.5.1-.2.2-.4.2-.6v-.5c-.2,0-.3,0-.5,0-.2,0-.4,0-.5,0-.4,0-.8,0-1,.2s-.4.4-.4.7Z" class="cls-3"/><path d="M502.1,460.4c0-.2,0-.4-.2-.5-.1-.1-.4-.2-.7-.3h-.3c-.7-.2-1.1-.5-1.1-1s.1-.5.4-.7c.2-.2.5-.3.9-.3s.9.2,1.3.6l-.2.2c-.3-.3-.7-.5-1.1-.5s-.5,0-.7.2c-.2.1-.3.3-.3.5s0,.4.2.5c.1.1.4.2.7.3h.3c.8.2,1.1.5,1.1,1.1s-.1.6-.4.8c-.3.2-.6.3-1,.3s-1.1-.2-1.4-.6l.2-.2c.3.3.8.5,1.3.5s.6,0,.8-.2c.2-.1.3-.3.3-.6Z" class="cls-3"/><path d="M507.2,460.4c0-.2,0-.4-.2-.5-.1-.1-.4-.2-.7-.3h-.3c-.7-.2-1.1-.5-1.1-1s.1-.5.4-.7c.2-.2.5-.3.9-.3s.9.2,1.3.6l-.2.2c-.3-.3-.7-.5-1.1-.5s-.5,0-.7.2c-.2.1-.3.3-.3.5s0,.4.2.5c.1.1.4.2.7.3h.3c.8.2,1.1.5,1.1,1.1s-.1.6-.4.8c-.3.2-.6.3-1,.3s-1.1-.2-1.4-.6l.2-.2c.3.3.8.5,1.3.5s.6,0,.8-.2c.2-.1.3-.3.3-.6Z" class="cls-3"/><path d="M508.4,456.4h.4v.4h-.4v-.4ZM508.5,457.7h.3v3.7h-.3v-3.7Z" class="cls-3"/><path d="M509.9,457.7h.3v.9c.1-.3.3-.5.6-.7.2-.2.5-.3.9-.3.7,0,1.1.4,1.2,1.1.1-.3.3-.6.5-.8s.5-.3.9-.3.8.1,1,.4c.2.3.3.7.3,1.2v2.2h-.3v-2.1c0-.5,0-.8-.3-1-.2-.2-.4-.3-.8-.3s-.7.1-1,.4c-.2.3-.4.7-.4,1.2v1.9h-.3v-2.1c0-.5,0-.8-.3-1-.2-.2-.4-.3-.8-.3s-.7.1-1,.4-.4.7-.4,1.2v1.9h-.3v-3.7Z" class="cls-3"/><path d="M518.1,459.9v-2.2h.3v2.1c0,.9.4,1.4,1.1,1.4s.5,0,.7-.2c.2-.1.4-.3.5-.6.1-.2.2-.5.2-.8v-1.9h.3v3.7h-.3v-.9c-.1.3-.3.5-.6.7s-.6.3-.9.3-.7-.1-1-.4c-.2-.3-.3-.7-.3-1.2Z" class="cls-3"/><path d="M522.3,457.7h.3v.9c.1-.3.3-.5.6-.7.2-.2.5-.3.9-.3.7,0,1.1.4,1.2,1.1.1-.3.3-.6.5-.8s.5-.3.9-.3.8.1,1,.4c.2.3.3.7.3,1.2v2.2h-.3v-2.1c0-.5,0-.8-.3-1-.2-.2-.4-.3-.8-.3s-.7.1-1,.4c-.2.3-.4.7-.4,1.2v1.9h-.3v-2.1c0-.5,0-.8-.3-1-.2-.2-.4-.3-.8-.3s-.7.1-1,.4-.4.7-.4,1.2v1.9h-.3v-3.7Z" class="cls-3"/><path d="M530.8,460.4c.1.2.3.4.5.6.2.1.5.2.8.2.5,0,.9-.2,1.2-.6l.2.2c-.4.4-.9.6-1.4.6s-.7,0-1-.3c-.3-.2-.5-.4-.6-.8-.1-.3-.1-.7,0-1.1,0-.3.2-.7.4-.9.2-.3.4-.5.7-.6.3-.2.6-.2.9-.2s.6,0,.8.2c.2.2.4.4.5.7.1.3.1.6,0,1h0c0,0-3.2,0-3.2,0,0,.3,0,.6.1.8ZM531,458.6c-.2.2-.3.5-.3.8h2.9c0-.4,0-.8-.2-1.1s-.5-.4-.9-.4-.5,0-.8.2-.4.3-.6.5Z" class="cls-3"/><path d="M537,460.8c-.2.2-.4.4-.6.5-.2.1-.5.2-.8.2s-.5,0-.7-.2c-.2-.1-.3-.3-.4-.5,0-.2,0-.4,0-.6,0-.4.3-.6.6-.8.3-.2.7-.3,1.2-.3s.7,0,1,.1h0c0-.5,0-.8-.1-1.1-.2-.2-.4-.3-.8-.3s-.4,0-.7.1c-.2,0-.4.2-.6.3v-.2c0-.1.3-.3.5-.3.2,0,.5-.1.7-.1.5,0,.8.1,1,.4.2.3.3.7.2,1.1l-.4,2.2h-.3v-.6ZM537.2,460v-.5s-.2,0-.4-.1c-.2,0-.3,0-.5,0-.4,0-.8,0-1,.2-.3.2-.4.4-.5.7,0,.3,0,.5.2.7.2.2.4.3.7.3s.5,0,.7-.2c.2-.1.4-.3.5-.4.2-.2.2-.4.3-.6Z" class="cls-3"/><path d="M539.1,459c.1.1.3.3.6.3h.3c.3.2.6.4.7.6.2.2.2.4.2.7,0,.3-.2.5-.4.7-.2.2-.6.2-.9.2-.6,0-1-.2-1.4-.6l.2-.2c.4.3.8.5,1.2.5s.5,0,.7-.2c.2-.1.3-.3.4-.5,0-.2,0-.4-.1-.5s-.3-.3-.6-.4h-.3c-.7-.3-1-.7-.9-1.2,0-.3.2-.5.4-.6s.5-.2.8-.2.5,0,.7.1c.2,0,.4.2.6.4l-.2.2c-.1-.1-.3-.3-.5-.4-.2,0-.4-.1-.6-.1s-.5,0-.6.2c-.2.1-.3.2-.3.4,0,.2,0,.4.1.5Z" class="cls-3"/><path d="M542.1,460.3l.5-2.3h-.7v-.2h.8l.2-1.2h.3l-.2,1.2h1.2v.2h-1.3l-.5,2.3c0,.3,0,.5,0,.7,0,.2.3.2.5.2s.5-.1.7-.3l.2.2c-.1.1-.2.2-.4.3-.2,0-.3,0-.5,0-.3,0-.6-.1-.7-.3-.1-.2-.2-.5-.1-.9Z" class="cls-3"/><path d="M544.7,460.4c.1.2.3.4.5.6.2.1.5.2.8.2.5,0,.9-.2,1.2-.6l.2.2c-.4.4-.9.6-1.4.6s-.7,0-1-.3c-.3-.2-.5-.4-.6-.8-.1-.3-.1-.7,0-1.1,0-.3.2-.7.4-.9.2-.3.4-.5.7-.6.3-.2.6-.2.9-.2s.6,0,.8.2c.2.2.4.4.5.7.1.3.1.6,0,1h0c0,0-3.2,0-3.2,0,0,.3,0,.6.1.8ZM545,458.6c-.2.2-.3.5-.3.8h2.9c0-.4,0-.8-.2-1.1s-.5-.4-.9-.4-.5,0-.8.2-.4.3-.6.5Z" class="cls-3"/><path d="M549.2,458.6c.2-.3.4-.5.6-.7s.5-.3.8-.3.3,0,.4,0v.3c-.2,0-.3,0-.4,0-.2,0-.4,0-.7.2-.2.1-.4.3-.6.5-.2.2-.3.5-.3.8l-.4,1.9h-.3l.7-3.7h.3l-.2.9Z" class="cls-3"/><path d="M553,460.4c.1.2.3.4.5.6.2.1.5.2.8.2.5,0,.9-.2,1.2-.6l.2.2c-.4.4-.9.6-1.4.6s-.7,0-1-.3c-.3-.2-.5-.4-.6-.8-.1-.3-.1-.7,0-1.1,0-.3.2-.7.4-.9.2-.3.4-.5.7-.6.3-.2.6-.2.9-.2s.6,0,.8.2c.2.2.4.4.5.7.1.3.1.6,0,1h0c0,0-3.2,0-3.2,0,0,.3,0,.6.1.8ZM553.3,458.6c-.2.2-.3.5-.3.8h2.9c0-.4,0-.8-.2-1.1s-.5-.4-.9-.4-.5,0-.8.2-.4.3-.6.5Z" class="cls-3"/><path d="M556.8,459.5c0-.4.2-.7.4-1s.5-.5.8-.7.7-.2,1.1-.2.9,0,1.2.3l-.7,3.5c-.1.6-.3,1-.6,1.3-.3.3-.7.4-1.2.4s-1-.1-1.5-.4l.2-.2c.4.3.9.4,1.3.4s.8-.1,1-.3.4-.6.5-1.1l.2-.8c-.2.3-.4.5-.7.7-.3.2-.6.2-.9.2s-.6,0-.8-.3c-.2-.2-.4-.4-.5-.7,0-.3-.1-.6,0-1ZM557.1,459.5c0,.3,0,.6,0,.9s.2.5.4.6c.2.1.4.2.7.2s.5,0,.7-.2c.2-.1.4-.3.6-.6.2-.2.3-.5.3-.8l.3-1.6c-.1,0-.3-.1-.4-.1-.1,0-.3,0-.5,0-.4,0-.7,0-1,.2-.3.1-.5.3-.7.6-.2.2-.3.5-.4.9Z" class="cls-3"/><path d="M561.1,459.5c0-.4.2-.7.4-1s.5-.5.8-.7.7-.2,1.1-.2.9,0,1.2.3l-.7,3.5c-.1.6-.3,1-.6,1.3-.3.3-.7.4-1.2.4s-1-.1-1.5-.4l.2-.2c.4.3.9.4,1.3.4s.8-.1,1-.3.4-.6.5-1.1l.2-.8c-.2.3-.4.5-.7.7-.3.2-.6.2-.9.2s-.6,0-.8-.3c-.2-.2-.4-.4-.5-.7,0-.3-.1-.6,0-1ZM561.3,459.5c0,.3,0,.6,0,.9s.2.5.4.6c.2.1.4.2.7.2s.5,0,.7-.2c.2-.1.4-.3.6-.6.2-.2.3-.5.3-.8l.3-1.6c-.1,0-.3-.1-.4-.1-.1,0-.3,0-.5,0-.4,0-.7,0-1,.2-.3.1-.5.3-.7.6-.2.2-.3.5-.4.9Z" class="cls-3"/><path d="M565.6,460.9h.5v.5h-.5v-.5Z" class="cls-3"/><path d="M573.2,456.6l-1.9,3.1h-.2l-1.9-3.1-.2,4.8h-.3l.2-5.3h.3l1.9,3.2,1.9-3.2h.3l.2,5.3h-.3l-.2-4.8Z" class="cls-3"/><path d="M574.9,459.9v-2.2h.3v2.1c0,.9.4,1.4,1.1,1.4s.5,0,.7-.2c.2-.1.4-.3.5-.6.1-.2.2-.5.2-.8v-1.9h.3v3.7h-.3v-.9c-.1.3-.3.5-.6.7s-.6.3-.9.3-.7-.1-1-.4c-.2-.3-.3-.7-.3-1.2Z" class="cls-3"/><path d="M578.9,460.4c0-.4.1-.7.4-.9.3-.2.7-.3,1.2-.3s.3,0,.5,0c.2,0,.4,0,.6,0v-.3c0-.4,0-.6-.3-.8-.2-.2-.5-.3-.8-.3s-.9.1-1.2.4l-.2-.2c.3-.3.8-.5,1.4-.5.9,0,1.4.4,1.4,1.3v2.5h-.3v-.7c-.1.3-.3.5-.6.6-.3.1-.5.2-.9.2s-.7,0-.9-.3c-.2-.2-.3-.5-.3-.8ZM579.2,460.4c0,.3,0,.5.3.6.2.2.4.2.7.2s.5,0,.7-.2c.2-.1.4-.3.5-.5.1-.2.2-.4.2-.6v-.5c-.2,0-.3,0-.5,0-.2,0-.4,0-.5,0-.4,0-.8,0-1,.2s-.4.4-.4.7Z" class="cls-3"/><path d="M583,456.1h.3v2.5c.1-.3.3-.5.6-.7.3-.2.6-.2.9-.2s.8.1,1,.4c.2.3.3.7.3,1.2v2.2h-.3v-2.1c0-.9-.4-1.4-1.1-1.4s-.8.1-1,.4c-.3.3-.4.7-.4,1.2v1.9h-.3v-5.3Z" class="cls-3"/><path d="M587,460.4c0-.4.1-.7.4-.9.3-.2.7-.3,1.2-.3s.3,0,.5,0c.2,0,.4,0,.6,0v-.3c0-.4,0-.6-.3-.8-.2-.2-.5-.3-.8-.3s-.9.1-1.2.4l-.2-.2c.3-.3.8-.5,1.4-.5.9,0,1.4.4,1.4,1.3v2.5h-.3v-.7c-.1.3-.3.5-.6.6-.3.1-.5.2-.9.2s-.7,0-.9-.3c-.2-.2-.3-.5-.3-.8ZM587.3,460.4c0,.3,0,.5.3.6.2.2.4.2.7.2s.5,0,.7-.2c.2-.1.4-.3.5-.5.1-.2.2-.4.2-.6v-.5c-.2,0-.3,0-.5,0-.2,0-.4,0-.5,0-.4,0-.8,0-1,.2s-.4.4-.4.7Z" class="cls-3"/><path d="M591,456.1h.3v2.5c.1-.3.3-.5.6-.7.3-.2.6-.2.9-.2s.8.1,1,.4c.2.3.3.7.3,1.2v2.2h-.3v-2.1c0-.9-.4-1.4-1.1-1.4s-.8.1-1,.4c-.3.3-.4.7-.4,1.2v1.9h-.3v-5.3Z" class="cls-3"/><path d="M595.1,460.4c0-.4.1-.7.4-.9.3-.2.7-.3,1.2-.3s.3,0,.5,0c.2,0,.4,0,.6,0v-.3c0-.4,0-.6-.3-.8-.2-.2-.5-.3-.8-.3s-.9.1-1.2.4l-.2-.2c.3-.3.8-.5,1.4-.5.9,0,1.4.4,1.4,1.3v2.5h-.3v-.7c-.1.3-.3.5-.6.6-.3.1-.5.2-.9.2s-.7,0-.9-.3c-.2-.2-.3-.5-.3-.8ZM595.3,460.4c0,.3,0,.5.3.6.2.2.4.2.7.2s.5,0,.7-.2c.2-.1.4-.3.5-.5.1-.2.2-.4.2-.6v-.5c-.2,0-.3,0-.5,0-.2,0-.4,0-.5,0-.4,0-.8,0-1,.2s-.4.4-.4.7Z" class="cls-3"/><path d="M599.2,460.9h.5v.5h-.5v-.5Z" class="cls-3"/></g></svg>