<?xml version="1.0" encoding="UTF-8"?>
<svg id="Layer_1" data-name="Layer 1" xmlns="http://www.w3.org/2000/svg" version="1.1" xmlns:xlink="http://www.w3.org/1999/xlink" viewBox="0 0 3383.47 2094.31">
  <defs>
    <style>
      .cls-1 {
        font-family: Effra-Bold, Effra;
        font-size: 250px;
        font-weight: 700;
      }

      .cls-1, .cls-2 {
        fill: #fff;
      }

      .cls-3 {
        fill: #86be41;
      }

      .cls-3, .cls-4, .cls-2 {
        stroke-width: 0px;
      }

      .cls-4 {
        fill: url(#Gradiente_sem_nome_12);
      }
    </style>
    <radialGradient id="Gradiente_sem_nome_12" data-name="Gradiente sem nome 12" cx="1546.32" cy="1244.66" fx="1546.32" fy="1244.66" r="693.74" gradientTransform="translate(-1328.93 -1039.83) scale(1.94 1.6)" gradientUnits="userSpaceOnUse">
      <stop offset="0" stop-color="gray" stop-opacity=".8"/>
      <stop offset=".03" stop-color="rgba(122, 122, 122, .76)" stop-opacity=".76"/>
      <stop offset=".33" stop-color="rgba(69, 69, 69, .43)" stop-opacity=".43"/>
      <stop offset=".6" stop-color="rgba(31, 31, 31, .2)" stop-opacity=".2"/>
      <stop offset=".84" stop-color="rgba(8, 8, 8, .05)" stop-opacity=".05"/>
      <stop offset="1" stop-color="#000" stop-opacity="0"/>
    </radialGradient>
  </defs>
  <text/>
  <rect class="cls-3" x="-88.95" y="22.07" width="3561.38" height="2323.55"/>
  <ellipse class="cls-4" cx="1667.08" cy="956.02" rx="1466.28" ry="1001.17"/>
  <g>
    <path class="cls-2" d="M1850.39,616.82l-182.21-182.21c-24.99-23.99-65.52-23.99-90.51,1l-182.14,181.21h454.85Z"/>
    <polygon class="cls-2" points="1734.62 848.09 1712.63 1231.93 1958.49 986.07 1734.62 848.09"/>
    <path class="cls-2" d="M1472.18,683.04h-142.64l-126.99,127.7c-24.99,24.99-24.99,65.52,0,90.51l242.38,257.48,27.25-475.69Z"/>
    <path class="cls-2" d="M1672.8,769.48l66.11,3.79-.11,1.88,1.02-1.65,266.79,164.45,36.7-36.7c24.99-24.99,24.99-65.52,0-91.51l-126.7-126.7h-378.1l-31.06,542.11,48.22,51.23c18.61,18.61,58.03,23.35,87.27,14.25l29.86-521.15Z"/>
  </g>
  <text class="cls-1" transform="translate(807.42 1616.85)"><tspan x="0" y="0">Trilhos Digitais</tspan></text>
</svg>