<?xml version="1.0" encoding="UTF-8"?>
<svg id="Layer_1" data-name="Layer 1" xmlns="http://www.w3.org/2000/svg" version="1.1" viewBox="0 0 3383.47 2094.31">
  <defs>
    <style>
      .cls-1 {
        isolation: isolate;
      }

      .cls-2 {
        fill: #86be41;
      }

      .cls-2, .cls-3 {
        stroke-width: 0px;
      }

      .cls-3 {
        fill: #fff;
      }
    </style>
  </defs>
  <rect class="cls-2" x="-10.43" y="-55.07" width="3433.07" height="2169.28"/>
  <g>
    <path class="cls-3" d="M1822.42,805.35l-129.89-129.89c-17.82-17.1-46.7-17.1-64.52.71l-129.84,129.18h324.25Z"/>
    <polygon class="cls-3" points="1739.89 970.21 1724.21 1243.84 1899.47 1068.58 1739.89 970.21"/>
    <path class="cls-3" d="M1552.8,852.56h-101.68l-90.53,91.03c-17.82,17.82-17.82,46.7,0,64.52l172.78,183.55,19.43-339.1h0Z"/>
    <path class="cls-3" d="M1695.82,914.18l47.13,2.7-.08,1.34.72-1.18,190.19,117.23,26.16-26.16c17.82-17.82,17.82-46.7,0-65.23l-90.32-90.32h-269.53l-22.14,386.45,34.38,36.52c13.27,13.27,41.37,16.65,62.21,10.16l21.28-371.51h0Z"/>
  </g>
  <g class="cls-1">
    <g class="cls-1">
      <path class="cls-3" d="M1138.74,1470.06v-95.17h-38.5v-23.7h103.9v23.7h-38.32v95.17h-27.09Z"/>
      <path class="cls-3" d="M1197.73,1470.06v-83.59h24.59l.89,10.52c6.06-8.08,13.84-12.12,23.35-12.12,4.39,0,7.9.54,10.52,1.6l-4.1,22.63c-2.5-.83-5.59-1.25-9.27-1.25-6.18,0-11.11,1.84-14.79,5.53-3.68,3.68-5.52,8.79-5.52,15.33v41.35h-25.66Z"/>
      <path class="cls-3" d="M1267.59,1374.18v-22.99h27.45v22.99h-27.45ZM1268.48,1470.06v-83.59h25.66v83.59h-25.66Z"/>
      <path class="cls-3" d="M1313.75,1470.06v-118.87h25.66v118.87h-25.66Z"/>
      <path class="cls-3" d="M1358.31,1470.06v-118.87h25.49v43.31c2.73-3.09,6.33-5.52,10.78-7.31,4.46-1.78,9.06-2.67,13.81-2.67,9.86,0,17.61,2.91,23.26,8.73,5.64,5.82,8.47,14.2,8.47,25.13v51.68h-25.49v-47.76c0-4.87-1.22-8.67-3.65-11.41-2.44-2.73-5.79-4.1-10.07-4.1-5.35,0-9.51,1.76-12.48,5.26-2.97,3.51-4.46,7.87-4.46,13.1v44.91h-25.66Z"/>
      <path class="cls-3" d="M1455.08,1428.18c0-12.59,4.22-23.17,12.65-31.72,8.44-8.55,19.19-12.83,32.26-12.83s23.79,4.28,32.17,12.83,12.56,19.13,12.56,31.72-4.22,23.05-12.65,31.72c-8.44,8.67-19.13,13.01-32.08,13.01s-23.82-4.34-32.26-13.01c-8.44-8.67-12.65-19.25-12.65-31.72ZM1485.29,1443.95c3.62,4.46,8.52,6.68,14.7,6.68s11.05-2.23,14.61-6.68,5.35-9.71,5.35-15.77-1.78-11.29-5.35-15.68c-3.56-4.39-8.44-6.59-14.61-6.59s-11.08,2.2-14.7,6.59c-3.63,4.4-5.44,9.62-5.44,15.68s1.81,11.32,5.44,15.77Z"/>
      <path class="cls-3" d="M1555.95,1460.62l12.65-16.4c2.73,2.49,6.33,4.57,10.78,6.24,4.46,1.67,8.76,2.5,12.92,2.5,8.79,0,13.19-2.32,13.19-6.95,0-2.26-1.25-4.07-3.74-5.44-2.49-1.37-7.72-3.12-15.68-5.26-17.35-4.51-26.02-13.07-26.02-25.66,0-7.72,3.32-13.99,9.98-18.8,6.65-4.81,15.09-7.22,25.31-7.22,13.19,0,24.35,3.15,33.51,9.45l-10.87,16.93c-7.13-4.63-14.2-6.95-21.21-6.95-7.49,0-11.23,2.08-11.23,6.24,0,2.26,1.34,4.04,4.01,5.35,2.67,1.31,7.22,2.79,13.63,4.46.36.12.65.21.89.27.24.06.53.12.89.18.36.06.71.15,1.07.27,8.55,2.38,14.76,5.64,18.62,9.8,3.86,4.16,5.79,9.69,5.79,16.57,0,8.68-3.63,15.3-10.87,19.87-7.25,4.57-15.98,6.86-26.2,6.86-16.75,0-29.23-4.1-37.43-12.3Z"/>
      <path class="cls-3" d="M1680.35,1470.06v-118.87h44.91c19.25,0,34.63,5.02,46.16,15.06,11.52,10.04,17.29,25.04,17.29,45s-5.85,33.57-17.55,43.66c-11.7,10.1-27.06,15.15-46.07,15.15h-44.73ZM1707.26,1446.18h16.4c11.76,0,20.88-3.09,27.36-9.27,6.47-6.18,9.71-14.79,9.71-25.84s-3.09-20.14-9.27-26.55c-6.18-6.42-15.45-9.62-27.8-9.62h-16.4v71.29Z"/>
      <path class="cls-3" d="M1805.81,1374.18v-22.99h27.45v22.99h-27.45ZM1806.7,1470.06v-83.59h25.66v83.59h-25.66Z"/>
      <path class="cls-3" d="M1855.36,1498.93l10.34-18.18c6.89,4.28,14.55,6.42,22.99,6.42,5.94,0,10.54-1.58,13.81-4.72,3.27-3.15,4.9-7.75,4.9-13.81v-5.88c-5.35,4.63-12.48,6.95-21.39,6.95-11.64,0-20.85-3.68-27.62-11.05-6.77-7.37-10.16-16.99-10.16-28.87,0-13.54,4.39-24.45,13.19-32.71,8.79-8.26,20.43-12.38,34.93-12.38,12.71,0,24.89,2.08,36.54,6.24v76.46c0,13.54-3.71,23.67-11.14,30.39-7.43,6.71-17.91,10.07-31.46,10.07-14.5,0-26.14-2.97-34.93-8.91ZM1907.57,1432.81v-25.13c-3.21-1.19-7.07-1.78-11.58-1.78-7.01,0-12.42,2.2-16.22,6.59-3.8,4.4-5.7,9.86-5.7,16.4,0,6.18,1.48,11.02,4.46,14.53,2.97,3.51,7.19,5.26,12.65,5.26,10.93,0,16.4-5.29,16.4-15.86Z"/>
      <path class="cls-3" d="M1951.77,1374.18v-22.99h27.45v22.99h-27.45ZM1952.66,1470.06v-83.59h25.66v83.59h-25.66Z"/>
      <path class="cls-3" d="M2004.17,1438.16v-31.54h-13.19v-20.14h13.19v-25.31h25.66v25.31h21.56v20.14h-21.56v32.97c0,8.44,3.33,12.65,9.98,12.65,3.68,0,7.72-1.48,12.12-4.46l10.34,15.68c-7.96,6.42-16.75,9.62-26.38,9.62-21.15,0-31.72-11.64-31.72-34.93Z"/>
      <path class="cls-3" d="M2121.97,1470.06l-.71-7.84c-5.94,6.89-14.38,10.34-25.31,10.34-3.21,0-6.36-.45-9.45-1.34-3.09-.89-6.09-2.26-9-4.1-2.91-1.84-5.26-4.51-7.04-8.02-1.78-3.5-2.67-7.63-2.67-12.39,0-9.5,3.59-16.93,10.78-22.28,7.19-5.35,16.42-8.02,27.71-8.02,8.2,0,13.19.24,14.97.71v-1.78c0-4.04-1.52-7.04-4.54-9-3.03-1.96-6.86-2.94-11.5-2.94-9.03,0-16.93,2.32-23.7,6.95l-10.52-15.68c10.22-7.37,22.81-11.05,37.78-11.05,12.36,0,21.65,3.33,27.89,9.98,6.24,6.66,9.36,15.92,9.36,27.8v48.65h-24.06ZM2121.26,1439.94v-6.77c-3.33-.47-6.36-.71-9.09-.71-13.07,0-19.6,3.86-19.6,11.58,0,6.89,4.16,10.34,12.47,10.34,4.28,0,8.05-1.31,11.32-3.92,3.27-2.61,4.9-6.12,4.9-10.51Z"/>
      <path class="cls-3" d="M2164.39,1374.18v-22.99h27.45v22.99h-27.45ZM2165.28,1470.06v-83.59h25.66v83.59h-25.66Z"/>
      <path class="cls-3" d="M2206.45,1460.62l12.65-16.4c2.73,2.49,6.33,4.57,10.78,6.24,4.46,1.67,8.76,2.5,12.92,2.5,8.79,0,13.19-2.32,13.19-6.95,0-2.26-1.25-4.07-3.74-5.44-2.5-1.37-7.72-3.12-15.68-5.26-17.35-4.51-26.02-13.07-26.02-25.66,0-7.72,3.33-13.99,9.98-18.8,6.65-4.81,15.09-7.22,25.31-7.22,13.19,0,24.35,3.15,33.5,9.45l-10.87,16.93c-7.13-4.63-14.2-6.95-21.21-6.95-7.49,0-11.23,2.08-11.23,6.24,0,2.26,1.34,4.04,4.01,5.35,2.67,1.31,7.22,2.79,13.63,4.46.36.12.65.21.89.27.24.06.54.12.89.18.36.06.71.15,1.07.27,8.55,2.38,14.76,5.64,18.62,9.8,3.86,4.16,5.79,9.69,5.79,16.57,0,8.68-3.63,15.3-10.87,19.87-7.25,4.57-15.98,6.86-26.2,6.86-16.75,0-29.23-4.1-37.43-12.3Z"/>
    </g>
  </g>
</svg>