<?xml version="1.0" encoding="UTF-8"?>
<svg id="Layer_1" data-name="Layer 1" xmlns="http://www.w3.org/2000/svg" version="1.1" viewBox="0 0 3383.47 2094.31">
  <defs>
    <style>
      .cls-1 {
        fill: #86be41;
      }

      .cls-1, .cls-2 {
        stroke-width: 0px;
      }

      .cls-3 {
        font-family: Effra-Bold, Effra;
        font-size: 178.22px;
        font-weight: 700;
      }

      .cls-3, .cls-2 {
        fill: #fff;
      }
    </style>
  </defs>
  <text/>
  <rect class="cls-1" x="-10.43" y="-55.07" width="3433.07" height="2169.28"/>
  <g>
    <path class="cls-2" d="M1822.42,805.35l-129.89-129.89c-17.82-17.1-46.7-17.1-64.52.71l-129.84,129.18h324.25Z"/>
    <polygon class="cls-2" points="1739.89 970.21 1724.21 1243.84 1899.47 1068.58 1739.89 970.21"/>
    <path class="cls-2" d="M1552.8,852.56h-101.68l-90.53,91.03c-17.82,17.82-17.82,46.7,0,64.52l172.78,183.55,19.43-339.1Z"/>
    <path class="cls-2" d="M1695.82,914.18l47.13,2.7-.08,1.34.72-1.18,190.19,117.23,26.16-26.16c17.82-17.82,17.82-46.7,0-65.23l-90.32-90.32h-269.53l-22.14,386.45,34.38,36.52c13.27,13.27,41.37,16.65,62.21,10.16l21.28-371.51Z"/>
  </g>
  <text class="cls-3" transform="translate(1096.5 1470.06)"><tspan x="0" y="0">Trilhos Digitais</tspan></text>
</svg>