<?xml version="1.0" encoding="UTF-8"?>
<svg id="Layer_2" data-name="Layer 2" xmlns="http://www.w3.org/2000/svg" viewBox="0 0 878.23 878.38">
  <defs>
    <style>
      .cls-1 {
        fill: #86be41;
        stroke-width: 0px;
      }
    </style>
  </defs>
  <g id="Layer_1-2" data-name="Layer 1">
    <g>
      <path class="cls-1" d="M666.57,200.08L484.36,17.87c-24.99-23.99-65.52-23.99-90.51,1l-182.14,181.21h454.86Z"/>
      <polygon class="cls-1" points="550.81 431.34 528.81 815.19 774.67 569.33 550.81 431.34"/>
      <path class="cls-1" d="M288.37,266.3h-142.64l-126.99,127.7c-24.99,24.99-24.99,65.52,0,90.51l242.38,257.48,27.25-475.69h0Z"/>
      <path class="cls-1" d="M488.98,352.74l66.11,3.79-.11,1.88,1.02-1.65,266.79,164.45,36.7-36.7c24.99-24.99,24.99-65.52,0-91.51l-126.7-126.7h-378.1l-31.06,542.11,48.22,51.23c18.61,18.61,58.03,23.35,87.27,14.25l29.86-521.15h0Z"/>
    </g>
  </g>
</svg>