<?xml version="1.0" encoding="UTF-8"?>
<svg id="Camada_11" data-name="Camada 11" xmlns="http://www.w3.org/2000/svg" version="1.1" viewBox="0 0 1911.52 1080">
  <defs>
    <style>
      .cls-1 {
        fill: #7d7287;
      }

      .cls-1, .cls-2, .cls-3, .cls-4, .cls-5, .cls-6, .cls-7, .cls-8, .cls-9, .cls-10, .cls-11, .cls-12, .cls-13 {
        stroke-width: 0px;
      }

      .cls-2 {
        fill: #000;
      }

      .cls-3 {
        fill: #4d5053;
      }

      .cls-4 {
        fill: #a3a08d;
      }

      .cls-5 {
        fill: #b7b7b7;
      }

      .cls-6 {
        fill: #fcf500;
      }

      .cls-7 {
        fill: #2c2a49;
      }

      .cls-8 {
        fill: #919392;
      }

      .cls-9 {
        fill: #d2c2b3;
      }

      .cls-10 {
        fill: #fbb23b;
      }

      .cls-11 {
        fill: #3e4a7c;
      }

      .cls-12 {
        fill: #361f24;
      }

      .cls-13 {
        fill: #f6fad6;
      }
    </style>
  </defs>
  <g>
    <rect class="cls-8" x="47.57" y="96.71" width="1444.2" height="52.55"/>
    <rect class="cls-3" x="47.57" y="149.26" width="1444.2" height="35.74"/>
    <rect class="cls-9" x="47.57" y="681.12" width="1443.68" height="91.97"/>
    <rect class="cls-3" x="232.56" y="185" width="56.76" height="94.6"/>
    <rect class="cls-3" x="1121.79" y="181.74" width="63.07" height="105.11"/>
    <rect class="cls-3" x="245.18" y="279.6" width="31.53" height="437.26"/>
    <rect class="cls-3" x="1138.61" y="285.11" width="31.53" height="437.26"/>
    <rect class="cls-10" x="47.57" y="739.98" width="1443.68" height="16.82"/>
    <rect class="cls-8" x="232.56" y="185" width="16.29" height="94.6"/>
    <rect class="cls-8" x="1121.79" y="184.47" width="19.23" height="102.38"/>
    <rect class="cls-8" x="245.18" y="279.6" width="3.68" height="437.26"/>
    <rect class="cls-8" x="1138.13" y="286.85" width="2.89" height="435.51"/>
    <rect class="cls-6" x="245.18" y="487.72" width="31.53" height="28.91"/>
    <rect class="cls-6" x="1138.13" y="492.28" width="31.96" height="28.91"/>
    <rect class="cls-1" x="47.83" y="773.09" width="49.66" height="22.07"/>
    <rect class="cls-12" x="97.5" y="773.09" width="23.65" height="22.07"/>
    <rect class="cls-1" x="121.15" y="773.09" width="49.66" height="22.07"/>
    <rect class="cls-12" x="170.81" y="773.09" width="23.65" height="22.07"/>
    <rect class="cls-1" x="194.46" y="773.09" width="49.66" height="22.07"/>
    <rect class="cls-12" x="244.12" y="773.09" width="23.65" height="22.07"/>
    <rect class="cls-1" x="267.77" y="773.09" width="49.66" height="22.07"/>
    <rect class="cls-12" x="317.44" y="773.09" width="23.65" height="22.07"/>
    <rect class="cls-1" x="341.09" y="773.09" width="49.66" height="22.07"/>
    <rect class="cls-12" x="390.75" y="773.09" width="23.65" height="22.07"/>
    <rect class="cls-1" x="414.4" y="773.09" width="49.66" height="22.07"/>
    <rect class="cls-12" x="464.07" y="773.09" width="23.65" height="22.07"/>
    <rect class="cls-1" x="487.72" y="773.09" width="49.66" height="22.07"/>
    <rect class="cls-12" x="537.38" y="773.09" width="23.65" height="22.07"/>
    <rect class="cls-1" x="561.03" y="773.09" width="49.66" height="22.07"/>
    <rect class="cls-12" x="610.69" y="773.09" width="23.65" height="22.07"/>
    <rect class="cls-1" x="634.34" y="773.09" width="49.66" height="22.07"/>
    <rect class="cls-12" x="684.01" y="773.09" width="23.65" height="22.07"/>
    <rect class="cls-1" x="707.66" y="773.09" width="49.66" height="22.07"/>
    <rect class="cls-12" x="757.32" y="773.09" width="23.65" height="22.07"/>
    <rect class="cls-1" x="780.97" y="773.09" width="49.66" height="22.07"/>
    <rect class="cls-12" x="830.64" y="773.09" width="23.65" height="22.07"/>
    <rect class="cls-1" x="854.28" y="773.09" width="49.66" height="22.07"/>
    <rect class="cls-12" x="903.95" y="773.09" width="23.65" height="22.07"/>
    <rect class="cls-1" x="927.42" y="773.09" width="49.66" height="22.07"/>
    <rect class="cls-12" x="977.09" y="773.09" width="23.65" height="22.07"/>
    <rect class="cls-1" x="1000.74" y="773.09" width="49.66" height="22.07"/>
    <rect class="cls-12" x="1050.4" y="773.09" width="23.65" height="22.07"/>
    <rect class="cls-1" x="1074.05" y="773.09" width="49.66" height="22.07"/>
    <rect class="cls-12" x="1123.72" y="773.09" width="23.65" height="22.07"/>
    <rect class="cls-1" x="1147.36" y="773.09" width="49.66" height="22.07"/>
    <rect class="cls-12" x="1197.03" y="773.09" width="23.65" height="22.07"/>
    <rect class="cls-1" x="1220.68" y="773.09" width="49.66" height="22.07"/>
    <rect class="cls-12" x="1270.34" y="773.09" width="23.65" height="22.07"/>
    <rect class="cls-1" x="1293.99" y="773.09" width="49.66" height="22.07"/>
    <rect class="cls-12" x="1343.66" y="773.09" width="23.65" height="22.07"/>
    <rect class="cls-1" x="1367.31" y="773.09" width="49.66" height="22.07"/>
    <rect class="cls-12" x="1416.97" y="773.09" width="23.65" height="22.07"/>
    <rect class="cls-1" x="1440.62" y="773.09" width="50.63" height="22.07"/>
    <polygon class="cls-3" points="712.47 248.42 703.01 248.42 702.4 185 712.91 185 712.47 248.42"/>
    <rect class="cls-3" x="664.04" y="247.01" width="244.38" height="15.77"/>
    <rect class="cls-13" x="664.04" y="262.78" width="244.38" height="15.77"/>
    <rect class="cls-4" x="361.5" y="664.1" width="249.81" height="8.76"/>
    <rect class="cls-2" x="429.12" y="657.64" width="133.84" height="4.2"/>
    <rect class="cls-4" x="608.5" y="668.48" width="7.01" height="38.91"/>
    <rect class="cls-5" x="350.99" y="617.35" width="5.26" height="36.44"/>
    <rect class="cls-11" x="360.62" y="584.07" width="206.45" height="70.07"/>
    <rect class="cls-11" x="449.44" y="584.07" width="76.55" height="70.07"/>
    <rect class="cls-11" x="543.51" y="584.07" width="76.55" height="70.07" transform="translate(1163.58 1238.2) rotate(-180)"/>
    <rect class="cls-7" x="350.99" y="653.79" width="206.1" height="10.86"/>
    <rect class="cls-7" x="443.04" y="653.79" width="86.98" height="10.86"/>
    <rect class="cls-7" x="534.23" y="653.79" width="95.47" height="10.86"/>
    <rect class="cls-7" x="349.23" y="615.6" width="11.39" height="3.5"/>
    <rect class="cls-4" x="356.24" y="668.48" width="7.01" height="38.91"/>
    <rect class="cls-5" x="624.45" y="617.35" width="5.26" height="36.44" transform="translate(1254.15 1271.14) rotate(-180)"/>
    <rect class="cls-7" x="620.07" y="615.6" width="11.39" height="3.5" transform="translate(1251.52 1234.7) rotate(-180)"/>
  </g>
  <polyline class="cls-3" points="859.54 185 859.98 248.42 869.44 248.42 870.05 185"/>
  <polyline class="cls-3" points="664.04 262.78 908.42 262.78 908.42 247.01 664.04 247.01"/>
  <polyline class="cls-13" points="664.04 278.55 908.42 278.55 908.42 262.78 664.04 262.78"/>
</svg>