<svg xmlns="http://www.w3.org/2000/svg" id="Camada_11" data-name="Camada 11" version="1.1" viewBox="0 0 1911.52 1080"><defs><style>.cls-1{fill:#7d7287}.cls-1,.cls-10,.cls-11,.cls-12,.cls-13,.cls-2,.cls-3,.cls-4,.cls-5,.cls-6,.cls-7,.cls-8,.cls-9{stroke-width:0}.cls-2{fill:#000}.cls-3{fill:#4d5053}.cls-4{fill:#a3a08d}.cls-5{fill:#b7b7b7}.cls-6{fill:#fcf500}.cls-7{fill:#2c2a49}.cls-8{fill:#919392}.cls-9{fill:#d2c2b3}.cls-10{fill:#fbb23b}.cls-11{fill:#3e4a7c}.cls-12{fill:#361f24}.cls-13{fill:#f6fad6}</style></defs><rect width="1911.94" height="52.55" x=".53" y="193.71" class="cls-8"/><rect width="1911.25" height="91.97" x=".53" y="681.12" class="cls-9"/><rect width="56.76" height="94.6" x="232.56" y="282" class="cls-3"/><rect width="63.07" height="105.11" x="1121.79" y="278.74" class="cls-3"/><rect width="31.53" height="434.85" x="245.18" y="282" class="cls-3"/><rect width="31.53" height="437.26" x="1138.61" y="285.11" class="cls-3"/><rect width="1911.25" height="16.82" x=".53" y="739.98" class="cls-10"/><rect width="16.29" height="94.6" x="232.56" y="282" class="cls-8"/><rect width="19.23" height="102.38" x="1121.79" y="281.47" class="cls-8"/><rect width="3.68" height="437.26" x="245.18" y="279.6" class="cls-8"/><rect width="2.89" height="435.51" x="1138.13" y="286.85" class="cls-8"/><rect width="31.53" height="28.91" x="245.18" y="487.72" class="cls-6"/><rect width="31.96" height="28.91" x="1138.13" y="492.28" class="cls-6"/><rect width="49.66" height="22.07" x="24.18" y="773.09" class="cls-1"/><rect width="23.65" height="22.07" x="73.85" y="773.09" class="cls-12"/><rect width="49.66" height="22.07" x="97.5" y="773.09" class="cls-1"/><rect width="23.65" height="22.07" x="147.16" y="773.09" class="cls-12"/><rect width="1911.94" height="35.74" x=".53" y="246.26" class="cls-3"/><rect width="49.66" height="22.07" x="170.81" y="773.09" class="cls-1"/><rect width="23.65" height="22.07" x="220.47" y="773.09" class="cls-12"/><rect width="49.66" height="22.07" x="244.12" y="773.09" class="cls-1"/><rect width="23.65" height="22.07" x="293.79" y="773.09" class="cls-12"/><rect width="49.66" height="22.07" x="317.44" y="773.09" class="cls-1"/><rect width="23.65" height="22.07" x="367.1" y="773.09" class="cls-12"/><rect width="49.66" height="22.07" x="390.75" y="773.09" class="cls-1"/><rect width="23.65" height="22.07" x="440.42" y="773.09" class="cls-12"/><rect width="49.66" height="22.07" x="464.07" y="773.09" class="cls-1"/><rect width="23.65" height="22.07" x="513.73" y="773.09" class="cls-12"/><rect width="49.66" height="22.07" x="537.38" y="773.09" class="cls-1"/><rect width="23.65" height="22.07" x="587.04" y="773.09" class="cls-12"/><rect width="49.66" height="22.07" x="610.69" y="773.09" class="cls-1"/><rect width="23.65" height="22.07" x="660.36" y="773.09" class="cls-12"/><rect width="49.66" height="22.07" x="684.01" y="773.09" class="cls-1"/><rect width="23.65" height="22.07" x="733.67" y="773.09" class="cls-12"/><rect width="49.66" height="22.07" x="757.32" y="773.09" class="cls-1"/><rect width="23.65" height="22.07" x="806.99" y="773.09" class="cls-12"/><rect width="49.66" height="22.07" x="830.64" y="773.09" class="cls-1"/><rect width="23.65" height="22.07" x="880.3" y="773.09" class="cls-12"/><rect width="49.66" height="22.07" x="903.77" y="773.09" class="cls-1"/><rect width="23.65" height="22.07" x="953.44" y="773.09" class="cls-12"/><rect width="49.66" height="22.07" x="977.09" y="773.09" class="cls-1"/><rect width="23.65" height="22.07" x="1026.75" y="773.09" class="cls-12"/><rect width="49.66" height="22.07" x="1050.4" y="773.09" class="cls-1"/><rect width="23.65" height="22.07" x="1100.07" y="773.09" class="cls-12"/><rect width="49.66" height="22.07" x="1123.72" y="773.09" class="cls-1"/><rect width="23.65" height="22.07" x="1173.38" y="773.09" class="cls-12"/><rect width="49.66" height="22.07" x="1197.03" y="773.09" class="cls-1"/><rect width="23.65" height="22.07" x="1246.69" y="773.09" class="cls-12"/><rect width="49.66" height="22.07" x="1270.34" y="773.09" class="cls-1"/><rect width="30.51" height="22.07" x="1320.01" y="773.09" class="cls-12"/><rect width="64.08" height="22.07" x="1350.52" y="773.09" class="cls-1"/><rect width="31.31" height="22.07" x="1413.57" y="773.09" class="cls-12"/><rect width="67.02" height="22.07" x="1444.88" y="773.09" class="cls-1"/><polygon points="712.47 345.42 703.01 345.42 702.4 282 712.91 282 712.47 345.42" class="cls-3"/><rect width="244.38" height="15.77" x="664.04" y="247.01" class="cls-3"/><g><rect width="249.81" height="8.76" x="361.5" y="664.1" class="cls-4"/><rect width="133.84" height="4.2" x="429.12" y="657.64" class="cls-2"/><rect width="7.01" height="38.91" x="608.5" y="668.48" class="cls-4"/><rect width="5.26" height="36.44" x="350.99" y="617.35" class="cls-5"/><rect width="206.45" height="70.07" x="360.62" y="584.07" class="cls-11"/><rect width="76.55" height="70.07" x="449.44" y="584.07" class="cls-11"/><rect width="76.55" height="70.07" x="543.51" y="584.07" class="cls-11" transform="translate(1163.58 1238.2) rotate(-180)"/><rect width="206.1" height="10.86" x="350.99" y="653.79" class="cls-7"/><rect width="86.98" height="10.86" x="443.04" y="653.79" class="cls-7"/><rect width="95.47" height="10.86" x="534.23" y="653.79" class="cls-7"/><rect width="11.39" height="3.5" x="349.23" y="615.6" class="cls-7"/><rect width="7.01" height="38.91" x="356.24" y="668.48" class="cls-4"/><rect width="5.26" height="36.44" x="624.45" y="617.35" class="cls-5" transform="translate(1254.15 1271.14) rotate(-180)"/><rect width="11.39" height="3.5" x="620.07" y="615.6" class="cls-7" transform="translate(1251.52 1234.7) rotate(-180)"/></g><polyline points="859.54 282 859.98 345.42 869.44 345.42 870.05 282" class="cls-3"/><polyline points="664.04 359.78 908.42 359.78 908.42 344.01 664.04 344.01" class="cls-3"/><polyline points="664.04 375.55 908.42 375.55 908.42 359.78 664.04 359.78" class="cls-13"/><rect width="23.65" height="22.07" x=".53" y="773.09" class="cls-12"/><rect width="23.65" height="22.07" x="1511.91" y="773.09" class="cls-12"/><rect width="49.66" height="22.07" x="1535.56" y="773.09" class="cls-1"/><rect width="23.65" height="22.07" x="1585.22" y="773.09" class="cls-12"/><rect width="49.66" height="22.07" x="1608.87" y="773.09" class="cls-1"/><rect width="23.65" height="22.07" x="1658.53" y="773.09" class="cls-12"/><rect width="49.66" height="22.07" x="1682.18" y="773.09" class="cls-1"/><rect width="23.65" height="22.07" x="1731.85" y="773.09" class="cls-12"/><rect width="49.66" height="22.07" x="1755.5" y="773.09" class="cls-1"/><rect width="30.51" height="22.07" x="1805.16" y="773.09" class="cls-12"/><rect width="64.08" height="22.07" x="1835.68" y="773.09" class="cls-1"/><rect width="13.05" height="22.07" x="1898.73" y="773.09" class="cls-12"/><g><rect width="249.81" height="8.76" x="1329.85" y="664.1" class="cls-4"/><rect width="133.84" height="4.2" x="1397.47" y="657.64" class="cls-2"/><rect width="7.01" height="38.91" x="1576.86" y="668.48" class="cls-4"/><rect width="5.26" height="36.44" x="1319.34" y="617.35" class="cls-5"/><rect width="206.45" height="70.07" x="1328.98" y="584.07" class="cls-11"/><rect width="76.55" height="70.07" x="1417.8" y="584.07" class="cls-11"/><rect width="76.55" height="70.07" x="1511.87" y="584.07" class="cls-11" transform="translate(3100.29 1238.2) rotate(-180)"/><rect width="206.1" height="10.86" x="1319.34" y="653.79" class="cls-7"/><rect width="86.98" height="10.86" x="1411.4" y="653.79" class="cls-7"/><rect width="95.47" height="10.86" x="1502.58" y="653.79" class="cls-7"/><rect width="11.39" height="3.5" x="1317.59" y="615.6" class="cls-7"/><rect width="7.01" height="38.91" x="1324.6" y="668.48" class="cls-4"/><rect width="5.26" height="36.44" x="1592.8" y="617.35" class="cls-5" transform="translate(3190.86 1271.14) rotate(-180)"/><rect width="11.39" height="3.5" x="1588.42" y="615.6" class="cls-7" transform="translate(3188.23 1234.7) rotate(-180)"/></g></svg>