<svg xmlns="http://www.w3.org/2000/svg" id="Camada_1" data-name="Camada 1" version="1.1" viewBox="0 0 500 500"><defs><style>.cls-1{fill:none;stroke:#9c856b;stroke-miterlimit:10;stroke-width:5px}.cls-2,.cls-3{fill:#215d97;stroke-width:0}.cls-3{fill:#153c66}</style></defs><polygon points="280.1 212.58 280.1 206.37 186.89 235.04 189.63 240.79 280.1 212.58" class="cls-2"/><path d="M293.7,235.31c-.85,43.74,0,131.25,0,175,0,19.44-7.39,20.54-7.39,20.54l-72.3,34.51s-15.06,10.95-16.43-18.08c-2.63-55.81-.45-147.53-2.74-196.64-.55-11.78-15.61-17.25-15.61-17.25l-141.59-36.15s-12.56,2.19-12.32,9.31c1.37,42.18,2.45,135.26,3.29,181.03.27,15.06,17.25,10.95,17.25,10.95l69.56-29.3s10.68-3.01,10.41-21.36c-.63-42.45-2.19-169.25-2.19-169.25,0,0,6.13-8.39,20.54-4.93,53.68,12.87,131.46,31.22,131.46,31.22,0,0,18.62,2.19,18.08,30.4Z" class="cls-1"/><polygon points="37.36 195.47 130.75 171.91 279.6 207.79 188.26 235.86 37.36 195.47" class="cls-3"/></svg>