<?xml version="1.0" encoding="UTF-8"?>
<svg id="Camada_1" data-name="Camada 1" xmlns="http://www.w3.org/2000/svg" version="1.1" viewBox="0 0 500 500">
  <defs>
    <style>
      .cls-1 {
        fill: none;
        stroke: #9c856b;
        stroke-miterlimit: 10;
        stroke-width: 5px;
      }

      .cls-2 {
        fill: #215d97;
      }

      .cls-2, .cls-3 {
        stroke-width: 0px;
      }

      .cls-3 {
        fill: #153c66;
      }
    </style>
  </defs>
  <polygon class="cls-2" points="349.36 161.78 349.36 156.65 272.56 180.28 274.82 185.02 349.36 161.78"/>
  <path class="cls-1" d="M360.57,180.51c-.7,36.04,0,108.15,0,144.2,0,16.02-6.09,16.92-6.09,16.92l-59.58,28.43s-12.41,9.03-13.54-14.89c-2.17-45.99-.37-121.56-2.26-162.03-.45-9.7-12.86-14.22-12.86-14.22l-116.67-29.79s-10.35,1.81-10.15,7.67c1.13,34.75,2.02,111.45,2.71,149.17.23,12.41,14.22,9.03,14.22,9.03l57.32-24.15s8.8-2.48,8.58-17.6c-.52-34.98-1.81-139.46-1.81-139.46,0,0,5.05-6.91,16.92-4.06,44.23,10.61,108.32,25.73,108.32,25.73,0,0,15.35,1.81,14.89,25.05Z"/>
  <polygon class="cls-3" points="149.35 147.67 226.3 128.26 348.95 157.83 273.69 180.96 149.35 147.67"/>
</svg>