<?xml version="1.0" encoding="UTF-8"?>
<svg id="Camada_1" data-name="Camada 1" xmlns="http://www.w3.org/2000/svg" version="1.1" viewBox="0 0 500 500">
  <defs>
    <style>
      .cls-1 {
        fill: none;
        stroke: #9c856b;
        stroke-miterlimit: 10;
        stroke-width: 5px;
      }

      .cls-2 {
        fill: #215d97;
      }

      .cls-2, .cls-3 {
        stroke-width: 0px;
      }

      .cls-3 {
        fill: #153c66;
      }
    </style>
  </defs>
  <polygon class="cls-2" points="206.2 238.45 206.2 234.17 141.97 253.93 143.86 257.89 206.2 238.45"/>
  <path class="cls-1" d="M215.58,254.12c-.59,30.15,0,90.45,0,120.61,0,13.4-5.1,14.16-5.1,14.16l-49.83,23.78s-10.38,7.55-11.32-12.46c-1.81-38.46-.31-101.67-1.89-135.52-.38-8.12-10.76-11.89-10.76-11.89l-97.58-24.91s-8.65,1.51-8.49,6.42c.94,29.07,1.69,93.22,2.26,124.76.19,10.38,11.89,7.55,11.89,7.55l47.94-20.2s7.36-2.08,7.17-14.72c-.44-29.25-1.51-116.64-1.51-116.64,0,0,4.22-5.78,14.16-3.4,36.99,8.87,90.6,21.52,90.6,21.52,0,0,12.83,1.51,12.46,20.95Z"/>
  <polygon class="cls-3" points="38.92 226.66 103.28 210.43 205.86 235.15 142.91 254.5 38.92 226.66"/>
</svg>