<svg xmlns="http://www.w3.org/2000/svg" id="Camada_1" data-name="Camada 1" version="1.1" viewBox="0 0 500 500"><defs><style>.cls-1,.cls-2{fill:#f8d63f;stroke-width:0}.cls-2{fill:#e6bf2f}.cls-3{fill:none;stroke:#9c856b;stroke-miterlimit:10;stroke-width:5px}</style></defs><polygon points="337.78 165.42 337.78 158.36 231.88 190.94 234.99 197.47 337.78 165.42" class="cls-1"/><path d="M353.24,191.25c-.97,49.7,0,149.13,0,198.84,0,22.09-8.4,23.34-8.4,23.34l-82.15,39.21s-17.11,12.45-18.67-20.54c-2.99-63.41-.52-167.62-3.11-223.43-.62-13.38-17.74-19.6-17.74-19.6l-160.88-41.08s-14.27,2.49-14,10.58c1.56,47.92,2.79,153.68,3.73,205.69.31,17.11,19.6,12.45,19.6,12.45l79.04-33.3s12.14-3.42,11.82-24.27c-.72-48.23-2.49-192.31-2.49-192.31,0,0,6.96-9.53,23.34-5.6,60.99,14.63,149.36,35.47,149.36,35.47,0,0,21.16,2.49,20.54,34.54Z" class="cls-3"/><polygon points="61.98 145.97 168.09 119.21 337.22 159.97 233.44 191.87 61.98 145.97" class="cls-2"/></svg>