<?xml version="1.0" encoding="UTF-8"?>
<svg id="Camada_1" data-name="Camada 1" xmlns="http://www.w3.org/2000/svg" version="1.1" viewBox="0 0 500 500">
  <defs>
    <style>
      .cls-1 {
        fill: #c1272d;
      }

      .cls-1, .cls-2 {
        stroke-width: 0px;
      }

      .cls-2 {
        fill: #821215;
      }

      .cls-3 {
        fill: none;
        stroke: #9c856b;
        stroke-miterlimit: 10;
        stroke-width: 5px;
      }
    </style>
  </defs>
  <polygon class="cls-2" points="417.96 105.14 417.96 97.19 298.73 133.87 302.23 141.23 417.96 105.14"/>
  <path class="cls-3" d="M435.37,134.22c-1.09,55.96,0,167.91,0,223.88,0,24.88-9.46,26.28-9.46,26.28l-92.5,44.15s-19.27,14.01-21.02-23.12c-3.37-71.4-.58-188.73-3.5-251.56-.7-15.07-19.97-22.07-19.97-22.07l-181.14-46.25s-16.06,2.81-15.77,11.91c1.75,53.96,3.14,173.04,4.2,231.59.35,19.27,22.07,14.01,22.07,14.01l88.99-37.49s13.66-3.85,13.31-27.33c-.81-54.31-2.8-216.53-2.8-216.53,0,0,7.84-10.73,26.28-6.31,68.67,16.47,168.18,39.94,168.18,39.94,0,0,23.82,2.8,23.12,38.89Z"/>
  <polygon class="cls-1" points="107.43 83.24 226.9 53.11 417.32 99.01 300.48 134.92 107.43 83.24"/>
</svg>