<?xml version="1.0" encoding="UTF-8"?>
<svg id="Camada_1" data-name="Camada 1" xmlns="http://www.w3.org/2000/svg" version="1.1" viewBox="0 0 500 500">
  <defs>
    <style>
      .cls-1 {
        fill: #c1272d;
      }

      .cls-1, .cls-2 {
        stroke-width: 0px;
      }

      .cls-2 {
        fill: #821215;
      }

      .cls-3 {
        fill: none;
        stroke: #9c856b;
        stroke-miterlimit: 10;
        stroke-width: 5px;
      }
    </style>
  </defs>
  <polygon class="cls-2" points="461.04 99.34 461.04 90.03 321.43 132.98 325.53 141.59 461.04 99.34"/>
  <path class="cls-3" d="M481.42,133.39c-1.27,65.52,0,196.6,0,262.13,0,29.13-11.08,30.77-11.08,30.77l-108.3,51.69s-22.56,16.41-24.61-27.07c-3.94-83.6-.68-220.98-4.1-294.54-.82-17.64-23.38-25.84-23.38-25.84l-212.08-54.15s-18.81,3.29-18.46,13.95c2.05,63.17,3.68,202.6,4.92,271.16.41,22.56,25.84,16.41,25.84,16.41l104.2-43.89s16-4.51,15.59-32c-.95-63.58-3.28-253.52-3.28-253.52,0,0,9.18-12.56,30.77-7.38,80.4,19.28,196.91,46.77,196.91,46.77,0,0,27.9,3.28,27.07,45.53Z"/>
  <polygon class="cls-1" points="97.45 73.7 237.33 38.42 460.29 92.16 323.48 134.21 97.45 73.7"/>
</svg>