<?xml version="1.0" encoding="UTF-8"?>
<svg id="Camada_1" data-name="Camada 1" xmlns="http://www.w3.org/2000/svg" version="1.1" xmlns:xlink="http://www.w3.org/1999/xlink" viewBox="0 0 815.29 1080">
  <defs>
    <style>
      .cls-1 {
        fill: url(#Gradiente_sem_nome_78-7);
      }

      .cls-1, .cls-2, .cls-3, .cls-4, .cls-5, .cls-6, .cls-7, .cls-8, .cls-9, .cls-10, .cls-11, .cls-12 {
        stroke-miterlimit: 10;
      }

      .cls-1, .cls-2, .cls-4, .cls-5, .cls-7, .cls-8, .cls-9, .cls-11, .cls-12 {
        stroke-width: .25px;
      }

      .cls-1, .cls-2, .cls-5, .cls-6, .cls-7, .cls-8, .cls-9, .cls-10, .cls-11, .cls-12 {
        stroke: #4d4d4e;
      }

      .cls-13 {
        fill: #f6ae6e;
      }

      .cls-13, .cls-14, .cls-15, .cls-16, .cls-17, .cls-18, .cls-19 {
        stroke-width: 0px;
      }

      .cls-14 {
        fill: #efa051;
      }

      .cls-2 {
        fill: url(#Gradiente_sem_nome_78-6);
      }

      .cls-3 {
        fill: url(#Gradiente_sem_nome_17);
        stroke: #f49c1e;
        stroke-width: 8px;
      }

      .cls-15 {
        fill: #ee9022;
      }

      .cls-4 {
        fill: url(#Gradiente_sem_nome_80);
        stroke: #191919;
      }

      .cls-5 {
        fill: url(#Gradiente_sem_nome_78-2);
      }

      .cls-16 {
        fill: #ef9735;
      }

      .cls-6 {
        fill: url(#Gradiente_sem_nome_83);
      }

      .cls-6, .cls-10 {
        stroke-width: .5px;
      }

      .cls-7 {
        fill: url(#Gradiente_sem_nome_78);
      }

      .cls-8 {
        fill: url(#Gradiente_sem_nome_78-5);
      }

      .cls-17 {
        fill: #fed6a6;
      }

      .cls-18 {
        fill: #d97a4a;
      }

      .cls-9 {
        fill: url(#Gradiente_sem_nome_78-4);
      }

      .cls-19 {
        fill: #f6b884;
      }

      .cls-10 {
        fill: url(#Gradiente_sem_nome_78-8);
      }

      .cls-11 {
        fill: url(#Gradiente_sem_nome_78-3);
      }

      .cls-12 {
        fill: url(#Gradiente_sem_nome_82);
      }
    </style>
    <linearGradient id="Gradiente_sem_nome_17" data-name="Gradiente sem nome 17" x1="255.07" y1="141.22" x2="446.17" y2="173.64" gradientUnits="userSpaceOnUse">
      <stop offset="0" stop-color="#e2a15d"/>
      <stop offset=".22" stop-color="#e4a665"/>
      <stop offset=".56" stop-color="#ebb67c"/>
      <stop offset=".99" stop-color="#f7d0a0"/>
      <stop offset="1" stop-color="#f8d1a2"/>
    </linearGradient>
    <linearGradient id="Gradiente_sem_nome_80" data-name="Gradiente sem nome 80" x1="183.76" y1="636.76" x2="591.02" y2="636.76" gradientUnits="userSpaceOnUse">
      <stop offset=".38" stop-color="#fff"/>
      <stop offset=".45" stop-color="#9d9fa2"/>
      <stop offset=".66" stop-color="#231f20"/>
    </linearGradient>
    <linearGradient id="Gradiente_sem_nome_82" data-name="Gradiente sem nome 82" x1="225.78" y1="256.02" x2="540.25" y2="410.63" gradientUnits="userSpaceOnUse">
      <stop offset=".15" stop-color="#fff"/>
      <stop offset=".45" stop-color="#9d9fa2"/>
      <stop offset="1" stop-color="#231f20"/>
    </linearGradient>
    <linearGradient id="Gradiente_sem_nome_78" data-name="Gradiente sem nome 78" x1="257.33" y1="274.89" x2="525.73" y2="406.86" gradientUnits="userSpaceOnUse">
      <stop offset=".2" stop-color="#fff"/>
      <stop offset=".45" stop-color="#9d9fa2"/>
      <stop offset="1" stop-color="#231f20"/>
    </linearGradient>
    <linearGradient id="Gradiente_sem_nome_78-2" data-name="Gradiente sem nome 78" x1="238.23" y1="265.75" x2="527.87" y2="408.15" xlink:href="#Gradiente_sem_nome_78"/>
    <linearGradient id="Gradiente_sem_nome_78-3" data-name="Gradiente sem nome 78" x1="-2431.64" y1="273.68" x2="-2168.29" y2="403.15" gradientTransform="translate(-1918.36) rotate(-180) scale(1 -1)" xlink:href="#Gradiente_sem_nome_78"/>
    <linearGradient id="Gradiente_sem_nome_78-4" data-name="Gradiente sem nome 78" x1="-2454.11" y1="299.68" x2="-2155.57" y2="446.46" gradientTransform="translate(-1925.29 26.6) rotate(178.44) scale(1 -1)" xlink:href="#Gradiente_sem_nome_78"/>
    <linearGradient id="Gradiente_sem_nome_78-5" data-name="Gradiente sem nome 78" x1="261.2" y1="275.61" x2="523.22" y2="404.43" xlink:href="#Gradiente_sem_nome_78"/>
    <linearGradient id="Gradiente_sem_nome_78-6" data-name="Gradiente sem nome 78" x1="-2468.67" y1="291.08" x2="-2155.92" y2="444.85" gradientTransform="translate(-1925.29 26.6) rotate(178.44) scale(1 -1)" xlink:href="#Gradiente_sem_nome_78"/>
    <linearGradient id="Gradiente_sem_nome_78-7" data-name="Gradiente sem nome 78" x1="166.29" y1="219.53" x2="476.07" y2="371.84" gradientTransform="translate(63.3 26.6) rotate(1.56)" xlink:href="#Gradiente_sem_nome_78"/>
    <linearGradient id="Gradiente_sem_nome_83" data-name="Gradiente sem nome 83" x1="282.24" y1="572.47" x2="662.85" y2="710.35" gradientUnits="userSpaceOnUse">
      <stop offset=".15" stop-color="#515254"/>
      <stop offset=".15" stop-color="#636466"/>
      <stop offset=".16" stop-color="#787a7c"/>
      <stop offset=".16" stop-color="#898a8d"/>
      <stop offset=".17" stop-color="#949699"/>
      <stop offset=".18" stop-color="#9b9da0"/>
      <stop offset=".21" stop-color="#9d9fa2"/>
      <stop offset=".37" stop-color="#cccccb"/>
      <stop offset=".44" stop-color="rgba(197, 197, 196, .99)" stop-opacity=".99"/>
      <stop offset=".54" stop-color="rgba(179, 179, 178, .96)" stop-opacity=".96"/>
      <stop offset=".66" stop-color="rgba(150, 149, 148, .91)" stop-opacity=".91"/>
      <stop offset=".79" stop-color="rgba(109, 107, 107, .83)" stop-opacity=".83"/>
      <stop offset=".94" stop-color="rgba(58, 55, 55, .74)" stop-opacity=".74"/>
      <stop offset="1" stop-color="#231f20" stop-opacity=".7"/>
    </linearGradient>
    <linearGradient id="Gradiente_sem_nome_78-8" data-name="Gradiente sem nome 78" x1="61.61" y1="560.96" x2="452.55" y2="806.43" xlink:href="#Gradiente_sem_nome_78"/>
  </defs>
  <g>
    <circle class="cls-3" cx="381.32" cy="162.63" r="96.9"/>
    <g>
      <path class="cls-17" d="M382.69,247.66c-1.34-.04-2.68-.04-4.01-.1-.8-.03-1.6-.09-2.4-.13-.94-.05-1.88-.11-2.82-.24-.98-.13-1.97-.25-2.95-.41-.98-.17-1.91-.49-2.84-.82-.8-.27-1.62-.51-2.38-.9-.69-.37-1.33-.84-1.94-1.33-.45-.36-.88-.75-1.26-1.18-.04,0-.07,0-.11,0-.3,0-.59-.06-.88-.18-.59-.25-1.07-.76-1.28-1.37-.31.06-.62.12-.93.18-.72.14-1.43.24-2.16.31-.84.09-1.67.2-2.5.3-.87.1-1.73.1-2.6.09-.85-.01-1.69-.05-2.53-.12-1.63-.14-3.23-.57-4.82-.94-.85-.2-1.69-.41-2.51-.69-.81-.27-1.61-.59-2.42-.89-.73-.27-1.46-.52-2.17-.85-.76-.35-1.49-.74-2.19-1.2-.75-.49-1.44-1.05-2.14-1.61-.7-.56-1.4-1.11-2.07-1.71-.63-.57-1.21-1.18-1.75-1.83-.57-.68-1.05-1.43-1.53-2.18-.48-.76-.99-1.51-1.43-2.29-.27-.48-.52-.96-.71-1.48-.18-.48-.33-.96-.48-1.45-.13-.42-.25-.85-.39-1.27-.13-.4-.26-.8-.35-1.21-.1-.46-.18-.93-.22-1.4-.41-.18-.82-.34-1.24-.49-.79-.29-1.54-.63-2.28-1.04-.75-.41-1.44-.93-2.12-1.43-.65-.48-1.3-.96-1.91-1.5-.74-.65-1.39-1.38-2.04-2.12-1.1-1.26-2.11-2.59-2.99-4.02-.96-1.58-1.87-3.22-2.45-4.98-.56-1.69-.96-3.44-1.33-5.19-.38-1.8-.71-3.6-.71-5.45,0-1.68.03-3.37.26-5.03.14-1.04.34-2.07.69-3.07.06-.18.13-.35.2-.52-.47-.39-.94-.79-1.37-1.22-1.27-1.27-2.28-2.75-3.21-4.28-.49-.81-.93-1.66-1.26-2.55-.34-.9-.66-1.82-.95-2.74-.55-1.73-.75-3.59-.81-5.4-.06-1.71.03-3.42.3-5.11.14-.88.36-1.74.63-2.58.28-.88.65-1.72,1-2.56.31-.73.61-1.46.95-2.17.21-.44.44-.88.68-1.31.25-.44.55-.86.83-1.28.52-.76,1.12-1.46,1.75-2.13.21-.22.44-.43.68-.63-.06-.11-.11-.21-.16-.32-.71-1.45-1.25-3-1.8-4.51-.67-1.82-1.1-3.72-1.33-5.65-.2-1.71-.15-3.44-.09-5.15.01-.34.02-.68.05-1.02.01-.27.04-.55.07-.82.04-.4.09-.81.15-1.21.15-.98.34-1.95.56-2.91.22-.96.5-1.9.85-2.83.34-.88.76-1.73,1.21-2.57.85-1.59,1.75-3.18,2.84-4.63.47-.63.97-1.25,1.52-1.82.54-.57,1.12-1.1,1.69-1.63.31-.29.65-.56.97-.84.37-.32.82-.58,1.23-.85.66-.43,1.36-.81,2.07-1.18.77-.41,1.58-.75,2.39-1.09.79-.33,1.59-.61,2.41-.84.77-.22,1.58-.32,2.38-.29.29.01.58.05.87.11.02-.15.05-.31.07-.46.12-.69.27-1.35.5-2.01.52-1.53,1.08-3.05,1.68-4.56.62-1.53,1.38-3,2.2-4.43.83-1.46,1.82-2.82,2.88-4.14.91-1.14,1.83-2.29,2.83-3.34.51-.54,1.06-1.04,1.61-1.54.57-.51,1.14-1.01,1.72-1.49.53-.43,1.08-.84,1.63-1.24.63-.46,1.26-.91,1.92-1.33.68-.43,1.42-.74,2.18-1,.66-.22,1.35-.33,2.03-.47,1.21-.26,2.4-.61,3.6-.94.58-.16,1.15-.32,1.74-.44.71-.15,1.4-.24,2.12-.28.6-.04,1.2.01,1.8.06.66.05,1.3.18,1.94.34.61.16,1.22.36,1.81.58.3.11.59.24.89.37.4-.39.78-.8,1.19-1.19.59-.56,1.23-1.08,1.89-1.55,1.32-.94,2.8-1.53,4.29-2.13,1.57-.64,3.22-1.07,4.82-1.6,1.61-.52,3.28-.91,4.94-1.23,1.72-.33,3.49-.33,5.23-.28,1.67.04,3.36.13,5,.5,1.79.4,3.57,1.06,5.16,1.99.73.43,1.39.99,2,1.58.65.62,1.27,1.29,1.83,2,.35.45.68.92,1.04,1.36.06.06.12.12.18.18,0,0,.02.01.02.02.03,0,.06,0,.09-.01.12-.03.24-.07.36-.11.7-.26,1.38-.56,2.08-.83.76-.29,1.53-.51,2.32-.68,1.73-.38,3.54-.43,5.31-.39,1.79.04,3.55.3,5.28.77,1.59.43,3.18.94,4.65,1.67.82.41,1.63.85,2.39,1.36.75.5,1.47,1.02,2.18,1.55.69.52,1.39,1.02,2.08,1.54.74.55,1.44,1.16,2.11,1.79,1.21,1.14,2.23,2.5,3.16,3.88.5.75.97,1.54,1.31,2.38.24.6.42,1.21.6,1.82.45.11.92.18,1.37.3.78.2,1.54.49,2.31.74.83.27,1.65.55,2.45.89.84.35,1.65.75,2.46,1.16,1.55.79,2.98,1.8,4.28,2.97.66.6,1.25,1.29,1.8,1.99.59.76,1.13,1.55,1.65,2.35.97,1.51,1.78,3.13,2.58,4.74.76,1.52,1.36,3.12,1.95,4.71.31.84.61,1.68.86,2.54.24.84.46,1.69.66,2.54.4,1.68.72,3.39,1.02,5.09.27,1.51.4,3.04.37,4.57-.02.9-.06,1.79-.2,2.67-.06.39-.14.78-.24,1.17.11.12.21.25.29.39.16.27.26.58.31.89.02.15.02.29.02.43.05.06.11.13.16.19.46.56.89,1.15,1.31,1.74.5.7.96,1.43,1.35,2.2.38.76.71,1.55,1.03,2.34,1.29,3.22,2.03,6.65,2.48,10.08.13.96.21,1.91.27,2.88.05.84.01,1.69-.02,2.54-.06,1.75-.24,3.52-.51,5.25-.14.88-.31,1.76-.56,2.62-.23.8-.49,1.6-.72,2.41-.24.85-.48,1.71-.85,2.51-.41.89-.95,1.72-1.55,2.49-.1.12-.2.24-.3.36.03.08.07.16.1.23.33.78.62,1.58.85,2.4.27.96.37,1.97.4,2.97.03.91-.01,1.84-.08,2.75-.13,1.7-.48,3.36-.94,5-.23.83-.49,1.65-.74,2.47-.24.77-.45,1.55-.7,2.31-.55,1.66-1.22,3.27-1.92,4.87-.7,1.61-1.43,3.21-2.3,4.74-.46.81-1.04,1.56-1.6,2.3-.52.69-1.04,1.38-1.56,2.06-.99,1.32-2.1,2.56-3.29,3.71-.41.4-.84.78-1.29,1.14-.43.34-.88.66-1.32.99-.82.63-1.6,1.3-2.42,1.93-.49.38-1,.76-1.55,1.06-.52.29-1.05.54-1.6.77-.34.15-.69.29-1.04.4,0,.06,0,.11,0,.17-.01.64-.07,1.25-.2,1.88-.14.63-.39,1.25-.61,1.85-.27.71-.58,1.4-.88,2.1-.35.78-.72,1.57-1.18,2.3-.43.67-.89,1.32-1.41,1.92-.57.68-1.17,1.33-1.81,1.95-.64.61-1.31,1.19-1.99,1.75-1.32,1.09-2.65,2.15-4.07,3.1-.72.48-1.44.93-2.19,1.36-.74.42-1.52.79-2.3,1.14-1.5.68-2.99,1.39-4.51,2.03-.77.32-1.55.62-2.32.93-.75.3-1.48.62-2.23.91-1.3.52-2.64,1-4.01,1.32-.74.18-1.49.29-2.24.42-.74.12-1.48.23-2.23.25-.72.03-1.45-.04-2.16-.14-.71-.1-1.43-.25-2.11-.47-.6-.2-1.17-.45-1.73-.74-.16-.08-.31-.18-.46-.28,0,0-.01,0-.02,0-.07,0-.14.02-.21.03-.07.02-.14.04-.21.06-.24.09-.47.19-.69.3-.43.22-.86.45-1.28.69-.67.39-1.33.79-2.02,1.13-.6.3-1.22.57-1.83.83-.84.35-1.7.58-2.59.76-.82.16-1.65.25-2.49.29-.22.01-.44.02-.65.02-.47,0-.95-.02-1.42-.03ZM382.41,243.49c.75,0,1.51.02,2.26-.02.52-.05,1.04-.13,1.55-.23.42-.09.83-.2,1.24-.33.74-.27,1.46-.62,2.16-.97.89-.46,1.72-1,2.55-1.56.17-.11.34-.22.51-.33.02-.02.05-.03.07-.05.05-.03.1-.06.15-.09,0,0,.02-.01.03-.02,0,0,.01,0,.02,0,.03-.02.06-.04.09-.06.01,0,.03-.02.04-.02.04-.02.08-.05.12-.07.05-.03.1-.06.15-.09-.06-.23-.12-.46-.18-.69-.23-.88-.44-1.76-.67-2.64-.25-.94-.47-1.89-.65-2.85-.18-.95-.33-1.91-.52-2.86-.63-2.96-1.47-5.87-2.1-8.83-.66-3.07-1.41-6.12-2.1-9.18-.35-1.57-.74-3.14-1.09-4.71-.35-1.53-.68-3.07-1.03-4.6-.34-1.49-.65-2.98-.96-4.47-.33-1.6-.71-3.19-1.02-4.79-.35-1.79-.63-3.59-.98-5.38-.31-1.48-.66-2.95-1-4.43-.36-1.57-.69-3.14-1.06-4.71-.37-1.54-.8-3.07-1.21-4.6-.07-.27-.15-.54-.22-.82-.13-.49-.27-.99-.4-1.48-.01-.05-.03-.1-.04-.15-.07-.27-.15-.54-.22-.82-.04.2-.09.4-.13.6,0,.04-.02.09-.03.13,0,.03-.01.07-.02.1-.02.11-.05.21-.07.32-.06.29-.13.58-.19.88-.02.09-.04.19-.06.28,0,0,0,.01,0,.02-.02.07-.03.15-.05.22-.04.16-.07.32-.11.48-.07.34-.15.67-.22,1.01-.23,1.04-.45,2.09-.66,3.14-.62,3.05-1.25,6.11-1.73,9.19-.25,1.62-.48,3.25-.76,4.87-.27,1.52-.59,3.04-.89,4.56-.31,1.6-.61,3.2-.9,4.8-.27,1.52-.52,3.04-.77,4.57-.26,1.59-.54,3.18-.78,4.77-.24,1.58-.47,3.16-.72,4.73-.32,1.96-.68,3.9-1.02,5.85-.17.99-.35,1.98-.55,2.97-.21,1.04-.44,2.08-.66,3.11-.25,1.22-.48,2.43-.78,3.64-.3,1.2-.65,2.39-.98,3.58-.3,1.07-.66,2.13-.93,3.21-.06.23-.11.45-.17.68.02.03.04.06.06.09.03.04.05.08.08.11.01.02.03.04.05.06.01.02.03.03.04.05,0,0,0,0,0,0,.03.03.05.07.08.1.09.1.19.19.29.29.35.29.71.56,1.08.81.28.18.56.36.86.51.19.09.38.16.58.24.74.25,1.49.5,2.23.76-.09-.03-.17-.06-.26-.09.41.14.83.26,1.25.36.91.17,1.84.28,2.75.41.73.11,1.46.19,2.19.24.62.04,1.24.08,1.86.12,1.11.07,2.22.1,3.34.09.09,0,.17,0,.26,0,.32,0,.65,0,.97,0ZM382.5,174.51c.39,1.53.79,3.06,1.16,4.6.36,1.5.69,3,1.05,4.5.38,1.57.77,3.13,1.1,4.71.33,1.57.6,3.15.91,4.71.33,1.55.7,3.09,1.03,4.63.31,1.45.63,2.89.96,4.33.37,1.59.72,3.18,1.09,4.77.35,1.52.73,3.04,1.05,4.58.12.57.24,1.15.35,1.72.32,1.52.66,3.03.98,4.54.31,1.52.57,3.06.88,4.59.38,1.81.81,3.62,1.21,5.43.22.96.42,1.92.61,2.89.18.92.33,1.85.51,2.76.24,1.14.54,2.26.79,3.4.13.62.3,1.24.47,1.85.01.05.03.1.04.14h0s0,0,0,0c.02,0,.04,0,.07,0h0s.05,0,.07,0c0,0,0,0,.01,0,.03,0,.05,0,.08.01.03,0,.05,0,.08.01,0,0,0,0,0,0,.02,0,.03,0,.05,0,.02,0,.04,0,.07.01,0,0,.02,0,.03,0,.03,0,.06.01.09.02.02,0,.05.01.08.02.03,0,.05.01.08.02.05.02.1.03.15.05,0,0,0,0,0,0,.03,0,.05.02.08.03,0,0,0,0,.01,0,.03.01.06.02.08.03.03.01.06.03.1.04.03.01.06.03.1.04,0,0,.01,0,.02,0,0,0,.01,0,.02,0,0,0,0,0,.01,0,.02.01.04.02.06.03.02.01.05.03.07.04.33.18.58.45.85.71.02.01.04.03.05.04.1.06.19.12.3.17.18.09.37.16.56.24.29.09.59.17.89.24.4.07.8.13,1.21.16.26.01.53.01.79,0,.89-.09,1.78-.26,2.65-.43.83-.18,1.64-.42,2.44-.69.95-.34,1.88-.73,2.8-1.12,1.01-.42,2.03-.81,3.04-1.23,1.01-.42,2.01-.88,3.02-1.33.93-.42,1.87-.82,2.8-1.26.94-.49,1.84-1.03,2.73-1.61.75-.51,1.48-1.05,2.18-1.62.71-.58,1.41-1.17,2.1-1.77.56-.51,1.09-1.05,1.61-1.61.45-.52.87-1.06,1.27-1.62.26-.4.5-.82.73-1.24.49-1.03.94-2.08,1.32-3.15.16-.46.31-.93.41-1.41.09-.45.16-.89.2-1.35,0-.07,0-.13,0-.2-.06-.19-.1-.37-.14-.58-.03-.17-.05-.35-.05-.53h0s0-.08,0-.11c0-.03,0-.06,0-.09,0,0,0-.02,0-.02,0-.01,0-.03,0-.04,0,0,0,0,0,0,0,0,0,0,0,0,0-.02,0-.04,0-.07,0,0,0-.02,0-.02,0,0,0,0,0-.01,0,0,0,0,0,0,0-.01,0-.02,0-.03,0,0,0,0,0,0,0,0,0-.01,0-.02,0-.03.01-.07.02-.1-.11-.09-.22-.17-.32-.26-.84-.7-1.63-1.45-2.44-2.18-.62-.53-1.27-1.01-1.91-1.52-.79-.63-1.54-1.3-2.29-1.98-1.63-1.42-3.31-2.79-5.06-4.06-.9-.65-1.77-1.34-2.63-2.05-.88-.73-1.77-1.45-2.64-2.19-1.66-1.41-3.29-2.86-4.95-4.27-.88-.75-1.74-1.51-2.6-2.27-.81-.72-1.59-1.46-2.4-2.18-1.27-1.1-2.56-2.19-3.82-3.31-1.3-1.17-2.58-2.37-3.88-3.54-.79-.69-1.6-1.38-2.34-2.13-.79-.79-1.52-1.62-2.29-2.43-1.51-1.57-3.17-3-4.77-4.48-.84-.78-1.67-1.58-2.51-2.35-.8-.73-1.6-1.47-2.39-2.21-.09-.08-.18-.17-.27-.25,0,0,0,0-.01-.01-.04-.04-.08-.08-.12-.12.08.3.15.6.23.9ZM371.95,174.35c-.15.17-.29.33-.44.5,0,0-.01.01-.02.02-.01.01-.02.03-.04.04-.16.18-.33.37-.49.55-.81.91-1.64,1.8-2.46,2.7-1.71,1.88-3.41,3.77-5.12,5.64-.85.93-1.72,1.83-2.61,2.71-.87.86-1.77,1.69-2.65,2.53-1.86,1.76-3.68,3.55-5.5,5.36-1.78,1.77-3.43,3.68-5.13,5.52-1.65,1.78-3.29,3.58-4.91,5.39-.78.88-1.58,1.74-2.41,2.57-.86.85-1.74,1.68-2.63,2.51-1.72,1.59-3.41,3.21-5.13,4.79-.94.86-1.9,1.7-2.76,2.65-.45.52-.88,1.06-1.33,1.59-.03.04-.06.07-.09.11,0,.04,0,.07.01.11,0,.01,0,.02,0,.03,0,0,0,.01,0,.02,0,.05.01.11.02.16.04.36.09.73.15,1.09.14.57.33,1.13.51,1.7.17.55.33,1.11.51,1.66.09.23.19.46.29.69.29.55.63,1.07.96,1.59.37.58.73,1.16,1.11,1.74.31.44.63.86.97,1.27.44.49.91.94,1.4,1.38.54.47,1.09.93,1.63,1.38.6.51,1.21,1,1.85,1.45.33.21.67.41,1.01.59.64.31,1.29.59,1.94.85.77.3,1.54.61,2.32.9,1.53.51,3.11.86,4.69,1.19.75.15,1.51.26,2.27.33,1.07.06,2.16.09,3.24.04.63-.05,1.25-.16,1.88-.24.67-.09,1.35-.14,2.03-.22,1-.12,1.98-.37,2.98-.48.14-.01.28-.03.42-.04.01,0,.02,0,.04,0,.06,0,.13-.01.19-.02,0,0,0,0,.01,0,.06,0,.12,0,.18-.01,0,0,.01,0,.02,0,0,0,.01,0,.02,0,0-.02.01-.04.02-.06.01-.04.03-.08.04-.12.01-.04.03-.09.04-.13.03-.08.05-.15.08-.23.08-.24.17-.48.26-.71.29-.9.53-1.82.77-2.73.26-.96.5-1.92.7-2.89.31-1.58.62-3.16.94-4.74.3-1.48.55-2.96.81-4.45.26-1.52.55-3.03.8-4.55.26-1.57.48-3.15.73-4.73.25-1.6.53-3.19.8-4.78.54-3.13,1.07-6.25,1.66-9.37.3-1.57.61-3.13.9-4.7.29-1.56.49-3.14.74-4.71.03-.18.06-.36.09-.55.02-.13.04-.25.06-.38,0-.05.02-.11.03-.17,0-.05.02-.1.03-.16,0-.06.02-.12.03-.18,0-.04.01-.08.02-.12.02-.13.04-.27.07-.4.03-.2.07-.39.1-.59.02-.13.05-.26.07-.38.02-.12.04-.23.06-.35.07-.36.13-.73.2-1.09.04-.21.08-.41.12-.62.04-.21.08-.41.12-.62.04-.21.08-.41.12-.62.04-.21.08-.41.12-.62.04-.21.08-.41.12-.62.02-.12.05-.25.07-.37.03-.13.05-.27.08-.4.03-.16.06-.31.09-.47h0c.04-.21.08-.41.13-.62s.08-.41.13-.62c.04-.2.08-.4.12-.59.07-.34.14-.69.21-1.03.05-.23.1-.46.15-.7,0-.03.01-.06.02-.1.05-.23.1-.45.14-.68.04-.18.08-.36.12-.54.08-.36.15-.72.23-1.08-.35.4-.71.81-1.06,1.21ZM313.6,186.6c-.08.13-.16.27-.24.4-.15.25-.29.51-.43.77-.15.32-.29.63-.41.96-.13.41-.23.82-.33,1.24-.17.96-.28,1.93-.35,2.91-.05.96-.1,1.92-.06,2.89.11,1.18.32,2.35.55,3.51.33,1.54.67,3.08,1.14,4.59.21.57.45,1.13.71,1.67.55,1.06,1.15,2.09,1.8,3.08.71,1.01,1.49,1.95,2.3,2.88.41.46.84.9,1.3,1.32.82.68,1.67,1.31,2.54,1.92.48.32.98.61,1.49.87.68.33,1.37.65,2.04,1.02.19.1.37.21.56.32.04-.07.08-.14.13-.21.04-.07.08-.13.12-.2s.08-.13.12-.2c.71-1.1,1.56-2.1,2.47-3.03,1.65-1.69,3.31-3.37,4.93-5.09,1.45-1.53,2.94-3.03,4.34-4.62,1.32-1.51,2.6-3.06,3.93-4.57.09-.1.17-.19.26-.29.09-.1.17-.19.26-.29.02-.02.04-.05.06-.07.09-.11.19-.21.28-.32.29-.32.57-.65.86-.97.14-.16.28-.31.41-.47.09-.1.17-.2.26-.3.08-.09.16-.18.24-.28.07-.08.14-.16.21-.23.87-.99,1.74-1.98,2.63-2.95.82-.89,1.69-1.75,2.55-2.61,1.83-1.8,3.65-3.61,5.5-5.38.91-.87,1.82-1.75,2.7-2.65.88-.9,1.72-1.83,2.57-2.75,1.72-1.88,3.41-3.78,5.11-5.68.45-.5.89-1,1.33-1.5.13-.15.27-.3.4-.46.04-.05.09-.1.13-.15,0,0,0,0,.01-.01.04-.05.08-.1.13-.15.04-.05.08-.1.12-.14.02-.03.05-.05.07-.08.07-.08.13-.15.2-.23.04-.05.09-.1.13-.15.01-.02.03-.03.04-.05.11-.13.23-.27.34-.4,0,0,.01-.01.02-.02-.09.04-.18.07-.27.11-.31.12-.62.25-.93.37-.04.02-.09.03-.13.05-.02,0-.04.02-.06.02-.09.03-.17.07-.26.1-.02,0-.04.02-.06.02,0,0,0,0-.01,0-.02,0-.05.02-.08.03-.14.05-.27.1-.41.15-1.33.48-2.7.88-4.05,1.31-1.83.58-3.65,1.18-5.46,1.8-1.27.45-2.53.89-3.81,1.29-1.22.38-2.45.76-3.67,1.13-1.29.4-2.59.74-3.89,1.08-1.29.34-2.59.64-3.9.91-.02,0-.03,0-.05.01-.03,0-.06.01-.09.02-.02,0-.05.01-.07.02-.16.03-.32.06-.48.1-.23.05-.47.09-.7.14-.2.04-.4.08-.59.12-.04,0-.07.01-.11.02-.05.01-.11.02-.17.03-.13.02-.25.05-.38.07h0c-.05.01-.1.02-.16.03-.08.01-.16.03-.23.04-.09.02-.17.03-.26.05-.07.01-.14.03-.21.04-.32.06-.64.12-.96.18-.11.02-.21.04-.32.06-.18.03-.37.07-.55.11-.18.04-.37.07-.55.11-.5.11-.98.24-1.47.39-.56.17-1.11.37-1.67.54-.57.16-1.14.3-1.71.45-.58.15-1.15.32-1.72.5-.53.17-1.06.34-1.6.47-.55.13-1.1.25-1.65.4-.57.16-1.13.35-1.69.55-.48.17-.97.33-1.45.49-1.02.38-1.97.9-3,1.27-.53.19-1.07.37-1.61.54-.48.15-.95.32-1.43.44-.5.12-1,.2-1.5.29-.49.09-.98.19-1.47.2-.06,0-.13,0-.19,0-.04,0-.07,0-.11,0,0,0,0,0-.01,0-.02,0-.05,0-.07,0,0,0-.01,0-.02,0-.03,0-.06,0-.1,0-.02,0-.04,0-.06,0,0,0,0,0,0,0h0s-.02.04-.04.07ZM396.27,179.89c.47.47.93.95,1.4,1.42.41.41.85.8,1.28,1.19.92.8,1.85,1.6,2.76,2.41.93.83,1.85,1.69,2.78,2.52.94.82,1.9,1.63,2.84,2.45,1.08.94,2.13,1.93,3.2,2.88.09.08.17.15.26.23,1.61,1.41,3.25,2.79,4.88,4.17.83.71,1.67,1.42,2.51,2.11.89.73,1.79,1.45,2.68,2.18,1.49,1.22,3.09,2.27,4.57,3.49.75.62,1.51,1.24,2.25,1.88.75.64,1.46,1.3,2.2,1.95.88.76,1.8,1.47,2.65,2.26.76.71,1.5,1.44,2.27,2.14.39.34.8.66,1.22.95.14.09.28.18.42.26.04.02.07.04.11.06.08-.04.16-.09.24-.14.08-.05.16-.09.23-.14.83-.59,1.59-1.26,2.37-1.92.79-.66,1.62-1.25,2.4-1.91.73-.66,1.4-1.38,2.06-2.11.62-.72,1.19-1.48,1.75-2.24.61-.81,1.22-1.62,1.8-2.45.34-.54.65-1.08.94-1.65.58-1.19,1.1-2.4,1.62-3.61.52-1.21,1.02-2.42,1.47-3.66.38-1.13.72-2.26,1.08-3.39.38-1.19.72-2.4.99-3.62.14-.74.25-1.48.32-2.24.04-.75.06-1.5.04-2.26-.03-.38-.08-.75-.15-1.12-.07-.26-.14-.51-.22-.77-.15-.39-.31-.77-.49-1.15-.05-.09-.1-.19-.15-.28-.09-.01-.17-.02-.25-.03-.21-.03-.42-.05-.63-.07-.08,0-.17-.02-.25-.03-.02,0-.04,0-.05,0-.1,0-.19-.02-.29-.03-.06,0-.13-.01-.19-.02-.08,0-.16-.01-.23-.02-.06,0-.11,0-.17-.01-.1,0-.2-.01-.3-.02-.02,0-.04,0-.06,0-.14-.01-.29-.02-.43-.03-.6-.05-1.2-.1-1.8-.14-.77-.05-1.54-.14-2.31-.2-.67-.04-1.35-.07-2.02-.15-.64-.07-1.28-.17-1.92-.24-.64-.07-1.28-.13-1.91-.21-.67-.09-1.34-.2-2-.32-1.27-.23-2.53-.46-3.8-.68-.62-.11-1.23-.2-1.85-.3-.72-.11-1.43-.26-2.14-.4-.92-.18-1.85-.29-2.77-.46-1.04-.19-2.06-.51-3.1-.73-.71-.14-1.42-.29-2.11-.48-.74-.21-1.48-.41-2.23-.57-.61-.12-1.22-.25-1.83-.39-.67-.16-1.34-.35-2.01-.5-.71-.16-1.42-.32-2.13-.49-.63-.15-1.26-.33-1.9-.47-.74-.14-1.49-.24-2.24-.38-.92-.17-1.81-.44-2.72-.65-.79-.14-1.59-.23-2.38-.36-.84-.14-1.66-.34-2.49-.51-1.38-.24-2.78-.37-4.15-.64-.7-.14-1.4-.27-2.11-.39-.71-.12-1.42-.21-2.13-.32-1.42-.23-2.83-.48-4.24-.73-1.51-.27-3.01-.54-4.51-.88-.46-.1-.93-.21-1.39-.32-.26-.06-.52-.12-.78-.18-.12-.03-.24-.06-.36-.08h0s.1.1.15.14c.08.07.15.15.23.22.22.21.43.42.64.64.83.84,1.66,1.68,2.54,2.46.42.37.83.74,1.25,1.1,1.91,1.68,3.79,3.4,5.7,5.09-.08-.07-.16-.14-.24-.21,1.13,1,2.25,2.01,3.31,3.09ZM311.86,156.25s-.02,0-.03,0c-.13.05-.26.11-.38.17-.11.06-.21.13-.32.19-.06.05-.12.09-.19.14-.23.22-.45.44-.67.67-.31.38-.61.77-.9,1.17-.21.33-.42.67-.61,1.02-.6,1.23-1.14,2.5-1.62,3.78-.15.45-.27.91-.38,1.37-.14.78-.24,1.55-.3,2.34-.05.99-.04,1.97,0,2.96.08.92.18,1.84.34,2.75.23,1.03.55,2.05.88,3.05.13.33.26.65.41.97.44.85.95,1.66,1.47,2.46.25.36.53.71.81,1.05.79.86,1.65,1.64,2.5,2.44.02.02.04.04.06.06,0,0,.02.02.03.03,0,0,0,0,.01.01,0,0,0,0,.01.01,0,0,0,0,0,0,0,0,.02.02.02.02,0,0,.01.01.02.02,0,0,.02.02.03.03,0,0,.01.01.02.02h0s.02.02.02.03c0,0,.02.02.03.03,0,0,.02.02.02.02.01.01.02.02.03.04.01.01.02.02.03.03,0,0,0,0,.01.01,0,0,0,0,.01.01,0,0,.01.01.02.02.02.03.04.05.06.08,0,0,0,0,0,0,.03.04.05.07.08.11,0,0,0,.01.01.02,0,0,0,.01.01.02,0,0,0,0,0,0,0,0,0,0,0,0,0,.01.01.02.02.03,0,0,0,0,0,.01,0,.01.02.03.03.04,0,0,0,0,0,0,0,0,0,0,0,0,0,.01.02.02.02.04,0,.02.02.03.03.05.07,0,.15,0,.22,0,.19-.02.38-.04.57-.08.37-.08.73-.17,1.09-.25.42-.09.83-.18,1.24-.3.86-.26,1.74-.5,2.59-.77.74-.27,1.45-.62,2.19-.89.79-.3,1.61-.53,2.41-.79.77-.25,1.54-.5,2.33-.7.78-.2,1.55-.39,2.32-.65.66-.23,1.32-.46,1.99-.66.68-.2,1.37-.4,2.04-.63.65-.23,1.29-.48,1.94-.68.61-.19,1.24-.32,1.86-.45,1.32-.28,2.63-.59,3.94-.92,1.38-.34,2.75-.67,4.12-1.05,1.3-.37,2.6-.76,3.88-1.2,1.29-.46,2.58-.92,3.86-1.41,1.35-.52,2.69-1.09,4.03-1.64,1.42-.57,2.84-1.13,4.27-1.67,1.3-.49,2.62-.95,3.92-1.45,1.32-.51,2.59-1.13,3.88-1.71.61-.27,1.23-.55,1.84-.82-.18-.02-.36-.05-.55-.08-.06,0-.12-.02-.18-.03-.05,0-.1-.01-.14-.02-.05,0-.1-.02-.16-.02-.1-.01-.2-.03-.3-.05-1.07-.17-2.14-.3-3.21-.42-1.04-.12-2.09-.23-3.13-.35-1.08-.13-2.14-.39-3.2-.62-.62-.11-1.24-.2-1.86-.29-.67-.1-1.33-.22-1.99-.32-.68-.1-1.36-.15-2.04-.22-.7-.08-1.39-.19-2.09-.29-.75-.11-1.5-.2-2.26-.31-.71-.1-1.41-.25-2.12-.34-.69-.09-1.39-.15-2.09-.22-.7-.08-1.39-.19-2.08-.3-.87-.13-1.75-.2-2.62-.29-.85-.09-1.7-.23-2.54-.36-1.54-.24-3.1-.45-4.66-.57-.8-.05-1.6-.09-2.39-.17-.79-.08-1.57-.23-2.34-.36-.79-.14-1.59-.26-2.39-.38-.02,0-.05,0-.07-.01-.01,0-.02,0-.03,0-.01,0-.02,0-.03,0,0,0,0,0,0,0-.05,0-.1-.02-.14-.02,0,0-.02,0-.03,0-.04,0-.09-.02-.13-.02-.01,0-.02,0-.03,0-.03,0-.06-.01-.09-.02-.03,0-.07-.01-.1-.02-.04,0-.09-.02-.14-.02,0,0-.01,0-.02,0-.04,0-.07-.01-.11-.02-.1-.02-.21-.04-.31-.06-.1-.02-.21-.04-.31-.06-.05-.01-.1-.02-.15-.03-.05-.01-.11-.02-.16-.03-.1-.02-.21-.04-.31-.06-.03,0-.06-.01-.09-.02-.07-.01-.15-.03-.22-.04-.06-.01-.11-.02-.17-.03-.07-.02-.14-.03-.22-.04-.01,0-.03,0-.04,0-1.16-.23-2.32-.45-3.49-.67-.65-.12-1.29-.24-1.93-.39-.52-.12-1.05-.26-1.57-.37-.44-.09-.88-.18-1.32-.29-.49-.13-.98-.3-1.45-.48-.07-.03-.13-.05-.2-.08-.33.15-.67.2-1.02.23ZM451.54,142.96c-.09.02-.17.05-.26.07-.02,0-.04.01-.06.02,0,0-.02,0-.02,0-.03,0-.06.02-.1.03-.03,0-.06.02-.1.03-.01,0-.02,0-.03,0,0,0,0,0,0,0-.01,0-.02,0-.03,0,0,0-.02,0-.03,0-.1.03-.21.06-.31.09-1.1.33-2.2.67-3.29,1.04-.68.24-1.36.48-2.04.69-.65.2-1.32.36-1.98.54-1.34.36-2.67.76-4.01,1.1-1.36.34-2.73.71-4.09,1.07-1.37.37-2.73.76-4.11,1.07-.7.15-1.4.29-2.1.46-.69.17-1.37.38-2.05.58-1.38.41-2.77.77-4.14,1.23-.69.23-1.38.47-2.08.69-.71.22-1.43.41-2.14.63-1.36.41-2.72.8-4.08,1.18-.5.14-1,.3-1.49.47-.96.34-1.92.67-2.89,1-.73.26-1.46.53-2.19.8-.82.3-1.65.59-2.48.88-1.2.43-2.38.9-3.55,1.39-1.23.51-2.47.98-3.72,1.42-1.31.47-2.62.94-3.92,1.43-1.27.48-2.56.91-3.84,1.35-.12.04-.23.09-.35.13-.12.04-.23.09-.35.13-.12.04-.23.09-.35.13-.05.02-.1.04-.16.06-.01,0-.03.01-.04.02-.04.02-.08.03-.12.05-.05.02-.1.04-.15.06-.07.03-.14.06-.21.09-.1.04-.21.08-.31.12-.02,0-.03.01-.05.02-.08.03-.15.06-.23.09-.04.02-.08.03-.12.05,0,0-.02,0-.03.01-.03.01-.06.02-.09.04,0,0-.01,0-.02,0-.02,0-.04.02-.06.02-.02.01-.05.02-.07.03-.18.08-.36.15-.54.23.05.01.11.03.17.04s.11.03.17.04c.02,0,.04,0,.06.01,0,0,0,0,.01,0,.01,0,.03,0,.04,0,0,0,.02,0,.03,0,.03,0,.06.01.08.02.06.02.12.03.18.05,0,0,0,0,.01,0,0,0,.01,0,.02,0,0,0,.02,0,.03,0,.12.03.23.06.35.09.04.01.08.02.12.03.01,0,.02,0,.04,0,.02,0,.04,0,.06.01.04,0,.08.02.12.03.04,0,.08.02.12.03.12.03.25.06.37.09,0,0,0,0,.01,0,.26.06.52.12.78.18.01,0,.03,0,.04,0,.13.03.27.06.4.09,1.13.25,2.27.51,3.4.75.95.19,1.91.36,2.86.54,1.01.19,2.01.44,3.01.66.81.15,1.63.25,2.44.39.96.16,1.89.39,2.84.6.96.18,1.92.27,2.88.46.93.18,1.84.44,2.77.64.66.12,1.33.2,1.99.31.73.12,1.44.3,2.16.49.7.18,1.41.33,2.11.49.7.16,1.4.33,2.1.52.63.16,1.27.3,1.9.44.69.15,1.37.33,2.04.53.63.19,1.26.38,1.9.52.68.15,1.35.29,2.01.48.57.16,1.14.31,1.72.44.7.13,1.4.23,2.1.39.65.15,1.29.31,1.94.45,2.05.4,4.12.75,6.18,1.05,1.03.15,2.07.26,3.11.33,1.01.07,2.02.2,3.04.28.58.03,1.16.05,1.74.09.48.04.96.09,1.44.14.47.05.94.07,1.42.11.4.03.8.07,1.2.1.44.03.88.05,1.32.04.12,0,.24,0,.37,0,0,0,0-.01.01-.02.02-.02.04-.05.05-.07.01-.02.03-.03.04-.05,0,0,0,0,0-.01,0,0,0-.01.01-.01,0,0,.01-.01.02-.02.02-.02.04-.05.06-.07,0,0,.01-.02.02-.02,0,0,0-.01.01-.01,0,0,0,0,0,0,0,0,0,0,0,0,0,0,0,0,0,0,0,0,0,0,0,0,0,0,0,0,0,0,0,0,.02-.02.02-.02.02-.01.03-.03.05-.04,0,0,0,0,0,0,.02-.02.04-.04.07-.06,0,0,0,0,.01-.01.01,0,.02-.02.03-.03,0,0,.02-.01.03-.02,0,0,0,0,0,0,0,0,0,0,.01,0,.03-.02.06-.05.09-.07.19-.13.38-.25.58-.37.04-.03.09-.06.13-.1.11-.11.22-.23.33-.34.11-.14.22-.28.33-.43.2-.31.39-.63.56-.96.07-.15.13-.3.19-.45.26-.82.47-1.66.73-2.49.26-.86.51-1.71.7-2.58.28-1.53.46-3.09.57-4.65.06-1.16.1-2.31.04-3.46-.16-1.88-.43-3.75-.79-5.6-.22-1.03-.46-2.05-.72-3.06-.25-.98-.56-1.95-.89-2.91-.21-.58-.43-1.15-.69-1.7-.16-.3-.34-.6-.53-.89-.39-.56-.79-1.12-1.23-1.64-.15-.16-.3-.31-.45-.45-.11.03-.21.06-.32.09ZM331.41,154.13c.72.09,1.44.14,2.16.21,1.41.14,2.81.38,4.21.6.74.12,1.48.25,2.22.37.7.11,1.41.17,2.11.25.74.09,1.47.2,2.2.32.68.11,1.36.19,2.05.26.98.1,1.95.26,2.92.43,1.02.18,2.06.3,3.09.46.93.14,1.85.28,2.78.4.07,0,.14.02.21.03,0,0,.01,0,.02,0,.04,0,.09.01.13.02t0,0s0,0,.01,0c.06,0,.11.02.17.03.03,0,.05,0,.08.01.02,0,.05,0,.07.01.02,0,.05,0,.07.01.05,0,.09.02.14.02,0,0,0,0,.01,0,.02,0,.04,0,.06.01.04,0,.07.01.11.02.06.01.12.02.17.03.06.01.13.02.19.04.06.01.12.02.18.04.06.01.12.02.18.04.01,0,.03,0,.04,0,.05,0,.09.02.14.03.12.02.24.05.36.07.06.01.11.02.17.03,0,0,0,0,.01,0,.06.01.11.02.17.03.06.01.12.02.18.04.01,0,.03,0,.04,0,.84.16,1.68.31,2.52.51.71.17,1.4.36,2.11.52.66.12,1.32.2,1.98.3.66.1,1.31.2,1.97.29.12.02.24.03.37.05.05,0,.1.01.15.02.03,0,.06,0,.09.01.12.01.23.03.35.04.02,0,.05,0,.07,0,.14.02.29.03.43.05,0,0,.02,0,.03,0,.06,0,.13.02.19.02.04,0,.09.01.13.02.04,0,.07.01.11.02h0s-.02-.02-.03-.02c-.02-.02-.05-.04-.07-.06-.02-.02-.05-.04-.07-.06-.05-.04-.09-.08-.14-.12-.61-.54-1.16-1.14-1.7-1.75-.2-.23-.4-.46-.6-.68-.4-.44-.8-.88-1.22-1.31-.4-.41-.82-.81-1.22-1.21-.82-.82-1.6-1.67-2.41-2.49-.82-.83-1.71-1.6-2.53-2.43-.84-.85-1.61-1.76-2.43-2.63-.63-.66-1.29-1.28-1.94-1.92-.66-.66-1.27-1.36-1.88-2.06-.36-.4-.72-.79-1.09-1.17-.39-.39-.79-.76-1.2-1.13-.87-.79-1.72-1.6-2.54-2.45-1.63-1.67-3.2-3.4-4.89-5-.85-.81-1.72-1.59-2.55-2.42-.8-.8-1.54-1.65-2.35-2.45-.83-.82-1.68-1.63-2.49-2.48-.78-.82-1.58-1.63-2.36-2.45-.69-.72-1.37-1.47-2.06-2.19-.68-.71-1.4-1.37-2.08-2.08-.73-.76-1.42-1.55-2.09-2.37-.31-.37-.61-.75-.91-1.13-.04-.05-.07-.09-.11-.14-.01-.02-.03-.04-.04-.06-.02-.03-.04-.06-.07-.1,0,0,0,0,0-.01,0-.01-.02-.03-.03-.04,0,0,0,0,0-.01,0,0,0-.01-.01-.02,0,0-.01-.02-.02-.03-.1,0-.2.02-.31.03-.05,0-.11.01-.16.02,0,0-.02,0-.02,0-.01,0-.02,0-.04,0-.03,0-.05,0-.08.01-.02,0-.03,0-.05,0,0,0-.01,0-.02,0-.07,0-.14.02-.2.03,0,0,0,0,0,0-.05,0-.11.02-.16.03-.2.05-.41.11-.61.18-.36.14-.72.3-1.07.47-1.09.58-2.15,1.2-3.19,1.87-.69.49-1.35.99-1.99,1.54-.52.49-1.01.99-1.49,1.52-.49.6-.96,1.21-1.4,1.84-.94,1.43-1.79,2.9-2.58,4.42-.35.72-.68,1.44-.98,2.18-.27.82-.47,1.65-.65,2.49-.19,1.05-.35,2.1-.44,3.16-.04.77-.05,1.54-.05,2.31,0,.8,0,1.59.03,2.38.08.92.2,1.83.37,2.74.17.77.37,1.54.62,2.29.5,1.41,1,2.84,1.64,4.19.18.33.37.65.57.97.16.23.32.46.5.68.02.02.05.04.07.06,0,0,0,0,0,0,.01.01.02.02.03.03,0,0,0,0,0,0,0,0,.01.01.02.02,0,0,0,0,0,0,0,0,.02.02.03.03,0,0,0,0,.01.01,0,0,0,0,.01.01.02.02.04.04.05.05.02.02.04.04.05.06.01.01.02.03.04.04,0,0,0,0,0,0,0,0,0,0,0,0,0,0,0,0,0,0,.01.01.02.03.04.04.01.01.02.03.04.04.38,0,.76.02,1.14.05.54.05,1.09.1,1.63.18.58.08,1.16.2,1.74.32.97.19,1.95.35,2.92.54,1.14.23,2.28.45,3.42.68,1.57.32,3.15.58,4.72.9-.12-.02-.24-.05-.37-.07.69.14,1.38.28,2.08.37ZM353.85,87.35c-.42.04-.83.1-1.25.17-1.18.26-2.33.63-3.48.96-.66.19-1.32.38-1.99.54-.59.15-1.18.29-1.75.47-.23.09-.45.19-.68.29-.4.22-.79.45-1.17.71-1.35.97-2.65,1.99-3.9,3.07-.83.74-1.64,1.49-2.39,2.31-1.4,1.6-2.78,3.24-3.99,4.99-.85,1.3-1.61,2.65-2.31,4.03-.79,1.63-1.46,3.31-2.06,5.01-.17.51-.34,1.01-.46,1.53-.09.47-.18.94-.23,1.42,0,.15-.01.29-.03.44,0,0,0,.01,0,.02,0,0,0,0,0,0,0,0,0,0,0,.01h0s0,0,0,.01c.05.03.09.06.13.09.44.3.86.65,1.27.99.86.72,1.73,1.41,2.62,2.1.95.74,1.85,1.55,2.7,2.4.79.79,1.55,1.61,2.32,2.43.77.82,1.5,1.68,2.28,2.49.81.84,1.61,1.68,2.39,2.55.76.85,1.56,1.66,2.38,2.45.84.8,1.69,1.59,2.5,2.42,1.57,1.59,3.08,3.24,4.67,4.81.75.74,1.54,1.42,2.3,2.14.83.79,1.6,1.64,2.35,2.5.39.43.78.86,1.18,1.28.4.42.82.81,1.23,1.22.84.83,1.63,1.71,2.43,2.58.78.86,1.64,1.63,2.49,2.43.83.78,1.6,1.61,2.4,2.42.96.98,1.99,1.9,2.92,2.92.48.53.95,1.06,1.43,1.59.44.48.9.94,1.39,1.38.9.77,1.81,1.54,2.65,2.38.07.07.15.15.22.23,0,0,.02.02.02.02.01.01.02.02.03.03,0,0,.01.01.02.02,0,0,0,0,.01.01.09.1.19.19.28.29,0,0,.01.01.02.02,0,0,0,0,0,0,0,0,0,0,0,0h0c-.04-.16-.09-.32-.13-.49-.06-.24-.13-.49-.19-.74-.06-.24-.12-.49-.18-.74-.02-.09-.05-.18-.07-.27-.05-.19-.09-.37-.14-.56-.03-.13-.07-.27-.1-.41-.05-.19-.1-.39-.14-.58-.09-.37-.19-.75-.28-1.12-.04-.16-.08-.33-.12-.49-.01-.04-.02-.09-.03-.13,0-.03-.02-.06-.02-.09,0-.01,0-.02,0-.04,0-.02,0-.04-.01-.06,0-.02-.01-.04-.02-.06,0-.01,0-.03-.01-.04-.03-.1-.05-.2-.08-.29-.04-.17-.09-.33-.13-.5-.01-.05-.03-.1-.04-.14-.03-.12-.06-.24-.1-.35-.02-.09-.05-.18-.07-.27-.04-.16-.09-.31-.13-.47-.44-1.56-.85-3.13-1.19-4.71-.35-1.59-.66-3.19-1.03-4.77-.37-1.59-.77-3.18-1.19-4.76-.4-1.48-.85-2.95-1.27-4.43-.43-1.55-.86-3.1-1.26-4.65-.4-1.55-.74-3.11-1.09-4.68-.34-1.52-.74-3.02-1.13-4.52-.4-1.55-.75-3.1-1.07-4.67-.3-1.43-.58-2.87-.87-4.31-.41-1.99-.88-3.98-1.41-5.95-.3-1.13-.58-2.25-.79-3.4-.19-1.01-.36-2.02-.55-3.03-.25-1.18-.52-2.35-.72-3.53-.17-1.02-.32-2.05-.52-3.07-.11-.53-.23-1.06-.32-1.59-.04-.26-.09-.53-.13-.79-.02-.13-.04-.25-.06-.38,0-.06-.02-.13-.02-.19h0c0-.07,0-.13,0-.19v-.03s-.03-.01-.05-.02c0,0-.02,0-.03-.01,0,0,0,0,0,0,0,0-.01,0-.02,0,0,0,0,0,0,0,0,0,0,0,0,0h0s-.07-.03-.1-.04c-.54-.18-1.09-.34-1.65-.47-.42-.08-.84-.13-1.26-.16-.27-.01-.54-.02-.8-.02-.13,0-.26,0-.39,0ZM429.97,104.28c-.3.37-.61.75-.9,1.13-.64.84-1.34,1.63-2.04,2.42-.74.86-1.44,1.75-2.19,2.61-.81.93-1.68,1.81-2.5,2.73-.75.89-1.47,1.81-2.22,2.71-.79.95-1.63,1.85-2.45,2.77-.8.95-1.55,1.92-2.27,2.94-.71,1.01-1.46,1.99-2.19,2.98-.73.98-1.44,1.98-2.14,2.99-.69,1-1.38,2-2.11,2.97-.73.96-1.47,1.91-2.23,2.85-.79.98-1.56,1.97-2.34,2.96-1.56,1.98-3.19,3.92-4.8,5.86-.8.96-1.62,1.92-2.41,2.9-.8.99-1.56,2-2.34,3-.75.98-1.51,1.95-2.3,2.9-.82.99-1.66,1.97-2.48,2.97-.12.15-.24.3-.37.44-.08.1-.16.2-.24.29-.1.12-.2.25-.3.37-.08.1-.16.2-.24.3,0,.01-.02.02-.03.03-.01.01-.02.03-.03.04-.03.04-.06.07-.09.11-.03.04-.06.07-.09.11-.02.03-.04.05-.06.08t0,0c-.05.06-.1.13-.15.19-.07.08-.13.17-.2.25-.18.22-.36.44-.54.66-.02.03-.04.05-.06.08-.06.07-.12.14-.17.22,0,0-.02.02-.02.03-.01.02-.02.03-.04.05-.02.03-.04.05-.06.08,0,0,0,0,0,0,0,.01-.02.02-.02.03-.13.16-.26.32-.39.48,0,0,.01,0,.02,0,.05-.02.11-.05.16-.07.05-.02.1-.04.14-.06.02,0,.03-.01.05-.02.03-.01.06-.02.09-.04.09-.04.17-.07.26-.11.86-.34,1.74-.63,2.61-.93,1.23-.44,2.44-.92,3.66-1.37,1.24-.46,2.49-.89,3.72-1.37,1.24-.48,2.46-1,3.69-1.51,1.19-.49,2.4-.9,3.62-1.32,1.42-.5,2.83-1.03,4.26-1.5,1.38-.45,2.75-.93,4.16-1.28,1.36-.34,2.72-.69,4.07-1.06.73-.2,1.46-.39,2.18-.6.68-.2,1.35-.43,2.02-.65,1.38-.45,2.79-.8,4.19-1.2.71-.21,1.43-.42,2.15-.58.75-.16,1.51-.3,2.27-.45,1.25-.27,2.48-.6,3.71-.93,1.22-.32,2.44-.63,3.66-.93,1.28-.31,2.56-.63,3.83-.97.6-.16,1.21-.31,1.81-.46.62-.16,1.22-.35,1.83-.55,1.42-.49,2.85-.96,4.31-1.37.06-.02.13-.04.19-.05,0,0,0,0,0,0,.03,0,.06-.02.09-.02,0,0,.02,0,.03,0,.03,0,.05-.01.08-.02h0s0-.02,0-.03c0,0,0,0,0-.01,0,0,0-.01,0-.02,0,0,0-.01,0-.02,0-.02,0-.05.01-.07.13-.6.31-1.18.45-1.78.07-.44.13-.87.16-1.31.05-.9.05-1.79,0-2.69-.11-1.18-.29-2.34-.5-3.5-.2-1.12-.4-2.24-.62-3.35-.19-.91-.39-1.83-.65-2.72-.26-.88-.55-1.74-.85-2.6-.27-.77-.56-1.52-.87-2.27-.3-.72-.65-1.43-1-2.13-.71-1.39-1.47-2.75-2.33-4.05-.49-.7-1-1.39-1.55-2.05-.37-.41-.76-.81-1.17-1.19-.56-.48-1.14-.92-1.74-1.34-.71-.46-1.45-.86-2.2-1.24-.07-.04-.15-.07-.23-.11-.02-.01-.05-.02-.08-.04-.02,0-.04-.02-.06-.03,0,0-.01,0-.02,0,0,0,0,0-.01,0,0,0,0,0-.01,0-.08-.04-.16-.07-.24-.11-.05-.02-.11-.05-.16-.07-.04-.02-.07-.03-.11-.05-.01,0-.03-.01-.04-.02-.07-.03-.15-.06-.22-.1,0,0-.01,0-.02,0,0,0-.02,0-.02-.01h0s-.08-.03-.12-.05c0,0-.02,0-.03-.01-.04-.02-.08-.03-.11-.05-.04-.01-.07-.03-.11-.04-.05-.02-.1-.04-.15-.06,0,0-.01,0-.02,0-.06-.03-.13-.05-.19-.08-.07-.03-.13-.05-.2-.08,0,0-.02,0-.03-.01-.09-.03-.18-.07-.27-.1,0,0,0,0-.01,0,0,0,0,0,0,0-.05-.02-.09-.03-.14-.05s-.09-.03-.14-.05c-.07-.02-.14-.05-.21-.07-.05-.02-.09-.03-.14-.05-.07-.02-.14-.05-.21-.07-.02,0-.04-.02-.07-.02,0,0-.01,0-.02,0-.02,0-.03-.01-.05-.02,0,0,0,0-.01,0-.03,0-.05-.02-.08-.03,0,0,0,0-.01,0-.01,0-.02,0-.04-.01-.05-.02-.09-.03-.14-.05-.05-.01-.09-.03-.14-.04-.04-.01-.07-.02-.11-.03-.05-.02-.1-.03-.14-.04-.19-.06-.38-.11-.58-.16-.45-.08-.9-.13-1.35-.17-.06,0-.12-.01-.18-.02-.03,0-.05,0-.08,0,0,0-.02,0-.03,0,0,0,0,0-.01,0,0,0-.02,0-.02,0-.01,0-.03,0-.04,0-.02,0-.04,0-.06,0-.02,0-.03,0-.05,0-.02,0-.04,0-.06,0-.01,0-.02,0-.04,0,0,0-.01,0-.02,0,0,0,0,0,0,0-.03,0-.06,0-.1-.01,0,0-.01,0-.02,0,0,0-.02,0-.02,0-.08.1-.17.21-.25.31ZM404.9,86.52c-.61.05-1.21.14-1.8.25-.53.12-1.05.27-1.56.44-.76.28-1.51.59-2.25.9-.28.12-.54.25-.81.37-.02,0-.03.02-.05.02,0,0-.01,0-.02,0-.04.02-.07.03-.11.05-.06.02-.11.05-.17.07,0,0,0,0,0,0-.05.02-.11.04-.16.06,0,.02,0,.03,0,.05-.1.46-.19.91-.29,1.37-.19.99-.35,1.99-.54,2.98-.19,1.01-.45,1.99-.73,2.97-.26.93-.51,1.87-.71,2.82-.04.16-.07.32-.1.48-.03.13-.06.27-.09.4-.02.09-.04.19-.06.28-.02.1-.04.2-.06.29-.04.19-.08.38-.12.57-.05.23-.09.45-.14.68-.3,1.51-.56,3.03-.83,4.54-.28,1.63-.62,3.25-.98,4.87-.35,1.58-.77,3.14-1.15,4.71-.37,1.53-.73,3.07-1.13,4.6-.4,1.54-.81,3.07-1.22,4.61-.41,1.53-.84,3.06-1.25,4.6-.42,1.58-.84,3.16-1.31,4.72-.46,1.52-.91,3.04-1.33,4.57-.82,2.97-1.5,5.98-2.29,8.96-.4,1.49-.74,2.99-1.1,4.48-.05.2-.09.39-.14.59-.09.39-.19.78-.29,1.17-.03.13-.06.25-.09.38-.02.1-.05.21-.08.31-.05.2-.1.41-.15.61,0,.02-.01.05-.02.07,0,.04-.02.07-.03.11-.03.12-.06.23-.08.35,0,0,0,.02,0,.02h0c-.04.16-.08.32-.11.49,0,0,0,.02,0,.03.02-.02.04-.05.06-.07.07-.08.14-.17.21-.25.03-.03.06-.07.08-.1.02-.02.03-.04.05-.06.06-.07.11-.14.17-.21.15-.18.3-.37.45-.55,0,0,0-.01.01-.02.01-.01.02-.03.04-.04.09-.11.17-.22.26-.33.04-.05.08-.1.12-.15.16-.2.32-.4.47-.6.04-.05.08-.1.12-.15.2-.25.4-.5.59-.76.08-.1.15-.19.23-.29.1-.13.2-.25.29-.37.02-.03.04-.05.06-.08.04-.05.08-.1.11-.15.16-.2.32-.4.47-.6,1.54-1.95,3.15-3.84,4.63-5.84.77-1.05,1.54-2.1,2.32-3.14.75-1,1.52-1.97,2.3-2.93,1.58-1.95,3.14-3.92,4.65-5.93,1.85-2.44,3.63-4.93,5.36-7.46.68-1.02,1.34-2.05,2.05-3.04.73-1.03,1.48-2.05,2.24-3.06.73-.96,1.43-1.94,2.13-2.91.8-1.11,1.67-2.16,2.59-3.16.73-.79,1.47-1.57,2.19-2.38.83-.94,1.64-1.89,2.51-2.8.85-.89,1.75-1.72,2.61-2.59.81-.82,1.58-1.68,2.4-2.49.84-.82,1.7-1.62,2.54-2.45.3-.3.6-.61.9-.92.14-.14.28-.29.43-.43.02-.02.04-.04.06-.06-.03-.1-.06-.21-.1-.31-.12-.3-.25-.59-.38-.87-.25-.46-.52-.9-.81-1.33-.5-.72-1.03-1.42-1.6-2.1-.48-.52-.98-1.01-1.5-1.49-.83-.69-1.69-1.34-2.54-2.02-.83-.67-1.67-1.34-2.54-1.95-.68-.44-1.37-.86-2.08-1.24-.99-.48-2.01-.89-3.05-1.26-.71-.24-1.43-.45-2.17-.61-.75-.14-1.51-.24-2.28-.31-.54-.03-1.08-.05-1.61-.05s-1.12.02-1.69.05ZM379.31,81.05c-.92.08-1.82.22-2.72.4-1.22.26-2.43.54-3.62.9-1.17.36-2.35.67-3.5,1.06-1.1.4-2.2.82-3.26,1.32-.44.23-.86.48-1.28.75-.49.35-.96.71-1.42,1.1-.4.36-.78.73-1.17,1.1-.11.1-.21.21-.32.32,0,.02.02.03.03.05.02.05.05.09.07.14.03.07.07.14.1.2.26.54.51,1.08.73,1.64.44,1.15.8,2.32,1.15,3.5.38,1.33.74,2.67,1.02,4.02.25,1.25.42,2.51.66,3.76.25,1.16.54,2.31.79,3.47.29,1.35.56,2.71.82,4.07.48,2.52.87,5.06,1.35,7.58.31,1.49.68,2.97,1,4.46.36,1.69.65,3.4.99,5.1.65,3.08,1.39,6.14,2.13,9.19.78,3.2,1.42,6.43,2.03,9.66.07.34.13.69.2,1.03.04.22.09.44.13.65.17.77.34,1.55.55,2.31.21.76.44,1.51.66,2.27.06.2.12.4.18.6,0,.01,0,.03.01.04,0,.02,0,.03.01.05.05.17.1.34.14.51.06.2.11.4.17.6.03.11.06.22.09.33.02.08.04.16.06.24.02.06.03.13.05.19.08.28.15.57.23.85.02-.08.04-.16.06-.24,0-.01,0-.02,0-.03,0,0,0,0,0-.01,0-.03.01-.06.02-.09.01-.05.02-.1.04-.15.02-.08.04-.16.06-.24.18-.73.38-1.46.56-2.19.2-.8.39-1.61.58-2.41.35-1.45.78-2.87,1.17-4.31.43-1.56.84-3.12,1.28-4.67.42-1.46.88-2.92,1.34-4.37.47-1.49.99-2.96,1.42-4.46.46-1.58.88-3.17,1.34-4.76.44-1.54.87-3.08,1.3-4.62.34-1.23.69-2.47,1.02-3.7.37-1.35.69-2.7,1.04-4.05.34-1.32.7-2.63,1.03-3.96.31-1.24.59-2.49.85-3.74.01-.06.02-.12.04-.18.01-.06.03-.13.04-.19.01-.05.02-.1.03-.15,0,0,0,0,0-.01,0,0,0,0,0,0,0,0,0,0,0-.01,0,0,0,0,0,0,0,0,0,0,0,0h0c.05-.24.09-.48.14-.72,0-.02,0-.04.01-.05,0,0,0-.01,0-.02.05-.26.1-.51.16-.77,0,0,0,0,0-.01.05-.26.11-.52.16-.78,0,0,0,0,0,0h0c.01-.06.02-.11.03-.17,0-.02.01-.05.02-.07.01-.06.03-.12.04-.18,0-.02,0-.03.01-.05.02-.1.04-.21.06-.31.21-.98.46-1.95.69-2.92.23-.96.47-1.91.75-2.85.29-.96.65-1.91.98-2.85.43-1.27.77-2.57,1.2-3.84.03-.09.06-.17.09-.26.02-.07.05-.14.07-.21,0,0,0-.01,0-.02.05-.15.11-.31.17-.46,0-.02.02-.04.02-.06.02-.06.04-.11.06-.17.03-.07.05-.14.08-.21.02-.05.04-.11.06-.16.01-.03.02-.06.03-.09.02-.05.04-.1.06-.14.01-.03.03-.07.04-.1-.04-.02-.08-.05-.12-.08-.02-.01-.03-.02-.05-.03,0,0-.01,0-.02-.01-.01,0-.02-.02-.03-.02-.01,0-.02-.02-.03-.02,0,0,0,0,0,0,0,0,0,0,0,0,0,0,0,0,0,0-.03-.02-.06-.05-.09-.07-.01-.01-.03-.02-.04-.03s-.03-.02-.04-.03c-.03-.02-.05-.04-.08-.06-.02-.02-.05-.04-.07-.06-.02-.02-.05-.04-.07-.07-.05-.04-.1-.09-.14-.14,0,0-.01-.01-.02-.02-.04-.04-.07-.07-.11-.11,0,0,0,0,0-.01t0,0s-.04-.04-.06-.06c0,0-.01-.01-.02-.02-.02-.02-.04-.04-.06-.06-.01-.02-.03-.03-.04-.05,0,0-.01-.02-.02-.02-.02-.02-.04-.05-.06-.07-.25-.3-.48-.62-.71-.93-.26-.35-.53-.7-.81-1.03-.44-.49-.9-.96-1.39-1.4-.23-.19-.46-.36-.7-.54-.31-.19-.63-.38-.95-.55-.69-.33-1.39-.64-2.1-.91-.59-.19-1.18-.35-1.78-.49-1.21-.21-2.42-.33-3.64-.43-.76-.05-1.52-.08-2.29-.08-.22,0-.44,0-.66,0Z"/>
      <g>
        <path class="cls-18" d="M462.26,159.53c-.06-.96-.14-1.92-.27-2.88-.45-3.43-1.19-6.86-2.48-10.08-.32-.79-.65-1.58-1.03-2.34-.39-.77-.84-1.5-1.35-2.2-.42-.59-.85-1.18-1.31-1.74-.05-.06-.11-.13-.16-.19,0-.14,0-.29-.02-.43-.04-.31-.15-.62-.31-.89-.09-.15-.18-.28-.29-.39.09-.39.18-.77.24-1.17.13-.89.18-1.78.2-2.67.04-1.53-.1-3.06-.37-4.57-.3-1.7-.62-3.41-1.02-5.09-.2-.85-.42-1.7-.66-2.54-.25-.86-.55-1.7-.86-2.54-.59-1.6-1.19-3.19-1.95-4.71-.8-1.61-1.61-3.23-2.58-4.74-.52-.81-1.06-1.6-1.65-2.35-.55-.7-1.14-1.39-1.8-1.99-1.29-1.17-2.72-2.18-4.28-2.97-.81-.41-1.63-.81-2.46-1.16-.8-.34-1.62-.62-2.45-.89-.77-.25-1.52-.54-2.31-.74-.45-.11-.92-.18-1.37-.3-.17-.62-.36-1.22-.59-1.82-.33-.84-.8-1.63-1.31-2.38-.93-1.38-1.94-2.74-3.16-3.88-.67-.63-1.37-1.24-2.11-1.79-.69-.52-1.39-1.02-2.08-1.54-.72-.54-1.44-1.06-2.18-1.55-.76-.51-1.57-.95-2.39-1.36-1.47-.74-3.07-1.25-4.65-1.67-1.73-.46-3.49-.72-5.28-.77-1.77-.04-3.58.01-5.31.39-.79.17-1.56.4-2.32.68-.7.27-1.38.57-2.08.83-.12.04-.24.07-.36.11-.03,0-.06,0-.09.01,0,0-.02-.01-.02-.02-.06-.06-.12-.12-.18-.18-.37-.44-.69-.91-1.04-1.36-.56-.71-1.18-1.37-1.83-2-.61-.59-1.27-1.15-2-1.58-1.58-.93-3.37-1.59-5.16-1.99-1.63-.37-3.33-.45-5-.5-1.74-.05-3.51-.05-5.23.28-1.66.32-3.33.71-4.94,1.23-1.61.52-3.26.96-4.82,1.6-1.49.6-2.98,1.19-4.29,2.13-.66.47-1.3.99-1.89,1.55-.41.39-.79.8-1.19,1.19-.29-.13-.58-.26-.89-.37-.6-.22-1.2-.42-1.81-.58-.64-.16-1.29-.29-1.94-.34-.59-.05-1.2-.1-1.8-.06-.72.05-1.41.14-2.12.28-.59.12-1.16.27-1.74.44-1.19.34-2.38.68-3.6.94-.68.13-1.38.24-2.03.47-.76.26-1.5.57-2.18,1-.66.42-1.29.87-1.92,1.33-.55.41-1.1.81-1.63,1.24-.59.48-1.16.98-1.72,1.49-.55.5-1.1,1-1.61,1.54-1.01,1.05-1.92,2.21-2.83,3.34-1.05,1.31-2.04,2.67-2.88,4.14-.82,1.43-1.59,2.9-2.2,4.43-.6,1.5-1.16,3.02-1.68,4.56-.22.66-.38,1.33-.5,2.01-.03.15-.05.31-.07.46-.29-.06-.58-.09-.87-.11-.8-.03-1.61.07-2.38.29-.82.23-1.63.51-2.41.84-.81.34-1.61.68-2.39,1.09-.7.37-1.4.75-2.07,1.18-.41.27-.85.53-1.23.85-.32.28-.66.55-.97.84-.57.53-1.15,1.06-1.69,1.63-.55.57-1.05,1.19-1.52,1.82-1.09,1.45-1.99,3.04-2.84,4.63-.44.83-.87,1.68-1.21,2.57-.35.92-.63,1.86-.85,2.83-.23.96-.41,1.94-.56,2.91-.06.4-.12.8-.15,1.21-.02.27-.06.54-.07.82-.03.34-.04.69-.05,1.02-.06,1.71-.11,3.44.09,5.15.23,1.93.66,3.82,1.33,5.65.55,1.52,1.09,3.06,1.8,4.51.05.11.11.21.16.32-.24.2-.47.41-.68.63-.63.67-1.23,1.37-1.75,2.13-.29.42-.58.84-.83,1.28-.24.43-.46.86-.68,1.31-.34.71-.65,1.44-.95,2.17-.36.84-.72,1.69-1,2.56-.27.85-.49,1.71-.63,2.58-.27,1.69-.37,3.4-.3,5.11.07,1.81.26,3.67.81,5.4.29.92.61,1.84.95,2.74.34.89.77,1.74,1.26,2.55.93,1.53,1.94,3.01,3.21,4.28.43.43.9.83,1.37,1.22-.07.17-.14.35-.2.52-.35,1-.54,2.03-.69,3.07-.23,1.66-.26,3.36-.26,5.03,0,1.85.33,3.65.71,5.45.37,1.74.77,3.5,1.33,5.19.58,1.76,1.49,3.4,2.45,4.98.88,1.43,1.88,2.76,2.99,4.02.65.74,1.3,1.47,2.04,2.12.61.53,1.26,1.02,1.91,1.5.68.5,1.38,1.03,2.12,1.43.74.4,1.49.74,2.28,1.04.42.16.83.31,1.24.49.04.47.13.94.23,1.4.09.41.22.81.35,1.21.13.42.26.85.39,1.27.15.49.3.97.48,1.45.19.51.44,1,.71,1.48.44.78.94,1.53,1.43,2.29.48.75.96,1.5,1.53,2.18.55.65,1.12,1.26,1.75,1.83.66.6,1.37,1.15,2.07,1.71.69.56,1.39,1.12,2.14,1.61.7.46,1.43.85,2.19,1.2.71.32,1.44.58,2.17.85.8.3,1.6.61,2.42.89.82.28,1.66.49,2.51.69,1.59.38,3.19.81,4.82.94.84.07,1.69.11,2.53.12.87.01,1.73.02,2.6-.09.83-.1,1.67-.22,2.5-.3.73-.07,1.44-.17,2.16-.31.31-.06.62-.12.93-.18.21.61.69,1.12,1.28,1.37.28.12.58.18.88.18.04,0,.07,0,.11,0,.39.43.81.81,1.26,1.18.61.49,1.25.97,1.94,1.33.75.4,1.57.63,2.38.9.94.33,1.86.65,2.84.82.98.17,1.97.28,2.95.41.94.12,1.88.19,2.82.24.8.04,1.6.1,2.4.13,1.34.06,2.68.06,4.01.1.47.01.95.03,1.42.03.22,0,.44,0,.65-.01.83-.04,1.67-.13,2.49-.29.89-.18,1.75-.4,2.59-.76.62-.26,1.23-.53,1.83-.83.7-.34,1.36-.74,2.02-1.13.42-.24.85-.47,1.28-.69.23-.11.46-.21.69-.3.07-.02.14-.04.21-.06.07-.01.14-.02.21-.03,0,0,.01,0,.02,0,.15.1.3.2.46.28.56.29,1.13.55,1.73.74.69.22,1.4.37,2.11.47.71.1,1.44.16,2.16.14.75-.03,1.49-.13,2.23-.25.75-.12,1.5-.24,2.24-.42,1.37-.32,2.7-.8,4.01-1.32.75-.3,1.48-.62,2.23-.91.77-.31,1.55-.61,2.32-.93,1.52-.64,3.01-1.34,4.51-2.03.78-.35,1.56-.72,2.3-1.14.75-.43,1.48-.88,2.19-1.36,1.42-.95,2.75-2.01,4.07-3.1.68-.56,1.35-1.13,1.99-1.75.64-.62,1.24-1.27,1.81-1.95.51-.61.98-1.25,1.41-1.92.46-.72.83-1.52,1.18-2.3.31-.69.62-1.39.88-2.1.23-.6.47-1.22.61-1.85.14-.63.19-1.24.2-1.88,0-.06,0-.11,0-.17.36-.11.7-.25,1.04-.4.54-.23,1.08-.48,1.6-.77.54-.3,1.06-.68,1.55-1.06.81-.64,1.6-1.31,2.42-1.93.44-.33.89-.65,1.32-.99.45-.36.88-.74,1.29-1.14,1.18-1.16,2.29-2.39,3.29-3.71.52-.69,1.04-1.38,1.56-2.06.56-.74,1.14-1.49,1.6-2.3.87-1.53,1.6-3.13,2.3-4.74.7-1.6,1.37-3.21,1.92-4.87.25-.76.46-1.54.7-2.31.26-.82.51-1.64.74-2.47.46-1.64.81-3.31.94-5,.07-.91.11-1.84.08-2.75-.03-.99-.13-2.01-.4-2.97-.23-.82-.52-1.61-.85-2.4-.03-.08-.07-.16-.1-.23.1-.12.2-.24.3-.36.6-.77,1.13-1.61,1.55-2.49.37-.81.61-1.66.85-2.51.23-.81.49-1.6.72-2.41.24-.86.42-1.74.56-2.62.27-1.73.45-3.5.51-5.25.03-.84.07-1.69.02-2.54ZM429.97,104.28c.08-.1.17-.21.25-.31.24.04.48.07.73.09.45.04.9.09,1.35.17.75.19,1.48.45,2.21.71.84.3,1.65.65,2.45,1.05.75.38,1.49.79,2.2,1.24.6.42,1.18.86,1.74,1.34.41.38.8.78,1.17,1.19.55.66,1.06,1.35,1.55,2.05.86,1.31,1.62,2.66,2.33,4.05.35.7.7,1.41,1,2.13.31.75.59,1.5.87,2.27.3.86.59,1.73.85,2.6.26.9.46,1.81.65,2.72.22,1.11.42,2.24.62,3.35.21,1.16.39,2.33.5,3.5.05.9.04,1.79,0,2.69-.04.44-.09.88-.16,1.31-.14.6-.33,1.18-.45,1.78-.01.05-.02.1-.03.15-.13.04-.26.07-.4.1-1.45.41-2.88.87-4.31,1.37-.6.21-1.21.39-1.83.55-.6.16-1.21.3-1.81.46-1.27.34-2.55.67-3.83.97-1.23.29-2.45.61-3.66.93-1.23.32-2.46.65-3.71.93-.76.15-1.51.29-2.27.45-.73.15-1.44.37-2.15.58-1.39.41-2.81.75-4.19,1.2-.67.22-1.34.45-2.02.65-.72.21-1.46.4-2.18.6-1.35.37-2.71.72-4.07,1.06-1.41.36-2.78.83-4.16,1.28-1.43.47-2.84,1-4.26,1.5-1.21.42-2.43.82-3.62,1.32-1.23.51-2.45,1.03-3.69,1.51-1.23.48-2.48.91-3.72,1.37-1.22.46-2.43.94-3.66,1.37-.87.3-1.75.59-2.61.93-.25.1-.49.2-.74.31,1.05-1.28,2.08-2.58,3.13-3.86.82-.99,1.66-1.97,2.48-2.97.79-.95,1.54-1.92,2.3-2.9.77-1,1.54-2.01,2.34-3,.79-.98,1.6-1.93,2.41-2.9,1.62-1.94,3.24-3.88,4.8-5.86.78-.99,1.55-1.98,2.34-2.96.76-.94,1.51-1.88,2.23-2.85.73-.97,1.42-1.97,2.11-2.97.7-1.01,1.41-2,2.14-2.99.74-.99,1.48-1.97,2.19-2.98.72-1.01,1.46-1.99,2.27-2.93.82-.92,1.66-1.82,2.45-2.77.75-.9,1.47-1.82,2.22-2.71.82-.92,1.69-1.8,2.5-2.73.74-.86,1.44-1.75,2.19-2.61.7-.79,1.4-1.58,2.04-2.42.29-.38.6-.76.9-1.13ZM396.39,96.07c.28-.98.54-1.97.73-2.97.19-.99.34-1.99.54-2.98.1-.46.19-.91.29-1.37,0-.02,0-.03.01-.05.45-.16.88-.39,1.32-.58.75-.31,1.49-.62,2.25-.9.52-.17,1.03-.32,1.56-.44.6-.11,1.2-.2,1.8-.25,1.1-.07,2.2-.07,3.3,0,.76.07,1.52.17,2.28.31.74.16,1.45.37,2.17.61,1.04.37,2.06.77,3.05,1.26.72.38,1.41.79,2.08,1.24.88.61,1.71,1.28,2.54,1.95.84.68,1.71,1.33,2.54,2.02.52.48,1.03.97,1.5,1.49.57.67,1.09,1.37,1.6,2.1.29.44.56.88.81,1.33.14.29.26.58.38.87.03.1.06.21.09.31-.02.02-.04.03-.06.05-.14.14-.29.29-.43.43-.3.31-.59.62-.9.92-.84.83-1.7,1.63-2.54,2.45-.82.81-1.59,1.67-2.4,2.49-.86.88-1.77,1.71-2.61,2.59-.87.91-1.68,1.86-2.51,2.8-.72.81-1.46,1.59-2.19,2.38-.92,1.01-1.79,2.06-2.59,3.16-.71.98-1.4,1.95-2.13,2.91-.76,1.01-1.51,2.03-2.24,3.06-.71,1-1.37,2.03-2.05,3.04-1.73,2.53-3.51,5.02-5.36,7.46-1.52,2-3.08,3.97-4.65,5.93-.78.97-1.56,1.94-2.3,2.93-.78,1.04-1.55,2.1-2.32,3.14-1.48,2-3.08,3.89-4.63,5.84-1.26,1.59-2.5,3.2-3.79,4.77.32-1.38.67-2.74,1-4.12.36-1.5.7-3,1.1-4.48.79-2.98,1.47-5.99,2.29-8.96.42-1.53.87-3.05,1.33-4.57.47-1.56.89-3.14,1.31-4.72.41-1.53.84-3.06,1.25-4.6.41-1.54.82-3.07,1.22-4.61.4-1.53.76-3.06,1.13-4.6.38-1.57.8-3.14,1.15-4.71.36-1.62.69-3.24.98-4.87.26-1.52.52-3.03.83-4.54,0,0,0,0,0,0,.19-.91.37-1.81.57-2.72.21-.95.45-1.88.71-2.82ZM362.34,87.67c.39-.37.77-.74,1.17-1.1.46-.39.93-.75,1.42-1.1.42-.27.84-.52,1.28-.76,1.06-.5,2.16-.92,3.26-1.32,1.16-.39,2.34-.7,3.5-1.06,1.19-.37,2.4-.65,3.62-.9.9-.18,1.8-.32,2.72-.4.98-.03,1.96.01,2.94.07,1.22.09,2.43.22,3.64.43.6.13,1.2.29,1.78.49.72.27,1.41.58,2.1.91.32.17.64.35.95.55.24.17.47.35.7.54.49.44.95.91,1.38,1.4.28.33.55.68.81,1.03.23.31.46.63.71.93.35.41.76.8,1.22,1.07-.25.62-.48,1.24-.69,1.87-.43,1.27-.77,2.57-1.2,3.84-.33.95-.69,1.89-.98,2.85-.28.94-.52,1.9-.75,2.85-.23.97-.48,1.94-.69,2.92-.22,1.04-.43,2.09-.64,3.13,0,0,0,0,0,0,0,0,0,0,0,0,0,0,0,.01,0,.02,0,0,0,0,0,0,0,0,0,0,0,.01,0,0,0,0,0,.01,0,.04-.01.07-.02.11,0-.04.02-.08.02-.12,0,0,0,0,0,0,0,.05-.02.1-.03.14,0,.01,0,.02,0,.03,0,0,0,0,0,0-.01.06-.03.13-.04.19-.01.06-.02.12-.04.18-.27,1.25-.55,2.5-.85,3.74-.33,1.32-.69,2.64-1.03,3.96-.35,1.35-.67,2.71-1.04,4.05-.34,1.24-.68,2.47-1.02,3.7-.43,1.54-.86,3.08-1.3,4.62-.46,1.58-.89,3.17-1.34,4.76-.43,1.5-.95,2.98-1.42,4.46-.46,1.45-.92,2.9-1.34,4.37-.44,1.55-.86,3.11-1.28,4.67-.39,1.44-.82,2.86-1.17,4.31-.2.8-.39,1.61-.58,2.41-.18.73-.38,1.46-.56,2.19-.06.25-.12.51-.18.77-.3-1.14-.61-2.28-.95-3.41-.23-.76-.45-1.51-.66-2.27-.21-.76-.38-1.54-.55-2.31,0,.02,0,.04.01.06-.05-.24-.1-.47-.14-.71-.07-.34-.13-.68-.2-1.03-.61-3.23-1.26-6.46-2.03-9.66-.74-3.06-1.49-6.11-2.13-9.19-.34-1.7-.63-3.41-.99-5.1-.32-1.49-.68-2.97-1-4.46-.48-2.52-.87-5.06-1.35-7.58-.26-1.36-.53-2.71-.82-4.07-.25-1.16-.54-2.31-.79-3.47-.24-1.25-.41-2.51-.66-3.76-.28-1.36-.63-2.69-1.02-4.02-.34-1.18-.7-2.35-1.15-3.5-.22-.56-.47-1.1-.73-1.64-.06-.13-.13-.26-.19-.39.11-.11.22-.22.32-.33ZM328.15,113.29c.01-.15.02-.29.03-.44.05-.48.14-.95.23-1.42.12-.52.28-1.03.46-1.53.6-1.7,1.28-3.39,2.06-5.01.71-1.38,1.46-2.73,2.31-4.03,1.22-1.75,2.6-3.38,3.99-4.99.75-.82,1.56-1.57,2.39-2.31,1.25-1.09,2.56-2.1,3.9-3.07.38-.25.77-.49,1.17-.71.23-.1.45-.2.68-.29.58-.18,1.17-.32,1.75-.47.67-.16,1.33-.35,1.99-.54,1.16-.34,2.31-.7,3.48-.96.42-.08.83-.13,1.25-.17.4-.01.8,0,1.2.01.42.03.84.09,1.26.16.56.13,1.11.29,1.65.47.07.03.14.06.21.08,0,.26.04.53.09.79.04.26.09.53.13.79.09.53.21,1.06.32,1.59.19,1.02.34,2.05.52,3.07.2,1.18.47,2.36.72,3.53.2,1.01.37,2.02.55,3.03.21,1.14.49,2.27.79,3.4.52,1.97.99,3.95,1.41,5.95.29,1.44.57,2.87.87,4.31.33,1.56.67,3.12,1.07,4.67.39,1.5.79,3,1.13,4.52.34,1.56.69,3.13,1.09,4.68.4,1.56.82,3.11,1.26,4.65.41,1.48.87,2.94,1.27,4.43.42,1.58.82,3.16,1.19,4.76.37,1.59.69,3.18,1.03,4.77.35,1.58.75,3.15,1.19,4.71.74,2.59,1.32,5.23,2.01,7.84-.21-.22-.41-.43-.62-.64-.84-.84-1.74-1.61-2.65-2.38-.48-.44-.94-.9-1.39-1.38-.48-.52-.95-1.06-1.43-1.59-.93-1.02-1.96-1.94-2.92-2.92-.8-.81-1.57-1.64-2.4-2.42-.84-.8-1.71-1.57-2.49-2.43-.8-.87-1.58-1.75-2.43-2.58-.41-.4-.83-.8-1.23-1.22-.4-.42-.79-.85-1.18-1.28-.75-.86-1.52-1.71-2.35-2.5-.76-.72-1.56-1.41-2.3-2.14-1.59-1.57-3.1-3.22-4.67-4.81-.81-.83-1.66-1.62-2.5-2.42-.83-.79-1.62-1.6-2.38-2.45-.78-.87-1.59-1.71-2.39-2.55-.78-.81-1.51-1.67-2.28-2.49-.77-.82-1.53-1.63-2.32-2.43-.85-.86-1.74-1.66-2.7-2.4-.88-.69-1.76-1.38-2.62-2.1-.41-.34-.82-.69-1.27-.99-.04-.03-.09-.06-.14-.09,0-.02,0-.03,0-.05ZM309.96,137.45c0-.77.01-1.54.05-2.31.1-1.06.25-2.11.44-3.16.18-.84.39-1.67.65-2.49.3-.74.63-1.46.98-2.18.8-1.51,1.64-2.99,2.58-4.42.44-.63.9-1.24,1.4-1.84.48-.53.97-1.03,1.49-1.52.64-.54,1.3-1.05,1.99-1.54,1.04-.67,2.09-1.3,3.19-1.87.35-.16.7-.33,1.07-.47.2-.06.4-.12.61-.18.35-.06.71-.1,1.06-.13.09.14.19.28.29.42.3.38.61.75.91,1.13.67.81,1.35,1.61,2.09,2.37.68.7,1.41,1.37,2.08,2.08.69.73,1.36,1.47,2.06,2.19.79.82,1.58,1.63,2.36,2.45.81.85,1.66,1.65,2.49,2.48.8.79,1.55,1.65,2.35,2.45.83.83,1.7,1.61,2.55,2.42,1.69,1.6,3.26,3.33,4.89,5,.82.84,1.67,1.65,2.54,2.45.41.37.81.74,1.2,1.13.38.38.74.77,1.09,1.17.61.7,1.22,1.41,1.88,2.06.64.64,1.31,1.26,1.94,1.92.82.86,1.59,1.78,2.43,2.63.82.83,1.71,1.6,2.53,2.43.81.82,1.59,1.68,2.41,2.49.41.4.82.8,1.22,1.21.42.43.82.87,1.22,1.31.26.3.52.6.79.9-.06-.07-.12-.14-.19-.21.54.61,1.09,1.21,1.7,1.75.1.09.21.18.31.27-.64-.09-1.29-.16-1.93-.24-.66-.08-1.31-.19-1.97-.29-.66-.1-1.32-.18-1.98-.3-.71-.16-1.41-.35-2.11-.52-.83-.2-1.68-.35-2.52-.51-.02,0-.05,0-.07-.01,0,0,0,0,0,0-.96-.2-1.91-.4-2.88-.53-.93-.12-1.85-.26-2.78-.4-1.03-.16-2.06-.28-3.09-.46-.97-.17-1.94-.33-2.92-.43-.69-.07-1.37-.15-2.05-.26-.73-.12-1.47-.23-2.2-.32-.71-.08-1.41-.15-2.11-.25-.74-.12-1.48-.25-2.22-.37-1.4-.22-2.8-.46-4.21-.6-.72-.07-1.44-.11-2.16-.21-.7-.09-1.39-.23-2.08-.37.12.02.24.05.37.07-1.57-.32-3.15-.59-4.72-.9-1.14-.24-2.28-.46-3.42-.68-.97-.19-1.95-.35-2.92-.54-.58-.12-1.15-.24-1.74-.33-.54-.07-1.09-.13-1.63-.18-.38-.04-.76-.06-1.14-.05-.13-.16-.28-.31-.43-.45-.18-.22-.34-.45-.5-.68-.2-.32-.39-.63-.57-.97-.64-1.35-1.14-2.78-1.64-4.19-.25-.75-.45-1.52-.62-2.29-.17-.91-.29-1.82-.37-2.74-.04-.79-.04-1.59-.03-2.38ZM310.39,180.33c-.29-.34-.56-.68-.81-1.05-.52-.8-1.02-1.61-1.47-2.46-.15-.32-.28-.64-.41-.97-.34-1-.65-2.02-.88-3.05-.16-.91-.26-1.83-.34-2.75-.05-.99-.06-1.97,0-2.96.06-.79.16-1.56.3-2.34.11-.46.24-.92.38-1.37.48-1.28,1.02-2.55,1.62-3.78.19-.35.39-.69.61-1.02.29-.4.59-.79.9-1.17.21-.23.44-.45.67-.67.06-.05.12-.09.19-.14.11-.07.21-.13.32-.19.13-.06.25-.11.38-.17,0,0,.02,0,.03,0,.35-.03.69-.08,1.02-.23.07.03.13.05.2.08.47.18.96.36,1.45.48.44.11.88.2,1.32.29.53.11,1.05.25,1.57.37.64.15,1.28.27,1.93.39,1.16.22,2.33.44,3.49.67-.12-.03-.25-.05-.37-.08.1.02.2.04.3.06,0,0,0,0-.01,0,.17.03.34.07.51.1.83.17,1.67.34,2.51.47.8.13,1.59.24,2.39.38.78.13,1.56.28,2.34.36.8.08,1.6.12,2.39.17,1.56.12,3.11.33,4.66.57.84.13,1.69.27,2.54.36.87.09,1.75.16,2.62.29.69.1,1.39.22,2.08.3.7.08,1.39.13,2.09.22.71.1,1.41.24,2.12.34.75.11,1.5.2,2.26.31.7.1,1.39.22,2.09.29.68.07,1.36.12,2.04.22.67.1,1.33.22,1.99.32.62.09,1.24.18,1.86.29,1.06.23,2.12.49,3.2.62,1.04.12,2.09.23,3.13.35,1.07.12,2.14.25,3.21.42.44.07.88.13,1.32.19-.61.27-1.23.54-1.84.82-1.29.58-2.56,1.2-3.88,1.71-1.3.5-2.62.97-3.92,1.45-1.43.54-2.85,1.1-4.27,1.67-1.35.55-2.68,1.12-4.03,1.64-1.28.49-2.57.95-3.86,1.41-1.28.44-2.58.84-3.88,1.2-1.36.38-2.74.71-4.12,1.05-1.31.32-2.62.64-3.94.92-.62.13-1.25.26-1.86.45-.65.21-1.3.45-1.94.68-.68.23-1.36.42-2.04.63-.67.2-1.33.43-1.99.66-.76.26-1.54.44-2.32.65-.79.2-1.56.44-2.33.7-.8.26-1.62.5-2.41.79-.74.27-1.45.62-2.19.89-.86.28-1.73.51-2.59.77-.41.12-.83.21-1.24.3-.37.08-.73.17-1.09.25-.19.03-.38.06-.57.08-.07,0-.15,0-.22,0-.19-.3-.42-.58-.69-.83-.86-.79-1.72-1.58-2.5-2.44ZM326.58,216.35c-.13.2-.25.4-.37.6-.19-.11-.37-.21-.56-.32-.67-.36-1.35-.69-2.04-1.02-.51-.27-1.01-.56-1.49-.87-.87-.61-1.73-1.24-2.54-1.92-.46-.42-.88-.86-1.3-1.32-.81-.93-1.59-1.87-2.3-2.88-.65-1-1.25-2.03-1.8-3.08-.26-.55-.5-1.11-.71-1.67-.47-1.5-.82-3.05-1.14-4.59-.23-1.16-.44-2.33-.55-3.51-.04-.96,0-1.93.06-2.89.07-.98.18-1.94.35-2.91.09-.42.2-.83.33-1.24.13-.33.26-.65.41-.96.14-.26.28-.52.43-.77.08-.13.16-.27.24-.4.01-.02.02-.04.03-.07.13,0,.25.01.38.01.06,0,.13,0,.19,0,.5-.02.99-.11,1.47-.2.5-.09,1-.17,1.5-.29.49-.12.96-.29,1.43-.44.54-.17,1.08-.35,1.61-.54,1.02-.37,1.98-.89,3-1.27.48-.16.97-.32,1.45-.49.56-.19,1.12-.39,1.69-.55.55-.15,1.1-.27,1.65-.4.54-.13,1.07-.3,1.6-.47.57-.18,1.14-.35,1.72-.5.57-.15,1.14-.29,1.71-.45.56-.16,1.11-.36,1.67-.54.49-.15.97-.28,1.47-.39,1.73-.34,3.46-.65,5.19-1.01,0,0,0,0,0,0,.16-.03.32-.07.49-.1,0,0,0,0,0,0,.02,0,.04,0,.06-.01.04,0,.08-.02.12-.02,1.32-.27,2.63-.57,3.93-.92,1.3-.35,2.61-.68,3.89-1.08,1.22-.38,2.45-.75,3.67-1.13,1.28-.4,2.55-.85,3.81-1.29,1.81-.62,3.64-1.22,5.46-1.8,1.35-.43,2.72-.83,4.05-1.31.74-.27,1.47-.56,2.2-.85-.52.62-1.05,1.23-1.58,1.84-.44.5-.89,1-1.33,1.5-1.7,1.89-3.39,3.8-5.11,5.68-.85.93-1.69,1.86-2.57,2.75-.88.9-1.79,1.78-2.7,2.65-1.86,1.77-3.67,3.58-5.5,5.38-.87.85-1.73,1.71-2.55,2.61-.89.97-1.76,1.96-2.63,2.95-.07.08-.14.16-.21.23-.02.02-.04.05-.07.07-.21.24-.42.48-.63.71.06-.07.13-.14.19-.22-.2.23-.4.46-.6.69.06-.07.13-.14.19-.22-.57.65-1.15,1.3-1.73,1.96-1.32,1.5-2.6,3.04-3.92,4.55-1.4,1.58-2.89,3.08-4.34,4.62-1.62,1.72-3.28,3.4-4.93,5.09-.91.93-1.76,1.93-2.47,3.03ZM363.72,225.07c-.33,1.58-.63,3.16-.94,4.74-.21.97-.44,1.93-.7,2.89-.25.91-.48,1.83-.77,2.73-.15.42-.3.83-.44,1.25-.29.02-.58.04-.87.08-1,.11-1.98.36-2.98.48-.67.08-1.35.13-2.03.22-.63.08-1.25.18-1.88.24-1.07.05-2.16.02-3.24-.04-.77-.07-1.52-.18-2.28-.33-1.58-.33-3.16-.68-4.69-1.19-.78-.29-1.55-.6-2.32-.9-.66-.26-1.31-.54-1.94-.85-.34-.19-.68-.38-1.01-.59-.64-.45-1.25-.95-1.85-1.45-.55-.46-1.09-.92-1.63-1.38-.49-.44-.95-.9-1.4-1.38-.34-.41-.66-.83-.97-1.27-.38-.57-.74-1.16-1.11-1.74-.33-.52-.66-1.05-.96-1.59-.11-.23-.2-.45-.29-.69-.18-.55-.34-1.1-.51-1.66-.18-.56-.37-1.12-.51-1.7-.06-.36-.11-.72-.15-1.09-.01-.11-.02-.22-.03-.33.03-.04.06-.07.09-.11.45-.52.88-1.07,1.33-1.59.86-.95,1.82-1.79,2.76-2.65,1.73-1.58,3.42-3.2,5.13-4.79.89-.83,1.77-1.65,2.63-2.51.83-.83,1.63-1.7,2.41-2.57,1.62-1.81,3.26-3.61,4.91-5.39,1.71-1.84,3.35-3.75,5.13-5.52,1.81-1.81,3.64-3.6,5.5-5.36.89-.84,1.78-1.67,2.65-2.53.89-.88,1.76-1.79,2.61-2.71,1.72-1.87,3.41-3.76,5.12-5.64.82-.9,1.65-1.8,2.46-2.7.69-.77,1.37-1.54,2.04-2.32-.29,1.36-.58,2.72-.86,4.09-.04.18-.07.36-.11.55,0-.02,0-.04.01-.05-.68,3.34-1.35,6.7-1.88,10.07-.24,1.57-.45,3.15-.74,4.71-.29,1.57-.6,3.13-.9,4.7-.59,3.12-1.13,6.24-1.66,9.37-.27,1.59-.55,3.18-.8,4.78-.25,1.58-.48,3.15-.73,4.73-.25,1.52-.54,3.03-.8,4.55-.25,1.49-.51,2.97-.81,4.45ZM392.18,240.39c-.83.55-1.66,1.1-2.55,1.56-.71.35-1.42.7-2.17.97-.41.13-.82.24-1.24.33-.52.1-1.03.18-1.56.23-.75.04-1.5.03-2.26.02-.32,0-.65,0-.97,0-.09,0-.17,0-.26,0-1.11,0-2.22-.02-3.34-.09-.62-.04-1.24-.08-1.86-.12-.73-.05-1.46-.14-2.19-.24-.92-.13-1.84-.24-2.75-.41-.42-.1-.84-.22-1.25-.36.09.03.17.06.26.09-.74-.26-1.49-.5-2.23-.76-.2-.07-.39-.15-.58-.24-.29-.16-.58-.33-.86-.51-.37-.26-.74-.52-1.08-.81-.1-.09-.2-.19-.29-.29-.11-.14-.22-.28-.32-.42.06-.23.11-.45.17-.68.27-1.08.63-2.13.93-3.21.33-1.19.68-2.38.98-3.58.3-1.2.54-2.42.78-3.64.22-1.04.45-2.07.66-3.11.2-.99.38-1.98.55-2.97.34-1.95.71-3.9,1.02-5.85.25-1.57.48-3.15.72-4.73.25-1.59.52-3.18.78-4.77.25-1.52.5-3.05.77-4.57.29-1.6.59-3.2.9-4.8.29-1.52.62-3.03.89-4.56.28-1.62.51-3.24.76-4.87.48-3.08,1.11-6.13,1.73-9.19.22-1.05.44-2.09.66-3.14.29-1.35.59-2.69.89-4.04.29,1.09.59,2.18.88,3.27.41,1.53.84,3.06,1.21,4.6.37,1.57.71,3.14,1.06,4.71.34,1.48.68,2.95,1,4.43.35,1.79.63,3.59.98,5.38.32,1.6.69,3.19,1.02,4.79.31,1.49.62,2.98.96,4.47.35,1.53.68,3.07,1.03,4.6.35,1.57.74,3.14,1.09,4.71.69,3.06,1.44,6.11,2.1,9.18.64,2.96,1.48,5.87,2.1,8.83.19.95.35,1.9.52,2.86.18.96.4,1.9.65,2.85.23.88.44,1.76.67,2.64.06.23.12.46.18.7-.4.23-.78.48-1.17.74ZM432.04,219.24c-.04.45-.12.9-.2,1.35-.11.48-.26.95-.41,1.41-.38,1.07-.83,2.12-1.32,3.15-.23.43-.47.84-.73,1.24-.4.56-.82,1.1-1.27,1.62-.52.56-1.05,1.1-1.61,1.61-.69.6-1.39,1.19-2.1,1.77-.7.57-1.43,1.11-2.18,1.62-.88.58-1.79,1.12-2.73,1.61-.92.44-1.86.84-2.8,1.26-1,.45-2,.91-3.02,1.33-1.01.42-2.03.81-3.04,1.23-.93.39-1.86.78-2.8,1.12-.8.27-1.61.51-2.44.69-.88.17-1.76.34-2.65.43-.26.01-.53.01-.79,0-.41-.04-.81-.09-1.21-.16-.3-.07-.6-.15-.89-.24-.19-.07-.38-.15-.56-.24-.1-.05-.2-.11-.3-.17-.02-.01-.04-.03-.05-.04-.27-.26-.52-.53-.85-.71-.44-.24-.92-.4-1.42-.44-.01-.05-.03-.1-.04-.15-.17-.61-.34-1.23-.48-1.85-.25-1.14-.54-2.26-.79-3.4-.18-.92-.33-1.85-.51-2.76-.19-.97-.39-1.93-.61-2.89-.41-1.81-.84-3.61-1.21-5.43-.3-1.53-.56-3.06-.88-4.59-.31-1.52-.66-3.03-.98-4.54-.12-.58-.23-1.15-.35-1.72-.32-1.53-.7-3.05-1.05-4.58-.37-1.59-.73-3.18-1.09-4.77-.33-1.44-.65-2.89-.96-4.33-.33-1.55-.7-3.08-1.03-4.63-.31-1.57-.58-3.15-.91-4.71-.33-1.58-.72-3.14-1.1-4.71-.36-1.5-.7-3-1.05-4.5-.37-1.54-.77-3.07-1.16-4.6-.08-.3-.15-.6-.23-.9.13.13.26.26.4.38.79.74,1.59,1.48,2.39,2.21.85.78,1.67,1.57,2.51,2.35,1.6,1.48,3.26,2.91,4.77,4.48.77.8,1.5,1.64,2.29,2.43.75.74,1.55,1.43,2.34,2.13,1.3,1.17,2.58,2.37,3.88,3.54,1.25,1.12,2.54,2.21,3.82,3.31.81.72,1.59,1.46,2.4,2.17.86.76,1.72,1.52,2.6,2.27,1.66,1.41,3.29,2.86,4.95,4.27.87.74,1.76,1.46,2.64,2.19.86.71,1.73,1.4,2.63,2.05,1.75,1.27,3.43,2.64,5.06,4.06.75.67,1.51,1.34,2.29,1.98.63.51,1.29.99,1.91,1.52.81.73,1.6,1.48,2.44,2.18.11.09.22.17.32.25-.07.36-.06.74,0,1.09.04.21.08.39.14.58,0,.07,0,.13,0,.2ZM453.85,185.39c-.07.75-.18,1.5-.32,2.24-.27,1.22-.61,2.43-.99,3.62-.36,1.13-.71,2.27-1.08,3.39-.45,1.24-.96,2.45-1.47,3.66-.52,1.21-1.04,2.42-1.62,3.61-.29.56-.6,1.11-.94,1.65-.58.83-1.19,1.64-1.8,2.45-.57.76-1.14,1.52-1.76,2.24-.66.73-1.33,1.45-2.06,2.11-.78.66-1.61,1.26-2.4,1.91-.78.65-1.55,1.33-2.37,1.92-.15.1-.31.19-.47.28-.04-.02-.07-.04-.11-.06-.14-.08-.29-.17-.42-.26-.42-.3-.83-.62-1.22-.95-.77-.7-1.51-1.43-2.27-2.14-.85-.79-1.77-1.5-2.65-2.26-.73-.65-1.45-1.32-2.2-1.95-.74-.63-1.49-1.26-2.25-1.88-1.48-1.22-3.09-2.28-4.57-3.49-.89-.73-1.79-1.45-2.68-2.18-.85-.69-1.68-1.4-2.51-2.11-1.63-1.38-3.27-2.76-4.88-4.17-.09-.08-.17-.15-.26-.23-1.08-.95-2.12-1.94-3.2-2.88-.94-.82-1.9-1.63-2.84-2.45-.93-.83-1.85-1.68-2.78-2.52-.91-.82-1.84-1.61-2.76-2.41-.44-.39-.87-.78-1.28-1.19-.47-.47-.93-.95-1.4-1.42-1.06-1.07-2.18-2.09-3.31-3.09.08.07.16.14.24.21-1.91-1.68-3.79-3.41-5.7-5.09-.42-.37-.83-.74-1.25-1.1-.88-.79-1.71-1.62-2.54-2.46-.33-.34-.68-.67-1.02-1,.84.2,1.68.4,2.53.58,1.5.33,3,.61,4.51.88,1.41.25,2.82.51,4.24.73.71.11,1.42.2,2.13.32.71.12,1.41.25,2.11.39,1.38.27,2.77.39,4.15.64.83.18,1.65.38,2.49.51.79.13,1.59.22,2.38.36.91.21,1.8.48,2.72.65.74.14,1.5.23,2.24.38.64.14,1.26.32,1.9.47.71.17,1.42.32,2.13.49.67.15,1.34.34,2.01.5.61.14,1.22.27,1.83.39.75.16,1.49.36,2.23.57.7.2,1.4.34,2.11.48,1.04.22,2.05.53,3.1.73.92.17,1.85.28,2.77.46.71.15,1.42.29,2.14.4.62.1,1.23.19,1.85.3,1.27.22,2.53.45,3.8.68.67.12,1.33.23,2,.32.64.09,1.27.14,1.91.21.64.07,1.28.16,1.92.24.67.08,1.34.11,2.02.15.77.06,1.54.15,2.31.2.86.06,1.71.14,2.57.2-.09,0-.18-.01-.28-.02.79.05,1.58.13,2.37.23.05.09.1.18.15.28.18.38.34.76.49,1.15.08.25.15.51.22.77.07.37.12.75.15,1.12.02.75,0,1.51-.04,2.26ZM457.1,162.6c-.11,1.56-.29,3.11-.57,4.65-.19.87-.44,1.72-.7,2.58-.25.83-.46,1.66-.73,2.49-.06.15-.12.3-.19.45-.18.33-.36.65-.56.96-.11.15-.22.29-.33.43-.11.12-.22.23-.33.34-.04.03-.09.07-.13.1-.19.12-.39.24-.58.37-.21.15-.42.35-.59.58-.12,0-.25,0-.37,0-.44,0-.88-.02-1.32-.04-.4-.03-.8-.07-1.2-.1-.47-.04-.95-.06-1.42-.11-.48-.05-.96-.1-1.44-.14-.58-.04-1.16-.06-1.74-.09-1.01-.08-2.02-.21-3.04-.28-1.04-.07-2.08-.18-3.11-.33-2.07-.31-4.13-.65-6.18-1.05-.65-.14-1.29-.31-1.94-.45-.69-.16-1.4-.25-2.1-.39-.58-.13-1.15-.27-1.72-.44-.66-.19-1.34-.34-2.01-.48-.64-.14-1.27-.33-1.9-.52-.68-.2-1.35-.38-2.04-.53-.63-.14-1.27-.27-1.9-.44-.7-.18-1.4-.36-2.1-.52-.71-.16-1.41-.31-2.11-.49-.71-.19-1.43-.37-2.16-.49-.66-.11-1.33-.19-1.99-.31-.93-.2-1.84-.46-2.77-.64-.95-.18-1.92-.28-2.88-.46-.94-.21-1.88-.44-2.84-.6-.81-.14-1.63-.24-2.45-.39-1-.22-2-.47-3.01-.66-.96-.18-1.91-.35-2.87-.54-1.14-.24-2.27-.49-3.4-.75-1.07-.24-2.14-.48-3.2-.76,1.07-.45,2.14-.89,3.23-1.29,1.28-.44,2.57-.87,3.84-1.35,1.3-.49,2.61-.96,3.92-1.43,1.25-.44,2.49-.91,3.72-1.42,1.18-.49,2.35-.97,3.55-1.39.83-.29,1.66-.57,2.48-.88.73-.27,1.45-.54,2.19-.8.96-.33,1.93-.67,2.89-1,.49-.17.99-.33,1.49-.47,1.36-.38,2.73-.77,4.08-1.18.71-.22,1.43-.41,2.14-.63.7-.21,1.38-.45,2.08-.69,1.36-.46,2.76-.82,4.14-1.23.68-.2,1.36-.42,2.05-.58.7-.17,1.4-.31,2.1-.46,1.39-.3,2.75-.7,4.11-1.07,1.36-.37,2.72-.73,4.09-1.07,1.35-.34,2.67-.74,4.01-1.1.66-.18,1.32-.34,1.98-.54.69-.21,1.36-.45,2.04-.69,1.09-.37,2.19-.71,3.29-1.04.42-.13.84-.25,1.26-.36.15.15.3.3.45.45.44.52.84,1.08,1.23,1.64.19.29.36.58.53.89.26.56.48,1.13.69,1.7.33.96.63,1.92.89,2.91.26,1.02.5,2.04.72,3.06.36,1.85.62,3.72.79,5.6.05,1.16.02,2.31-.04,3.46Z"/>
        <polygon class="cls-18" points="390.59 105.95 390.59 105.95 390.59 105.94 390.59 105.95"/>
        <path class="cls-18" d="M323.37,158.42s-.08-.02-.13-.03c0,0,.02,0,.03,0,.03,0,.07.01.1.02Z"/>
        <path class="cls-18" d="M342.07,178.87s-.02,0-.03,0c0,0-.02,0-.02,0,.02,0,.03,0,.05-.01Z"/>
        <path class="cls-18" d="M344.64,196.34c.06-.07.12-.13.18-.2,0,0,0-.01.01-.02-.06.07-.13.15-.19.22Z"/>
        <path class="cls-18" d="M342.06,199.26c.06-.07.12-.13.18-.2,0,0,0,0,.01-.01-.06.07-.13.14-.19.21Z"/>
      </g>
      <g>
        <path class="cls-19" d="M457.14,159.13c-.16-1.88-.43-3.75-.79-5.6-.22-1.03-.46-2.05-.72-3.06-.25-.98-.56-1.95-.89-2.91-.21-.58-.43-1.15-.69-1.7-.16-.3-.34-.6-.53-.89-.39-.56-.79-1.12-1.23-1.64-.15-.16-.3-.31-.45-.45-.42.11-.84.24-1.26.36-1.1.33-2.2.67-3.29,1.04-.68.24-1.36.48-2.04.69-.65.2-1.32.36-1.98.54-1.34.36-2.67.76-4.01,1.1-1.36.34-2.73.71-4.09,1.07-1.37.37-2.73.76-4.11,1.07-.7.15-1.4.29-2.1.46-.69.17-1.37.38-2.05.58-1.38.41-2.77.77-4.14,1.23-.69.23-1.38.47-2.08.69-.71.22-1.43.41-2.14.63-1.36.41-2.72.8-4.08,1.18-.5.14-1,.3-1.49.47-.96.34-1.92.67-2.89,1-.73.26-1.46.53-2.19.8-.82.3-1.65.59-2.48.88-1.2.43-2.38.9-3.55,1.39-1.23.51-2.47.98-3.72,1.42-1.31.47-2.62.94-3.92,1.43-1.27.48-2.56.91-3.84,1.35-1.09.4-2.16.84-3.23,1.29,1.06.28,2.13.52,3.2.76,1.13.25,2.27.51,3.4.75.95.19,1.91.36,2.86.54,1.01.19,2.01.44,3.01.66.81.15,1.63.25,2.44.39.96.16,1.89.39,2.84.6.96.18,1.92.27,2.88.46.93.18,1.84.44,2.77.64.66.12,1.33.2,1.99.31.73.12,1.44.3,2.16.49.7.18,1.41.33,2.11.49.7.16,1.4.33,2.1.52.63.16,1.27.3,1.9.44.69.15,1.37.33,2.04.53.63.19,1.26.38,1.9.52.68.15,1.35.29,2.01.48.57.16,1.14.31,1.72.44.7.13,1.4.23,2.1.39.65.15,1.29.31,1.94.45,2.05.4,4.12.75,6.18,1.05,1.03.15,2.07.26,3.11.33,1.01.07,2.02.2,3.04.28.58.03,1.16.05,1.74.09.48.04.96.09,1.44.14.47.05.94.07,1.42.11.4.03.8.07,1.2.1.42.03.84.04,1.27.04.02,0,.04,0,.05,0,.12,0,.24,0,.37,0,.17-.23.38-.43.59-.58.19-.13.38-.25.58-.37.04-.03.09-.06.13-.1.11-.11.22-.23.33-.34.11-.14.22-.28.33-.43.2-.31.39-.63.56-.96.07-.15.13-.3.19-.45.26-.82.47-1.66.73-2.49.26-.86.51-1.71.7-2.58.28-1.53.46-3.09.57-4.65.06-1.16.1-2.31.04-3.46Z"/>
        <path class="cls-19" d="M424.84,110.44c-.81.93-1.68,1.81-2.5,2.73-.75.89-1.47,1.81-2.22,2.71-.79.95-1.63,1.85-2.45,2.77-.8.95-1.55,1.92-2.27,2.94-.71,1.01-1.46,1.99-2.19,2.98-.73.98-1.44,1.98-2.14,2.99-.69,1-1.38,2-2.11,2.97-.73.96-1.47,1.91-2.23,2.85-.79.98-1.56,1.97-2.34,2.96-1.56,1.98-3.19,3.92-4.8,5.86-.8.96-1.62,1.92-2.41,2.9-.8.99-1.56,2-2.34,3-.75.98-1.51,1.95-2.3,2.9-.82.99-1.66,1.97-2.48,2.97-1.05,1.27-2.08,2.57-3.12,3.85.24-.1.48-.2.73-.3.86-.34,1.74-.63,2.61-.93,1.23-.44,2.44-.92,3.66-1.37,1.24-.46,2.49-.89,3.72-1.37,1.24-.48,2.46-1.01,3.69-1.51,1.19-.49,2.4-.9,3.62-1.32,1.42-.5,2.83-1.03,4.26-1.5,1.38-.45,2.75-.93,4.16-1.28,1.36-.34,2.72-.69,4.07-1.06.73-.2,1.46-.39,2.18-.6.68-.2,1.35-.43,2.02-.65,1.38-.45,2.79-.8,4.19-1.2.71-.21,1.43-.42,2.15-.58.75-.16,1.51-.3,2.27-.45,1.25-.27,2.48-.6,3.71-.93,1.22-.32,2.44-.63,3.66-.93,1.28-.31,2.56-.63,3.83-.97.6-.16,1.21-.31,1.81-.46.62-.16,1.22-.35,1.83-.55,1.42-.49,2.85-.96,4.31-1.37.13-.04.26-.07.4-.11,0-.05.02-.1.03-.15.13-.6.31-1.18.45-1.78.07-.44.13-.87.16-1.31.05-.9.05-1.79,0-2.69-.11-1.18-.29-2.34-.5-3.5-.2-1.12-.4-2.24-.62-3.35-.19-.91-.39-1.83-.65-2.72-.26-.88-.55-1.74-.85-2.6-.27-.77-.56-1.52-.87-2.27-.3-.72-.65-1.43-1-2.13-.71-1.39-1.47-2.75-2.33-4.05-.49-.7-1-1.39-1.55-2.05-.37-.41-.76-.81-1.17-1.19-.56-.48-1.14-.92-1.74-1.34-.71-.46-1.45-.86-2.2-1.24-.8-.4-1.61-.75-2.46-1.05-.73-.26-1.45-.52-2.2-.71-.45-.08-.9-.13-1.35-.17-.24-.02-.49-.05-.73-.09-.08.1-.17.21-.25.31-.3.37-.61.75-.9,1.13-.64.84-1.34,1.63-2.04,2.42-.74.86-1.44,1.75-2.19,2.61Z"/>
        <path class="cls-13" d="M394.28,106.14c-.28,1.63-.62,3.25-.98,4.87-.35,1.58-.77,3.14-1.15,4.71-.37,1.53-.73,3.07-1.13,4.6-.4,1.54-.81,3.07-1.22,4.61-.41,1.53-.84,3.06-1.25,4.6-.42,1.58-.84,3.16-1.31,4.72-.46,1.52-.91,3.04-1.33,4.57-.82,2.97-1.5,5.98-2.29,8.96-.4,1.49-.74,2.99-1.1,4.48-.33,1.38-.68,2.75-1,4.13,1.29-1.57,2.53-3.19,3.8-4.78,1.54-1.95,3.15-3.84,4.63-5.84.77-1.05,1.54-2.1,2.32-3.14.75-1,1.52-1.97,2.3-2.93,1.58-1.95,3.14-3.92,4.65-5.93,1.85-2.44,3.63-4.93,5.36-7.46.68-1.02,1.34-2.05,2.05-3.04.73-1.03,1.48-2.05,2.24-3.06.73-.96,1.43-1.94,2.13-2.91.8-1.11,1.67-2.16,2.59-3.16.73-.79,1.47-1.57,2.19-2.38.83-.94,1.64-1.89,2.51-2.8.85-.89,1.75-1.72,2.61-2.59.81-.82,1.58-1.68,2.4-2.49.84-.82,1.7-1.62,2.54-2.45.3-.3.6-.61.9-.92.14-.14.28-.29.43-.43.02-.02.04-.04.06-.06-.03-.1-.06-.21-.1-.31-.12-.3-.25-.59-.38-.87-.25-.46-.52-.9-.81-1.33-.5-.72-1.03-1.42-1.6-2.1-.48-.52-.98-1.01-1.5-1.49-.83-.69-1.69-1.34-2.54-2.02-.83-.67-1.67-1.34-2.54-1.95-.68-.44-1.37-.86-2.08-1.24-.99-.48-2.01-.89-3.05-1.26-.71-.24-1.43-.45-2.17-.61-.75-.14-1.51-.24-2.28-.31-1.1-.07-2.2-.06-3.3,0-.61.05-1.21.14-1.8.25-.53.12-1.05.27-1.56.44-.76.28-1.51.59-2.25.9-.45.19-.87.42-1.32.58,0,.02,0,.03,0,.05-.1.46-.19.91-.29,1.37-.19.99-.35,1.99-.54,2.98-.19,1-.45,1.99-.73,2.97-.26.93-.51,1.87-.71,2.82-.2.9-.38,1.81-.57,2.71-.3,1.51-.56,3.03-.83,4.54Z"/>
        <path class="cls-14" d="M362.93,90.03c.44,1.15.8,2.32,1.15,3.5.38,1.33.74,2.67,1.02,4.02.25,1.25.42,2.51.66,3.76.25,1.16.54,2.31.79,3.47.29,1.35.56,2.71.82,4.07.48,2.52.87,5.06,1.35,7.58.31,1.49.68,2.97,1,4.46.36,1.69.65,3.4.99,5.1.65,3.08,1.39,6.14,2.13,9.19.78,3.2,1.42,6.43,2.03,9.66.07.34.13.69.2,1.03.04.22.09.44.13.65.17.77.34,1.55.55,2.31.21.76.44,1.51.66,2.27.34,1.13.65,2.27.95,3.41.06-.25.12-.51.18-.76.18-.73.38-1.46.56-2.19.2-.8.39-1.61.58-2.41.35-1.45.78-2.87,1.17-4.31.43-1.56.84-3.12,1.28-4.67.42-1.46.88-2.92,1.34-4.37.47-1.49.99-2.96,1.42-4.46.46-1.58.88-3.17,1.34-4.76.44-1.54.87-3.08,1.3-4.62.34-1.23.69-2.47,1.02-3.7.37-1.35.69-2.7,1.04-4.05.34-1.32.7-2.63,1.03-3.96.31-1.24.59-2.49.85-3.74.01-.06.02-.12.04-.18.01-.06.03-.13.04-.19.01-.05.02-.1.03-.15,0,0,0,0,0-.01,0,0,0,0,0,0,0,0,0,0,0-.01,0,0,0,0,0,0,0,0,0,0,0,0h0c.21-1.05.42-2.09.64-3.14.21-.98.46-1.95.69-2.92.23-.96.47-1.91.75-2.85.29-.96.65-1.91.98-2.85.43-1.27.77-2.57,1.2-3.84.21-.63.44-1.25.69-1.87-.46-.28-.87-.67-1.22-1.08-.25-.3-.48-.62-.71-.93-.26-.35-.53-.7-.81-1.03-.44-.49-.9-.96-1.39-1.4-.23-.19-.46-.36-.7-.54-.31-.19-.63-.38-.95-.55-.69-.33-1.39-.64-2.1-.91-.59-.19-1.18-.35-1.78-.49-1.21-.21-2.42-.33-3.64-.43-.98-.06-1.96-.1-2.94-.07-.92.08-1.82.22-2.72.4-1.22.26-2.43.54-3.62.9-1.17.36-2.35.67-3.5,1.06-1.1.4-2.2.82-3.26,1.32-.44.23-.86.48-1.28.75-.49.35-.96.71-1.42,1.1-.4.36-.78.73-1.17,1.1-.11.1-.21.21-.32.32.07.13.13.26.19.39.26.54.51,1.08.73,1.64Z"/>
        <path class="cls-16" d="M329.55,114.42c.86.72,1.73,1.41,2.62,2.1.95.74,1.85,1.55,2.7,2.4.79.79,1.55,1.61,2.32,2.43.77.82,1.5,1.68,2.28,2.49.81.84,1.61,1.68,2.39,2.55.76.85,1.56,1.66,2.38,2.45.84.8,1.69,1.59,2.5,2.42,1.57,1.59,3.08,3.24,4.67,4.81.75.74,1.54,1.42,2.3,2.14.83.79,1.6,1.64,2.35,2.5.39.43.78.86,1.18,1.28.4.42.82.81,1.23,1.22.84.83,1.63,1.71,2.43,2.58.78.86,1.64,1.63,2.49,2.43.83.78,1.6,1.61,2.4,2.42.96.98,1.99,1.9,2.92,2.92.48.53.95,1.06,1.43,1.59.44.48.9.94,1.39,1.38.9.77,1.81,1.54,2.65,2.38.21.21.42.43.62.64-.69-2.61-1.27-5.24-2.01-7.84-.44-1.56-.85-3.13-1.19-4.71-.35-1.59-.66-3.19-1.03-4.77-.37-1.59-.77-3.18-1.19-4.76-.4-1.48-.85-2.95-1.27-4.43-.43-1.55-.86-3.1-1.26-4.65-.4-1.55-.74-3.11-1.09-4.68-.33-1.52-.74-3.02-1.13-4.52-.4-1.55-.75-3.1-1.07-4.67-.3-1.43-.58-2.87-.87-4.31-.41-1.99-.88-3.98-1.41-5.95-.3-1.13-.58-2.25-.79-3.4-.19-1.01-.36-2.02-.55-3.03-.25-1.18-.52-2.35-.72-3.53-.17-1.02-.32-2.05-.52-3.07-.11-.53-.23-1.06-.32-1.59-.04-.26-.09-.53-.13-.79-.04-.26-.09-.53-.09-.79-.07-.03-.14-.05-.21-.08-.54-.18-1.09-.34-1.65-.47-.42-.08-.84-.13-1.26-.16-.4-.02-.8-.03-1.2-.01-.42.04-.83.1-1.25.17-1.18.26-2.33.63-3.48.96-.66.19-1.32.38-1.99.54-.59.15-1.18.29-1.75.47-.23.09-.45.19-.68.29-.4.22-.79.45-1.17.71-1.35.97-2.65,1.99-3.9,3.07-.83.74-1.64,1.49-2.39,2.31-1.4,1.6-2.78,3.24-3.99,4.99-.85,1.3-1.61,2.65-2.31,4.03-.79,1.63-1.46,3.31-2.06,5.01-.17.51-.34,1.01-.46,1.53-.09.47-.18.94-.23,1.42,0,.15-.01.29-.03.44,0,.02,0,.03,0,.05.05.03.09.06.13.09.44.3.86.65,1.27.99Z"/>
        <path class="cls-15" d="M310.36,142.57c.17.77.37,1.54.62,2.29.5,1.41,1,2.84,1.64,4.19.18.33.37.65.57.97.16.23.32.46.5.68.16.14.3.29.44.45.38,0,.76.02,1.14.05.54.05,1.09.1,1.63.18.58.08,1.16.2,1.74.32.97.19,1.95.35,2.92.54,1.14.23,2.28.45,3.42.68,1.57.32,3.15.58,4.72.9-.12-.02-.24-.05-.37-.07.69.14,1.38.28,2.08.37.72.09,1.44.14,2.16.21,1.41.14,2.81.38,4.21.6.74.12,1.48.25,2.22.37.7.11,1.41.17,2.11.25.74.09,1.47.2,2.2.32.68.11,1.36.19,2.05.26.98.1,1.95.26,2.92.43,1.02.18,2.06.3,3.09.46.93.14,1.85.28,2.78.4.98.13,1.94.33,2.9.53.01,0,.03,0,.04,0,.84.16,1.68.31,2.52.51.71.17,1.4.36,2.11.52.66.12,1.32.2,1.98.3.66.1,1.31.2,1.97.29.64.08,1.28.15,1.92.24-.1-.09-.2-.18-.3-.27-.61-.54-1.16-1.14-1.7-1.75-.2-.23-.4-.46-.6-.68-.4-.44-.8-.88-1.22-1.31-.4-.41-.82-.81-1.22-1.21-.82-.82-1.6-1.67-2.41-2.49-.82-.83-1.71-1.6-2.53-2.43-.84-.85-1.61-1.76-2.43-2.63-.63-.66-1.29-1.28-1.94-1.92-.66-.66-1.27-1.36-1.88-2.06-.36-.4-.72-.79-1.09-1.17-.39-.39-.79-.76-1.2-1.13-.87-.79-1.72-1.6-2.54-2.45-1.63-1.67-3.2-3.4-4.89-5-.85-.81-1.72-1.59-2.55-2.42-.8-.8-1.54-1.65-2.35-2.45-.83-.82-1.68-1.63-2.49-2.48-.78-.82-1.58-1.63-2.36-2.45-.69-.72-1.37-1.47-2.06-2.19-.68-.71-1.4-1.37-2.08-2.08-.73-.76-1.42-1.55-2.09-2.37-.31-.37-.61-.75-.91-1.13-.1-.13-.2-.27-.3-.42-.35.03-.71.07-1.06.13-.2.05-.41.11-.61.18-.36.14-.72.3-1.07.47-1.09.58-2.15,1.2-3.19,1.87-.69.49-1.35.99-1.99,1.54-.52.49-1.01.99-1.49,1.52-.49.6-.96,1.21-1.4,1.84-.94,1.43-1.79,2.9-2.58,4.42-.35.72-.68,1.44-.98,2.18-.27.82-.47,1.65-.65,2.49-.19,1.05-.35,2.1-.44,3.16-.04.77-.05,1.54-.05,2.31,0,.8,0,1.59.03,2.38.08.92.2,1.83.37,2.74Z"/>
        <path class="cls-15" d="M313.58,183.6c.07,0,.15,0,.22,0,.19-.02.38-.04.57-.08.37-.08.73-.17,1.09-.25.42-.09.83-.18,1.24-.3.86-.26,1.74-.5,2.59-.77.74-.27,1.45-.62,2.19-.89.79-.3,1.61-.53,2.41-.79.77-.25,1.54-.5,2.33-.7.78-.2,1.55-.39,2.32-.65.66-.23,1.32-.46,1.99-.66.68-.2,1.37-.4,2.04-.63.65-.23,1.29-.48,1.94-.68.61-.19,1.24-.32,1.86-.45,1.32-.28,2.63-.59,3.94-.92,1.38-.34,2.75-.67,4.12-1.05,1.3-.37,2.6-.76,3.88-1.2,1.29-.46,2.58-.92,3.86-1.41,1.35-.52,2.69-1.09,4.03-1.64,1.42-.57,2.84-1.13,4.27-1.67,1.3-.49,2.62-.95,3.92-1.45,1.32-.51,2.59-1.13,3.88-1.71.61-.27,1.23-.55,1.84-.82-.44-.06-.88-.12-1.32-.19-1.07-.17-2.14-.3-3.21-.42-1.04-.12-2.09-.23-3.13-.35-1.08-.13-2.14-.39-3.2-.62-.62-.11-1.24-.2-1.86-.29-.67-.1-1.33-.22-1.99-.32-.68-.1-1.36-.15-2.04-.22-.7-.08-1.39-.19-2.09-.29-.75-.11-1.5-.2-2.26-.31-.71-.1-1.41-.25-2.12-.34-.69-.09-1.39-.15-2.09-.22-.7-.08-1.39-.19-2.08-.3-.87-.13-1.75-.2-2.62-.29-.85-.09-1.7-.23-2.54-.36-1.54-.24-3.1-.45-4.66-.57-.8-.05-1.6-.09-2.39-.17-.79-.08-1.57-.23-2.34-.36-.79-.14-1.59-.26-2.39-.38-.77-.12-1.53-.27-2.29-.43-.07-.01-.15-.03-.22-.04-.14-.03-.28-.06-.43-.09-1.16-.23-2.32-.45-3.49-.67-.65-.12-1.29-.24-1.93-.39-.52-.12-1.05-.26-1.57-.37-.44-.09-.88-.18-1.32-.29-.49-.13-.98-.3-1.45-.48-.07-.03-.13-.05-.2-.08-.33.15-.67.2-1.02.23,0,0-.02,0-.03,0-.13.05-.26.11-.38.17-.11.06-.21.13-.32.19-.06.05-.12.09-.19.14-.23.22-.45.44-.67.67-.31.38-.61.77-.9,1.17-.21.33-.42.67-.61,1.02-.6,1.23-1.14,2.5-1.62,3.78-.15.45-.27.91-.38,1.37-.14.78-.24,1.55-.3,2.34-.05.99-.04,1.97,0,2.96.08.92.18,1.84.34,2.75.23,1.03.55,2.05.88,3.05.13.33.26.65.41.97.44.85.95,1.66,1.47,2.46.25.36.53.71.81,1.05.79.86,1.65,1.64,2.5,2.44.27.24.5.52.69.83Z"/>
        <path class="cls-15" d="M333.98,208.23c1.45-1.53,2.94-3.03,4.34-4.62,1.32-1.51,2.6-3.06,3.93-4.57.57-.65,1.15-1.29,1.72-1.94.14-.16.28-.31.41-.47.09-.1.17-.2.26-.3.08-.09.16-.18.24-.28.07-.08.14-.16.21-.23.87-.99,1.74-1.98,2.63-2.95.82-.89,1.69-1.75,2.55-2.61,1.83-1.8,3.65-3.61,5.5-5.38.91-.87,1.82-1.75,2.7-2.65.88-.9,1.72-1.83,2.57-2.75,1.72-1.88,3.41-3.78,5.11-5.68.45-.5.89-1,1.33-1.5.53-.61,1.06-1.22,1.58-1.84-.73.29-1.46.58-2.2.85-1.33.48-2.7.88-4.05,1.31-1.83.58-3.65,1.18-5.46,1.8-1.27.45-2.53.89-3.81,1.29-1.22.38-2.45.76-3.67,1.13-1.29.4-2.59.74-3.89,1.08-1.29.34-2.59.64-3.9.91-.02,0-.03,0-.05.01-.03,0-.06.01-.09.02-.02,0-.05.01-.07.02-.16.03-.32.06-.48.1-1.73.35-3.46.67-5.19,1.01-.5.11-.98.24-1.47.39-.56.17-1.11.37-1.67.54-.57.16-1.14.3-1.71.45-.58.15-1.15.32-1.72.5-.53.17-1.06.33-1.6.47-.55.13-1.1.25-1.65.4-.57.16-1.13.35-1.69.55-.48.17-.97.33-1.45.49-1.02.38-1.97.9-3,1.27-.53.19-1.07.37-1.61.54-.48.15-.95.32-1.43.44-.5.12-1,.2-1.5.29-.49.09-.98.19-1.47.2-.06,0-.13,0-.19,0-.13,0-.25,0-.38-.01-.01.02-.02.04-.04.07-.08.13-.16.27-.24.4-.15.25-.29.51-.43.77-.15.32-.29.63-.41.96-.13.41-.23.82-.33,1.24-.17.96-.28,1.93-.35,2.91-.05.96-.1,1.92-.06,2.89.11,1.18.32,2.35.55,3.51.33,1.54.67,3.08,1.15,4.59.21.57.45,1.13.71,1.67.55,1.06,1.15,2.09,1.8,3.08.71,1.01,1.49,1.95,2.3,2.88.41.46.84.9,1.3,1.32.82.68,1.67,1.31,2.54,1.92.48.32.98.61,1.49.87.68.33,1.37.65,2.04,1.02.19.1.37.21.56.32.12-.2.25-.4.37-.6.71-1.1,1.56-2.1,2.47-3.03,1.65-1.69,3.31-3.37,4.93-5.09Z"/>
        <path class="cls-16" d="M366.06,211.34c.25-1.6.53-3.19.8-4.78.54-3.13,1.07-6.25,1.66-9.37.3-1.57.61-3.13.9-4.7.29-1.56.49-3.14.74-4.71.52-3.33,1.18-6.64,1.85-9.94.04-.2.08-.4.12-.59.28-1.37.58-2.75.87-4.12-.68.78-1.35,1.55-2.04,2.32-.81.91-1.64,1.8-2.46,2.7-1.71,1.88-3.41,3.77-5.12,5.64-.85.93-1.72,1.83-2.61,2.71-.87.86-1.77,1.69-2.65,2.53-1.86,1.76-3.68,3.55-5.5,5.36-1.78,1.77-3.43,3.68-5.13,5.52-1.65,1.78-3.29,3.57-4.91,5.39-.78.88-1.58,1.74-2.41,2.57-.86.85-1.74,1.68-2.63,2.51-1.72,1.59-3.41,3.21-5.13,4.79-.94.86-1.9,1.7-2.76,2.65-.45.52-.88,1.06-1.33,1.59-.03.04-.06.07-.09.11.01.11.02.22.03.33.04.36.09.73.15,1.09.14.57.33,1.13.51,1.7.17.55.33,1.11.51,1.66.09.23.19.46.29.69.29.55.63,1.07.96,1.59.37.58.73,1.16,1.11,1.74.31.44.63.86.97,1.27.44.49.91.94,1.4,1.38.54.47,1.09.93,1.63,1.38.6.51,1.21,1,1.85,1.45.33.21.67.41,1.01.59.64.31,1.29.59,1.94.85.77.3,1.54.61,2.32.9,1.53.51,3.11.86,4.69,1.19.75.15,1.51.26,2.27.33.68.04,1.36.06,2.04.06.4,0,.8,0,1.19-.03.63-.05,1.25-.16,1.88-.24.67-.09,1.35-.14,2.03-.22,1-.12,1.98-.37,2.98-.48.29-.03.58-.05.87-.08.14-.42.29-.84.44-1.25.29-.9.53-1.82.77-2.73.26-.96.5-1.92.7-2.89.31-1.58.62-3.16.94-4.74.3-1.48.55-2.96.81-4.45.26-1.52.55-3.03.8-4.55.26-1.57.48-3.15.73-4.73Z"/>
        <path class="cls-14" d="M392.5,236.31c-.25-.94-.47-1.89-.65-2.85-.18-.95-.34-1.91-.52-2.86-.63-2.96-1.47-5.87-2.1-8.83-.66-3.07-1.41-6.12-2.1-9.18-.35-1.57-.74-3.14-1.09-4.71-.35-1.53-.68-3.07-1.03-4.6-.34-1.49-.65-2.98-.96-4.47-.33-1.6-.71-3.19-1.02-4.79-.35-1.79-.63-3.59-.98-5.38-.31-1.48-.66-2.95-1-4.43-.36-1.57-.69-3.14-1.06-4.71-.37-1.54-.8-3.07-1.21-4.6-.29-1.09-.59-2.18-.88-3.26-.3,1.34-.59,2.69-.89,4.04-.23,1.04-.45,2.09-.66,3.14-.62,3.05-1.25,6.11-1.73,9.19-.25,1.62-.48,3.25-.76,4.87-.27,1.52-.59,3.04-.89,4.56-.31,1.6-.61,3.2-.9,4.8-.27,1.52-.52,3.04-.77,4.57-.26,1.59-.54,3.18-.78,4.77-.24,1.58-.47,3.16-.72,4.73-.32,1.96-.68,3.9-1.02,5.85-.17.99-.35,1.98-.55,2.97-.21,1.04-.44,2.08-.66,3.11-.25,1.22-.48,2.43-.78,3.64-.3,1.2-.65,2.39-.98,3.58-.3,1.07-.66,2.13-.93,3.21-.06.23-.11.45-.17.68.1.14.21.29.32.42.09.1.19.19.29.29.35.29.71.56,1.08.81.28.18.56.36.86.51.19.09.38.16.58.24.74.25,1.49.5,2.23.76-.09-.03-.17-.06-.26-.09.41.14.83.26,1.25.36.91.17,1.84.28,2.75.41.73.11,1.46.19,2.19.24.62.04,1.24.08,1.86.12,1.11.07,2.22.1,3.34.09.09,0,.17,0,.26,0,.32,0,.65,0,.97,0,.33,0,.66,0,.99,0,.42,0,.84,0,1.27-.03.52-.05,1.04-.13,1.55-.23.42-.09.83-.19,1.24-.33.74-.27,1.46-.62,2.16-.97.89-.46,1.72-1,2.55-1.56.39-.26.77-.51,1.17-.74-.06-.23-.12-.46-.18-.69-.23-.88-.44-1.76-.67-2.64Z"/>
        <path class="cls-13" d="M431.91,217.39c-.11-.09-.22-.17-.32-.26-.84-.7-1.63-1.45-2.44-2.18-.62-.53-1.27-1.01-1.91-1.52-.79-.63-1.54-1.3-2.29-1.98-1.63-1.42-3.31-2.79-5.06-4.06-.9-.65-1.77-1.34-2.63-2.05-.88-.73-1.77-1.45-2.64-2.19-1.66-1.41-3.29-2.86-4.95-4.27-.88-.75-1.74-1.51-2.6-2.27-.81-.72-1.59-1.46-2.4-2.18-1.27-1.1-2.56-2.19-3.82-3.31-1.3-1.17-2.58-2.37-3.88-3.54-.79-.69-1.6-1.38-2.34-2.13-.79-.79-1.52-1.62-2.29-2.43-1.51-1.57-3.17-3-4.77-4.48-.84-.78-1.67-1.58-2.51-2.35-.8-.73-1.6-1.47-2.39-2.21-.13-.12-.26-.25-.39-.38.08.3.15.6.23.9.39,1.53.79,3.06,1.16,4.6.36,1.5.69,3,1.05,4.5.38,1.57.77,3.13,1.1,4.71.33,1.57.6,3.15.91,4.71.33,1.55.7,3.09,1.03,4.63.31,1.45.63,2.89.96,4.33.37,1.59.72,3.18,1.09,4.77.35,1.52.73,3.04,1.05,4.58.12.57.24,1.15.35,1.72.32,1.52.66,3.03.98,4.54.31,1.52.57,3.06.88,4.59.38,1.81.81,3.62,1.21,5.43.22.96.42,1.92.61,2.89.18.92.33,1.85.51,2.76.24,1.14.54,2.26.79,3.4.13.62.3,1.24.47,1.85.01.05.03.1.04.14.5.03.98.2,1.42.44.33.18.58.45.85.71.02.01.04.03.05.04.1.06.19.12.3.17.18.09.37.16.56.24.29.09.59.17.89.24.4.07.8.13,1.21.16.14,0,.27,0,.41,0,.13,0,.25,0,.38,0,.89-.09,1.78-.26,2.65-.43.83-.18,1.64-.42,2.44-.69.95-.34,1.88-.73,2.8-1.12,1.01-.42,2.03-.81,3.04-1.23,1.01-.42,2.01-.88,3.02-1.33.93-.42,1.87-.82,2.8-1.26.94-.49,1.84-1.03,2.73-1.61.75-.51,1.48-1.05,2.18-1.62.71-.58,1.41-1.17,2.1-1.77.56-.51,1.09-1.05,1.61-1.61.45-.52.87-1.06,1.27-1.62.26-.4.5-.82.73-1.24.49-1.03.94-2.08,1.32-3.15.16-.46.31-.93.41-1.41.09-.45.16-.89.2-1.35,0-.07,0-.13,0-.2-.06-.19-.1-.37-.14-.58-.06-.35-.06-.72,0-1.08Z"/>
        <path class="cls-19" d="M453.74,182c-.07-.26-.14-.51-.22-.77-.15-.39-.31-.77-.49-1.15-.05-.09-.1-.19-.15-.28-.79-.1-1.58-.18-2.37-.23-.76-.06-1.53-.12-2.29-.18-.77-.05-1.54-.14-2.31-.2-.67-.04-1.35-.07-2.02-.15-.64-.07-1.28-.17-1.92-.24-.64-.07-1.28-.13-1.91-.21-.67-.09-1.34-.2-2-.32-1.27-.23-2.53-.46-3.8-.68-.62-.11-1.23-.2-1.85-.3-.72-.11-1.43-.26-2.14-.4-.92-.18-1.85-.29-2.77-.46-1.04-.19-2.06-.51-3.1-.73-.71-.14-1.42-.29-2.11-.48-.74-.21-1.48-.41-2.23-.57-.61-.12-1.22-.25-1.83-.39-.67-.16-1.34-.35-2.01-.5-.71-.16-1.42-.32-2.13-.49-.63-.15-1.26-.33-1.9-.47-.74-.14-1.49-.24-2.24-.38-.92-.17-1.81-.44-2.72-.65-.79-.14-1.59-.23-2.38-.36-.84-.14-1.66-.34-2.49-.51-1.38-.24-2.78-.37-4.15-.64-.7-.14-1.4-.27-2.11-.39-.71-.12-1.42-.21-2.13-.32-1.42-.23-2.83-.48-4.24-.73-1.51-.27-3.01-.54-4.51-.88-.84-.19-1.69-.38-2.53-.58.35.33.69.66,1.02,1,.83.84,1.66,1.68,2.54,2.46.42.37.83.74,1.25,1.1,1.91,1.68,3.79,3.4,5.7,5.09-.08-.07-.16-.14-.24-.21,1.13,1,2.25,2.01,3.31,3.09.47.47.93.95,1.4,1.42.41.41.85.8,1.28,1.19.92.8,1.85,1.6,2.76,2.41.93.83,1.85,1.69,2.78,2.52.94.82,1.9,1.63,2.84,2.45,1.08.94,2.13,1.93,3.2,2.88.09.08.17.15.26.23,1.61,1.41,3.25,2.79,4.88,4.17.83.71,1.67,1.42,2.51,2.11.89.73,1.79,1.45,2.68,2.18,1.49,1.22,3.09,2.27,4.57,3.49.75.62,1.51,1.24,2.25,1.88.75.64,1.46,1.3,2.2,1.95.88.76,1.8,1.47,2.65,2.26.76.71,1.5,1.44,2.27,2.14.39.34.8.66,1.22.95.14.09.28.18.42.26.04.02.07.04.11.06.16-.09.31-.18.47-.28.83-.59,1.59-1.26,2.37-1.92.79-.66,1.62-1.25,2.4-1.91.73-.66,1.4-1.38,2.06-2.11.62-.72,1.19-1.48,1.75-2.24.61-.81,1.22-1.62,1.8-2.45.34-.54.65-1.08.94-1.65.58-1.19,1.1-2.4,1.62-3.61.52-1.21,1.02-2.42,1.47-3.66.38-1.13.72-2.26,1.08-3.39.38-1.19.72-2.4.99-3.62.14-.74.25-1.48.32-2.24.04-.75.06-1.5.04-2.26-.03-.38-.08-.75-.15-1.12Z"/>
      </g>
    </g>
  </g>
  <g>
    <path class="cls-4" d="M350.44,828.8c.11,2.9,15.13,5.16,15.27,1.33,3.97-104.92,21.37-270.93,17.37-385.14-.17-4.81-19.1-4.81-19.24,0-3.32,114.21-16.72,300.15-13.4,383.81Z"/>
    <path class="cls-12" d="M383.05,142.6c-18.12.2-31.09,7.75-40.24,19.71-36.1,47.18-12.77,163.06-11.72,168.2.02.12.05.23.08.35l49.43,197.91c1.68,6.32,10.65,6.32,12.34,0l53.5-212.78c.06-.21.1-.42.14-.64,5.12-31.95,26.63-173.78-63.52-172.76Z"/>
    <path class="cls-7" d="M383.05,142.6s-23.66,33.01-26.98,81.48c-2.14,31.22,6.85,121.96,9.74,148.52,4.27,39.22,21.84,160.48,21.84,160.48,0,0-10.57-120.85-13.21-161.8-1.82-28.23-4.64-61.4-8.19-130.82-3.1-60.65,16.8-97.86,16.8-97.86Z"/>
    <path class="cls-5" d="M383.05,142.6s-44.47,15.08-50.44,80.6c-5.82,63.82,9.3,122.18,15.27,148.08,8.87,38.44,36.96,160.92,36.96,160.92,0,0-11.93-71.44-20.36-110.67-5.9-27.45-28.77-150.52-19.48-203.64,11.16-63.78,38.05-75.28,38.05-75.28Z"/>
    <path class="cls-11" d="M385.5,142.61s31.66,34.55,34.98,83.02c2.14,31.22-8.99,117.1-11.87,143.66-4.27,39.22-21.84,160.48-21.84,160.48,0,0,10.57-120.85,13.21-161.8,1.82-28.23,7-57.56,10.55-126.98,3.1-60.65-25.02-98.38-25.02-98.38Z"/>
    <path class="cls-9" d="M385.5,142.61s51.34,18.91,55.77,84.55c5.31,78.8-20.93,161.82-24.1,179.53-4.24,23.64-11.65,54.84-27.67,125.5,0,0,14.14-65.79,19.7-103.59,9.96-67.73,25.01-152.95,21.69-200.1-4.55-64.59-45.38-85.9-45.38-85.9Z"/>
    <path class="cls-8" d="M384.55,142.6s-3.99,44-3.1,88.27c1.58,79.04,5.32,300.15,5.32,300.15,0,0,6.55-218.37,7.37-297.19.44-42.5-9.59-91.22-9.59-91.22Z"/>
    <path class="cls-2" d="M383.05,142.6s53.59-7.94,70.86,67.32c14.33,62.46-16.92,144.73-23.02,171.32-5.37,23.41-20.81,77.47-37.95,147.54,0,0,17.69-71.1,27.55-115.22,14.83-66.4,38.45-140.07,29.02-193.17-14.19-79.97-66.46-77.79-66.46-77.79Z"/>
    <path class="cls-1" d="M384.55,142.6s-49.05-1.66-64.78,65.99c-9.53,41,15.49,142.55,24.79,173.98,6.81,23.03,18.27,72.93,35.42,142.99,0,0-16.94-66.82-27.89-110.67-6.85-27.44-35.05-168.36-27-199.65,19.92-77.47,59.47-72.63,59.47-72.63Z"/>
    <path class="cls-6" d="M417.61,400.27c-3.68,2.68,54.99-25.88,72.6-27,9.88-.63,64.41,203.34,74.15,308.11,6.85,73.71,32.25,192.82,27.23,270.14-.28,4.27-16.88,4.27-17.12,0-3.54-64.93-17.91-191.1-29.37-263.5-10.75-67.97-65.52-264.88-71.72-264.29-16.35,1.56-63.08,17.93-63.08,17.93l7.3-41.39Z"/>
    <path class="cls-10" d="M363.38,408.9c-2.36-.59-45.3-19.55-61.98-22.58-9.74-1.77-46.04,201.57-55.78,306.34-6.85,73.71-26.78,233.45-21.77,310.77.28,4.27,16.88,4.27,17.12,0,3.54-64.93,15.11-225.08,26.56-297.49,10.75-67.97,50.25-267.53,56.44-266.94,16.35,1.56,43.75,9.96,43.75,9.96l-4.35-40.06Z"/>
  </g>
</svg>