<?xml version="1.0" encoding="UTF-8"?>
<svg id="Vector_layer" data-name="Vector layer" xmlns="http://www.w3.org/2000/svg" version="1.1" xmlns:xlink="http://www.w3.org/1999/xlink" viewBox="0 0 200 200">
  <defs>
    <style>
      .cls-1 {
        fill: #af222c;
      }

      .cls-1, .cls-2 {
        stroke-width: 0px;
      }

      .cls-3 {
        fill: url(#Gradiente_sem_nome_11);
      }

      .cls-3, .cls-4 {
        stroke: #5a7d1e;
        stroke-width: 9px;
      }

      .cls-3, .cls-4, .cls-5 {
        stroke-miterlimit: 10;
      }

      .cls-2 {
        fill: #5a7d1e;
      }

      .cls-4 {
        fill: url(#Gradiente_sem_nome_11-2);
      }

      .cls-5 {
        fill: url(#Gradiente_sem_nome_9);
        stroke: #e91e25;
        stroke-width: .25px;
      }
    </style>
    <linearGradient id="Gradiente_sem_nome_9" data-name="Gradiente sem nome 9" x1="23.18" y1="111.66" x2="179.41" y2="111.66" gradientUnits="userSpaceOnUse">
      <stop offset="0" stop-color="#e91e25"/>
      <stop offset=".31" stop-color="#e92027"/>
      <stop offset=".48" stop-color="#ea282d"/>
      <stop offset=".62" stop-color="#eb3639"/>
      <stop offset=".74" stop-color="#ed494a"/>
      <stop offset=".85" stop-color="#f06360"/>
      <stop offset=".95" stop-color="#f3817a"/>
      <stop offset="1" stop-color="#f6958b"/>
    </linearGradient>
    <linearGradient id="Gradiente_sem_nome_11" data-name="Gradiente sem nome 11" x1="19.12" y1="71.98" x2="79.36" y2="71.98" gradientUnits="userSpaceOnUse">
      <stop offset="0" stop-color="#84bb3f"/>
      <stop offset=".39" stop-color="#82b83d"/>
      <stop offset=".61" stop-color="#7cb039"/>
      <stop offset=".78" stop-color="#73a232"/>
      <stop offset=".93" stop-color="#658f27"/>
      <stop offset="1" stop-color="#5e8422"/>
    </linearGradient>
    <linearGradient id="Gradiente_sem_nome_11-2" data-name="Gradiente sem nome 11" x1="75.07" y1="37.09" x2="191.73" y2="37.09" xlink:href="#Gradiente_sem_nome_11"/>
  </defs>
  <path class="cls-5" d="M144.39,40.34c-8.92-2.28-17.04-1.47-23.76.49-3.47,1.01-6.57,2.33-9.22,3.69-6.36,3.26-13.87,3.26-20.23,0-.83-.42-1.7-.84-2.61-1.25-7.66-3.43-18.28-6.02-30.37-2.93-.56.14-1.12.31-1.69.49-24.12,7.75-48.83,49.48-21.02,103.5,12.7,24.67,27.18,34.73,39.31,38.31,5.11,1.51,9.81,1.87,13.78,1.68,3.02-.14,5.63-.59,7.68-1.1,2-.49,4.06-.68,6.1-.58,1.34.07,2.68.26,4,.58,11.15,2.73,38.64,4.08,60.77-38.89,28.46-55.28,1.92-97.69-22.71-103.99Z"/>
  <path class="cls-1" d="M134.26,62.92c-.05-.09-.15-.15-.26-.16-.15-.27-.36-.5-.57-.74-.12-.14-.25-.28-.37-.42-.62-.71-1.27-1.4-1.93-2.07-.72-.73-1.51-1.37-2.4-1.88-.9-.51-1.85-.95-2.83-1.3-.51-.18-1.03-.37-1.56-.51-.54-.14-1.09-.24-1.65-.32-.98-.14-1.97-.18-2.96-.25-1.07-.07-2.14-.12-3.21-.11-1.05.01-2.11.06-3.16.15-1.02.08-2.03.19-3.04.39-1.01.19-2.01.42-3,.74-.1.03-.2.07-.3.1-.09.03-.17.06-.26.09-.02,0-.04.02-.07.02-.09.03-.19.06-.28.1-.01,0-.02,0-.03.01-.08.03-.17.06-.25.09-.12.05-.25.09-.37.14-.08.03-.16.06-.24.09-.06.02-.12.05-.18.07-.02,0-.04.02-.07.03-.04.02-.08.03-.12.05-.07.03-.15.06-.22.09h0s0,0,0,0c0,0,0,0,0,0h0c.05-.09.11-.17.16-.25.05-.08.11-.17.16-.25.05-.08.11-.17.16-.25.05-.08.11-.17.17-.25.56-.8,1.14-1.59,1.78-2.33.47-.53.98-1.03,1.5-1.51.46-.4.94-.76,1.44-1.1.66-.44,1.32-.86,2.01-1.23.45-.22.92-.41,1.39-.59.24-.09.5-.18.73-.29.19-.09.38-.2.43-.41.06-.23-.05-.46-.26-.57-.18-.1-.39-.11-.6-.08-.41.06-.82.17-1.21.28-.43.12-.85.26-1.26.44-.79.35-1.54.78-2.28,1.23-.76.46-1.48.97-2.17,1.54-.65.53-1.3,1.09-1.88,1.7-.63.65-1.24,1.31-1.8,2.02-.53.67-1.01,1.37-1.52,2.06-.07.09-.13.18-.2.27-.06.08-.12.16-.18.25-.04.06-.08.12-.12.17-.09-.09-.18-.17-.28-.26-.08-.07-.16-.15-.24-.22-.2-.18-.4-.36-.61-.53-.24-.21-.47-.43-.71-.64-.28-.24-.57-.46-.87-.66-.29-.2-.6-.37-.91-.55-.28-.16-.55-.31-.83-.46-.62-.31-1.27-.56-1.92-.81-.35-.13-.71-.26-1.07-.38-.32-.1-.65-.19-.97-.26-.7-.17-1.4-.34-2.12-.45-.69-.11-1.38-.15-2.08-.14-.71,0-1.42.06-2.13.11-.68.05-1.36.11-2.04.15.03,0,.07,0,.1,0-.37.02-.75.06-1.12.09-.23.01-.47,0-.68.12-.2.1-.27.37-.19.57.11.27.4.39.66.47.26.07.52.12.79.17.5.08,1,.1,1.5.14,1.01.09,2.03.07,3.05.13.62.04,1.23.12,1.84.23.48.1.96.21,1.43.34.48.12.96.25,1.43.4.38.14.76.3,1.14.45.35.15.69.29,1.03.46.53.28,1.04.59,1.55.93.25.17.49.35.72.55.2.18.39.37.58.55.2.19.4.37.6.55.08.08.17.15.25.23.08.08.17.15.25.23,0,0,0,0,0,0-.02.02-.05.04-.07.07,0,0-.01.01-.02.02-.02.02-.05.05-.07.07-.03.03-.05.06-.08.09-.03.03-.05.06-.08.09-.02.03-.05.06-.07.09,0,0,0,0,0,.01-.02.02-.04.05-.05.08-.05.07-.09.14-.13.21-.02.04-.04.07-.06.11-.01.03-.03.05-.04.08,0,0,0,0,0,0,0,0,0,0,0,0-.06-.03-.13-.05-.19-.08-.31-.14-.62-.28-.95-.39-.34-.11-.68-.22-1.02-.32-.34-.09-.69-.17-1.03-.24.03,0,.06.01.1.02-.19-.04-.37-.08-.56-.12-.39-.09-.78-.18-1.18-.23-.38-.05-.77-.06-1.15-.08-.75-.03-1.5,0-2.25.07-.68.07-1.36.18-2.03.31-.74.15-1.48.29-2.2.53-1.44.48-2.85,1.06-4.18,1.8-.32.18-.63.36-.93.56-.31.21-.62.42-.92.64-.59.43-1.17.86-1.73,1.33-.6.5-1.18,1.03-1.75,1.57-.51.47-.98.98-1.49,1.45-.28.26-.55.51-.82.78-.27.28-.51.59-.74.9-.23.3-.43.62-.59.97-.08.19-.18.4-.18.61,0,.24.1.49.33.62.1.05.2.08.31.08.19,0,.37-.08.52-.22.14-.13.26-.28.39-.42.42-.47.84-.94,1.31-1.37.44-.38.9-.74,1.34-1.12.45-.39.91-.77,1.37-1.15.47-.38.94-.75,1.43-1.11.46-.33.93-.66,1.4-.98.28-.19.56-.37.85-.55.28-.17.56-.32.85-.47.49-.25.99-.48,1.5-.7.52-.22,1.05-.41,1.58-.6.63-.21,1.26-.41,1.91-.55,1.15-.22,2.3-.43,3.47-.52.64-.03,1.28-.02,1.92.01.31.03.61.07.91.13.36.07.72.14,1.09.21.33.07.66.16.98.25.08.02.16.04.24.07h0c-.08.07-.16.14-.23.22-.29.29-.57.6-.83.92-.43.54-.87,1.08-1.21,1.68-.34.61-.63,1.25-.9,1.9-.37.88-.74,1.77-1.07,2.68-.18.51-.36,1.02-.52,1.53-.13.44-.26.88-.36,1.32-.23,1.01-.38,2.03-.44,3.06-.05.96.1,1.9.17,2.85.03.51.03,1.03.08,1.54.04.53.13,1.04.23,1.56.09.49.15.99.24,1.48.05.27.11.53.2.79.07.23.17.44.25.67.05.14.09.29.14.43.03.08.05.16.1.23.05.08.12.14.21.17.04.02.08.04.12.04.14,0,.21-.13.18-.24.05-.17.03-.38.02-.53-.02-.42-.05-.84-.08-1.26-.05-1.04.02-2.08.08-3.11.05-.61.13-1.21.21-1.82.08-.6.1-1.21.13-1.82.03-.29.07-.58.12-.87.09-.41.2-.8.33-1.2.24-.66.51-1.3.79-1.94.29-.65.57-1.31.89-1.95.35-.67.72-1.34,1.05-2.02.26-.56.5-1.13.78-1.69.2-.38.43-.75.67-1.11.21-.3.42-.6.66-.88.07-.07.13-.14.2-.21.01-.01.02-.02.04-.04.07-.07.14-.14.21-.21.02-.02.04-.04.06-.06.03-.03.06-.06.09-.09.02-.02.03-.03.05-.05,0,0,0,0,.02-.01.02-.02.04-.04.06-.05.06-.06.12-.12.19-.17,0,0,0,0,0,0,0,0,0,0,.01,0,.02.02.04.03.07.05,0,0,.02.01.03.02.02.02.04.03.06.04.06.04.12.08.18.11.4.22.86.41,1.32.44.24.02.47.03.71.04.11,0,.21.01.32.02.45.04.9.12,1.34.19.48.07.96.16,1.44.25.35.08.69.17,1.03.28.87.32,1.73.67,2.57,1.08.4.21.79.45,1.18.69.84.58,1.65,1.21,2.43,1.89.52.48,1.02.98,1.5,1.51.85.98,1.68,1.98,2.45,3.01.8,1.07,1.6,2.15,2.37,3.25.63.96,1.18,1.97,1.7,2.99.34.68.63,1.37.9,2.07.14.35.28.69.47,1.02.17.31.38.68.73.81.09.03.19.05.28.05.29,0,.55-.16.68-.44.1-.22.09-.47.07-.71-.02-.25-.03-.5-.06-.75-.05-.48-.11-.97-.19-1.45-.09-.54-.18-1.09-.35-1.61-.17-.54-.37-1.06-.56-1.59-.36-.98-.81-1.91-1.32-2.81-.48-.85-.98-1.69-1.51-2.51-1.15-1.78-2.36-3.51-3.8-5.07-.69-.75-1.45-1.43-2.23-2.09-.81-.69-1.66-1.32-2.55-1.9-.79-.51-1.63-.94-2.46-1.39-.49-.26-.99-.51-1.5-.74-.05-.02-.09-.04-.14-.06-.11-.05-.23-.09-.35-.13-.05-.02-.1-.04-.15-.05-.06-.02-.12-.04-.18-.06-.02,0-.04-.01-.06-.02.18-.08.36-.15.55-.22.1-.04.2-.08.29-.12.3-.11.59-.22.89-.33.51-.17,1.02-.33,1.53-.47.5-.13,1-.25,1.5-.36.62-.12,1.25-.23,1.88-.31.63-.08,1.26-.13,1.89-.17,1.09-.07,2.18-.09,3.27-.08,1,.01,1.99.09,2.98.15.83.06,1.66.13,2.48.27.77.17,1.53.38,2.28.63.8.29,1.58.61,2.34.98,1.16.6,2.22,1.34,3.32,2.05.51.33,1.02.68,1.57.94.2.09.41.15.63.15h0c.13,0,.24-.04.34-.09.28.05.48-.28.34-.52Z"/>
  <g>
    <path class="cls-3" d="M96.2,39.74l-.09-.04-.1-.05-.1-.05-.1-.05-.1-.05-.1-.05-.1-.05-.1-.05-.11-.05-.1-.05-.11-.05-.11-.05-.11-.05-.11-.05-.11-.05-.11-.05-.11-.05-.11-.05-.11-.05-.12-.06-.12-.05-.12-.06-.11-.05-.12-.06-.12-.06-.12-.06-.12-.06-.13-.06-.13-.06-.13-.06-.14-.06-.14-.06-.14-.06-.14-.06-.14-.06-.15-.07-.15-.07-.16-.07-.16-.07-.16-.07-.16-.07-.17-.07-.17-.07-.17-.07-.17-.07-.17-.07-.17-.07-.17-.07-.18-.07-.18-.07-.18-.07-.18-.07-.18-.07-.19-.07-.19-.07-.2-.07-.2-.07-.2-.07-.2-.07-.21-.07-.21-.07-.21-.07-.22-.06-.21-.06-.22-.06-.22-.06-.22-.06-.23-.06-.23-.06-.22-.06-.23-.06-.23-.06-.23-.06-.23-.05-.24-.06-.24-.05-.24-.05-.24-.05-.24-.05-.24-.05-.24-.05-.24-.05-.24-.05-.24-.05-.24-.04-.24-.04-.24-.04-.24-.04-.24-.04-.24-.04-.24-.04-.25-.04-.26-.04-.25-.03-.25-.03-.26-.03-.26-.03h-.03s-.23-.03-.23-.03l-.26-.03-.25-.02-.25-.02-.26-.02-.26-.02-.26-.02-.25-.02-.25-.02-.25-.02-.26-.02-.26-.02h-.26s-.26-.02-.26-.02h-.25s-.26-.02-.26-.02h-.27s-.26,0-.26,0h-.26s-.26,0-.26,0h-.26s-.26,0-.26,0h-.26s-.26.02-.26.02h-.27s-.27.02-.27.02h-.26s-.26.02-.26.02h-.27s-.27.02-.27.02h-.27s-.27.02-.27.02h-.26s-.26.02-.26.02h-.27s-.26.03-.26.03l-.27.02-.26.02-.26.02-.26.02-.27.02-.27.02-.27.02-.27.02-.26.02-.26.02-.27.03-.27.03-.27.03-.27.03-.26.03-.26.03-.27.03-.27.03-.27.03-.28.03-.27.03-.27.03-.28.04-.18.03h-.1s-.28.05-.28.05l-.28.04-.27.04-.27.05-.28.05-.29.05-.29.06-.29.06-.29.06-.3.07-.31.07-.32.08-.32.08-.32.09-.31.09-.31.09-.31.09-.31.1-.31.1-.3.1-.3.1-.31.1-.31.11-.32.11-.32.11-.31.11-.31.12-.31.12-.32.13-.32.13-.32.14-.32.14-.32.15-.34.17-.33.17-.34.18-.33.18-.32.18-.32.18-.33.19-.33.2-.33.2-.33.2-.32.2-.32.2-.34.21-.33.21-.33.21-.32.2-.31.2-.3.2-.31.2-.31.2-.32.21-.31.2-.3.19-.29.19-.3.19-.3.19-.29.19-.29.18-.28.18-.28.18-.28.18h-.01s-.27.18-.27.18l-.29.18-.29.18-.27.17-.27.17-.28.17-.27.17-.27.17-.26.16-.22.14-.03.02-.25.16-.25.16-.25.16-.25.16-.25.17-.25.17-.25.17-.26.17-.26.18-.27.18-.27.18-.25.17-.25.17-.25.18-.25.18-.24.17-.24.17-.23.17-.23.17-.23.18-.23.18-.23.18-.23.18-.22.18-.22.18-.22.19-.22.19-.22.19-.22.19-.21.19-.21.2-.22.21-.22.22-.22.23-.22.23-.22.23-.22.24-.23.24-.23.25-.22.25-.22.25-.21.24-.21.24-.21.25-.21.25-.2.25-.2.25-.19.25-.19.25-.19.26-.19.27-.2.28-.2.28-.19.28-.19.28-.2.3-.21.31-.2.31-.2.31-.19.3-.19.3-.19.31-.2.32-.19.32-.19.33-.19.32-.18.32-.19.33-.14.25-.05.08-.18.33-.18.33-.18.32-.17.32-.18.33-.17.33-.17.33-.17.34-.16.33-.16.33-.16.34-.16.34-.16.34-.15.34-.15.34-.15.34-.15.35-.15.34-.14.34-.14.34-.13.33-.13.33-.13.34-.12.34-.12.34-.11.34-.11.32-.1.32-.1.32-.1.32-.1.32-.09.31-.09.3-.09.3-.09.31-.09.31-.09.32-.08.32-.08.31-.08.31-.08.32-.08.32-.08.33-.08.33-.07.32-.07.32-.07.32-.06.32-.06.32-.06.32-.05.3-.05.3-.04.3-.04.3-.03.29-.03.28-.03.27-.03.27-.02.26-.02.26-.02.25-.02.25v.24s-.02.24-.02.24v.24s-.02.24-.02.24v.24s-.01.23-.01.23v.23s0,.23,0,.23v.23s0,.23,0,.23v.23s0,.23,0,.23v.23s0,.23,0,.23v.24s.01.25.01.25v.25s.02.24.02.24v.24s.02.25.02.25v.25s.02.25.02.25v.24s.02.08.02.08v.16s.02.24.02.24v.24s.03.24.03.24v.24s.03.23.03.23l.02.22v.06s.01.15.01.15l.02.21.02.21.02.2.02.19.02.19.02.18.02.18.02.18.02.18.02.18.03.18.03.18.03.18.03.19.03.19.03.18.03.18.03.17.03.18.03.17.03.17.03.17.03.17.04.16.04.17.04.17.04.17.04.17.04.16.04.16.04.16.04.16.05.16.05.16.05.16.05.16.05.16.05.16.05.17.05.17.05.16.05.16.05.17.05.17.05.17.05.17.05.17.05.17.05.17.05.17.05.17.05.17.04.17.04.17.04.17.04.17.04.16.04.16.04.16v.02s0,.01,0,.01l.03.12.04.15.04.15.04.15.04.15.04.15.04.14.04.14.04.14.04.14.04.14v.03s.04.11.04.11l.04.13.04.13.04.13.04.13.03.13.03.13.03.12.03.12.03.13.03.12.03.12.03.12.03.12.03.12.03.12.03.12.03.12.03.12.03.12.03.12.03.13.03.13.03.13.03.13.03.12.03.13.03.13.03.12.03.12.03.12.03.12.03.11.03.11.03.11.03.11.03.1.03.1.03.1.03.1.03.1.03.1.03.1.03.1.03.1.03.1.03.1.03.1.03.1.03.1.03.1.03.1.03.1.03.1.03.09.03.09.03.09.03.09.03.09.03.09.03.09.03.09.03.08.03.08.02.08.03.08.02.08.03.08.02.08.02.07.02.07.02.07.02.07.02.07.02.07.02.07.02.07.02.07.02.07.02.07.02.07.02.07.02.07.02.06.02.06.02.06.02.05.02.05v.03s.02.02.02.02v.05s.03.04.03.04v.04s.03.04.03.04v.04s.02.03.02.03v.03s.02.03.02.03v.03s.02.03.02.03v.03s.02.03.02.03v.03s.02.02.02.02v.02s.01.02.01.02v.02s.01.02.01.02v.02s.01.02.01.02v.02s.01.02.01.02v.02s.01.02.01.02v.02s.01.02.01.02v.02s.01.02.01.02v.02s.01.02.01.02v.02s.02.02.02.02h0s.01.03.01.03h.01s.02.02.02.02h.02s.02,0,.02,0h.02s.02-.03.02-.03l.02-.02.02-.03.03-.04.03-.04.03-.05.03-.05.03-.05.03-.06.03-.06.03-.06.03-.07.04-.07.04-.07.04-.08.04-.08.04-.09.04-.09.05-.09.05-.1.05-.1.05-.1.05-.11.06-.11.06-.11.06-.11.06-.12.06-.12.06-.12.06-.12.07-.12.05-.1v-.02s.08-.12.08-.12l.07-.12.06-.11.07-.11.06-.11.06-.1.06-.1.06-.1.06-.1.06-.09.06-.09.06-.09.06-.09.06-.09.06-.09.06-.08.06-.08.06-.08.06-.08.06-.08.07-.09.07-.09.07-.09.07-.09.08-.1.08-.1.08-.11.08-.11.09-.11.09-.11.09-.11.09-.11.09-.11.09-.11.09-.11.09-.1.09-.1.09-.1.09-.1.08-.09.08-.09.08-.09.08-.08.08-.08.08-.08.08-.08.08-.08.09-.08.09-.08h0s.08-.08.08-.08l.09-.08.09-.08.09-.08.1-.08.1-.08.1-.08.11-.08.05-.04.06-.05.11-.09.11-.09.11-.09.11-.09.12-.09.11-.09.12-.09.12-.09.12-.09.13-.1.13-.1.13-.09.13-.09.14-.1.14-.1.14-.1.14-.1.14-.1.14-.1.15-.1.15-.1.15-.11.15-.11.15-.11.15-.11.15-.11.15-.11.15-.11.15-.11.15-.1.15-.1.15-.1.15-.1.15-.1.15-.1.15-.09.15-.09.15-.09.15-.08.15-.08.15-.08.15-.08.15-.08.12-.06.03-.02.15-.08.15-.08.15-.08.15-.08.15-.08.16-.08.16-.08.16-.08.11-.06.05-.02.15-.08.16-.08.16-.08.17-.08.17-.08.17-.08.17-.08.17-.08.17-.08.17-.08.17-.08.17-.08.16-.08.16-.08.16-.08.16-.08.16-.08.15-.08.15-.08.15-.07.15-.07.15-.07.15-.07.15-.07.14-.07.14-.06.14-.06.14-.06.14-.06.14-.06.14-.06.13-.05.13-.05.14-.05.13-.05.13-.05.13-.04.13-.04.13-.04.13-.04.13-.04.13-.04.12-.04.12-.04.12-.04.12-.04.13-.04.12-.04.12-.04.12-.04.13-.04.13-.04.13-.04.14-.04.14-.04.14-.04.14-.05.14-.05.14-.05.14-.05.14-.05.14-.05.14-.05.14-.05.14-.05.14-.05.14-.05.13-.05.14-.05.13-.05.13-.05.13-.05.13-.05.13-.05.13-.05.14-.05.14-.05.14-.05.14-.05.14-.05.14-.05.15-.06.15-.06.15-.06.15-.06.14-.05.15-.05.15-.06.15-.06.15-.06.15-.06.15-.06.15-.06.15-.06.15-.06.15-.06.13-.05h.02s.15-.07.15-.07l.15-.07.15-.07.16-.07.16-.07.15-.07.16-.07.16-.08.16-.08.16-.08.16-.08.07-.03.09-.05.16-.08.16-.08.16-.08.16-.08.16-.08.16-.08.16-.08.16-.09.15-.09.15-.09.15-.08.15-.08.15-.09.15-.09.15-.09.15-.09.14-.08.14-.08.14-.08.15-.08.15-.08.15-.08.14-.08.14-.08.14-.08.14-.08.14-.08.14-.08.14-.08.13-.08.14-.08.13-.08.13-.08.13-.08.13-.08.13-.08.13-.07.13-.08.13-.08.13-.08.13-.08.13-.08.14-.08.14-.08.14-.08.14-.08.14-.08.14-.08.14-.08.14-.08.14-.08.14-.08.14-.08.14-.08.15-.08.15-.09.15-.09.15-.09.15-.09.15-.09.15-.09.15-.09.15-.09.15-.09.15-.09.15-.09.16-.1.16-.1.17-.1.17-.1.17-.1.17-.1.17-.1.17-.1.17-.1.17-.11.17-.1.17-.1.17-.11.17-.11.17-.11.17-.11.17-.11.17-.11.17-.11.17-.11.17-.11.18-.11.18-.11.18-.11.18-.12h.01s.17-.12.17-.12l.18-.12.18-.12.18-.12.17-.12.18-.12.17-.12.17-.12.17-.12.16-.12h.02s.15-.12.15-.12l.16-.12.17-.12.17-.12.17-.13.17-.12.17-.13.17-.13.17-.13.17-.14.18-.14.18-.14.17-.14.17-.14.18-.14.18-.14.18-.15.17-.15.17-.15.17-.15.17-.15.17-.15.17-.15.17-.15.16-.15.17-.15.17-.15.17-.15.17-.15.16-.15.16-.15.16-.15.16-.15.16-.15.16-.15.16-.15.15-.14.15-.15.15-.15.15-.15.15-.15.15-.15.14-.15.15-.15.14-.15.15-.15.15-.15.14-.15.14-.15.14-.15.15-.16.15-.16.15-.16.14-.15.14-.15.14-.15.14-.15.14-.15.14-.15.13-.15.13-.14.13-.14.13-.15.13-.15.13-.15.13-.15.12-.15.12-.15.12-.15.12-.16.12-.15.12-.15.11-.15.11-.15.11-.15.11-.15.11-.15.1-.14.1-.14.1-.14.1-.14.09-.14.04-.06.05-.07.09-.13.09-.13.09-.13.09-.14.09-.14.09-.13.08-.14.09-.14.09-.14.08-.15.08-.15.08-.14.08-.14.08-.15.08-.15.08-.15.08-.15.08-.15.08-.15.08-.15.08-.15.08-.15.08-.15.08-.15.07-.13v-.02s.09-.16.09-.16l.09-.16.09-.16.09-.16.09-.16.09-.16.09-.16.09-.16.09-.16.09-.16.08-.16.08-.15.08-.16.08-.16.08-.15.08-.15.08-.15.08-.14.08-.15.08-.15.08-.14.08-.14.07-.14.07-.14.07-.14.07-.14.07-.14.07-.14.07-.13.07-.13.06-.13.06-.13.06-.13.06-.13.06-.12.06-.12.06-.13.06-.13.05-.13.06-.13.05-.13.06-.13.06-.14.06-.14.06-.14.06-.14.06-.14.06-.14.06-.14.06-.14.06-.14.06-.14.06-.14.06-.14.06-.15.06-.15.06-.15.06-.15.06-.15.06-.15.06-.16.06-.16.06-.15.06-.15.06-.15.06-.14.06-.14.06-.14.06-.14.06-.14.05-.14.06-.13.06-.13.06-.13.05-.13.06-.13.05-.13.05-.12.05-.12.05-.12.05-.12.05-.11.05-.11.05-.11.05-.11.05-.11.05-.11.05-.11.05-.11.05-.11.05-.11.06-.11.06-.12.06-.12.06-.12.06-.12.06-.12.06-.12.06-.12.05-.11.06-.11.05-.11.05-.11.06-.12.05-.12.05-.1v-.02s.07-.12.07-.12l.06-.12.06-.12.06-.12.06-.12.06-.12.06-.12.05-.12.05-.12.05-.12.05-.12.05-.12.05-.11.05-.11.05-.12.05-.11.05-.11.05-.11.04-.11.05-.11.04-.11.05-.11.04-.11.04-.11.04-.11.04-.1.04-.1.04-.09v-.02s.05-.1.05-.1l.04-.1.04-.1.04-.09.04-.09.04-.09.04-.09.04-.09.04-.09.04-.09.04-.09.05-.09.05-.09.05-.09.05-.09.05-.09.05-.09.05-.09.06-.09.06-.09.05-.09.06-.09.06-.09.06-.09.06-.09.06-.09.06-.09.06-.09.06-.08.06-.08.06-.08.06-.08.06-.08.06-.08.06-.07.06-.07.06-.07.05-.07.05-.07.05-.06.05-.07.05-.07.05-.07.05-.07.05-.07.06-.07.06-.07.06-.07.06-.07.06-.07.06-.07.06-.07.06-.07.06-.07.06-.07.06-.06.06-.06.06-.06.06-.06.06-.06.06-.06.06-.06.06-.06.06-.06.06-.06.05-.05.05-.05.05-.05.05-.05.05-.05.05-.05.05-.05.05-.05.05-.05.03-.03c0,.19,0,.38,0,.57"/>
    <g>
      <path class="cls-2" d="M68.73,57.83s0,.02.01.04c0,.02,0,.03.01.05,0-.03-.02-.05-.02-.08Z"/>
      <path class="cls-2" d="M68.6,71.12s0,.04,0,.05c0-.01,0-.03,0-.04,0,0,0,0,0-.01Z"/>
      <path class="cls-2" d="M73.27,40.89s0,0,.01,0c.03.02.05.04.08.06-.03-.02-.06-.04-.09-.07Z"/>
      <path class="cls-2" d="M95.8,39.64c0,.15.01.32.02.5-.09.05-.18.1-.28.16-.14.02-.27.05-.4.08-.72.18-1.44.37-2.15.62-.68.25-1.34.55-2,.85-.27.12-.54.23-.81.34,0,0,0,0,0,0-.06-.1-.12-.19-.18-.29-.18-.27-.37-.54-.57-.79-.45-.58-.92-1.14-1.4-1.69-.83-.96-1.68-1.9-2.59-2.77-.47-.45-.95-.88-1.47-1.28-.09-.07-.18-.14-.28-.21h-.04s-.24-.06-.24-.06l-.24-.05-.24-.05-.24-.05-.24-.05-.24-.05-.24-.04-.24-.04-.24-.04-.24-.04-.24-.04-.24-.04-.24-.04-.25-.04-.26-.04-.25-.03-.25-.03-.26-.03-.26-.03h-.03c.22.11.44.22.67.34,1.02.59,2.01,1.23,2.97,1.91.4.3.81.6,1.19.93.38.32.74.66,1.1.99.2.19.4.39.59.58.46.46.91.93,1.37,1.4.43.44.86.87,1.27,1.32.27.29.53.58.8.87,0,0,0,0,0,0-.26.11-.52.21-.78.32-.97.4-1.94.79-2.91,1.16-.88.34-1.76.68-2.65,1.01-.51.19-1.02.39-1.53.59-.22-.17-.45-.34-.68-.49-.43-.28-.87-.55-1.31-.81-.43-.26-.87-.52-1.32-.76-.43-.23-.86-.45-1.28-.68-.45-.25-.88-.51-1.31-.79-.42-.27-.82-.57-1.23-.86.02.02.04.03.07.05-.24-.18-.49-.35-.73-.53-.5-.36-1.01-.72-1.51-1.08-1.05-.75-2.11-1.51-3.2-2.21-.54-.35-1.09-.7-1.65-1.02-.58-.34-1.16-.68-1.77-.97-.32-.15-.64-.3-.97-.44-.29-.12-.58-.25-.88-.35h-.1s-.28.05-.28.05l-.28.04-.27.04-.27.05-.28.05-.29.05-.29.06-.29.06-.29.06-.3.07-.31.07-.32.08-.32.08-.32.09-.31.09-.08.02c.33,0,.67.03,1,.06.25.03.5.07.75.11.21.04.42.08.63.13.26.07.53.14.79.22.27.08.54.18.81.27.37.15.75.29,1.11.47.39.19.77.38,1.15.58.69.38,1.37.78,2.05,1.2,1.09.67,2.15,1.39,3.2,2.11,1.07.74,2.14,1.49,3.22,2.22.53.36,1.06.7,1.62,1.01.59.32,1.19.61,1.8.9.59.28,1.18.58,1.76.88.3.15.6.3.9.46-1.73.71-3.49,1.36-5.2,2.1-.92.4-1.82.84-2.73,1.26-.92.43-1.84.85-2.76,1.27-.82.37-1.65.72-2.48,1.09-.12-.09-.24-.17-.36-.26-.91-.67-1.8-1.36-2.74-1.98-.88-.58-1.8-1.09-2.72-1.6-.48-.26-.96-.53-1.45-.77-.46-.23-.93-.46-1.4-.69-.48-.23-.96-.47-1.45-.68-.53-.23-1.06-.45-1.6-.65-.48-.18-.97-.33-1.46-.46-.54-.14-1.08-.28-1.62-.39-1.02-.22-2.05-.41-3.09-.54-1.12-.15-2.23-.28-3.36-.31-.56-.02-1.11-.02-1.67,0l-.27.17-.28.18-.29.18-.27.17-.27.17-.28.17-.27.17-.27.17-.26.16-.22.14c.76-.04,1.52-.08,2.28-.1.6-.01,1.21-.01,1.81,0,.61.01,1.22.06,1.82.11.94.11,1.89.23,2.82.39.91.15,1.81.33,2.7.54.46.12.93.23,1.39.37.42.13.83.28,1.24.44.26.1.52.21.77.32.97.43,1.93.88,2.89,1.34.92.44,1.82.93,2.71,1.41.28.16.57.32.84.48.45.27.89.55,1.33.83.43.28.86.57,1.3.84.14.09.28.17.42.25,0,0,0,0,0,0-.59.27-1.17.55-1.76.83-.78.36-1.56.72-2.33,1.08-.77.36-1.53.73-2.28,1.12-.81.42-1.61.85-2.39,1.34-1.64,1.03-3.2,2.18-4.75,3.34-.36-.1-.72-.21-1.08-.31-.54-.15-1.08-.29-1.63-.41-1.06-.22-2.13-.4-3.2-.53-1.29-.15-2.58-.28-3.87-.39-1.29-.11-2.58-.22-3.88-.2-.69,0-1.39.03-2.08.1-.67.06-1.34.15-2.01.26-.68.11-1.35.25-2.02.39-.59.13-1.18.26-1.76.43-.7.21-1.4.42-2.09.66-.57.2-1.13.42-1.68.65-.22.09-.43.18-.65.27l-.05.08-.18.33-.18.33-.18.32-.17.32-.18.33-.17.33-.17.33-.17.33c.18-.09.37-.17.55-.26.79-.36,1.59-.7,2.4-1.02.44-.17.88-.35,1.33-.51.43-.15.86-.29,1.29-.42.8-.22,1.59-.44,2.4-.61.41-.08.83-.17,1.24-.24.37-.07.75-.13,1.13-.19.95-.12,1.89-.2,2.85-.23.39,0,.79-.01,1.18,0,1.28.06,2.55.17,3.83.29,1.24.12,2.49.22,3.73.35,1.19.14,2.37.31,3.54.54.06.01.12.02.18.04,0,0,0,0,0,0-.33.27-.66.55-.99.83-.78.67-1.54,1.36-2.26,2.09-.74.75-1.45,1.53-2.11,2.35-.64.78-1.23,1.59-1.83,2.41-.59.8-1.22,1.56-1.82,2.34-.63.82-1.21,1.66-1.81,2.5-.31.42-.61.84-.91,1.27-.02,0-.04.02-.06.02-.36.16-.71.35-1.07.52-.09.04-.18.08-.27.12-.97.4-1.96.73-2.92,1.16-1,.44-1.97.92-2.92,1.47-.95.54-1.89,1.09-2.82,1.65-.94.57-1.89,1.13-2.82,1.7-.93.57-1.83,1.17-2.72,1.8-.42.3-.84.61-1.25.93-.44.35-.89.7-1.31,1.08-.23.2-.45.41-.68.62v.16s.02.24.02.24v.24s.03.24.03.24v.24s.03.23.03.23l.02.22v.06s.08-.08.12-.11c.42-.4.87-.78,1.32-1.16.69-.55,1.39-1.08,2.11-1.58.73-.51,1.48-.99,2.23-1.47.7-.43,1.4-.85,2.11-1.27.71-.42,1.41-.85,2.12-1.27.96-.57,1.91-1.13,2.88-1.68.47-.27.95-.51,1.44-.75.45-.22.9-.44,1.35-.64.38-.17.76-.34,1.15-.5.2-.09.4-.17.6-.26-.48.77-.93,1.56-1.37,2.35.03-.05.06-.11.09-.16-.38.71-.78,1.4-1.18,2.1-.37.64-.7,1.31-1.04,1.96-.41.75-.86,1.48-1.29,2.22-.26.44-.51.88-.75,1.33-.23.44-.45.88-.68,1.32-.44.83-.9,1.65-1.29,2.51-.2.43-.38.87-.56,1.31,0,0,0,0,0,0-.22.07-.44.16-.66.24-.31.13-.61.27-.91.43-.14.07-.27.16-.41.24-.12.07-.24.14-.35.23-.2.15-.41.29-.6.46-.19.16-.38.32-.57.48-.2.19-.4.37-.6.56-.19.17-.36.36-.54.54-.17.17-.33.35-.5.53-.14.16-.29.32-.43.48-.32.37-.64.74-.93,1.13-.2.26-.39.51-.58.77l.03.13.04.15.04.15.04.15.04.15.04.15.04.14.04.14.04.14.04.14.04.14v.03c.23-.33.46-.65.69-.97.33-.44.65-.89,1-1.31.19-.23.37-.47.57-.69.19-.22.38-.43.57-.64.27-.29.55-.57.83-.85.29-.29.59-.56.89-.84-.01.01-.03.02-.04.03.17-.14.34-.28.51-.42.07-.06.16-.11.23-.16.09-.06.17-.12.26-.18.17-.11.35-.21.53-.31.02-.01.05-.02.07-.04-.18.44-.35.88-.52,1.32-.17.44-.33.88-.5,1.32-.52,1.29-1.07,2.57-1.41,3.93,0-.02,0-.04.01-.06,0,.02-.01.04-.02.06-.21.86-.41,1.73-.58,2.6-.08.42-.17.83-.23,1.25-.07.45-.11.91-.16,1.37-.07.63-.15,1.25-.2,1.88-.04.49-.04.98-.04,1.47v.02s.02.05.02.05v.04s.03.04.03.04v.04s.03.04.03.04v.03s.02.03.02.03v.03s.02.03.02.03v.03s.02.03.02.03v.03s.02.03.02.03v.02s.02.02.02.02v.02s.02.02.02.02v.02s.01.02.01.02v.02s.01.02.01.02v.02s.01.02.01.02v.02s.01.02.01.02v.02s.01.02.01.02v.02s.01.02.01.02v.02s.02.02.02.02v.02s.02.01.02.01h.01s.01.02.01.02h0s.02,0,.02,0h.02s.02,0,.02,0h.02s.02-.03.02-.03l.02-.02.02-.03.03-.04.03-.04h0s.03-.05.03-.05l.03-.05.03-.05.03-.06.03-.06.03-.06.03-.07.04-.07.04-.07.04-.08.04-.08.04-.09.04-.09.05-.09.05-.1.05-.1.05-.1.05-.11.06-.11.06-.11.06-.11.06-.12.06-.12.06-.12.06-.12.07-.12.05-.1c.06-.53.14-1.06.21-1.6.08-.61.18-1.21.32-1.81.1-.41.21-.82.32-1.23.11-.41.24-.81.36-1.22.23-.78.46-1.57.75-2.33.35-.9.74-1.78,1.13-2.66,0,0,0,0,0,0,.04.32.07.63.11.95.1.81.19,1.62.28,2.43.09.8.16,1.61.18,2.42,0,.12,0,.24,0,.36l.08-.07.09-.08.09-.08.09-.08.1-.08.1-.08.1-.08.11-.08.05-.04c-.02-.46-.05-.92-.09-1.38-.08-.83-.18-1.67-.29-2.5-.11-.81-.25-1.61-.38-2.41,0,.02,0,.03,0,.05-.03-.17-.05-.33-.08-.5,0,0,0,0,0,0,.57-1.32,1.08-2.68,1.76-3.96.09-.16.18-.31.27-.46.23-.38.46-.75.69-1.13.26-.43.5-.87.75-1.3.47-.81.96-1.61,1.47-2.39.54-.81,1.02-1.66,1.55-2.48.41-.64.84-1.27,1.28-1.89,0,.13,0,.27,0,.4,0,.51-.03,1.01-.05,1.52-.05.96-.16,1.92-.23,2.88-.07.98-.11,1.97-.15,2.95-.04.98-.06,1.97-.1,2.95-.04,1.02-.09,2.03-.13,3.05-.03.79-.06,1.58-.08,2.37l.03-.02.15-.08.15-.08.15-.08.15-.08.15-.08.16-.08.16-.08.16-.08.11-.06c.04-.72.09-1.45.14-2.17.06-1,.11-2.01.14-3.01.03-.99.05-1.98.08-2.97.04-.99.08-1.98.14-2.96.06-.97.15-1.94.17-2.91.02-.99,0-2-.08-2.99,0-.03,0-.06,0-.09,0,0,0,0,0,0,.41-.57.82-1.14,1.22-1.71.53-.73,1.07-1.44,1.61-2.16.59-.8,1.18-1.6,1.81-2.36.62-.74,1.28-1.45,1.91-2.19,1.3-1.54,2.63-3.05,4-4.53.6-.63,1.21-1.24,1.83-1.85.32-.31.63-.63.96-.92.25-.23.51-.45.77-.67,0,0,0,0,0,0,.15.84.35,1.67.5,2.5.1.67.15,1.35.17,2.03.04,1.16.07,2.32.11,3.48.04,1.15.09,2.3.12,3.46,0,.52,0,1.04,0,1.56-.02,1.17-.05,2.33-.12,3.5-.07,1.1-.17,2.2-.29,3.3,0,.08-.02.16-.03.24-.14,1.15-.35,2.29-.55,3.43-.19,1.14-.37,2.28-.55,3.43-.06.34-.11.69-.17,1.03h.02s.15-.07.15-.07l.15-.07.15-.07.16-.07.16-.07.15-.07.16-.07.16-.08.16-.08.16-.08.16-.08.07-.03s0-.04.01-.07c.2-1.12.37-2.25.58-3.37.11-.6.22-1.19.32-1.79.1-.58.18-1.17.25-1.76.07-.59.13-1.19.19-1.78.05-.55.1-1.1.13-1.66.07-1.16.1-2.32.11-3.48.03-2.37-.15-4.74-.31-7.1-.04-.58-.07-1.15-.11-1.72-.02-.29-.05-.58-.08-.87-.04-.33-.07-.66-.13-.98-.2-1.11-.54-2.18-.87-3.25-.01-.05-.03-.1-.04-.15.65-.51,1.29-1.01,1.95-1.5.96-.73,1.93-1.44,2.95-2.09.92-.56,1.84-1.11,2.8-1.61.99-.51,1.98-1.01,2.98-1.51.71-.36,1.41-.73,2.12-1.09.04.21.08.42.12.63.19.96.43,1.9.69,2.85.26.97.5,1.95.67,2.94.07.48.13.97.17,1.45.04.48.06.97.08,1.45,0,.25,0,.49,0,.74,0,1.03,0,2.06.01,3.08.02,1.03.04,2.06.07,3.09,0,0,0,0,0-.01,0,0,0,.02,0,.03,0,.02,0,.05,0,.07,0-.01,0-.02,0-.03,0,.23.01.46.02.68,0-.02,0-.04,0-.07,0,.36.01.72.01,1.09,0,1.04-.01,2.09-.06,3.13-.05,1.01-.12,2.01-.23,3.01-.14,1.17-.33,2.34-.53,3.5l.17-.11.18-.12.18-.12.18-.12.17-.12.17-.12.17-.12.17-.12.17-.12.16-.12h.02c.1-.65.2-1.28.27-1.92.25-2.08.32-4.17.3-6.27,0-1.07-.05-2.13-.09-3.2-.04-.99-.07-1.99-.09-2.98-.02-1-.02-2-.08-2.99-.03-.52-.07-1.04-.14-1.56-.07-.52-.15-1.04-.24-1.57-.09-.49-.2-.99-.33-1.47-.13-.51-.27-1.03-.42-1.53-.03-.1-.06-.21-.09-.31,0,0,0,0,0,.01-.04-.12-.07-.24-.11-.36,0,.03.02.05.02.08-.04-.15-.09-.29-.13-.44-.18-.62-.34-1.24-.5-1.86-.05-.2-.1-.4-.15-.6,0,0,0,0,0,0,.81-.38,1.62-.75,2.43-1.12.91-.42,1.83-.84,2.74-1.26.89-.42,1.77-.85,2.66-1.25,1.08-.48,2.18-.94,3.27-1.4.78-.32,1.56-.67,2.34-1,0,.08,0,.17,0,.25.02.55.04,1.11.08,1.66.09,1.18.27,2.35.44,3.52.18,1.24.26,2.48.31,3.73.03.59.04,1.19.07,1.78.03.63.05,1.26.07,1.89.02,1.16,0,2.31-.06,3.47-.06,1.15-.18,2.3-.31,3.44,0,0,0,0,0-.01-.02.14-.03.28-.05.42-.04.29-.08.58-.12.87l.05-.07.09-.13.09-.13.09-.13.09-.14.09-.14.09-.13.08-.14.09-.14.09-.14.09-.15.08-.15.08-.14.08-.14.08-.15.08-.15.08-.15.08-.15.08-.15.08-.15.08-.15.08-.15.08-.15.08-.15.08-.15.07-.13c.12-1.39.18-2.79.17-4.19-.01-1.28-.06-2.56-.1-3.84-.04-1.25-.09-2.5-.25-3.74-.08-.61-.17-1.23-.24-1.84-.07-.59-.13-1.18-.19-1.77-.06-.57-.11-1.13-.18-1.7-.04-.31-.07-.62-.11-.93,0-.01,0-.03,0-.04.68-.26,1.37-.51,2.05-.78.94-.37,1.88-.74,2.81-1.13.71-.3,1.43-.6,2.14-.91.07.48.13.97.18,1.45.19,1.69.32,3.39.41,5.1v-.02s.07-.12.07-.12l.06-.12.06-.12.06-.12.06-.12.06-.12.06-.12.06-.12.05-.12.05-.12.05-.12.05-.12.05-.11.05-.11.05-.12.05-.11.05-.11.05-.11.05-.11.04-.11.04-.11.04-.11.04-.11.04-.11.04-.11.04-.1.04-.1.04-.09c-.09-.59-.2-1.18-.3-1.77-.12-.7-.25-1.39-.4-2.08,0-.03-.01-.05-.02-.08,0,0,0,0,0,0,.73-.33,1.45-.68,2.17-1.01.49-.22.99-.4,1.49-.6.34-.14.68-.26,1.02-.38-.1.43-.18.87-.22,1.31"/>
    </g>
  </g>
  <g>
    <path class="cls-4" d="M75.34,31.87c.02-1.32.68-2.66,1.76-3.4.71-.47,1.58-.6,2.42-.63.76-.07,1.52-.06,2.27.07,2.29.44,4.26,1.82,6.06,3.24.6.48,1.19.97,1.73,1.53.61.64,1.09,1.37,1.66,2.04.39.45.78.93,1.14,1.42.38.27.74.58,1.06.91l.05-.09.06-.09.06-.09.06-.09.06-.09.06-.09.06-.09.06-.1.06-.1.06-.1.06-.1.06-.1.06-.1.07-.11.06-.11.06-.11.06-.11.06-.11.07-.11.07-.11.07-.11.07-.11.07-.11.07-.11.07-.11.07-.12.07-.12.07-.12.08-.12.08-.12.08-.13.08-.13.08-.13.08-.13.09-.13.09-.14.09-.14.09-.14.1-.14.1-.14.1-.14.1-.15.1-.15.1-.15.1-.15.1-.15.11-.15.11-.15.11-.15.11-.15.12-.16.12-.16.12-.16.12-.16.12-.16.13-.17.13-.17.13-.17.13-.17.14-.17.14-.17.14-.17.15-.17.14-.17.15-.17.15-.17.15-.17.16-.17.16-.17.16-.17.16-.17.16-.17.16-.18.17-.17.17-.18.17-.18.17-.18.17-.18.17-.18.17-.18.18-.17.17-.17.17-.17.17-.17.18-.17.18-.17.18-.17.17-.17.18-.16.18-.17.18-.17.19-.17.19-.17.19-.17.19-.17.2-.17.2-.17.02-.02.18-.15.2-.16.19-.16.2-.16.2-.16.21-.16.2-.16.2-.16.2-.15.2-.15.21-.16.21-.16.21-.16.21-.15.21-.15.21-.15.22-.15.22-.15.22-.15.22-.14.21-.14.22-.14.22-.14.22-.14.23-.14.23-.14.22-.14.23-.14.23-.14.23-.14.23-.14.23-.14.22-.13.22-.13.23-.14.23-.13.23-.13.23-.13.22-.13.22-.13.23-.13.24-.13.24-.13.24-.13.23-.12.23-.12.24-.13.24-.13.24-.13.24-.12.23-.12.23-.12.24-.12.24-.12.24-.12.25-.12.24-.12.24-.12.26-.12.17-.08.09-.04.26-.12.26-.12.25-.11.25-.11.26-.11.27-.11.27-.11.28-.11.28-.11.28-.11.3-.11.31-.11.32-.11.32-.1.31-.1.3-.09.31-.09.31-.09.31-.09.31-.09.31-.09.32-.09.32-.09.32-.08.33-.08.32-.08.32-.07.33-.07.33-.07.34-.06.34-.06.34-.05.35-.05.37-.05.37-.04.38-.04.38-.03.36-.03.37-.02.38-.02.38-.02h.39s.39-.03.39-.03h.38s.38-.02.38-.02h.4s.39-.02.39-.02h.39s.38-.01.38-.01h.37s.36,0,.36,0h.37s.37,0,.37,0h.38s.37,0,.37,0h.36s.35,0,.35,0h.35s.35-.01.35-.01h.35s.34-.01.34-.01h.33s.33-.01.33-.01h.34s.02,0,.02,0h.32s.34-.01.34-.01h.34s.32-.02.32-.02h.32s.32-.02.32-.02h.32s.32-.02.32-.02h.31s.26-.01.26-.01h.04s.29,0,.29,0h.3s.3,0,.3,0h.3s.3,0,.3,0h.3s.3,0,.3,0h.31s.32,0,.32,0h.32s.32,0,.32,0h.31s.3,0,.3,0h.31s.3.02.3.02h.3s.3.02.3.02h.28s.28.03.28.03l.29.02.29.02.29.02.29.03.28.03.28.03.29.03.29.04.29.04.29.04.28.04.29.05.3.06.31.06.31.07.32.07.31.07.32.08.32.08.33.08.33.09.32.09.31.09.31.09.31.09.31.1.31.1.31.1.3.1.3.11.31.11.31.12.32.12.32.13.32.13.32.13.34.14.35.15.34.15.34.15.33.15.33.15.33.15.34.16.34.16.34.17.33.17.33.17.34.17.25.13.08.04.33.17.33.17.32.17.32.17.33.18.33.18.33.18.33.19.32.18.31.18.32.2.32.2.32.2.32.2.31.2.31.2.32.21.31.21.31.21.31.21.3.21.29.21.29.21.29.21.28.22.28.22.27.21.26.21.26.21.26.21.25.21.25.21.24.2.24.2.24.21.25.21.25.22.25.22.24.21.24.22.25.22.25.23.25.23.25.23.24.23.23.22.23.23.23.23.23.23.22.23.21.22.2.22.2.23.2.23.19.22.18.21.17.21.17.21.16.21.16.2.15.2.15.2.14.19.14.2.14.2.14.2.14.2.13.19.13.19.13.19.13.19.13.19.13.19.12.19.12.19.12.2.13.2.13.21.13.21.13.21.13.21.13.21.13.21.13.21.12.21.04.07.08.14.12.21.12.21.12.21.12.21.12.2.11.19.03.06.07.13.1.19.1.18.1.18.09.17.09.16.09.16.08.16.08.16.08.16.08.17.08.16.08.17.08.17.08.17.07.17.07.17.07.17.07.16.07.17.07.16.07.16.07.16.06.16.06.16.06.16.06.16.06.16.06.16.05.16.05.16.05.16.05.16.05.16.05.16.05.16.05.16.05.16.05.16.05.17.05.17.05.16.05.16.05.17.05.17.05.17.05.17.05.17.05.17.06.17.06.17.06.17.06.17.06.16.06.16.06.16.06.16.06.16.06.16.05.15v.02s.01.01.01.01l.04.11.05.15.05.15.05.15.05.15.05.14.05.14.05.14.05.14.05.14.05.14v.03s.04.11.04.11l.04.13.04.13.04.13.04.13.04.13.04.12.04.12.04.12.04.12.04.12.04.12.04.12.04.11.04.12.04.12.04.11.04.12.04.12.04.12.04.12.04.12.04.13.04.13.04.12.04.12.04.12.04.12.04.12.04.12.04.12.04.11.04.11.04.11.04.11.04.1.03.1.03.1.03.1.03.1.03.1.03.1.03.1.03.1.03.1.03.1.03.1.03.1.03.1.03.1.03.1.03.1.03.1.03.1.03.09.03.09.03.09.03.09.03.09.03.09.03.09.03.09.02.08.02.08.02.08.02.08.02.08.02.08.02.08.02.07.02.07.02.07.02.07.02.07.02.07.02.07.02.07.02.07.02.07.02.07.02.07.02.07.02.07.02.06.02.06.02.06v.05s.03.05.03.05v.03s.01.02.01.02v.05s.03.04.03.04v.04s.02.04.02.04v.04s.02.04.02.04v.03s.02.03.02.03v.03s.02.03.02.03v.03s.02.03.02.03v.03s.01.03.01.03v.02s.01.02.01.02v.02s.01.02.01.02v.02s.01.02.01.02v.02s.01.02.01.02v.02s.01.02.01.02v.02s.01.02.01.02v.02s.01.02.01.02v.02s0,.02,0,.02v.02s0,.02,0,.02v.02s0,.02,0,.02v.02s-.02.01-.02.01h-.01s-.02.02-.02.02h-.02s-.03,0-.03,0h-.03s-.04-.02-.04-.02l-.04-.02-.04-.02-.05-.02-.05-.02-.05-.03-.06-.03-.06-.03-.06-.04-.06-.04-.07-.04-.07-.04-.07-.04-.08-.05-.08-.05-.09-.05-.09-.05-.09-.05-.1-.05-.1-.06-.1-.06-.11-.06-.11-.06-.11-.06-.11-.06-.12-.07-.12-.06-.12-.06-.12-.06-.1-.05h-.02s-.12-.07-.12-.07l-.12-.06-.12-.06-.12-.06-.11-.05-.11-.05-.11-.05-.11-.05-.1-.05-.1-.05-.1-.04-.1-.04-.1-.04-.1-.04-.1-.04-.1-.04-.1-.04-.09-.04-.1-.04-.1-.04-.1-.04-.11-.04-.11-.04-.11-.04-.12-.04-.12-.04-.13-.04-.13-.04-.13-.04-.13-.04-.13-.04-.13-.04-.14-.04-.13-.04-.13-.04-.13-.04-.13-.04-.13-.03-.12-.03-.12-.03-.12-.03-.12-.03-.12-.02-.11-.02-.11-.02-.11-.02-.11-.02-.11-.02-.12-.02h-.01s-.11-.01-.11-.01h-.12s-.12-.03-.12-.03h-.12s-.13-.02-.13-.02h-.13s-.13-.02-.13-.02h-.13s-.06-.02-.06-.02h-.07s-.14-.02-.14-.02h-.14s-.14-.03-.14-.03h-.15s-.15-.03-.15-.03h-.15s-.15-.02-.15-.02h-.15s-.15-.02-.15-.02h-.16s-.16-.02-.16-.02h-.16s-.16-.01-.16-.01h-.17s-.17,0-.17,0h-.17s-.17,0-.17,0h-.17s-.17,0-.17,0h-.18s-.18,0-.18,0h-.18s-.19-.01-.19-.01h-.18s-.18-.01-.18-.01h-.19s-.19-.02-.19-.02h-.19s-.19-.02-.19-.02h-.18s-.18,0-.18,0h-.18s-.18,0-.18,0h-.18s-.18,0-.18,0h-.17s-.17.01-.17.01h-.18s-.17.02-.17.02l-.17.02-.17.02-.17.02-.16.02-.13.02h-.04s-.17.02-.17.02l-.17.02-.17.02-.17.02-.17.02-.17.02-.18.02-.18.02h-.12s-.05.02-.05.02l-.17.02-.17.02-.18.02-.18.02-.18.02-.19.03-.18.03-.18.03-.18.03-.19.03-.19.03-.19.03-.18.02-.18.02-.18.02-.18.02-.17.02-.17.02-.17.02-.17.02-.17.02-.16.02-.16.02-.16.02-.15.02-.15.02-.15.03-.16.03-.15.03-.15.03-.14.03-.14.03-.14.03-.14.03-.14.03-.14.03-.13.03-.13.03-.13.04-.13.04-.13.04-.13.04-.12.04-.12.04-.12.04-.12.04-.12.04-.12.04-.12.04-.13.04-.13.04-.13.04-.13.04-.14.04-.14.04-.14.04-.14.04-.14.04-.15.04-.15.04-.14.04-.14.04-.14.04-.14.04-.14.04-.14.04-.14.04-.14.03-.14.03-.14.03-.14.03-.14.03-.14.03-.14.03-.14.03-.14.03-.15.03-.15.03-.15.03-.15.03-.15.03-.15.03-.16.04-.15.04-.15.04-.15.03-.15.04-.15.04-.16.04-.16.04-.15.03-.15.03-.16.03-.16.03-.16.03-.16.03-.14.03h-.02s-.16.03-.16.03l-.16.03-.17.03-.17.03-.17.03-.17.03-.17.03-.18.02-.18.03-.18.02-.18.02h-.07s-.1.02-.1.02l-.18.02-.18.02-.18.02-.18.02-.17.02-.17.02-.18.02-.18.02h-.18s-.17.03-.17.03h-.17s-.17.02-.17.02h-.17s-.17.02-.17.02h-.17s-.17.02-.17.02h-.16s-.16.02-.16.02h-.17s-.17.02-.17.02h-.17s-.17.02-.17.02h-.16s-.16.02-.16.02h-.17s-.17.02-.17.02h-.16s-.16.02-.16.02h-.16s-.15.02-.15.02h-.16s-.16.02-.16.02h-.15s-.15.02-.15.02h-.15s-.15.02-.15.02h-.15s-.15.02-.15.02h-.15s-.16.02-.16.02h-.15s-.15.02-.15.02h-.16s-.16.02-.16.02h-.16s-.16.02-.16.02h-.16s-.16.02-.16.02h-.16s-.16.02-.16.02h-.17s-.17.02-.17.02h-.16s-.16.02-.16.02h-.17s-.17.02-.17.02h-.17s-.17.02-.17.02h-.17s-.17.02-.17.02h-.17s-.18.02-.18.02h-.18s-.18.02-.18.02h-.18s-.18.01-.18.01h-.19s-.19.02-.19.02h-.19s-.2.02-.2.02h-.2s-.19.02-.19.02h-.2s-.2.01-.2.01h-.2s-.2.01-.2.01h-.2s-.2.01-.2.01h-.2s-.2,0-.2,0h-.2s-.2,0-.2,0h-.2s-.2,0-.2,0h-.2s-.21,0-.21,0h-.21s-.21,0-.21,0h-.21s-.21,0-.21,0h-.21s-.02,0-.02,0h-.2s-.21,0-.21,0h-.21s-.21,0-.21,0h-.21s-.21,0-.21,0h-.21s-.21,0-.21,0h-.21s-.2,0-.2,0h-.02s-.18,0-.18,0h-.2s-.21-.02-.21-.02h-.21s-.21-.02-.21-.02h-.21s-.21-.03-.21-.03l-.21-.02-.22-.02-.22-.02-.22-.02-.22-.02-.22-.02-.22-.02-.23-.02-.23-.02-.23-.03-.22-.03-.22-.03-.22-.03-.22-.03-.22-.03-.22-.04-.22-.04-.22-.04-.22-.04-.22-.04-.22-.04-.23-.03-.22-.03-.22-.03-.22-.03-.22-.03-.22-.03-.22-.03-.21-.03-.21-.04-.21-.04-.21-.04-.21-.04-.21-.04-.2-.04-.2-.04-.2-.04-.2-.05-.21-.05-.21-.05-.2-.05-.2-.05-.21-.05-.21-.05-.21-.05-.21-.05-.2-.05-.2-.05-.2-.05-.2-.05-.2-.05-.2-.05-.19-.05-.19-.05-.19-.05-.19-.05-.19-.05-.19-.05-.18-.05-.18-.06-.19-.06-.19-.06-.19-.06-.19-.06-.18-.06-.18-.06-.18-.06-.18-.06-.18-.07-.17-.06-.16-.06-.16-.06-.16-.06-.16-.06-.15-.06-.07-.03-.08-.03-.14-.06-.15-.06-.15-.06-.15-.06-.15-.07-.15-.06-.15-.07-.15-.07-.15-.07-.15-.07-.15-.08-.15-.07-.15-.08-.15-.08-.15-.08-.15-.08-.15-.08-.15-.08-.15-.08-.15-.08-.15-.08-.15-.08-.15-.08-.15-.08-.13-.07h-.02s-.16-.09-.16-.09l-.16-.09-.16-.09-.16-.09-.16-.08-.16-.09-.16-.09-.16-.09-.16-.09-.16-.09-.16-.08-.15-.08-.16-.08-.15-.08-.15-.08-.15-.08-.15-.08-.14-.08-.15-.08-.15-.08-.14-.08-.14-.08-.14-.08-.14-.08-.14-.08-.14-.08-.13-.08-.13-.07-.13-.07-.13-.07-.12-.07-.12-.07-.12-.07-.12-.07-.12-.07-.12-.07-.12-.07-.12-.07-.12-.08-.12-.08-.12-.08-.12-.08-.13-.08-.13-.09-.13-.08-.13-.09-.13-.09-.13-.09-.13-.09-.13-.09-.13-.09-.13-.09-.13-.09-.13-.09-.13-.09-.13-.09-.13-.09-.13-.09-.13-.09-.13-.09-.14-.1-.14-.1-.13-.1-.13-.09-.13-.09-.13-.09-.13-.09-.13-.09-.12-.09-.12-.08-.12-.08-.12-.08-.12-.08-.12-.08-.12-.08-.12-.08-.12-.08-.11-.07-.11-.07-.11-.07-.11-.07-.1-.07-.1-.06-.1-.06-.1-.06-.1-.06-.1-.06-.1-.06-.1-.06-.1-.06-.1-.06-.11-.06-.11-.07-.11-.07-.11-.07-.11-.07-.11-.07-.11-.07-.11-.07-.11-.07-.11-.06-.11-.06-.11-.06-.11-.07-.11-.07-.09-.06h-.02s-.11-.08-.11-.08l-.11-.07-.11-.07-.12-.07-.12-.07-.12-.07-.11-.07-.11-.07-.11-.07-.11-.07-.11-.07-.11-.07-.1-.07-.1-.07-.11-.07-.1-.07-.1-.07-.1-.07-.1-.07-.1-.07-.1-.07-.1-.07-.1-.07-.1-.07-.1-.06-.09-.06-.09-.06-.08-.05h-.01s-.09-.07-.09-.07l-.09-.06-.09-.06-.08-.06-.09-.06-.08-.05-.08-.05-.08-.05-.08-.05-.08-.05-.08-.05-.09-.05-.09-.05-.09-.05-.09-.05-.09-.04-.09-.05-.09-.04-.1-.04-.1-.04-.09-.04-.1-.04-.1-.04-.09-.04-.1-.04-.1-.04-.1-.04-.1-.04-.1-.04-.1-.04-.1-.04-.1-.03-.09-.03-.09-.03-.09-.03-.09-.03-.09-.03-.08-.03-.08-.03-.08-.02-.08-.03-.08-.03-.08-.03-.08-.03-.08-.02-.08-.03-.09-.03-.08-.03-.09-.03-.09-.03-.09-.02-.09-.02-.09-.02-.09-.02-.08-.02-.08-.02-.09-.02-.09-.02-.09-.02-.09-.02-.08-.02-.08-.02-.08-.02-.08-.02-.08-.02-.08-.02-.07-.02h-.07s-.07-.03-.07-.03h-.07s-.07-.03-.07-.03h-.06s-.06-.03-.06-.03h-.06s-.05-.02-.05-.02c.11.16.22.32.32.48,1.23,1.57,2.39,3.43,3.33,5.23,1.54,2.65,3.37,5.16,4.35,8.09.45,1.32.98,2.61,1.61,3.86.57,1.38,1.88,3.62.96,5.03-.57.83-1.76,1.02-2.69.8-.89-.25-1.41-1.07-1.93-1.77-.43-.62-.8-1.28-1.19-1.92-.66-.99-1.43-1.91-2.09-2.9-.76-1.03-1.5-2.06-2.29-3.07-2.79-3.13-5.44-6.4-8.5-9.28-2.33-2.21-5.18-3.75-7.78-5.61-1.43-1.03-2.93-2.1-3.91-3.59-.62-.92-.59-1.95-.21-2.86Z"/>
    <g>
      <path class="cls-2" d="M126.34,37s0,.02.01.03c0,.02,0,.03.01.05,0-.03-.02-.05-.02-.08Z"/>
      <path class="cls-2" d="M133.78,48s.02.03.03.05c0-.01-.02-.02-.02-.04,0,0,0,0,0,0Z"/>
      <path class="cls-2" d="M113.21,25.37s0,0,0,.01c-.01.03-.02.06-.04.09.01-.04.03-.07.04-.11Z"/>
      <path class="cls-2" d="M76.5,37.23c1.21,1.19,2.46,2.35,3.88,3.3,1.02.66,2.08,1.24,3.11,1.88,1.93,1.09,3.74,2.45,5.22,4.1.5.54,1.01,1.09,1.52,1.63,1.13,1.48,2.35,2.89,3.58,4.3.08.1.16.21.25.31.55.78,1.04,1.62,1.58,2.41.2.32.4.63.65.91.08.1.22.12.35.09.13.18.26.35.39.53.69.93,1.37,1.86,2.08,2.78.74.96,1.34,2.05,2.33,2.78.81.64,2.9,2.04,3.59.85.12-.05.23-.1.34-.17,1.03-.71,1.25-2.07.98-3.23-.42-1.76-1.29-3.38-1.91-5.08-.72-1.64-1.33-3.32-2.16-4.91-.74-1.56-1.71-2.97-2.7-4.38-.67-.95-1.34-1.9-1.9-2.92-.48-.81-.98-1.78-1.61-2.46-.28-.35-.58-.66-.9-.97.35-.08.7-.17,1.06-.24.52-.11,1.05-.23,1.58-.32.79-.12,1.58-.23,2.37-.35,0,0,0,0,0,0,.01.03.02.05.03.08.25.66.53,1.31.81,1.96.24.55.48,1.1.73,1.64l.08.05.09.06.09.06.09.06.1.07.1.07.1.07.1.07.1.07.1.07.1.07.1.07.1.07.1.07.1.07.1.07.11.07.11.07.11.07.11.07.11.07.11.07.12.07.12.07.12.07.11.07.11.07.11.07h.02c-.87-1.46-1.7-2.94-2.47-4.46-.22-.44-.44-.87-.65-1.32.76-.14,1.53-.27,2.29-.42.99-.19,1.97-.41,2.96-.61.72-.15,1.43-.32,2.14-.48,0,.01.01.02.02.04.14.28.28.56.42.84.26.51.53,1.01.79,1.52.28.52.55,1.05.81,1.58.28.55.54,1.11.81,1.67.55,1.12,1.2,2.2,1.85,3.26.68,1.09,1.34,2.19,2.04,3.26.76,1.17,1.59,2.3,2.45,3.4l.13.07.15.08.15.08.15.08.15.08.15.08.15.08.15.08.15.08.15.08.15.08.15.08.15.08.15.07.15.08.15.07.15.07.15.07.15.07.15.06.15.07.15.06.15.06.15.06.14.06.08.03c-.2-.22-.39-.44-.58-.66-.09-.11-.18-.21-.27-.32,0,0,0,0,0,0-.74-.89-1.47-1.78-2.16-2.7-.69-.93-1.35-1.88-1.97-2.86-.33-.54-.65-1.08-.98-1.61-.31-.51-.62-1.01-.93-1.52-.64-1.07-1.27-2.15-1.8-3.28-.5-1.07-1.01-2.14-1.58-3.18-.27-.49-.56-.96-.85-1.43-.04-.07-.09-.14-.13-.22.84-.15,1.67-.29,2.51-.46,1.16-.23,2.33-.45,3.5-.64.97-.15,1.94-.28,2.91-.42.99-.15,1.98-.31,2.98-.46.88-.14,1.76-.28,2.64-.41,0,0,0,0,0,0,.07.19.13.39.2.58.21.61.42,1.21.61,1.83.04.15.09.29.13.44,0-.03-.02-.05-.02-.08.04.12.07.24.11.36,0,0,0,0,0-.01.03.1.06.2.09.31.15.51.32,1.01.5,1.51.16.48.34.95.54,1.41.21.48.43.96.67,1.44.23.47.48.92.74,1.38.5.86,1.05,1.7,1.58,2.54.53.84,1.05,1.69,1.57,2.54.55.91,1.1,1.82,1.68,2.72,1.14,1.75,2.35,3.46,3.71,5.06.42.49.84.97,1.28,1.44h.02s.2,0,.2,0h.21s.21,0,.21,0h.21s.21,0,.21,0h.21s.21,0,.21,0h.21s.21,0,.21,0h.2c-.81-.86-1.61-1.73-2.37-2.63-.64-.78-1.26-1.57-1.85-2.38-.62-.84-1.2-1.71-1.78-2.58-.2-.3-.39-.61-.59-.91.01.02.02.04.04.06-.12-.19-.24-.39-.36-.58,0,0,.01.02.02.03-.01-.02-.03-.04-.04-.06,0,0,0-.01-.01-.02,0,0,0,0,0,.01-.55-.87-1.09-1.75-1.65-2.62-.55-.87-1.12-1.72-1.69-2.58-.14-.21-.27-.41-.4-.62-.25-.41-.5-.83-.73-1.25-.23-.43-.45-.86-.66-1.31-.41-.92-.75-1.87-1.07-2.82-.31-.93-.63-1.85-1-2.75-.08-.2-.16-.39-.24-.59.79-.1,1.58-.17,2.37-.27,1.1-.13,2.21-.27,3.32-.38,1.07-.11,2.14-.17,3.22-.2,1.21-.01,2.41.04,3.61.12.82.05,1.64.11,2.45.18.02.05.03.1.05.15.31,1.08.62,2.16,1.06,3.19.13.3.29.59.44.89.13.26.27.52.41.77.28.5.57,1,.86,1.5,1.17,2.06,2.33,4.13,3.66,6.09.65.96,1.32,1.91,2.01,2.84.33.44.68.88,1.02,1.31.37.46.75.93,1.14,1.38.38.45.78.89,1.18,1.32.42.44.84.88,1.26,1.31.79.82,1.56,1.66,2.34,2.49.02.02.03.03.05.05h.07s.18-.03.18-.03l.18-.02.18-.03.18-.02.17-.03.17-.03.17-.03.17-.03.17-.03.16-.03.16-.03h.02c-.24-.26-.47-.52-.71-.77-.78-.85-1.56-1.71-2.35-2.55-.79-.85-1.6-1.67-2.35-2.56-.05-.06-.1-.12-.16-.18-.71-.85-1.4-1.71-2.07-2.59-.7-.93-1.37-1.89-2.03-2.85-.29-.43-.58-.86-.86-1.3-.61-.98-1.21-1.97-1.81-2.95-.6-.99-1.22-1.98-1.83-2.97-.36-.58-.69-1.18-.98-1.79-.33-.78-.63-1.58-.96-2.36,0,0,0,0,0,0,.34.04.67.08,1.01.13.44.07.88.16,1.31.24.85.16,1.7.33,2.54.53,1.96.48,3.9,1,5.83,1.57.93.27,1.87.5,2.8.77.95.28,1.88.62,2.81.97.84.31,1.69.6,2.53.92.65.25,1.31.5,1.96.75,0,0,0,0,0,0,.01.03.03.05.04.08.48.87,1.01,1.72,1.58,2.54.56.8,1.16,1.56,1.75,2.34.6.79,1.18,1.59,1.75,2.39.58.81,1.14,1.63,1.71,2.43.58.82,1.18,1.63,1.78,2.43.44.58.88,1.15,1.31,1.73h.12s.18-.03.18-.03l.18-.02.17-.02.17-.02.17-.02.17-.02.17-.02.17-.02h.04c-.45-.65-.91-1.3-1.37-1.94-.59-.83-1.2-1.65-1.79-2.47-.58-.8-1.14-1.6-1.71-2.4-.57-.8-1.16-1.6-1.75-2.38-.58-.77-1.21-1.5-1.78-2.28-.3-.41-.6-.82-.88-1.24-.08-.11-.15-.22-.23-.33.71.28,1.41.57,2.11.88.89.39,1.76.83,2.66,1.21.86.37,1.71.76,2.54,1.18.45.22.89.46,1.34.68.4.19.8.37,1.2.56.16.08.32.16.48.24,1.27.69,2.44,1.54,3.65,2.33,0,0,0,0,0,0,.07.15.14.31.21.46,0-.01-.01-.03-.02-.04.33.74.66,1.49,1.01,2.22.36.76.74,1.5,1.14,2.24.22.41.45.81.68,1.2h.06s.13.02.13.02h.13s.13.02.13.02h.13s.12.03.12.03h.12s.12.03.12.03h.11c-.07-.09-.13-.19-.2-.29-.42-.69-.81-1.4-1.18-2.12-.38-.72-.74-1.45-1.11-2.18-.14-.28-.29-.57-.43-.85,0,0,0,0,0,0,.81.52,1.62,1.04,2.41,1.6.66.48,1.29,1.01,1.91,1.53.32.27.65.54.97.82.32.28.63.56.94.85.45.42.86.87,1.27,1.34.35.4.71.81,1.05,1.22l.1.05.12.06.12.06.12.06.12.07.11.06.11.06.11.06.11.06.1.06.1.06.1.05.09.05.09.05.09.05.08.05.08.05.07.04.07.04.07.04.06.04.06.04.06.03.06.03.05.03.05.02.05.02h0s.04.02.04.02l.04.02h.04s.03.02.03.02h.03s.02,0,.02,0h.02s.01-.02.01-.02h0s0-.01,0-.01v-.02s0-.02,0-.02v-.02s0-.02,0-.02v-.02s0-.02,0-.02v-.02s0-.02,0-.02v-.02s-.01-.02-.01-.02v-.02s-.01-.02-.01-.02v-.02s-.01-.02-.01-.02v-.02s-.01-.02-.01-.02v-.02s-.01-.02-.01-.02v-.02s-.01-.02-.01-.02v-.02s-.01-.03-.01-.03v-.03s-.02-.03-.02-.03v-.03s-.02-.03-.02-.03v-.03s-.02-.03-.02-.03v-.03s-.02-.04-.02-.04v-.04s-.02-.04-.02-.04v-.04s-.02-.04-.02-.04v-.05s-.02-.02-.02-.02c-.28-.4-.55-.81-.85-1.2-.39-.5-.8-.98-1.21-1.46-.29-.35-.58-.72-.89-1.06-.28-.31-.58-.61-.88-.91-.62-.63-1.27-1.25-1.92-1.85-.02-.01-.03-.03-.05-.04.01.01.03.03.04.04-1.03-.94-2.2-1.71-3.34-2.5-.38-.27-.76-.56-1.14-.83-.38-.27-.77-.54-1.16-.81.03,0,.05,0,.08,0,.2-.02.41-.02.61-.03.1,0,.21,0,.31,0,.09,0,.19,0,.28,0,.22.02.44.04.66.06-.02,0-.04,0-.05,0,.4.06.8.13,1.2.2.39.08.78.16,1.16.25.28.07.56.15.83.22.29.08.57.17.86.26.53.16,1.04.35,1.56.54.37.14.74.28,1.1.43v-.02s-.05-.14-.05-.14l-.05-.14-.05-.14-.05-.14-.05-.14-.05-.14-.05-.15-.05-.15-.05-.15-.05-.15-.04-.13c-.3-.11-.61-.22-.91-.32-.46-.16-.94-.3-1.41-.43-.21-.06-.41-.11-.62-.16-.23-.06-.47-.12-.71-.17-.25-.05-.5-.11-.75-.15-.27-.05-.54-.09-.81-.14-.24-.04-.49-.06-.74-.09-.25-.03-.5-.04-.75-.05-.14,0-.28,0-.42,0-.16,0-.31,0-.47.02-.33.03-.67.08-1,.14-.23.05-.46.1-.68.16,0,0,0,0,0,0-.39-.27-.79-.53-1.19-.78-.8-.5-1.64-.93-2.46-1.38-.43-.24-.86-.48-1.3-.72-.45-.24-.9-.47-1.36-.69-.77-.38-1.54-.74-2.3-1.14-.65-.36-1.29-.73-1.96-1.06-.72-.36-1.43-.72-2.14-1.1.05.03.11.06.16.09-.8-.43-1.61-.83-2.44-1.21.21-.03.43-.07.64-.11.41-.07.82-.14,1.23-.21.49-.08.99-.15,1.48-.21.54-.07,1.07-.13,1.61-.17,1.11-.08,2.22-.13,3.33-.19.82-.04,1.64-.07,2.46-.11.82-.04,1.64-.08,2.46-.11.89-.02,1.78-.02,2.67,0,.88.02,1.75.07,2.63.15.58.07,1.16.14,1.74.24.05,0,.11.02.16.03l-.03-.06-.11-.19-.12-.2-.12-.21-.12-.21-.12-.21-.12-.21-.08-.14c-.3-.05-.6-.1-.91-.14-.56-.08-1.13-.13-1.69-.18-.52-.04-1.04-.08-1.55-.09-1.09-.03-2.17-.04-3.26,0-1.1.04-2.19.09-3.29.14-1.09.05-2.18.11-3.26.18-1.09.07-2.17.21-3.25.39-1.03.17-2.05.45-3.08.65-.1.02-.2.04-.3.05-.39.06-.79.09-1.18.16-.02,0-.04,0-.06.01-.48-.19-.97-.37-1.46-.55-.96-.37-1.92-.75-2.89-1.09-.93-.32-1.88-.61-2.81-.95-.95-.35-1.89-.7-2.85-1-1-.32-2.03-.57-3.06-.79-1.01-.22-2.02-.37-3.04-.5-.43-.05-.86-.1-1.29-.15,0,0,0,0,0,0,.04-.04.09-.09.13-.13.85-.84,1.74-1.64,2.66-2.41.97-.79,1.95-1.56,2.92-2.35,1-.8,2-1.6,3.04-2.35.32-.23.65-.44.98-.66.81-.5,1.64-.96,2.5-1.38.35-.16.69-.31,1.05-.46.39-.16.78-.32,1.17-.48.77-.31,1.55-.57,2.34-.82.44-.13.87-.25,1.31-.36.46-.12.92-.21,1.39-.31.85-.18,1.71-.33,2.57-.47.2-.03.4-.06.6-.09l-.32-.19-.33-.18-.33-.18-.33-.18-.32-.17-.32-.17-.33-.17-.33-.17-.08-.04c-.23.04-.46.09-.69.13-.59.12-1.18.24-1.76.39-.71.18-1.41.39-2.11.6-.58.18-1.15.39-1.71.61-.64.25-1.28.51-1.9.79-.62.27-1.22.57-1.82.89-.61.33-1.2.69-1.79,1.07-1.09.7-2.11,1.5-3.12,2.31-1.01.81-2.02,1.63-3.01,2.46-.83.7-1.62,1.43-2.38,2.21-.39.4-.77.82-1.14,1.25-.25.28-.49.57-.73.86-1.93-.11-3.87-.21-5.8-.17-.91.02-1.82.1-2.73.2-.84.09-1.69.2-2.53.32-.85.13-1.7.26-2.54.39-.64.1-1.29.19-1.93.28,0,0,0,0,0,0,.07-.15.14-.3.21-.44.22-.47.42-.94.62-1.41.21-.48.42-.95.65-1.43.14-.29.29-.58.44-.87.48-.9.97-1.8,1.49-2.67.54-.91,1.1-1.82,1.67-2.71.15-.23.31-.46.47-.69.26-.36.51-.71.79-1.05.31-.37.63-.72.95-1.08.63-.67,1.28-1.32,1.96-1.94.7-.64,1.41-1.27,2.14-1.88.47-.38.96-.76,1.46-1.1.5-.34,1-.67,1.51-1,.64-.4,1.29-.79,1.95-1.18h-.26s-.31.01-.31.01h-.32s-.32.02-.32.02h-.32s-.32.02-.32.02h-.32s-.34.02-.34.02h-.34s-.32.01-.32.01c-.47.3-.93.61-1.39.93-.92.65-1.78,1.37-2.63,2.11-.79.69-1.54,1.41-2.27,2.16-.39.4-.76.81-1.13,1.22-.34.38-.67.77-.97,1.19-.34.46-.66.94-.97,1.42-.29.45-.56.91-.83,1.37-.27.45-.53.89-.78,1.34-.27.48-.53.96-.78,1.44-.49.93-.97,1.86-1.38,2.83-.44,1.04-.81,2.11-1.2,3.16-.05.14-.11.27-.16.41-.89.15-1.78.32-2.67.46-1,.16-2,.31-3,.46-.99.15-1.98.28-2.97.46-1.84.33-3.66.75-5.5,1.12.17-.29.34-.58.5-.88.32-.57.65-1.14.98-1.71.34-.58.69-1.15,1-1.74.3-.56.55-1.15.79-1.74.5-1.21.97-2.42,1.46-3.63.48-1.18.96-2.37,1.5-3.53.33-.72.68-1.43,1.05-2.13.21-.38.42-.75.64-1.12.2-.34.43-.67.66-1,.17-.23.34-.45.53-.67.17-.21.35-.41.54-.62.15-.15.3-.31.45-.45.19-.18.37-.34.57-.51.26-.21.52-.41.8-.6l-.08.02-.31.1-.32.1-.31.11-.31.11-.3.11-.28.11-.28.11-.28.11-.27.11-.27.11-.26.11-.25.11-.25.11-.26.12-.26.12-.09.04c-.19.25-.37.52-.55.78-.2.3-.38.6-.57.91-.35.58-.65,1.18-.94,1.78-.29.58-.55,1.17-.81,1.76-.52,1.19-.99,2.4-1.45,3.61-.22.58-.44,1.15-.66,1.73-.11.28-.21.56-.32.84,0-.03.02-.05.03-.08-.18.47-.35.94-.55,1.4-.2.47-.42.93-.66,1.38-.23.43-.47.85-.7,1.27-.24.45-.46.9-.68,1.36-.22.46-.44.93-.65,1.4-.11.26-.2.52-.3.79-.53.11-1.07.23-1.6.35-.92.22-1.84.42-2.77.62-1.02.23-2.05.44-3.07.64-.28.05-.55.11-.83.17,0,0,0,0,0,0,.07-.39.12-.78.19-1.17.1-.6.22-1.2.34-1.8.12-.64.24-1.28.37-1.92.06-.27.11-.54.17-.81.12-.48.23-.96.37-1.44.14-.48.31-.96.48-1.43.42-1.1.89-2.18,1.42-3.23.12-.22.24-.43.37-.65l-.02.02-.2.17-.2.17-.19.17-.19.17-.19.17-.19.17-.18.17-.18.17-.17.16-.17.17-.18.17-.18.17-.18.17-.17.17-.17.17-.17.17-.18.17-.18.18-.17.18-.03.03c-.04.11-.08.22-.11.33-.21.62-.37,1.24-.52,1.88-.28,1.24-.47,2.49-.63,3.74-.09.73-.18,1.45-.24,2.18-.03.33-.04.65-.03.98,0,.11,0,.22,0,.34,0,0,0,0,0,0-.29.06-.58.11-.86.16-.71.12-1.43.23-2.13.4-.73.17-1.43.41-2.13.67-.13.05-.26.1-.38.15-.11,0-.22.01-.32.02-.08-.15-.17-.3-.25-.43-.33-.55-.7-1.09-1.05-1.63-1.06-1.87-2.62-3.38-4.22-4.78-.63-.52-1.36-.92-2.07-1.33-.94-.61-1.96-1.11-3.05-1.38-1.61-.42-3.34-.84-4.95-.19-.81.23-1.43.45-1.94.79-1.48.6-2.51,2.17-2.7,3.72-.04.55.09,1.09.22,1.62.32,1.51,1.36,2.69,2.53,3.65ZM81.09,29.3c.43.11.87.22,1.3.36,0,.03,0,.06-.02.09-.11,1.05-.63,2-1.47,2.65-1.06.84-2.33,1.49-3.67,1.66-.42,0-.85-.1-1.27-.06-.24-.69-.47-1.46-.37-2.19.08-.3.2-.61.35-.9.1-.17.2-.34.32-.5.05-.08.1-.15.15-.22.11-.13.22-.25.35-.36.44-.35.98-.39,1.65-.49.89-.21,1.81-.28,2.7-.04ZM96.65,53.32c-1.38-1.75-2.94-3.32-4.42-4.98-.41-.51-.83-1.01-1.26-1.5-.14-.17-.29-.33-.43-.5-.03-.04-.06-.08-.09-.11-.03-.03-.06-.06-.08-.09-.86-1-1.72-2-2.77-2.82-1.09-1.01-2.34-1.78-3.57-2.58-1.89-1.31-3.9-2.46-5.61-4.01-.24-.24-.5-.47-.76-.7.55-.08,1.08-.24,1.59-.45,2.25-.87,4.51-2.79,4.61-5.32.11.07.23.14.33.21,1.15.98,2.39,1.88,3.36,3.04,1.21,1.38,2.59,2.6,3.92,3.86.15.13.31.25.46.37.12.21.24.41.37.62.53.76,1.14,1.46,1.73,2.17.55.66,1.03,1.39,1.55,2.07.53.64,1.08,1.25,1.56,1.93.01.02.02.03.03.04.27.45.54.88.82,1.3,1.75,2.66,3.57,5.32,4.79,8.27.55,1.25,1.1,2.5,1.58,3.77.42,1.17,1.11,2.81.49,3.93-.14-.13-.31-.22-.5-.25-.15-.02-.31,0-.46-.04-.45-.14-.85-.41-1.24-.67-.74-.52-1.21-1.31-1.78-2-1.44-1.84-2.77-3.76-4.23-5.58Z"/>
    </g>
  </g>
</svg>