<?xml version="1.0" encoding="UTF-8"?>
<svg id="Layer_2" data-name="Layer 2" xmlns="http://www.w3.org/2000/svg" xmlns:xlink="http://www.w3.org/1999/xlink" viewBox="0 0 600 250.06">
  <defs>
    <style>
      .cls-1 {
        fill: url(#linear-gradient);
      }

      .cls-1, .cls-2, .cls-3, .cls-4, .cls-5, .cls-6, .cls-7 {
        stroke-width: 0px;
      }

      .cls-2 {
        fill: url(#linear-gradient-4);
      }

      .cls-2, .cls-3, .cls-4, .cls-5, .cls-6, .cls-7 {
        opacity: .3;
      }

      .cls-3 {
        fill: url(#linear-gradient-7);
      }

      .cls-4 {
        fill: url(#linear-gradient-2);
      }

      .cls-5 {
        fill: url(#linear-gradient-6);
      }

      .cls-6 {
        fill: url(#linear-gradient-5);
      }

      .cls-8 {
        opacity: .29;
      }

      .cls-8, .cls-9 {
        stroke: #000;
        stroke-miterlimit: 10;
      }

      .cls-8, .cls-10 {
        fill: #fff;
      }

      .cls-9 {
        fill: none;
        opacity: .05;
      }

      .cls-11 {
        letter-spacing: -.03em;
      }

      .cls-10 {
        font-family: BeautifulEveryTime, 'Beautiful Every Time';
        font-size: 68px;
      }

      .cls-7 {
        fill: url(#linear-gradient-3);
      }
    </style>
    <linearGradient id="linear-gradient" x1="1108.01" y1="-366.58" x2="1358.08" y2="-366.58" gradientTransform="translate(-933.63 492.05)" gradientUnits="userSpaceOnUse">
      <stop offset=".27" stop-color="#ccfffc"/>
      <stop offset="1" stop-color="#89cccc"/>
    </linearGradient>
    <linearGradient id="linear-gradient-2" x1="522.2" y1="221.32" x2="599.64" y2="221.32" gradientTransform="translate(-30.09 262.56) rotate(-27.55)" gradientUnits="userSpaceOnUse">
      <stop offset="0" stop-color="#ccf2ce"/>
      <stop offset=".07" stop-color="#c2f0c5"/>
      <stop offset=".18" stop-color="#a9ecae"/>
      <stop offset=".32" stop-color="#7fe588"/>
      <stop offset=".49" stop-color="#46dc54"/>
      <stop offset=".59" stop-color="#21d632"/>
      <stop offset=".99" stop-color="#009623"/>
    </linearGradient>
    <linearGradient id="linear-gradient-3" x1="444.53" y1="222.95" x2="489.79" y2="222.95" gradientTransform="translate(251.47 669.77) rotate(-82.21)" xlink:href="#linear-gradient-2"/>
    <linearGradient id="linear-gradient-4" x1="436.73" y1="-7.09" x2="494.89" y2="-7.09" gradientTransform="translate(729.92 57.59) rotate(-176.04)" xlink:href="#linear-gradient-2"/>
    <linearGradient id="linear-gradient-5" x1="591.94" y1="20.32" x2="625.92" y2="20.32" gradientTransform="translate(702.71 -436.73) rotate(129.3)" xlink:href="#linear-gradient-2"/>
    <linearGradient id="linear-gradient-6" x1="40.89" y1="27.13" x2="135.08" y2="27.13" gradientTransform="translate(47.26 91.52) rotate(71.75)" xlink:href="#linear-gradient-2"/>
    <linearGradient id="linear-gradient-7" x1="315.37" y1="-281.31" x2="370.41" y2="-281.31" gradientTransform="translate(-400.11 303.56) rotate(17.09)" xlink:href="#linear-gradient-2"/>
  </defs>
  <rect class="cls-1" x="174.38" y="-174.53" width="250.06" height="600" transform="translate(424.88 -173.95) rotate(90)"/>
  <text class="cls-10" transform="translate(118.83 150.87)"><tspan x="0" y="0">Hel</tspan><tspan class="cls-11" x="90.45" y="0">l</tspan><tspan x="119.07" y="0">o there</tspan></text>
  <path class="cls-8" d="M381.8,253.17c1.57-16.37-8.98-31.9-25.42-36.08-3.7-.94-7.41-1.22-11.02-.94-2.58-12.27-11.88-22.63-24.85-25.93-12.21-3.11-24.56.85-32.75,9.29-4.35-4.91-10.17-8.62-17.01-10.36-18.16-4.62-36.63,6.36-41.25,24.52-.47,1.87-.78,3.74-.93,5.6-13.76,1.42-25.81,11.22-29.41,25.4-4.62,18.16,6.36,36.63,24.52,41.25,8.56,2.18,17.19.89,24.41-2.99.18,14.99,10.35,28.59,25.57,32.47,10.89,2.77,21.89-.07,29.95-6.71,4.48,5.9,10.91,10.39,18.65,12.36,10.93,2.78,21.96-.09,30.02-6.77,1.94.92,3.99,1.67,6.15,2.21,18.16,4.62,36.63-6.36,41.25-24.52,4.02-15.82-3.79-31.87-17.87-38.8Z"/>
  <path class="cls-8" d="M547.8,22.88c-3.01-7.37-11.02-11.65-19-9.75-1.8.43-3.45,1.14-4.93,2.07-3.86-4.68-10.18-7.03-16.48-5.53-5.93,1.41-10.33,5.88-11.94,11.34-2.97-1.13-6.3-1.41-9.62-.62-8.82,2.1-14.27,10.95-12.17,19.78.22.91.51,1.78.86,2.61-5.58,3.7-8.54,10.6-6.9,17.49,2.1,8.82,10.95,14.27,19.78,12.17,4.16-.99,7.57-3.48,9.79-6.76,3.44,6.39,10.86,9.93,18.25,8.17,5.29-1.26,9.36-4.95,11.33-9.6,3.25,1.52,7.01,2,10.77,1.11,5.31-1.26,9.39-4.97,11.34-9.65,1.04-.04,2.08-.18,3.13-.43,8.82-2.1,14.27-10.95,12.17-19.78-1.83-7.68-8.78-12.8-16.37-12.61Z"/>
  <path class="cls-8" d="M102.75-11.26c-2.99-11-13.62-18.49-25.31-17.18-2.63.29-5.11,1.02-7.37,2.08-4.67-7.33-13.24-11.77-22.46-10.74-8.68.97-15.72,6.55-18.96,14.03-4.02-2.12-8.7-3.1-13.57-2.56C2.18-24.18-7.12-12.54-5.67.36c.15,1.33.41,2.61.76,3.86-8.57,4.28-13.99,13.58-12.86,23.66,1.44,12.91,13.08,22.2,25.99,20.76,6.09-.68,11.37-3.63,15.1-7.91,3.78,9.68,13.7,16.01,24.52,14.8,7.74-.87,14.18-5.4,17.78-11.67,4.35,2.73,9.61,4.07,15.11,3.46,7.76-.87,14.22-5.43,17.81-11.73,1.48.12,3,.1,4.53-.07,12.91-1.44,22.2-13.08,20.76-25.99-1.26-11.24-10.25-19.74-21.07-20.79Z"/>
  <path class="cls-4" d="M575.88,138.58s-37.45,23.66-40.9,57.25c-3.11,30.27,22.45,58.27,27.52,63.5l7.37-65.24c3.75,19.02-1.34,47.79-5.29,65.31,6.45-4.4,36.61-26.47,39.69-56.44,3.45-33.58-28.39-64.37-28.39-64.37Z"/>
  <path class="cls-7" d="M508.87,213.61s-1.38,25.85,13.46,38.84c13.38,11.72,35.36,9,39.57,8.35l-28.6-25.56c10.33,4.64,22.32,16.79,29.34,24.6.08-4.56-.24-26.39-13.49-37.99-14.84-13-40.28-8.23-40.28-8.23Z"/>
  <path class="cls-9" d="M575.88,138.58s-37.45,23.66-40.9,57.25c-3.11,30.27,22.45,58.27,27.52,63.5l7.37-65.24c3.75,19.02-1.34,47.79-5.29,65.31,6.45-4.4,36.61-26.47,39.69-56.44,3.45-33.58-28.39-64.37-28.39-64.37Z"/>
  <path class="cls-9" d="M508.87,213.61s-1.38,25.85,13.46,38.84c13.38,11.72,35.36,9,39.57,8.35l-28.6-25.56c10.33,4.64,22.32,16.79,29.34,24.6.08-4.56-.24-26.39-13.49-37.99-14.84-13-40.28-8.23-40.28-8.23Z"/>
  <path class="cls-2" d="M236.87,68.93s33.26-.45,48.65-20.6c13.87-18.16,8.5-46.11,7.3-51.45l-30.32,38.87c5.06-13.65,19.62-30.06,29.02-39.73-5.85.28-33.82,2.58-47.56,20.56-15.39,20.14-7.09,52.35-7.09,52.35Z"/>
  <path class="cls-6" d="M309.22,47.2s11.03-16,6.63-30.15c-3.96-12.75-19.1-19.64-22.05-20.87l8.28,27.59c-4.79-7.03-7.7-19.51-9.13-27.26-1.84,2.89-10.2,16.99-6.28,29.62,4.4,14.15,22.56,21.08,22.56,21.08Z"/>
  <path class="cls-9" d="M236.87,68.93s33.26-.45,48.65-20.6c13.87-18.16,8.5-46.11,7.3-51.45l-30.32,38.87c5.06-13.65,19.62-30.06,29.02-39.73-5.85.28-33.82,2.58-47.56,20.56-15.39,20.14-7.09,52.35-7.09,52.35Z"/>
  <path class="cls-9" d="M309.22,47.2s11.03-16,6.63-30.15c-3.96-12.75-19.1-19.64-22.05-20.87l8.28,27.59c-4.79-7.03-7.7-19.51-9.13-27.26-1.84,2.89-10.2,16.99-6.28,29.62,4.4,14.15,22.56,21.08,22.56,21.08Z"/>
  <path class="cls-5" d="M120.71,203.06s-21.04-49.59-60.67-60.34c-35.72-9.69-74.34,15.49-81.62,20.55l76.85,21.67c-23.56.76-57.09-11.01-77.34-19.19,4.01,8.6,24.57,49.14,59.94,58.73,39.63,10.75,82.84-21.42,82.84-21.42Z"/>
  <path class="cls-3" d="M43.84,107.88s-30.75-6.74-49.27,8.52c-16.69,13.75-17.75,40.67-17.79,45.85l36.3-29.3c-7.6,11.49-24.54,23.49-35.29,30.38,5.46,1,31.72,4.9,48.25-8.72,18.52-15.26,17.79-46.72,17.79-46.72Z"/>
  <path class="cls-9" d="M120.71,203.06s-21.04-49.59-60.67-60.34c-35.72-9.69-74.34,15.49-81.62,20.55l76.85,21.67c-23.56.76-57.09-11.01-77.34-19.19,4.01,8.6,24.57,49.14,59.94,58.73,39.63,10.75,82.84-21.42,82.84-21.42Z"/>
  <path class="cls-9" d="M43.84,107.88s-30.75-6.74-49.27,8.52c-16.69,13.75-17.75,40.67-17.79,45.85l36.3-29.3c-7.6,11.49-24.54,23.49-35.29,30.38,5.46,1,31.72,4.9,48.25-8.72,18.52-15.26,17.79-46.72,17.79-46.72Z"/>
</svg>