<?xml version="1.0" encoding="UTF-8"?>
<svg id="Vector_layer" data-name="Vector layer" xmlns="http://www.w3.org/2000/svg" version="1.1" xmlns:xlink="http://www.w3.org/1999/xlink" viewBox="0 0 200 200">
  <defs>
    <style>
      .cls-1 {
        fill: url(#Gradiente_sem_nome_8-2);
        stroke-width: 5px;
      }

      .cls-1, .cls-2, .cls-3 {
        stroke-miterlimit: 10;
      }

      .cls-1, .cls-3 {
        stroke: #5a7d1e;
      }

      .cls-4 {
        fill: #d8a344;
      }

      .cls-4, .cls-5, .cls-6 {
        stroke-width: 0px;
      }

      .cls-5 {
        fill: #f4c676;
      }

      .cls-2 {
        fill: url(#Gradiente_sem_nome_9);
        stroke: #e91e25;
        stroke-width: .25px;
      }

      .cls-3 {
        fill: url(#Gradiente_sem_nome_8);
        stroke-width: 9px;
      }

      .cls-6 {
        fill: #eeb74c;
      }
    </style>
    <linearGradient id="Gradiente_sem_nome_9" data-name="Gradiente sem nome 9" x1="45.05" y1="125.51" x2="164.47" y2="125.51" gradientUnits="userSpaceOnUse">
      <stop offset="0" stop-color="#e91e25"/>
      <stop offset=".31" stop-color="#e92027"/>
      <stop offset=".48" stop-color="#ea282d"/>
      <stop offset=".62" stop-color="#eb3639"/>
      <stop offset=".74" stop-color="#ed494a"/>
      <stop offset=".85" stop-color="#f06360"/>
      <stop offset=".95" stop-color="#f3817a"/>
      <stop offset="1" stop-color="#f6958b"/>
    </linearGradient>
    <linearGradient id="Gradiente_sem_nome_8" data-name="Gradiente sem nome 8" x1="91.55" y1="29.58" x2="109.06" y2="29.58" gradientUnits="userSpaceOnUse">
      <stop offset=".06" stop-color="#5a7d1e"/>
      <stop offset=".1" stop-color="#5d8120"/>
      <stop offset=".31" stop-color="#6f9c2e"/>
      <stop offset=".53" stop-color="#7baf38"/>
      <stop offset=".76" stop-color="#83ba3f"/>
      <stop offset="1" stop-color="#86be41"/>
    </linearGradient>
    <linearGradient id="Gradiente_sem_nome_8-2" data-name="Gradiente sem nome 8" x1="39.27" y1="75.11" x2="171.29" y2="75.11" xlink:href="#Gradiente_sem_nome_8"/>
  </defs>
  <path class="cls-2" d="M164.47,104.24c0,26.03-27.76,89.67-59.71,89.67s-59.71-61.3-59.71-87.33,29.63-49.46,61.58-49.46,57.84,21.1,57.84,47.12Z"/>
  <path class="cls-6" d="M104.94,86.82c0,1.32-1.46,4.13-3.25,4.13s-3.25-2.81-3.25-4.13,1.46-2.39,3.25-2.39,3.25,1.07,3.25,2.39Z"/>
  <path class="cls-3" d="M91.62,10.99c-.76-1.63,4.76-6.15,5.59-4.55,5.59,10.76,10.97,28.93,11.79,38.07.56,6.27-3.08,8.55-3.08,8.55,0,0-.14-4.13-1.88-11.04s-7.86-21.31-12.42-31.04Z"/>
  <path class="cls-1" d="M80.66,42.64c-4.81,1.97-11.4,5.07-19.04,9.73-8.48,5.17-22.35,2.48-22.35,2.48,0,0,15.93,16.76,30.42,15.11,16.02-1.83,17.17-7.66,17.17-7.66,0,0,1.03,2.07-3.72,6.21-7.03,6.12-20.69,18-20.69,18,0,0,19.64,4.65,31.04-4.76,8.07-6.66,15.31-11.79,15.31-11.79,0,0-2.56,3.69,5.38,16.14,6.21,9.73,10.55,23.59,10.55,23.59,0,0,3.77-12.66,2.9-20.07-.41-3.52-3.93-15.52-3.93-15.52,0,0,14.51,6.49,18.62,6.21,14.9-1.03,28.97-12.42,28.97-12.42,0,0-11.79,3.1-38.9-15.22-8.51-5.76-21.62,6.22-26.8,4.98s-10.04-18.11-16.45-17.07c-1.45.23-4.57.47-8.48,2.07Z"/>
  <path class="cls-4" d="M66.32,100.06c0,1.32-1.46,4.13-3.25,4.13s-3.25-2.81-3.25-4.13,1.46-2.39,3.25-2.39,3.25,1.07,3.25,2.39Z"/>
  <path class="cls-6" d="M103.55,120.25c0,1.32-1.46,4.13-3.25,4.13s-3.25-2.81-3.25-4.13,1.46-2.39,3.25-2.39,3.25,1.07,3.25,2.39Z"/>
  <path class="cls-4" d="M77.63,137.03c0,1.32-1.46,4.13-3.25,4.13s-3.25-2.81-3.25-4.13,1.46-2.39,3.25-2.39,3.25,1.07,3.25,2.39Z"/>
  <path class="cls-5" d="M139.55,93.54c0,1.32-1.46,4.13-3.25,4.13s-3.25-2.81-3.25-4.13,1.46-2.39,3.25-2.39,3.25,1.07,3.25,2.39Z"/>
  <path class="cls-4" d="M108.01,175.11c0,1.32-1.46,4.13-3.25,4.13s-3.25-2.81-3.25-4.13,1.46-2.39,3.25-2.39,3.25,1.07,3.25,2.39Z"/>
  <path class="cls-6" d="M118.2,149.77c0,1.32-1.46,4.13-3.25,4.13s-3.25-2.81-3.25-4.13,1.46-2.39,3.25-2.39,3.25,1.07,3.25,2.39Z"/>
  <path class="cls-5" d="M146.05,124.64c0,1.32-1.46,4.13-3.25,4.13s-3.25-2.81-3.25-4.13,1.46-2.39,3.25-2.39,3.25,1.07,3.25,2.39Z"/>
</svg>