<svg xmlns="http://www.w3.org/2000/svg" xmlns:xlink="http://www.w3.org/1999/xlink" id="Vector_layer" data-name="Vector layer" version="1.1" viewBox="0 0 200 200"><defs><style>.cls-1{fill:#d9794a}.cls-1,.cls-2,.cls-3,.cls-4,.cls-5,.cls-6,.cls-7{stroke-width:0}.cls-2{fill:#f7b884}.cls-3{fill:#f7ae6d}.cls-4{fill:#ef9635}.cls-5{fill:#ed9021}.cls-6{fill:#ef9f50}.cls-7{fill:#ffd6a5}.cls-8{fill:url(#Gradiente_sem_nome_17);stroke:#f59c1a;stroke-miterlimit:10;stroke-width:8px}</style><linearGradient id="Gradiente_sem_nome_17" x1="14.77" x2="148.04" y1="101.61" y2="124.22" data-name="Gradiente sem nome 17" gradientUnits="userSpaceOnUse"><stop offset="0" stop-color="#e1a05d"/><stop offset=".22" stop-color="#e3a565"/><stop offset=".57" stop-color="#ebb67c"/><stop offset="1" stop-color="#f9d1a1"/></linearGradient></defs><circle cx="102.82" cy="116.55" r="67.58" class="cls-8"/><g><path d="M103.78,175.84c-.93-.03-1.87-.03-2.8-.07-.56-.02-1.12-.06-1.68-.09-.66-.03-1.31-.08-1.96-.17-.69-.09-1.38-.17-2.06-.29-.69-.12-1.33-.34-1.98-.57-.56-.19-1.13-.35-1.66-.63-.48-.26-.93-.58-1.35-.93-.31-.25-.61-.52-.88-.82-.02,0-.05,0-.07,0-.21,0-.41-.04-.61-.12-.41-.17-.75-.53-.89-.95-.22.04-.43.08-.65.12-.5.1-1,.17-1.51.22-.58.06-1.16.14-1.75.21-.6.07-1.21.07-1.81.06-.59,0-1.18-.03-1.77-.08-1.14-.1-2.25-.4-3.36-.66-.59-.14-1.18-.29-1.75-.48-.57-.19-1.12-.41-1.68-.62-.51-.19-1.02-.36-1.51-.59-.53-.24-1.04-.52-1.53-.83-.52-.34-1.01-.73-1.49-1.12-.49-.39-.98-.78-1.44-1.2-.44-.4-.84-.82-1.22-1.28-.4-.47-.73-1-1.07-1.52-.34-.53-.69-1.05-.99-1.6-.19-.33-.36-.67-.49-1.03-.12-.33-.23-.67-.33-1.01-.09-.3-.18-.59-.27-.89-.09-.28-.18-.56-.24-.84-.07-.32-.13-.65-.16-.98-.29-.12-.58-.23-.87-.34-.55-.2-1.07-.44-1.59-.72-.52-.28-1.01-.65-1.48-1-.45-.34-.91-.67-1.33-1.05-.52-.46-.97-.96-1.42-1.48-.77-.88-1.47-1.81-2.08-2.81-.67-1.1-1.3-2.25-1.71-3.47-.39-1.18-.67-2.4-.93-3.62-.27-1.26-.49-2.51-.5-3.8,0-1.17.02-2.35.18-3.51.1-.73.24-1.45.48-2.14.04-.12.09-.25.14-.37-.33-.27-.65-.55-.96-.85-.89-.89-1.59-1.92-2.24-2.99-.34-.56-.65-1.16-.88-1.78-.24-.63-.46-1.27-.67-1.91-.39-1.2-.52-2.5-.57-3.76-.04-1.19.02-2.38.21-3.56.1-.61.25-1.21.44-1.8.2-.61.45-1.2.7-1.79.22-.51.43-1.02.66-1.51.15-.31.3-.61.47-.91.17-.31.38-.6.58-.89.36-.53.78-1.02,1.22-1.48.15-.16.31-.3.47-.44-.04-.07-.08-.15-.11-.22-.5-1.01-.87-2.09-1.25-3.15-.46-1.27-.77-2.59-.93-3.94-.14-1.19-.11-2.4-.06-3.59,0-.24.01-.48.03-.71,0-.19.03-.38.05-.57.03-.28.06-.56.11-.84.1-.68.23-1.36.39-2.03.16-.67.35-1.33.59-1.97.23-.62.53-1.21.84-1.79.59-1.11,1.22-2.22,1.98-3.23.33-.44.68-.87,1.06-1.27.38-.39.78-.76,1.18-1.14.22-.2.45-.39.68-.58.26-.22.57-.41.86-.59.46-.3.95-.56,1.44-.82.54-.28,1.1-.53,1.67-.76.55-.23,1.11-.42,1.68-.58.54-.15,1.1-.22,1.66-.2.2,0,.41.03.61.07.02-.11.03-.22.05-.32.08-.48.19-.94.35-1.4.36-1.07.75-2.13,1.17-3.18.43-1.07.97-2.09,1.53-3.09.58-1.02,1.27-1.97,2.01-2.88.63-.79,1.27-1.6,1.97-2.33.36-.38.74-.73,1.12-1.07.39-.36.79-.71,1.2-1.04.37-.3.75-.58,1.13-.87.44-.32.88-.64,1.34-.93.47-.3.99-.52,1.52-.7.46-.16.94-.23,1.42-.32.85-.18,1.68-.42,2.51-.66.4-.11.8-.22,1.21-.3.49-.1.98-.17,1.48-.2.42-.03.84,0,1.25.04.46.04.91.12,1.35.24.43.11.85.25,1.26.4.21.08.41.17.62.26.28-.27.55-.56.83-.83.41-.39.86-.75,1.32-1.08.92-.65,1.96-1.07,2.99-1.49,1.09-.44,2.24-.75,3.36-1.11,1.12-.37,2.29-.64,3.45-.86,1.2-.23,2.43-.23,3.65-.2,1.16.03,2.35.09,3.49.35,1.25.28,2.49.74,3.6,1.39.51.3.97.69,1.4,1.1.45.43.89.9,1.27,1.39.24.31.47.64.73.95.04.04.08.09.13.13,0,0,.01,0,.02.01.02,0,.04,0,.06,0,.08-.02.17-.05.25-.07.49-.18.96-.39,1.45-.58.53-.2,1.07-.36,1.61-.48,1.21-.26,2.47-.3,3.71-.27,1.25.03,2.48.21,3.68.53,1.11.3,2.22.65,3.24,1.17.57.29,1.13.59,1.67.95.52.35,1.02.71,1.52,1.08.48.36.97.71,1.45,1.07.52.38,1,.81,1.47,1.25.85.8,1.56,1.75,2.2,2.71.35.52.68,1.07.91,1.66.17.42.3.84.42,1.27.32.08.64.13.96.21.55.14,1.07.34,1.61.52.58.19,1.15.39,1.71.62.58.24,1.15.52,1.72.81,1.08.55,2.08,1.26,2.98,2.07.46.42.87.9,1.25,1.39.41.53.79,1.08,1.15,1.64.68,1.05,1.24,2.18,1.8,3.3.53,1.06.95,2.18,1.36,3.29.22.58.42,1.17.6,1.77.17.59.32,1.18.46,1.77.28,1.17.5,2.36.71,3.55.19,1.05.28,2.12.26,3.19-.01.62-.04,1.25-.14,1.87-.04.27-.1.54-.17.81.08.08.14.17.2.27.11.19.18.4.21.62.01.1.02.2.01.3.04.04.07.09.11.13.32.39.62.8.92,1.21.35.49.67,1,.94,1.54.27.53.5,1.08.72,1.63.9,2.25,1.41,4.64,1.73,7.03.09.67.15,1.33.19,2.01.04.59,0,1.18-.01,1.77-.04,1.22-.17,2.45-.36,3.66-.1.61-.22,1.23-.39,1.83-.16.56-.34,1.12-.5,1.68-.17.59-.33,1.19-.59,1.75-.29.62-.66,1.2-1.08,1.74-.07.09-.14.17-.21.25.02.05.05.11.07.16.23.55.43,1.1.6,1.67.19.67.26,1.38.28,2.07.02.64,0,1.28-.06,1.92-.09,1.18-.34,2.35-.66,3.49-.16.58-.34,1.15-.52,1.72-.17.54-.31,1.08-.49,1.61-.38,1.16-.85,2.28-1.34,3.4-.49,1.12-1,2.24-1.6,3.31-.32.57-.72,1.09-1.12,1.61-.36.48-.73.96-1.09,1.44-.69.92-1.47,1.78-2.29,2.59-.29.28-.59.55-.9.79-.3.24-.61.46-.92.69-.57.44-1.12.91-1.68,1.35-.34.27-.7.53-1.08.74-.36.2-.73.38-1.11.54-.24.1-.48.2-.73.28,0,.04,0,.08,0,.12,0,.45-.05.87-.14,1.31-.1.44-.27.87-.43,1.29-.19.49-.4.98-.62,1.46-.24.54-.5,1.1-.82,1.6-.3.47-.62.92-.98,1.34-.4.47-.82.93-1.26,1.36-.44.43-.91.83-1.39,1.22-.92.76-1.85,1.5-2.84,2.16-.5.33-1.01.65-1.53.95-.52.3-1.06.55-1.6.79-1.05.48-2.09.97-3.15,1.41-.54.23-1.08.43-1.62.65-.52.21-1.04.43-1.56.64-.91.37-1.84.69-2.79.92-.52.12-1.04.2-1.56.29-.52.09-1.03.16-1.56.18-.5.02-1.01-.02-1.51-.09-.5-.07-.99-.17-1.47-.33-.42-.14-.81-.31-1.2-.52-.11-.06-.22-.12-.32-.19,0,0,0,0-.01,0-.05,0-.1.01-.15.02-.05.01-.1.03-.14.04-.16.06-.33.14-.48.21-.3.15-.6.31-.89.48-.47.27-.92.55-1.41.79-.42.21-.85.4-1.28.58-.58.24-1.19.4-1.8.53-.57.11-1.15.17-1.73.2-.15,0-.3.01-.46.01-.33,0-.66-.01-.99-.02ZM103.58,172.94c.52,0,1.05.01,1.57-.01.36-.03.72-.09,1.08-.16.29-.06.58-.14.87-.23.52-.19,1.01-.43,1.51-.68.62-.32,1.2-.7,1.78-1.09.12-.08.24-.16.35-.23.02-.01.03-.02.05-.03.03-.02.07-.04.1-.06,0,0,.01,0,.02-.01,0,0,0,0,.01,0,.02-.01.04-.03.06-.04,0,0,.02-.01.03-.02.03-.02.05-.03.08-.05.03-.02.07-.04.1-.06-.04-.16-.09-.32-.13-.48-.16-.61-.3-1.23-.47-1.84-.17-.66-.33-1.32-.45-1.98-.12-.66-.23-1.33-.37-1.99-.44-2.07-1.02-4.1-1.47-6.16-.46-2.14-.99-4.27-1.47-6.4-.25-1.1-.51-2.19-.76-3.28-.24-1.07-.48-2.14-.72-3.21-.24-1.04-.45-2.08-.67-3.12-.23-1.12-.49-2.22-.71-3.34-.25-1.25-.44-2.51-.69-3.75-.22-1.03-.46-2.06-.69-3.09-.25-1.09-.48-2.19-.74-3.28-.25-1.08-.56-2.14-.84-3.21-.05-.19-.1-.38-.15-.57-.09-.34-.19-.69-.28-1.03,0-.04-.02-.07-.03-.11-.05-.19-.1-.38-.15-.57-.03.14-.06.28-.09.42,0,.03-.01.06-.02.09,0,.02-.01.05-.01.07-.02.07-.03.15-.05.22-.04.2-.09.41-.13.61-.01.06-.03.13-.04.19,0,0,0,0,0,.01-.01.05-.02.1-.03.16-.02.11-.05.22-.07.34-.05.23-.1.47-.15.7-.16.73-.31,1.46-.46,2.19-.43,2.13-.87,4.26-1.21,6.41-.18,1.13-.34,2.26-.53,3.39-.19,1.06-.41,2.12-.62,3.18-.22,1.12-.42,2.23-.62,3.35-.19,1.06-.36,2.12-.54,3.18-.18,1.11-.37,2.22-.55,3.33-.17,1.1-.33,2.2-.5,3.3-.22,1.36-.48,2.72-.71,4.08-.12.69-.25,1.38-.38,2.07-.14.73-.31,1.45-.46,2.17-.17.85-.33,1.7-.55,2.54-.21.84-.45,1.67-.69,2.49-.21.75-.46,1.48-.65,2.24-.04.16-.08.32-.12.47.01.02.03.04.04.06.02.03.04.05.06.08.01.01.02.03.03.04,0,.01.02.02.03.04,0,0,0,0,0,0,.02.02.04.05.06.07.06.07.13.13.2.2.24.2.5.39.76.57.19.13.39.25.6.36.13.06.27.12.41.16.52.18,1.04.35,1.55.53-.06-.02-.12-.04-.18-.06.29.1.58.18.87.25.63.12,1.28.19,1.92.29.51.07,1.02.13,1.53.17.43.03.86.05,1.29.08.78.05,1.55.07,2.33.06.06,0,.12,0,.18,0,.23,0,.45,0,.68,0ZM103.64,124.83c.27,1.07.55,2.14.81,3.21.25,1.04.48,2.09.73,3.14.26,1.09.54,2.18.77,3.28.23,1.09.42,2.19.63,3.29.23,1.08.49,2.15.72,3.23.22,1.01.44,2.02.67,3.02.25,1.11.5,2.22.76,3.33.25,1.06.51,2.12.73,3.19.08.4.16.8.25,1.2.22,1.06.46,2.11.68,3.17.22,1.06.4,2.13.61,3.2.26,1.27.56,2.52.85,3.79.15.67.29,1.34.42,2.02.13.64.23,1.29.35,1.93.17.79.38,1.58.55,2.37.09.43.21.86.33,1.29,0,.03.02.07.03.1h0s0,0,0,0c.02,0,.03,0,.05,0h0s.03,0,.05,0c0,0,0,0,0,0,.02,0,.04,0,.06,0,.02,0,.04,0,.05,0,0,0,0,0,0,0,.01,0,.02,0,.03,0,.01,0,.03,0,.05,0,0,0,.01,0,.02,0,.02,0,.04.01.06.02.02,0,.04,0,.05.01.02,0,.04.01.05.02.04.01.07.02.1.03,0,0,0,0,0,0,.02,0,.04.01.06.02,0,0,0,0,0,0,.02,0,.04.02.06.02.02,0,.04.02.07.03.02.01.04.02.07.03,0,0,0,0,.01,0,0,0,0,0,.01,0,0,0,0,0,0,0,.01,0,.03.01.04.02.02,0,.03.02.05.03.23.13.41.32.59.5.01,0,.02.02.04.03.07.04.14.08.21.12.13.06.26.11.39.17.2.06.41.12.62.17.28.05.56.09.84.11.18,0,.37,0,.55,0,.62-.06,1.24-.18,1.85-.3.58-.13,1.14-.29,1.7-.48.66-.24,1.31-.51,1.96-.78.7-.3,1.42-.57,2.12-.86.71-.3,1.4-.61,2.1-.93.65-.29,1.31-.57,1.95-.88.65-.34,1.29-.72,1.9-1.12.52-.36,1.03-.73,1.52-1.13.49-.4.98-.82,1.47-1.23.39-.36.76-.73,1.12-1.12.31-.36.61-.74.88-1.13.18-.28.35-.57.51-.87.34-.72.65-1.45.92-2.2.11-.32.21-.65.29-.98.06-.31.11-.62.14-.94,0-.05,0-.09,0-.14-.04-.13-.07-.26-.1-.4-.02-.12-.03-.25-.03-.37h0s0-.05,0-.08c0-.02,0-.04,0-.06,0,0,0-.01,0-.02,0,0,0-.02,0-.03,0,0,0,0,0,0,0,0,0,0,0,0,0-.01,0-.03,0-.05,0,0,0-.01,0-.02,0,0,0,0,0,0,0,0,0,0,0,0,0,0,0-.02,0-.02,0,0,0,0,0,0,0,0,0,0,0-.01,0-.02,0-.05.01-.07-.08-.06-.15-.12-.22-.18-.59-.49-1.14-1.01-1.7-1.52-.43-.37-.89-.7-1.33-1.06-.55-.44-1.07-.91-1.6-1.38-1.14-.99-2.31-1.94-3.53-2.83-.63-.46-1.23-.94-1.83-1.43-.61-.51-1.24-1.01-1.84-1.53-1.16-.98-2.3-1.99-3.45-2.98-.61-.52-1.21-1.05-1.81-1.58-.56-.5-1.11-1.02-1.67-1.52-.89-.77-1.79-1.53-2.66-2.31-.91-.82-1.8-1.66-2.71-2.47-.55-.48-1.11-.96-1.63-1.48-.55-.55-1.06-1.13-1.6-1.69-1.05-1.1-2.21-2.09-3.33-3.12-.59-.54-1.16-1.1-1.75-1.64-.56-.51-1.11-1.02-1.66-1.54-.06-.06-.12-.12-.19-.18,0,0,0,0,0,0-.03-.03-.05-.05-.08-.08.05.21.11.42.16.63ZM96.28,124.72c-.1.12-.2.23-.31.35,0,0,0,0-.01.01,0,0-.02.02-.02.03-.11.13-.23.26-.34.39-.57.63-1.14,1.26-1.72,1.88-1.19,1.31-2.38,2.63-3.57,3.93-.59.65-1.2,1.28-1.82,1.89-.61.6-1.23,1.18-1.85,1.76-1.3,1.22-2.57,2.48-3.83,3.74-1.24,1.24-2.39,2.56-3.58,3.85-1.15,1.24-2.3,2.49-3.43,3.76-.55.61-1.1,1.22-1.68,1.79-.6.6-1.22,1.17-1.84,1.75-1.2,1.11-2.38,2.24-3.58,3.34-.66.6-1.32,1.19-1.92,1.85-.32.36-.62.74-.93,1.11-.02.02-.04.05-.06.07,0,.03,0,.05,0,.08,0,0,0,.01,0,.02,0,0,0,0,0,.01,0,.04,0,.08.01.11.03.25.06.51.11.76.1.4.23.79.35,1.18.12.38.23.77.36,1.15.06.16.13.32.2.48.21.38.44.74.67,1.11.26.41.51.81.77,1.21.22.3.44.6.68.88.31.34.63.66.97.96.38.33.76.65,1.14.97.42.35.84.7,1.29,1.01.23.15.46.28.71.41.44.22.9.41,1.36.59.54.21,1.08.43,1.62.63,1.07.36,2.17.6,3.27.83.53.1,1.05.18,1.59.23.75.04,1.51.06,2.26.02.44-.04.87-.11,1.31-.17.47-.06.94-.1,1.41-.16.7-.09,1.38-.26,2.08-.34.1-.01.19-.02.29-.03,0,0,.02,0,.03,0,.04,0,.09,0,.13-.01,0,0,0,0,0,0,.04,0,.08,0,.12,0,0,0,0,0,.01,0,0,0,0,0,.01,0,0-.01,0-.03.01-.04,0-.03.02-.06.03-.09.01-.03.02-.06.03-.09.02-.05.04-.11.06-.16.06-.17.12-.33.18-.5.2-.63.37-1.27.54-1.9.18-.67.35-1.34.49-2.01.22-1.1.43-2.21.66-3.31.21-1.03.39-2.07.56-3.1.18-1.06.39-2.11.56-3.17.18-1.1.34-2.2.51-3.3.18-1.11.37-2.22.56-3.33.37-2.18.75-4.36,1.16-6.53.21-1.09.43-2.18.63-3.27.2-1.09.34-2.19.51-3.28.02-.13.04-.25.06-.38.01-.09.03-.18.04-.26,0-.04.01-.08.02-.12,0-.04.01-.07.02-.11,0-.04.01-.08.02-.13,0-.03,0-.06.01-.09.02-.09.03-.19.05-.28.02-.14.05-.27.07-.41.02-.09.03-.18.05-.27.01-.08.03-.16.04-.25.05-.25.09-.51.14-.76.03-.14.05-.29.08-.43.03-.14.05-.29.08-.43.03-.14.06-.29.08-.43.03-.14.06-.29.09-.43.03-.14.06-.29.09-.43.02-.09.03-.17.05-.26.02-.09.04-.19.06-.28.02-.11.04-.22.07-.33h0c.03-.14.06-.29.09-.43s.06-.29.09-.43c.03-.14.06-.28.08-.41.05-.24.1-.48.15-.72.03-.16.07-.32.1-.49,0-.02,0-.04.01-.07.03-.16.07-.31.1-.47.03-.13.05-.25.08-.38.05-.25.11-.5.16-.75-.25.28-.49.56-.74.85ZM55.59,133.26c-.06.09-.11.19-.17.28-.1.18-.2.35-.3.54-.11.22-.2.44-.29.67-.09.29-.16.57-.23.86-.12.67-.19,1.35-.25,2.03-.04.67-.07,1.34-.04,2.02.07.82.22,1.64.38,2.45.23,1.07.47,2.15.8,3.2.15.4.31.78.49,1.17.38.74.8,1.46,1.26,2.15.49.7,1.04,1.36,1.6,2.01.29.32.59.63.91.92.57.47,1.17.92,1.77,1.34.34.22.68.42,1.04.61.48.23.96.46,1.42.71.13.07.26.15.39.22.03-.05.06-.1.09-.14.03-.05.06-.09.09-.14s.06-.09.09-.14c.49-.77,1.08-1.46,1.72-2.11,1.15-1.18,2.31-2.35,3.44-3.55,1.01-1.07,2.05-2.12,3.03-3.22.92-1.06,1.81-2.13,2.74-3.18.06-.07.12-.13.18-.2.06-.07.12-.13.18-.2.01-.02.03-.03.04-.05.07-.07.13-.15.2-.22.2-.23.4-.45.6-.68.1-.11.19-.22.29-.33.06-.07.12-.14.18-.21.06-.06.11-.13.17-.19.05-.05.1-.11.14-.16.61-.69,1.21-1.38,1.83-2.05.58-.62,1.18-1.22,1.78-1.82,1.28-1.25,2.54-2.52,3.84-3.75.64-.61,1.27-1.22,1.88-1.85.61-.62,1.2-1.27,1.79-1.92,1.2-1.31,2.38-2.64,3.56-3.96.31-.35.62-.7.93-1.05.09-.11.19-.21.28-.32.03-.04.06-.07.09-.11,0,0,0,0,0-.01.03-.03.06-.07.09-.1.03-.03.06-.07.09-.1.02-.02.03-.04.05-.06.05-.05.09-.11.14-.16.03-.03.06-.07.09-.11,0-.01.02-.02.03-.03.08-.09.16-.19.24-.28,0,0,0,0,.01-.01-.06.03-.13.05-.19.08-.22.09-.43.17-.65.25-.03.01-.06.02-.09.04-.01,0-.03.01-.04.02-.06.02-.12.05-.18.07-.01,0-.03.01-.04.02,0,0,0,0,0,0-.02,0-.04.01-.05.02-.09.04-.19.07-.28.1-.93.34-1.88.62-2.82.92-1.28.4-2.55.82-3.81,1.26-.88.31-1.76.62-2.66.9-.85.27-1.71.53-2.56.79-.9.28-1.81.51-2.72.76-.9.24-1.81.45-2.72.64-.01,0-.02,0-.04,0-.02,0-.04,0-.07.01-.02,0-.03,0-.05.01-.11.02-.22.04-.33.07-.16.03-.33.07-.49.1-.14.03-.28.05-.41.08-.02,0-.05,0-.07.01-.04,0-.08.01-.12.02-.09.02-.17.03-.26.05h0s-.07.01-.11.02c-.05.01-.11.02-.16.03-.06.01-.12.02-.18.03-.05,0-.1.02-.14.03-.22.04-.45.09-.67.13-.07.01-.15.03-.22.04-.13.02-.26.05-.39.07-.13.02-.26.05-.39.07-.35.08-.69.17-1.03.27-.39.12-.77.26-1.16.37-.39.11-.79.21-1.19.31-.4.11-.8.22-1.2.35-.37.12-.74.23-1.12.33-.38.09-.77.18-1.15.28-.4.11-.79.25-1.18.38-.34.12-.68.23-1.01.34-.71.26-1.38.63-2.09.88-.37.13-.75.25-1.12.38-.33.11-.66.22-1,.31-.35.09-.7.14-1.05.2-.34.06-.68.13-1.03.14-.04,0-.09,0-.13,0-.02,0-.05,0-.07,0,0,0,0,0,0,0-.02,0-.03,0-.05,0,0,0-.01,0-.01,0-.02,0-.04,0-.07,0-.01,0-.03,0-.04,0,0,0,0,0,0,0h0s-.02.03-.03.05ZM113.24,128.59c.33.33.65.66.98.99.29.29.59.56.89.83.64.56,1.29,1.11,1.93,1.68.65.58,1.29,1.18,1.94,1.76.66.57,1.32,1.14,1.98,1.71.76.66,1.48,1.35,2.23,2.01.06.05.12.11.18.16,1.12.98,2.26,1.94,3.4,2.91.58.49,1.16.99,1.75,1.47.62.51,1.25,1.01,1.87,1.52,1.04.85,2.15,1.59,3.19,2.44.53.43,1.05.87,1.57,1.31.52.44,1.02.91,1.53,1.36.61.53,1.25,1.03,1.85,1.58.53.49,1.05,1.01,1.59,1.49.27.23.56.46.85.66.1.06.19.12.3.18.03.01.05.03.08.04.06-.03.11-.06.16-.1.05-.03.11-.07.16-.1.58-.41,1.11-.88,1.66-1.34.55-.46,1.13-.87,1.67-1.34.51-.46.98-.96,1.44-1.47.43-.5.83-1.03,1.22-1.56.42-.57.85-1.13,1.26-1.71.24-.37.45-.76.66-1.15.4-.83.77-1.67,1.13-2.52.36-.84.71-1.69,1.03-2.55.26-.78.5-1.58.76-2.37.27-.83.5-1.67.69-2.53.1-.52.17-1.04.22-1.56.03-.52.04-1.05.03-1.57-.02-.26-.06-.52-.1-.78-.05-.18-.1-.36-.15-.54-.1-.27-.22-.54-.34-.8-.03-.06-.07-.13-.11-.19-.06,0-.12-.01-.18-.02-.15-.02-.29-.03-.44-.05-.06,0-.12-.01-.17-.02-.01,0-.03,0-.04,0-.07,0-.13-.01-.2-.02-.04,0-.09,0-.13-.01-.05,0-.11,0-.16-.01-.04,0-.08,0-.12,0-.07,0-.14-.01-.21-.01-.01,0-.03,0-.04,0-.1,0-.2-.01-.3-.02-.42-.03-.84-.07-1.26-.1-.54-.04-1.07-.1-1.61-.14-.47-.03-.94-.05-1.41-.1-.45-.05-.89-.12-1.34-.16-.45-.05-.89-.09-1.33-.15-.47-.06-.93-.14-1.4-.23-.88-.16-1.77-.32-2.65-.47-.43-.07-.86-.14-1.29-.21-.5-.08-1-.18-1.49-.28-.64-.13-1.29-.2-1.93-.32-.73-.14-1.44-.35-2.16-.51-.5-.1-.99-.2-1.47-.34-.52-.14-1.03-.28-1.56-.39-.43-.09-.85-.17-1.28-.27-.47-.11-.93-.24-1.4-.35-.5-.11-.99-.22-1.49-.34-.44-.1-.88-.23-1.32-.33-.52-.1-1.04-.16-1.56-.26-.64-.12-1.26-.31-1.9-.45-.55-.1-1.11-.16-1.66-.25-.58-.09-1.16-.23-1.74-.36-.96-.17-1.94-.26-2.9-.44-.49-.1-.98-.19-1.47-.27-.49-.08-.99-.14-1.49-.22-.99-.16-1.97-.33-2.96-.51-1.05-.19-2.1-.38-3.15-.61-.32-.07-.65-.15-.97-.22-.18-.04-.36-.09-.54-.13-.08-.02-.17-.04-.25-.06h0s.07.07.1.1c.05.05.11.1.16.15.15.15.3.3.45.45.58.59,1.16,1.17,1.77,1.72.29.26.58.51.87.77,1.33,1.17,2.64,2.37,3.97,3.55-.06-.05-.11-.1-.17-.15.79.7,1.57,1.4,2.31,2.15ZM54.38,112.1s-.01,0-.02,0c-.09.04-.18.07-.27.12-.08.04-.15.09-.22.13-.04.03-.09.07-.13.1-.16.15-.31.3-.46.47-.22.26-.43.53-.63.81-.15.23-.29.47-.42.71-.42.86-.79,1.74-1.13,2.64-.1.32-.19.63-.27.96-.1.54-.17,1.08-.21,1.63-.03.69-.03,1.37,0,2.06.05.64.12,1.28.24,1.92.16.72.38,1.43.62,2.12.09.23.18.45.28.68.31.59.66,1.16,1.02,1.72.18.25.37.49.57.73.55.6,1.15,1.15,1.74,1.7.01.01.03.03.04.04,0,0,.01.01.02.02,0,0,0,0,0,0,0,0,0,0,0,0,0,0,0,0,0,0,0,0,.01.01.02.02,0,0,0,0,.01.01,0,0,.01.01.02.02,0,0,0,.01.01.02h0s.01.01.02.02c0,0,.01.01.02.02,0,0,.01.01.02.02,0,0,.02.02.02.03,0,0,.01.02.02.02,0,0,0,0,0,.01,0,0,0,0,0,0,0,0,0,0,.01.01.01.02.03.04.04.06,0,0,0,0,0,0,.02.02.04.05.06.08,0,0,0,0,0,.01,0,0,0,0,0,.01,0,0,0,0,0,0,0,0,0,0,0,0,0,0,.01.01.01.02,0,0,0,0,0,0,0,0,.01.02.02.03,0,0,0,0,0,0,0,0,0,0,0,0,0,0,.01.02.02.03,0,.01.01.02.02.03.05,0,.1,0,.15,0,.13-.01.27-.03.4-.06.25-.06.51-.12.76-.17.29-.06.58-.13.87-.21.6-.18,1.21-.35,1.81-.54.52-.19,1.01-.43,1.53-.62.55-.21,1.12-.37,1.68-.55.54-.18,1.07-.35,1.62-.49.54-.14,1.08-.27,1.62-.45.46-.16.92-.32,1.39-.46.48-.14.95-.28,1.43-.44.45-.16.9-.33,1.35-.48.43-.13.86-.22,1.3-.32.92-.2,1.83-.41,2.75-.64.96-.24,1.92-.47,2.87-.73.91-.26,1.81-.53,2.71-.84.9-.32,1.8-.64,2.69-.98.94-.36,1.88-.76,2.81-1.14.99-.4,1.98-.79,2.98-1.16.91-.34,1.83-.66,2.73-1.01.92-.36,1.81-.79,2.71-1.19.43-.19.86-.38,1.28-.57-.13-.02-.25-.04-.38-.05-.04,0-.08-.01-.12-.02-.03,0-.07,0-.1-.01-.04,0-.07-.01-.11-.02-.07-.01-.14-.02-.21-.03-.74-.12-1.49-.21-2.24-.29-.73-.08-1.46-.16-2.18-.25-.75-.09-1.49-.27-2.23-.43-.43-.08-.87-.14-1.3-.2-.46-.07-.92-.15-1.39-.22-.47-.07-.95-.1-1.42-.15-.49-.05-.97-.13-1.46-.2-.52-.08-1.05-.14-1.57-.22-.49-.07-.99-.17-1.48-.24-.48-.07-.97-.1-1.46-.16-.49-.05-.97-.13-1.45-.21-.61-.09-1.22-.14-1.83-.2-.59-.06-1.18-.16-1.77-.25-1.08-.16-2.16-.31-3.25-.39-.56-.03-1.11-.07-1.67-.12-.55-.05-1.09-.16-1.63-.25-.55-.1-1.11-.18-1.67-.27-.02,0-.03,0-.05,0,0,0-.01,0-.02,0,0,0-.01,0-.02,0,0,0,0,0,0,0-.03,0-.07-.01-.1-.02,0,0-.01,0-.02,0-.03,0-.06-.01-.09-.02,0,0-.02,0-.02,0-.02,0-.04,0-.06-.01-.02,0-.05,0-.07-.01-.03,0-.06-.01-.09-.02,0,0-.01,0-.02,0-.03,0-.05,0-.08-.01-.07-.01-.15-.03-.22-.04-.07-.01-.15-.03-.22-.04-.03,0-.07-.01-.1-.02-.04,0-.08-.01-.11-.02-.07-.01-.14-.03-.22-.04-.02,0-.04,0-.07-.01-.05-.01-.1-.02-.15-.03-.04,0-.08-.02-.12-.02-.05-.01-.1-.02-.15-.03,0,0-.02,0-.03,0-.81-.16-1.62-.31-2.43-.47-.45-.09-.9-.17-1.35-.27-.37-.08-.73-.18-1.1-.26-.31-.06-.62-.13-.92-.2-.34-.09-.68-.21-1.01-.34-.05-.02-.09-.04-.14-.06-.23.1-.47.14-.71.16ZM151.79,102.83c-.06.02-.12.03-.18.05-.01,0-.03,0-.04.01,0,0-.01,0-.02,0-.02,0-.04.01-.07.02-.02,0-.04.01-.07.02,0,0-.01,0-.02,0,0,0,0,0,0,0,0,0-.01,0-.02,0,0,0-.01,0-.02,0-.07.02-.15.04-.22.07-.77.23-1.54.47-2.3.72-.47.17-.95.33-1.42.48-.45.14-.92.25-1.38.37-.93.25-1.86.53-2.8.77-.95.24-1.9.49-2.85.75-.95.26-1.9.53-2.87.74-.49.11-.98.2-1.46.32-.48.12-.96.27-1.43.41-.96.29-1.93.54-2.88.86-.48.16-.96.33-1.45.48-.5.15-1,.29-1.49.44-.95.29-1.89.56-2.85.82-.35.1-.69.21-1.04.33-.67.24-1.34.47-2.01.7-.51.18-1.02.37-1.52.56-.57.21-1.15.41-1.73.61-.84.3-1.66.63-2.48.97-.85.36-1.72.68-2.59.99-.91.33-1.83.65-2.74.99-.89.33-1.78.63-2.68.94-.08.03-.16.06-.24.09-.08.03-.16.06-.24.09-.08.03-.16.06-.24.09-.04.01-.07.03-.11.04,0,0-.02,0-.03.01-.03.01-.05.02-.08.03-.03.01-.07.03-.1.04-.05.02-.1.04-.15.06-.07.03-.14.06-.22.09-.01,0-.02.01-.04.01-.05.02-.11.04-.16.06-.03.01-.05.02-.08.03,0,0-.01,0-.02,0-.02,0-.04.02-.06.03,0,0,0,0-.01,0-.01,0-.03.01-.04.02-.02,0-.03.01-.05.02-.13.05-.25.1-.38.16.04.01.08.02.12.03s.08.02.12.03c.01,0,.03,0,.04.01,0,0,0,0,0,0,0,0,.02,0,.03,0,0,0,.01,0,.02,0,.02,0,.04.01.06.01.04.01.08.02.13.03,0,0,0,0,.01,0,0,0,0,0,.01,0,0,0,.01,0,.02,0,.08.02.16.04.24.06.03,0,.06.01.09.02,0,0,.02,0,.02,0,.01,0,.03,0,.04,0,.03,0,.06.01.08.02.03,0,.06.01.08.02.09.02.17.04.26.06,0,0,0,0,0,0,.18.04.36.08.54.12.01,0,.02,0,.03,0,.09.02.19.04.28.06.79.18,1.58.35,2.37.52.66.13,1.33.25,2,.37.71.13,1.4.31,2.1.46.57.1,1.14.18,1.7.27.67.11,1.32.27,1.98.42.67.12,1.34.19,2.01.32.65.12,1.29.31,1.93.45.46.08.93.14,1.39.22.51.09,1.01.21,1.5.34.49.13.98.23,1.47.34.49.11.98.23,1.47.36.44.12.88.21,1.33.31.48.11.95.23,1.43.37.44.13.88.26,1.33.36.47.1.94.2,1.4.34.4.11.8.22,1.2.3.49.09.98.16,1.46.27.45.1.9.22,1.35.32,1.43.28,2.87.52,4.31.73.72.11,1.44.18,2.17.23.71.05,1.41.14,2.12.19.41.02.81.04,1.22.07.34.03.67.06,1,.1.33.03.66.05.99.08.28.02.56.05.84.07.31.02.61.03.92.03.09,0,.17,0,.26,0,0,0,0,0,0-.01.01-.02.02-.03.04-.05,0-.01.02-.02.03-.03,0,0,0,0,0,0,0,0,0,0,0-.01,0,0,0-.01.01-.01.01-.02.03-.03.04-.05,0,0,.01-.01.02-.02,0,0,0,0,.01-.01,0,0,0,0,0,0,0,0,0,0,0,0,0,0,0,0,0,0,0,0,0,0,0,0,0,0,0,0,0,0,0,0,.01-.01.02-.02.01-.01.02-.02.03-.03,0,0,0,0,0,0,.02-.01.03-.03.05-.04,0,0,0,0,.01,0,0,0,.01-.01.02-.02,0,0,.01,0,.02-.01,0,0,0,0,0,0,0,0,0,0,0,0,.02-.02.04-.03.06-.05.13-.09.27-.17.4-.26.03-.02.06-.04.09-.07.08-.08.16-.16.23-.24.08-.1.15-.2.23-.3.14-.22.27-.44.39-.67.05-.1.09-.21.13-.31.18-.57.33-1.16.51-1.73.18-.6.35-1.19.49-1.8.2-1.07.32-2.15.4-3.24.04-.81.07-1.61.03-2.42-.11-1.31-.3-2.61-.55-3.9-.15-.72-.32-1.43-.5-2.14-.18-.69-.39-1.36-.62-2.03-.14-.4-.3-.8-.48-1.19-.11-.21-.24-.42-.37-.62-.27-.39-.55-.78-.86-1.14-.1-.11-.21-.21-.31-.32-.07.02-.15.04-.22.06ZM68.01,110.62c.5.07,1,.1,1.51.14.98.1,1.96.26,2.94.42.52.08,1.03.18,1.55.26.49.08.98.12,1.47.18.51.06,1.03.14,1.54.22.48.08.95.13,1.43.18.69.07,1.36.18,2.04.3.71.12,1.43.21,2.15.32.65.1,1.29.19,1.94.28.05,0,.1.01.15.02,0,0,.01,0,.02,0,.03,0,.06,0,.09.01t0,0s0,0,0,0c.04,0,.08.01.12.02.02,0,.04,0,.06,0,.02,0,.03,0,.05,0,.02,0,.03,0,.05,0,.03,0,.07.01.1.02,0,0,0,0,0,0,.01,0,.03,0,.04,0,.03,0,.05,0,.08.01.04,0,.08.01.12.02.04,0,.09.02.13.03.04,0,.08.02.13.02.04,0,.08.02.13.03.01,0,.02,0,.03,0,.03,0,.06.01.1.02.08.02.17.03.25.05.04,0,.08.02.12.02,0,0,0,0,0,0,.04,0,.08.02.12.02.04,0,.08.02.13.03.01,0,.02,0,.03,0,.59.11,1.17.22,1.76.36.49.12.98.25,1.47.36.46.08.92.14,1.38.21.46.07.91.14,1.37.2.09.01.17.02.26.03.04,0,.07,0,.11.01.02,0,.04,0,.07,0,.08,0,.16.02.24.03.02,0,.03,0,.05,0,.1.01.2.02.3.04,0,0,.01,0,.02,0,.04,0,.09.01.13.02.03,0,.06,0,.09.01.03,0,.05,0,.08.01h0s-.01-.01-.02-.02c-.02-.01-.03-.03-.05-.04-.02-.01-.03-.03-.05-.04-.03-.03-.06-.06-.1-.09-.42-.38-.81-.8-1.18-1.22-.14-.16-.28-.32-.42-.48-.28-.31-.56-.62-.85-.91-.28-.29-.57-.56-.85-.84-.57-.57-1.11-1.17-1.68-1.74-.57-.58-1.19-1.12-1.76-1.69-.59-.59-1.12-1.23-1.7-1.83-.44-.46-.9-.89-1.35-1.34-.46-.46-.88-.95-1.31-1.44-.25-.28-.5-.55-.76-.81-.27-.27-.55-.53-.84-.79-.61-.55-1.2-1.12-1.77-1.71-1.13-1.16-2.23-2.37-3.41-3.49-.59-.56-1.2-1.11-1.78-1.69-.56-.56-1.08-1.15-1.64-1.71-.58-.57-1.17-1.14-1.74-1.73-.55-.57-1.1-1.14-1.65-1.71-.48-.5-.95-1.02-1.43-1.53-.47-.5-.98-.96-1.45-1.45-.51-.53-.99-1.08-1.45-1.65-.21-.26-.43-.52-.64-.79-.03-.03-.05-.07-.07-.1-.01-.01-.02-.03-.03-.04-.02-.02-.03-.04-.05-.07,0,0,0,0,0,0,0-.01-.01-.02-.02-.03,0,0,0,0,0,0,0,0,0,0,0-.01,0,0,0-.01-.01-.02-.07,0-.14.01-.21.02-.04,0-.08,0-.11.01,0,0-.01,0-.02,0,0,0-.02,0-.02,0-.02,0-.04,0-.06,0-.01,0-.02,0-.04,0,0,0,0,0-.01,0-.05,0-.1.01-.14.02,0,0,0,0,0,0-.04,0-.08.01-.11.02-.14.04-.28.08-.42.12-.25.1-.5.21-.75.33-.76.4-1.5.84-2.22,1.31-.48.34-.94.69-1.39,1.07-.36.34-.7.69-1.04,1.06-.34.42-.67.84-.98,1.28-.66.99-1.25,2.02-1.8,3.08-.25.5-.48,1-.68,1.52-.19.57-.33,1.15-.46,1.74-.13.73-.24,1.46-.31,2.2-.03.54-.04,1.07-.04,1.61,0,.55,0,1.11.02,1.66.06.64.14,1.28.26,1.91.12.54.26,1.07.43,1.6.35.98.7,1.98,1.14,2.92.12.23.26.45.4.67.11.16.23.32.35.47.02.01.03.03.05.04,0,0,0,0,0,0,0,0,.02.01.02.02,0,0,0,0,0,0,0,0,.01,0,.02.01,0,0,0,0,0,0,0,0,.01.01.02.02,0,0,0,0,0,0,0,0,0,0,0,0,.01.01.02.03.04.04.01.01.03.03.04.04,0,0,.02.02.03.03,0,0,0,0,0,0,0,0,0,0,0,0,0,0,0,0,0,0,0,0,.02.02.03.03,0,0,.02.02.03.03.26,0,.53.01.8.04.38.04.76.07,1.14.13.41.06.81.14,1.21.23.68.13,1.36.25,2.04.38.8.16,1.59.31,2.39.48,1.09.22,2.2.41,3.29.63-.09-.02-.17-.03-.25-.05.48.1.96.2,1.45.26ZM83.66,64.05c-.29.03-.58.07-.87.12-.82.18-1.62.44-2.43.67-.46.14-.92.26-1.39.38-.41.1-.82.2-1.22.33-.16.06-.32.13-.47.2-.28.15-.55.32-.81.49-.94.68-1.85,1.39-2.72,2.14-.58.52-1.14,1.04-1.66,1.61-.97,1.12-1.94,2.26-2.78,3.48-.59.9-1.12,1.85-1.61,2.81-.55,1.14-1.02,2.31-1.44,3.5-.12.35-.24.7-.32,1.07-.06.33-.12.66-.16.99,0,.1,0,.2-.02.3,0,0,0,0,0,.01,0,0,0,0,0,0,0,0,0,0,0,0h0s0,0,0,0c.03.02.06.04.09.06.31.21.6.45.88.69.6.5,1.21.99,1.82,1.47.66.52,1.29,1.08,1.88,1.68.55.55,1.08,1.12,1.62,1.69.54.57,1.05,1.17,1.59,1.74.56.59,1.12,1.17,1.67,1.78.53.59,1.08,1.16,1.66,1.71.59.56,1.18,1.11,1.75,1.69,1.09,1.11,2.15,2.26,3.25,3.35.52.52,1.08.99,1.61,1.5.58.55,1.11,1.14,1.64,1.74.27.3.54.6.82.9.28.29.57.57.85.85.59.58,1.14,1.19,1.69,1.8.55.6,1.15,1.14,1.74,1.69.58.54,1.12,1.12,1.67,1.69.67.68,1.39,1.33,2.04,2.03.34.37.66.74,1,1.11.31.34.63.65.97.96.63.54,1.26,1.07,1.85,1.66.05.05.1.1.16.16,0,0,.01.01.02.02,0,0,.01.01.02.02,0,0,0,0,.01.01,0,0,0,0,.01.01.07.07.13.14.2.2,0,0,0,0,.01.01,0,0,0,0,0,0,0,0,0,0,0,0h0c-.03-.11-.06-.23-.09-.34-.04-.17-.09-.34-.13-.51-.04-.17-.09-.34-.13-.51-.02-.06-.03-.13-.05-.19-.03-.13-.06-.26-.1-.39-.02-.09-.05-.19-.07-.28-.03-.14-.07-.27-.1-.41-.06-.26-.13-.52-.19-.78-.03-.11-.06-.23-.09-.34,0-.03-.01-.06-.02-.09,0-.02-.01-.04-.02-.07,0,0,0-.02,0-.02,0-.01,0-.03-.01-.04,0-.01,0-.03-.01-.04,0,0,0-.02,0-.03-.02-.07-.04-.14-.05-.21-.03-.12-.06-.23-.09-.35,0-.03-.02-.07-.03-.1-.02-.08-.04-.16-.07-.25-.02-.06-.03-.13-.05-.19-.03-.11-.06-.22-.09-.33-.31-1.09-.59-2.18-.83-3.28-.24-1.11-.46-2.22-.72-3.33-.26-1.11-.54-2.22-.83-3.32-.28-1.03-.59-2.06-.88-3.09-.3-1.08-.6-2.16-.88-3.24-.28-1.08-.52-2.17-.76-3.26-.23-1.06-.51-2.1-.79-3.15-.28-1.08-.52-2.16-.75-3.25-.21-1-.41-2-.6-3-.29-1.39-.62-2.78-.98-4.15-.21-.78-.4-1.57-.55-2.37-.13-.71-.25-1.41-.39-2.11-.17-.82-.36-1.64-.5-2.46-.12-.71-.22-1.43-.36-2.14-.08-.37-.16-.74-.22-1.11-.03-.18-.06-.37-.09-.55-.01-.09-.03-.18-.04-.27,0-.04-.01-.09-.01-.13h0s0-.09,0-.13v-.02s-.02,0-.03-.01c0,0-.01,0-.02,0,0,0,0,0,0,0,0,0,0,0-.01,0,0,0,0,0,0,0,0,0,0,0,0,0h0s-.05-.02-.07-.03c-.38-.13-.76-.24-1.15-.33-.29-.05-.58-.09-.88-.11-.19,0-.37-.01-.56-.01-.09,0-.18,0-.27,0ZM136.75,75.86c-.21.26-.42.52-.63.79-.45.59-.93,1.14-1.42,1.69-.52.6-1.01,1.22-1.53,1.82-.56.65-1.17,1.26-1.74,1.9-.53.62-1.03,1.27-1.55,1.89-.55.66-1.14,1.29-1.71,1.93-.56.66-1.08,1.34-1.58,2.05-.5.7-1.02,1.39-1.53,2.08-.51.69-1.01,1.38-1.49,2.08-.48.7-.96,1.39-1.47,2.07-.51.67-1.03,1.33-1.56,1.99-.55.68-1.09,1.37-1.63,2.06-1.09,1.38-2.22,2.73-3.35,4.09-.56.67-1.13,1.34-1.68,2.02-.56.69-1.09,1.39-1.63,2.09-.53.68-1.05,1.36-1.6,2.02-.57.69-1.16,1.38-1.73,2.07-.09.1-.17.21-.26.31-.06.07-.11.14-.17.2-.07.09-.14.17-.21.26-.06.07-.11.14-.17.21,0,0-.01.02-.02.02,0,0-.01.02-.02.03-.02.03-.04.05-.06.08-.02.03-.04.05-.06.08-.01.02-.03.04-.04.06t0,0s-.07.09-.11.13c-.05.06-.09.12-.14.17-.12.15-.25.31-.37.46-.01.02-.03.04-.04.06-.04.05-.08.1-.12.15,0,0-.01.01-.02.02,0,.01-.02.02-.03.03-.01.02-.03.04-.04.05,0,0,0,0,0,0,0,0-.01.01-.02.02-.09.11-.18.22-.27.33,0,0,0,0,.01,0,.04-.02.08-.03.12-.05.03-.01.07-.03.1-.04.01,0,.02,0,.03-.01.02,0,.04-.02.06-.03.06-.03.12-.05.18-.07.6-.24,1.21-.44,1.82-.65.86-.3,1.7-.64,2.55-.96.86-.32,1.74-.62,2.59-.95.86-.34,1.72-.7,2.57-1.06.83-.34,1.68-.63,2.52-.92.99-.35,1.97-.72,2.97-1.05.96-.31,1.92-.65,2.9-.89.95-.24,1.9-.48,2.84-.74.51-.14,1.02-.27,1.52-.42.47-.14.94-.3,1.41-.45.96-.32,1.95-.56,2.92-.84.5-.14,1-.3,1.5-.4.53-.11,1.05-.21,1.58-.31.87-.19,1.73-.42,2.59-.65.85-.22,1.7-.44,2.56-.65.89-.21,1.78-.44,2.67-.68.42-.11.84-.21,1.26-.32.43-.11.85-.24,1.27-.39.99-.34,1.99-.67,3-.95.04-.01.09-.03.13-.04,0,0,0,0,0,0,.02,0,.04-.01.06-.02,0,0,.01,0,.02,0,.02,0,.04-.01.06-.01h0s0-.01,0-.02c0,0,0,0,0,0,0,0,0,0,0-.01,0,0,0,0,0-.01,0-.02,0-.03.01-.05.09-.42.22-.83.32-1.24.05-.3.09-.61.12-.91.03-.63.04-1.25,0-1.88-.08-.82-.2-1.63-.35-2.44-.14-.78-.28-1.56-.43-2.34-.14-.64-.27-1.28-.46-1.9-.18-.61-.38-1.21-.59-1.81-.19-.53-.39-1.06-.6-1.58-.21-.5-.45-1-.69-1.49-.49-.97-1.03-1.92-1.63-2.83-.34-.49-.7-.97-1.08-1.43-.26-.29-.53-.56-.82-.83-.39-.33-.8-.64-1.22-.93-.5-.32-1.01-.6-1.53-.87-.05-.03-.1-.05-.16-.08-.02,0-.04-.02-.05-.03-.01,0-.03-.01-.04-.02,0,0,0,0-.01,0,0,0,0,0,0,0,0,0,0,0-.01,0-.06-.03-.11-.05-.17-.08-.04-.02-.08-.03-.11-.05-.02-.01-.05-.02-.07-.03-.01,0-.02,0-.03-.01-.05-.02-.1-.04-.15-.07,0,0,0,0-.01,0,0,0-.01,0-.02,0h0s-.05-.02-.08-.03c0,0-.01,0-.02,0-.03-.01-.05-.02-.08-.03-.02-.01-.05-.02-.07-.03-.04-.01-.07-.03-.11-.04,0,0,0,0-.01,0-.04-.02-.09-.04-.13-.05-.05-.02-.09-.04-.14-.05,0,0-.01,0-.02,0-.06-.02-.12-.05-.19-.07,0,0,0,0,0,0,0,0,0,0,0,0-.03-.01-.06-.02-.1-.03s-.06-.02-.1-.03c-.05-.02-.1-.03-.14-.05-.03-.01-.06-.02-.09-.03-.05-.02-.1-.03-.14-.05-.02,0-.03-.01-.05-.02,0,0,0,0-.01,0-.01,0-.02,0-.04-.01,0,0,0,0,0,0-.02,0-.04-.01-.05-.02,0,0,0,0,0,0,0,0-.02,0-.02,0-.03-.01-.06-.02-.1-.03-.03-.01-.06-.02-.1-.03-.03,0-.05-.02-.08-.02-.03-.01-.07-.02-.1-.03-.13-.04-.27-.08-.4-.11-.31-.06-.62-.09-.94-.12-.04,0-.09,0-.13-.01-.02,0-.04,0-.06,0,0,0-.01,0-.02,0,0,0,0,0,0,0,0,0-.01,0-.02,0,0,0-.02,0-.03,0-.01,0-.03,0-.04,0-.01,0-.02,0-.03,0-.01,0-.03,0-.04,0,0,0-.02,0-.03,0,0,0,0,0-.01,0,0,0,0,0,0,0-.02,0-.04,0-.07-.01,0,0,0,0-.01,0,0,0-.01,0-.02,0-.06.07-.12.15-.17.22ZM119.26,63.47c-.42.04-.84.1-1.26.18-.37.09-.73.19-1.09.31-.53.19-1.05.41-1.57.63-.19.08-.38.17-.57.26-.01,0-.02.01-.03.02,0,0,0,0-.01,0-.03.01-.05.02-.08.03-.04.02-.08.03-.12.05,0,0,0,0,0,0-.04.01-.08.03-.11.04,0,.01,0,.02,0,.03-.07.32-.14.64-.2.96-.14.69-.25,1.39-.38,2.08-.13.7-.31,1.39-.51,2.07-.18.65-.35,1.3-.5,1.96-.02.11-.05.22-.07.34-.02.09-.04.19-.06.28-.01.06-.03.13-.04.19-.01.07-.03.14-.04.21-.03.13-.06.27-.08.4-.03.16-.06.32-.1.47-.21,1.05-.39,2.11-.58,3.17-.2,1.14-.43,2.27-.68,3.4-.25,1.1-.54,2.19-.8,3.29-.26,1.07-.51,2.14-.79,3.21-.28,1.07-.57,2.14-.85,3.21-.28,1.07-.59,2.13-.87,3.21-.29,1.1-.58,2.2-.91,3.29-.32,1.06-.63,2.12-.93,3.19-.57,2.07-1.04,4.17-1.6,6.25-.28,1.04-.52,2.08-.77,3.13-.03.14-.07.27-.1.41-.07.27-.13.54-.2.82-.02.09-.04.18-.06.26-.02.07-.04.14-.05.22-.03.14-.07.29-.1.43,0,.02,0,.03-.01.05,0,.03-.01.05-.02.07-.02.08-.04.16-.06.25,0,0,0,.01,0,.02h0c-.03.11-.05.23-.08.34,0,0,0,.01,0,.02.01-.02.03-.03.04-.05.05-.06.1-.12.14-.18.02-.02.04-.05.06-.07.01-.01.02-.03.03-.04.04-.05.08-.1.12-.15.1-.13.21-.26.31-.39,0,0,0,0,0-.01,0-.01.02-.02.02-.03.06-.08.12-.15.18-.23.03-.03.05-.07.08-.1.11-.14.22-.28.33-.42.03-.04.06-.07.09-.11.14-.18.28-.35.41-.53.05-.07.11-.14.16-.2.07-.09.14-.17.21-.26.01-.02.03-.04.04-.06.03-.03.05-.07.08-.1.11-.14.22-.28.33-.42,1.08-1.36,2.2-2.68,3.23-4.07.54-.73,1.08-1.46,1.62-2.19.52-.69,1.06-1.37,1.61-2.05,1.1-1.36,2.19-2.74,3.25-4.13,1.29-1.7,2.53-3.44,3.74-5.2.47-.71.94-1.43,1.43-2.12.51-.72,1.03-1.43,1.56-2.13.51-.67.99-1.35,1.49-2.03.56-.77,1.16-1.5,1.81-2.21.51-.55,1.03-1.1,1.53-1.66.58-.66,1.15-1.32,1.75-1.95.59-.62,1.22-1.2,1.82-1.81.56-.57,1.1-1.17,1.68-1.74.58-.57,1.19-1.13,1.77-1.71.21-.21.42-.43.63-.64.1-.1.2-.2.3-.3.01-.01.03-.03.04-.04-.02-.07-.04-.14-.07-.22-.08-.21-.17-.41-.27-.61-.18-.32-.36-.63-.56-.93-.35-.5-.72-.99-1.11-1.46-.33-.36-.68-.71-1.05-1.04-.58-.48-1.18-.94-1.77-1.41-.58-.47-1.16-.93-1.77-1.36-.47-.31-.95-.6-1.45-.86-.69-.34-1.4-.62-2.13-.88-.5-.17-1-.31-1.51-.42-.53-.1-1.05-.17-1.59-.22-.38-.02-.75-.03-1.12-.03s-.78.01-1.18.04ZM101.41,59.66c-.64.05-1.27.15-1.9.28-.85.18-1.69.37-2.52.63-.81.25-1.64.47-2.44.74-.77.28-1.53.57-2.27.92-.31.16-.6.34-.89.53-.34.24-.67.5-.99.76-.28.25-.54.51-.81.77-.07.07-.15.15-.22.23,0,.01.01.02.02.04.02.03.03.06.05.09.02.05.05.09.07.14.18.38.36.75.51,1.14.31.8.56,1.61.8,2.44.27.93.52,1.86.71,2.81.18.87.29,1.75.46,2.62.17.81.38,1.61.55,2.42.2.94.39,1.89.57,2.84.33,1.76.6,3.53.94,5.29.22,1.04.48,2.07.69,3.11.25,1.18.46,2.37.69,3.56.45,2.15.97,4.28,1.49,6.41.54,2.23.99,4.48,1.42,6.74.05.24.09.48.14.72.03.15.06.3.09.46.12.54.24,1.08.39,1.61.15.53.3,1.05.46,1.58.04.14.08.28.12.42,0,.01,0,.02,0,.03,0,.01,0,.02.01.03.03.12.07.23.1.35.04.14.08.28.12.42.02.08.04.16.06.23.01.06.03.11.04.17.01.04.02.09.04.13.05.2.11.4.16.6.01-.06.03-.11.04-.17,0,0,0-.01,0-.02,0,0,0,0,0,0,0-.02.01-.04.01-.06,0-.03.02-.07.02-.1.01-.05.03-.11.04-.16.13-.51.26-1.02.39-1.53.14-.56.27-1.12.41-1.68.25-1.01.54-2,.82-3,.3-1.09.58-2.18.89-3.26.29-1.02.61-2.03.93-3.05.33-1.04.69-2.07.99-3.11.32-1.1.62-2.21.94-3.32.31-1.07.61-2.14.91-3.22.24-.86.48-1.72.71-2.58.26-.94.48-1.88.72-2.83.23-.92.49-1.84.72-2.76.21-.87.41-1.74.59-2.61,0-.04.02-.08.03-.12,0-.04.02-.09.03-.13,0-.03.01-.07.02-.1,0,0,0,0,0-.01,0,0,0,0,0,0,0,0,0,0,0,0,0,0,0,0,0,0,0,0,0,0,0,0h0c.03-.17.07-.33.1-.5,0-.01,0-.02,0-.04,0,0,0,0,0-.01.04-.18.07-.36.11-.54,0,0,0,0,0,0,.04-.18.07-.36.11-.54,0,0,0,0,0,0h0s.02-.08.02-.12c0-.02,0-.03.01-.05,0-.04.02-.09.03-.13,0-.01,0-.02,0-.03.01-.07.03-.14.04-.22.14-.68.32-1.36.48-2.03.16-.67.33-1.33.53-1.99.2-.67.45-1.33.68-1.99.3-.89.54-1.79.84-2.68.02-.06.04-.12.06-.18.02-.05.03-.1.05-.15,0,0,0,0,0-.01.04-.11.08-.21.12-.32,0-.01.01-.03.02-.04.01-.04.03-.08.04-.12.02-.05.04-.1.06-.14.01-.04.03-.07.04-.11,0-.02.02-.04.02-.06.01-.03.03-.07.04-.1,0-.02.02-.05.03-.07-.03-.02-.06-.04-.09-.05-.01,0-.02-.01-.03-.02,0,0,0,0-.01,0,0,0-.02-.01-.02-.02,0,0-.02-.01-.02-.02,0,0,0,0,0,0,0,0,0,0,0,0,0,0,0,0,0,0-.02-.02-.04-.03-.07-.05,0,0-.02-.01-.03-.02s-.02-.01-.03-.02c-.02-.01-.04-.03-.05-.04-.02-.01-.03-.03-.05-.04-.02-.01-.03-.03-.05-.05-.03-.03-.07-.06-.1-.09,0,0,0,0-.01-.01-.03-.03-.05-.05-.08-.08,0,0,0,0,0,0t0,0s-.03-.03-.04-.04c0,0,0,0-.01-.01-.01-.01-.03-.03-.04-.04-.01-.01-.02-.02-.03-.03,0,0-.01-.01-.01-.02-.01-.02-.03-.03-.04-.05-.18-.21-.33-.43-.49-.65-.18-.25-.37-.49-.57-.72-.31-.34-.63-.67-.97-.98-.16-.13-.32-.25-.49-.37-.22-.14-.44-.26-.66-.38-.48-.23-.97-.45-1.47-.63-.41-.14-.82-.25-1.24-.34-.84-.15-1.69-.23-2.54-.3-.53-.03-1.06-.06-1.59-.06-.15,0-.31,0-.46,0Z" class="cls-7"/><g><path d="M159.27,114.39c-.04-.67-.1-1.34-.19-2.01-.31-2.39-.83-4.78-1.73-7.03-.22-.55-.45-1.1-.72-1.63-.27-.54-.59-1.05-.94-1.54-.3-.41-.59-.82-.92-1.21-.04-.04-.07-.09-.11-.13,0-.1,0-.2-.01-.3-.03-.22-.1-.43-.21-.62-.06-.1-.13-.19-.2-.27.07-.27.13-.54.17-.81.09-.62.12-1.24.14-1.87.03-1.07-.07-2.14-.26-3.19-.21-1.19-.43-2.38-.71-3.55-.14-.59-.29-1.18-.46-1.77-.17-.6-.38-1.18-.6-1.77-.41-1.11-.83-2.23-1.36-3.29-.56-1.12-1.12-2.25-1.8-3.3-.36-.56-.74-1.12-1.15-1.64-.38-.49-.79-.97-1.25-1.39-.9-.81-1.9-1.52-2.98-2.07-.56-.29-1.13-.56-1.72-.81-.56-.23-1.13-.43-1.71-.62-.53-.18-1.06-.38-1.61-.52-.32-.08-.64-.13-.96-.21-.12-.43-.25-.85-.41-1.27-.23-.59-.56-1.14-.91-1.66-.65-.96-1.36-1.91-2.2-2.71-.47-.44-.95-.86-1.47-1.25-.48-.36-.97-.71-1.45-1.07-.5-.37-1-.74-1.52-1.08-.53-.36-1.09-.66-1.67-.95-1.03-.51-2.14-.87-3.24-1.17-1.2-.32-2.43-.5-3.68-.53-1.23-.03-2.5,0-3.71.27-.55.12-1.09.28-1.61.48-.49.19-.96.4-1.45.58-.08.03-.17.05-.25.07-.02,0-.04,0-.06,0,0,0-.01,0-.02-.01-.04-.04-.09-.08-.13-.13-.25-.31-.48-.63-.73-.95-.39-.5-.82-.96-1.27-1.39-.43-.41-.89-.8-1.4-1.1-1.1-.65-2.35-1.11-3.6-1.39-1.14-.26-2.32-.32-3.49-.35-1.22-.03-2.45-.03-3.65.2-1.16.22-2.32.49-3.45.86-1.12.37-2.27.67-3.36,1.11-1.04.42-2.07.83-2.99,1.49-.46.33-.91.69-1.32,1.08-.28.27-.55.56-.83.83-.2-.09-.41-.18-.62-.26-.42-.15-.84-.29-1.26-.4-.44-.11-.9-.2-1.35-.24-.41-.03-.84-.07-1.25-.04-.5.03-.99.1-1.48.2-.41.08-.81.19-1.21.3-.83.23-1.66.48-2.51.66-.47.09-.96.17-1.42.32-.53.18-1.05.4-1.52.7-.46.29-.9.61-1.34.93-.38.28-.77.57-1.13.87-.41.34-.81.69-1.2,1.04-.39.35-.77.7-1.12,1.07-.7.74-1.34,1.54-1.97,2.33-.73.92-1.42,1.86-2.01,2.88-.57,1-1.11,2.02-1.53,3.09-.42,1.05-.81,2.11-1.17,3.18-.16.46-.26.93-.35,1.4-.02.11-.03.21-.05.32-.2-.04-.4-.07-.61-.07-.56-.02-1.12.05-1.66.2-.57.16-1.13.35-1.68.58-.56.23-1.13.48-1.67.76-.49.26-.98.52-1.44.82-.29.19-.59.37-.86.59-.23.19-.46.38-.68.58-.4.37-.8.74-1.18,1.14-.38.4-.73.83-1.06,1.27-.76,1.01-1.39,2.12-1.98,3.23-.31.58-.61,1.17-.84,1.79-.24.64-.44,1.3-.59,1.97-.16.67-.29,1.35-.39,2.03-.04.28-.08.56-.11.84-.02.19-.04.38-.05.57-.02.24-.03.48-.03.71-.04,1.2-.08,2.4.06,3.59.16,1.34.46,2.67.93,3.94.39,1.06.76,2.14,1.25,3.15.04.08.07.15.11.22-.17.14-.32.28-.47.44-.44.47-.86.95-1.22,1.48-.2.29-.41.58-.58.89-.17.3-.32.6-.47.91-.24.5-.45,1.01-.66,1.51-.25.59-.51,1.18-.7,1.79-.19.59-.34,1.19-.44,1.8-.19,1.18-.25,2.37-.21,3.56.05,1.26.18,2.56.57,3.76.21.64.43,1.28.67,1.91.23.62.54,1.21.88,1.78.65,1.07,1.35,2.1,2.24,2.99.3.3.63.58.96.85-.05.12-.1.24-.14.37-.24.7-.38,1.41-.48,2.14-.16,1.16-.18,2.34-.18,3.51,0,1.29.23,2.55.5,3.8.26,1.22.54,2.44.93,3.62.41,1.23,1.04,2.37,1.71,3.47.61,1,1.31,1.92,2.08,2.81.45.52.9,1.02,1.42,1.48.42.37.88.71,1.33,1.05.48.35.96.72,1.48,1,.51.28,1.04.52,1.59.72.29.11.58.22.87.34.03.33.09.65.16.98.06.29.15.57.24.84.09.29.18.59.27.89.1.34.21.68.33,1.01.13.36.31.7.49,1.03.31.55.66,1.07.99,1.6.33.52.67,1.05,1.07,1.52.38.45.78.88,1.22,1.28.46.42.96.8,1.44,1.2.48.39.97.78,1.49,1.12.49.32,1,.59,1.53.83.49.23,1.01.4,1.51.59.56.21,1.12.43,1.68.62.58.19,1.16.34,1.75.48,1.11.26,2.22.56,3.36.66.59.05,1.18.07,1.77.08.61,0,1.21.01,1.81-.06.58-.07,1.16-.15,1.75-.21.51-.05,1.01-.12,1.51-.22.22-.04.43-.08.65-.12.14.43.48.78.89.96.2.08.4.12.61.12.03,0,.05,0,.08,0,.27.3.57.57.88.82.42.35.87.67,1.35.93.53.28,1.1.44,1.66.63.65.23,1.3.45,1.98.57.68.12,1.37.2,2.06.29.65.09,1.31.13,1.96.17.56.03,1.12.07,1.68.09.93.04,1.87.04,2.8.07.33,0,.66.02.99.02.15,0,.3,0,.46-.01.58-.03,1.16-.09,1.73-.2.62-.12,1.22-.28,1.8-.53.43-.18.86-.37,1.28-.58.49-.24.95-.52,1.41-.79.29-.17.59-.33.89-.48.16-.08.32-.15.48-.21.05-.01.1-.03.14-.04.05,0,.1-.01.14-.02,0,0,0,0,.01,0,.1.07.21.14.32.19.39.21.78.38,1.2.52.48.16.97.26,1.47.33.49.07,1.01.11,1.51.09.52-.02,1.04-.09,1.56-.18.52-.09,1.05-.17,1.56-.29.95-.23,1.89-.56,2.79-.92.52-.21,1.04-.43,1.56-.64.54-.22,1.08-.43,1.62-.65,1.06-.45,2.1-.94,3.15-1.41.54-.25,1.09-.5,1.6-.79.52-.3,1.03-.61,1.53-.95.99-.66,1.92-1.4,2.84-2.16.48-.39.94-.79,1.39-1.22.45-.43.86-.89,1.26-1.36.36-.42.68-.87.98-1.34.32-.5.58-1.06.82-1.6.22-.48.43-.97.62-1.46.16-.42.33-.85.43-1.29.1-.44.14-.86.14-1.31,0-.04,0-.08,0-.12.25-.08.49-.18.73-.28.38-.16.75-.34,1.11-.54.38-.21.74-.47,1.08-.74.57-.44,1.11-.91,1.68-1.35.3-.23.62-.45.92-.69.31-.25.61-.52.9-.79.83-.81,1.6-1.67,2.29-2.59.36-.48.72-.96,1.09-1.44.39-.52.79-1.04,1.12-1.61.61-1.07,1.11-2.18,1.6-3.31.49-1.12.96-2.24,1.34-3.4.18-.53.32-1.07.49-1.61.18-.57.36-1.14.52-1.72.32-1.14.56-2.31.66-3.49.05-.63.08-1.28.06-1.92-.02-.69-.09-1.4-.28-2.07-.16-.57-.37-1.13-.6-1.67-.02-.05-.05-.11-.07-.16.07-.08.14-.17.21-.25.42-.54.79-1.12,1.08-1.74.26-.56.43-1.16.59-1.75.16-.56.34-1.12.5-1.68.17-.6.29-1.21.39-1.83.19-1.21.31-2.44.36-3.66.02-.59.05-1.18.01-1.77ZM136.75,75.86c.06-.07.12-.15.18-.22.17.03.34.05.51.06.32.03.63.06.94.12.52.13,1.03.32,1.54.5.59.21,1.15.46,1.71.73.52.27,1.04.55,1.53.87.42.29.83.6,1.22.93.28.27.55.54.82.83.38.46.74.94,1.08,1.43.6.91,1.13,1.86,1.63,2.83.24.49.49.98.69,1.49.22.52.41,1.05.6,1.58.21.6.41,1.2.59,1.81.18.62.32,1.26.46,1.9.16.78.29,1.56.43,2.34.14.81.27,1.62.35,2.44.03.63.03,1.25,0,1.88-.03.31-.06.61-.11.91-.1.42-.23.82-.32,1.24,0,.04-.01.07-.02.11-.09.02-.18.05-.28.07-1.01.29-2.01.61-3,.95-.42.14-.84.27-1.27.39-.42.11-.84.21-1.26.32-.89.24-1.78.47-2.67.68-.85.2-1.71.42-2.56.65-.86.22-1.72.46-2.59.65-.53.1-1.05.2-1.58.31-.51.11-1.01.26-1.5.4-.97.28-1.96.52-2.92.84-.47.15-.93.32-1.41.45-.51.15-1.02.28-1.52.42-.94.26-1.89.5-2.84.74-.98.25-1.94.58-2.9.89-1,.33-1.98.7-2.97,1.05-.85.29-1.69.58-2.52.92-.86.35-1.71.72-2.57,1.06-.86.34-1.73.63-2.59.95-.85.32-1.7.65-2.55.96-.61.21-1.22.41-1.82.65-.17.07-.34.14-.51.21.73-.9,1.45-1.8,2.18-2.69.57-.69,1.16-1.38,1.73-2.07.55-.66,1.08-1.34,1.6-2.02.54-.7,1.08-1.4,1.63-2.09.55-.68,1.12-1.35,1.68-2.02,1.13-1.35,2.26-2.7,3.35-4.09.54-.69,1.08-1.38,1.63-2.06.53-.65,1.05-1.31,1.56-1.99.51-.68.99-1.38,1.47-2.07.49-.7.98-1.4,1.49-2.08.51-.69,1.03-1.38,1.53-2.08.5-.7,1.02-1.39,1.58-2.05.57-.64,1.16-1.27,1.71-1.93.52-.63,1.02-1.27,1.55-1.89.58-.64,1.18-1.25,1.74-1.9.52-.6,1.01-1.22,1.53-1.82.49-.55.97-1.1,1.42-1.69.2-.27.42-.53.63-.79ZM113.33,70.13c.19-.69.38-1.37.51-2.07.13-.69.24-1.39.37-2.08.07-.32.14-.64.2-.96,0-.01,0-.02,0-.03.31-.11.61-.27.92-.4.52-.22,1.04-.43,1.57-.63.36-.12.72-.22,1.09-.31.42-.08.83-.14,1.26-.18.77-.05,1.53-.05,2.3,0,.53.05,1.06.12,1.59.22.51.11,1.01.26,1.51.42.73.26,1.44.54,2.13.88.5.27.98.55,1.45.86.61.43,1.19.89,1.77,1.36.59.47,1.19.92,1.77,1.41.37.33.72.67,1.05,1.04.4.47.76.96,1.11,1.46.2.3.39.61.56.93.1.2.18.4.27.61.02.07.04.15.07.22-.01.01-.03.02-.04.04-.1.1-.2.2-.3.3-.21.21-.41.43-.63.64-.58.58-1.18,1.13-1.77,1.71-.58.56-1.11,1.16-1.68,1.74-.6.61-1.23,1.19-1.82,1.81-.6.63-1.17,1.3-1.75,1.96-.5.56-1.02,1.11-1.53,1.66-.64.7-1.25,1.43-1.81,2.21-.49.68-.98,1.36-1.49,2.03-.53.7-1.05,1.42-1.56,2.13-.49.7-.96,1.41-1.43,2.12-1.2,1.76-2.45,3.5-3.74,5.2-1.06,1.4-2.15,2.77-3.25,4.13-.55.67-1.09,1.35-1.61,2.05-.54.73-1.08,1.46-1.62,2.19-1.03,1.39-2.15,2.71-3.23,4.07-.88,1.11-1.75,2.23-2.65,3.33.22-.96.46-1.91.69-2.87.25-1.04.49-2.09.77-3.13.55-2.08,1.02-4.18,1.6-6.25.3-1.07.61-2.13.93-3.19.33-1.09.62-2.19.91-3.29.28-1.07.58-2.14.87-3.21.29-1.07.57-2.14.85-3.21.28-1.06.53-2.14.79-3.21.27-1.1.55-2.19.8-3.29.25-1.13.48-2.26.68-3.4.18-1.06.36-2.12.58-3.17,0,0,0,0,0,0,.13-.63.26-1.26.4-1.89.14-.66.31-1.31.5-1.96ZM89.58,64.28c.27-.26.54-.52.81-.77.32-.27.65-.52.99-.76.29-.19.58-.36.89-.53.74-.35,1.5-.64,2.27-.92.81-.27,1.63-.49,2.44-.74.83-.26,1.67-.45,2.52-.63.63-.12,1.26-.22,1.9-.28.69-.02,1.37,0,2.05.05.85.07,1.7.15,2.54.3.42.09.83.2,1.24.34.5.19.99.4,1.47.63.23.12.45.25.66.38.17.12.33.24.49.37.34.31.66.64.97.98.2.23.39.47.57.72.16.22.32.44.49.65.24.28.53.56.85.75-.17.43-.34.87-.48,1.31-.3.89-.54,1.79-.84,2.68-.23.66-.48,1.32-.68,1.99-.2.66-.37,1.32-.53,1.99-.16.68-.34,1.35-.48,2.03-.15.73-.3,1.46-.45,2.19,0,0,0,0,0,0,0,0,0,0,0,0,0,0,0,0,0,.01,0,0,0,0,0,0,0,0,0,0,0,.01,0,0,0,0,0,0,0,.02-.01.05-.02.07,0-.03.01-.06.02-.08,0,0,0,0,0,0,0,.03-.01.07-.02.1,0,0,0,.01,0,.02,0,0,0,0,0,0,0,.04-.02.09-.03.13,0,.04-.02.08-.03.13-.19.87-.38,1.74-.59,2.61-.23.92-.48,1.84-.72,2.76-.24.94-.47,1.89-.72,2.83-.24.86-.48,1.72-.71,2.58-.3,1.07-.6,2.15-.91,3.22-.32,1.1-.62,2.21-.94,3.32-.3,1.05-.66,2.07-.99,3.11-.32,1.01-.64,2.02-.93,3.05-.31,1.08-.6,2.17-.89,3.26-.27,1-.57,2-.82,3-.14.56-.27,1.12-.41,1.68-.13.51-.26,1.02-.39,1.53-.04.18-.09.36-.13.53-.21-.8-.43-1.59-.66-2.38-.16-.53-.31-1.05-.46-1.58-.15-.53-.27-1.07-.39-1.61,0,.01,0,.03,0,.04-.03-.16-.07-.33-.1-.49-.05-.24-.09-.48-.14-.72-.43-2.26-.88-4.51-1.42-6.74-.52-2.13-1.04-4.26-1.49-6.41-.23-1.19-.44-2.38-.69-3.56-.22-1.04-.48-2.07-.69-3.11-.34-1.76-.61-3.53-.94-5.29-.18-.95-.37-1.89-.57-2.84-.18-.81-.38-1.61-.55-2.42-.17-.87-.28-1.75-.46-2.62-.19-.95-.44-1.88-.71-2.81-.24-.82-.49-1.64-.8-2.44-.15-.39-.33-.77-.51-1.14-.04-.09-.09-.18-.13-.27.08-.08.15-.16.22-.23ZM65.74,82.14c.01-.1.02-.2.02-.3.03-.33.1-.66.16-.99.08-.36.2-.72.32-1.07.42-1.19.89-2.36,1.44-3.5.49-.96,1.02-1.91,1.61-2.81.85-1.22,1.81-2.36,2.78-3.48.52-.57,1.09-1.09,1.66-1.61.87-.76,1.79-1.47,2.72-2.14.27-.18.53-.34.82-.49.16-.07.31-.14.47-.2.4-.13.81-.22,1.22-.33.47-.12.93-.24,1.39-.38.81-.24,1.61-.49,2.43-.67.29-.05.58-.09.87-.12.28,0,.56,0,.83.01.3.02.59.06.88.11.39.09.77.2,1.15.33.05.02.1.04.15.06,0,.18.03.37.06.55.03.18.06.37.09.55.06.37.14.74.22,1.11.14.71.24,1.43.36,2.14.14.83.33,1.64.5,2.46.14.7.26,1.41.39,2.11.15.8.34,1.58.55,2.37.36,1.37.69,2.76.98,4.15.2,1,.4,2,.6,3,.23,1.09.47,2.18.75,3.25.27,1.05.55,2.09.79,3.15.24,1.09.48,2.18.76,3.26.28,1.09.58,2.17.88,3.24.29,1.03.61,2.05.88,3.09.29,1.1.57,2.21.83,3.32.26,1.11.48,2.22.72,3.33.24,1.1.52,2.2.83,3.28.52,1.81.92,3.65,1.4,5.46-.14-.15-.29-.3-.43-.45-.59-.59-1.22-1.12-1.85-1.66-.34-.31-.66-.62-.97-.96-.34-.37-.66-.74-1-1.11-.65-.71-1.37-1.35-2.04-2.03-.56-.56-1.1-1.15-1.67-1.69-.59-.56-1.19-1.1-1.74-1.69-.56-.61-1.1-1.22-1.69-1.8-.29-.28-.58-.56-.85-.85-.28-.29-.55-.59-.82-.9-.53-.6-1.06-1.19-1.64-1.74-.53-.5-1.09-.98-1.61-1.5-1.11-1.1-2.16-2.24-3.25-3.35-.57-.58-1.16-1.13-1.75-1.69-.58-.55-1.13-1.12-1.66-1.71-.54-.61-1.11-1.19-1.67-1.78-.54-.57-1.05-1.17-1.59-1.74-.53-.57-1.07-1.14-1.62-1.69-.59-.6-1.22-1.16-1.88-1.68-.62-.48-1.23-.97-1.82-1.47-.29-.24-.57-.48-.88-.69-.03-.02-.06-.04-.09-.06,0-.01,0-.02,0-.03ZM53.05,98.99c0-.54,0-1.07.04-1.61.07-.74.18-1.47.31-2.2.13-.59.27-1.17.46-1.74.21-.52.44-1.02.68-1.52.55-1.06,1.14-2.09,1.8-3.08.31-.44.63-.87.97-1.28.33-.37.67-.72,1.04-1.06.45-.38.91-.73,1.39-1.07.72-.47,1.46-.91,2.22-1.31.25-.12.49-.23.74-.33.14-.04.28-.09.42-.12.25-.04.49-.07.74-.09.06.1.13.2.2.29.21.27.42.53.64.79.46.57.94,1.12,1.45,1.65.48.49.98.95,1.45,1.45.48.51.95,1.02,1.43,1.53.55.57,1.1,1.14,1.65,1.71.56.59,1.16,1.15,1.74,1.73.56.55,1.08,1.15,1.64,1.71.58.58,1.19,1.12,1.78,1.69,1.18,1.12,2.28,2.32,3.41,3.49.57.59,1.17,1.15,1.77,1.71.28.26.57.52.84.79.26.26.51.54.76.81.43.49.85.98,1.31,1.44.45.45.91.88,1.35,1.34.57.6,1.11,1.24,1.7,1.83.57.58,1.19,1.11,1.76,1.69.57.57,1.11,1.17,1.68,1.74.28.28.57.56.85.84.29.3.57.6.85.91.18.21.37.42.55.62-.04-.05-.09-.1-.13-.15.38.43.76.84,1.18,1.22.07.06.14.12.22.19-.45-.06-.9-.11-1.35-.17-.46-.06-.92-.13-1.37-.2-.46-.07-.92-.13-1.38-.21-.49-.11-.98-.24-1.47-.36-.58-.14-1.17-.24-1.76-.36-.02,0-.03,0-.05-.01,0,0,0,0,0,0-.67-.14-1.33-.28-2.01-.37-.65-.08-1.29-.18-1.94-.28-.72-.11-1.44-.19-2.15-.32-.68-.12-1.35-.23-2.04-.3-.48-.05-.95-.11-1.43-.18-.51-.08-1.02-.16-1.54-.22-.49-.06-.98-.1-1.47-.18-.52-.08-1.03-.17-1.55-.26-.98-.16-1.95-.32-2.94-.42-.5-.05-1.01-.08-1.51-.14-.49-.06-.97-.16-1.45-.26.09.02.17.03.25.05-1.09-.22-2.2-.41-3.29-.63-.79-.16-1.59-.32-2.39-.48-.68-.13-1.36-.25-2.04-.38-.4-.08-.8-.17-1.21-.23-.38-.05-.76-.09-1.14-.13-.27-.03-.53-.04-.8-.04-.09-.11-.19-.22-.3-.31-.12-.15-.24-.31-.35-.47-.14-.22-.27-.44-.4-.67-.45-.94-.79-1.94-1.14-2.92-.17-.53-.31-1.06-.43-1.6-.12-.63-.2-1.27-.26-1.91-.03-.55-.03-1.11-.02-1.66ZM53.35,128.89c-.2-.24-.39-.48-.57-.73-.36-.56-.71-1.13-1.02-1.72-.1-.22-.2-.45-.28-.68-.23-.7-.45-1.41-.62-2.13-.11-.63-.18-1.28-.24-1.92-.04-.69-.04-1.37,0-2.06.04-.55.11-1.09.21-1.63.08-.32.17-.64.27-.96.33-.89.71-1.78,1.13-2.64.13-.24.27-.48.42-.71.2-.28.41-.55.63-.81.15-.16.3-.32.46-.47.04-.03.09-.06.13-.1.07-.05.15-.09.22-.13.09-.04.18-.08.27-.12,0,0,.01,0,.02,0,.24-.02.48-.06.71-.16.05.02.09.04.14.06.33.13.67.25,1.01.34.31.08.61.14.92.2.37.08.73.18,1.1.26.45.1.9.19,1.35.27.81.15,1.62.31,2.43.47-.09-.02-.17-.04-.26-.05.07.01.14.03.21.04,0,0,0,0,0,0,.12.02.24.05.36.07.58.12,1.16.24,1.75.33.56.09,1.11.17,1.67.27.54.09,1.09.2,1.63.25.56.06,1.11.09,1.67.12,1.09.08,2.17.23,3.25.39.59.09,1.18.19,1.77.25.61.06,1.22.11,1.83.2.48.07.97.15,1.45.21.49.05.97.09,1.46.16.5.07.99.17,1.48.24.52.08,1.05.14,1.57.22.49.07.97.15,1.46.2.47.05.95.09,1.42.15.46.07.93.15,1.39.22.43.07.87.13,1.3.2.74.16,1.48.34,2.23.43.73.09,1.46.16,2.18.25.75.09,1.5.18,2.24.29.31.05.61.09.92.13-.43.19-.86.38-1.28.57-.9.4-1.79.84-2.71,1.19-.91.35-1.82.67-2.73,1.01-1,.37-1.99.76-2.98,1.16-.94.38-1.87.78-2.81,1.14-.89.34-1.79.66-2.69.98-.89.31-1.8.58-2.71.84-.95.27-1.91.5-2.87.73-.91.22-1.83.44-2.75.64-.44.09-.87.18-1.3.32-.46.14-.9.31-1.35.48-.47.16-.95.29-1.43.44-.47.14-.93.3-1.39.46-.53.18-1.07.31-1.62.45-.55.14-1.08.31-1.62.49-.56.18-1.13.35-1.68.55-.52.19-1.01.43-1.53.62-.6.19-1.21.36-1.81.54-.29.09-.58.15-.87.21-.26.05-.51.12-.76.17-.13.02-.26.04-.4.06-.05,0-.1,0-.15,0-.13-.21-.29-.41-.48-.58-.6-.55-1.2-1.1-1.74-1.7ZM64.65,154.01c-.09.14-.17.28-.26.42-.13-.07-.26-.15-.39-.22-.46-.25-.94-.48-1.42-.71-.36-.19-.7-.39-1.04-.61-.61-.43-1.2-.87-1.77-1.34-.32-.29-.62-.6-.91-.92-.56-.65-1.11-1.31-1.6-2.01-.46-.69-.87-1.41-1.26-2.15-.18-.38-.35-.77-.49-1.17-.33-1.05-.57-2.12-.8-3.2-.16-.81-.31-1.62-.38-2.45-.03-.67,0-1.34.04-2.01.05-.68.12-1.35.25-2.03.07-.29.14-.58.23-.87.09-.23.18-.45.29-.67.1-.18.2-.36.3-.54.06-.09.11-.19.17-.28,0-.02.02-.03.02-.05.09,0,.18,0,.26,0,.04,0,.09,0,.13,0,.35-.01.69-.08,1.03-.14.35-.06.7-.12,1.05-.2.34-.08.67-.2,1-.31.38-.12.75-.24,1.12-.38.71-.26,1.38-.62,2.09-.88.34-.12.68-.23,1.01-.34.39-.13.78-.27,1.18-.38.38-.1.76-.19,1.15-.28.38-.09.75-.21,1.12-.33.4-.13.8-.25,1.2-.35.4-.1.8-.2,1.19-.31.39-.11.77-.25,1.16-.37.34-.1.68-.19,1.03-.27,1.21-.23,2.42-.46,3.62-.7,0,0,0,0,0,0,.11-.02.23-.05.34-.07,0,0,0,0,0,0,.02,0,.03,0,.04,0,.03,0,.06-.01.08-.02.92-.19,1.83-.4,2.74-.64.91-.24,1.82-.48,2.72-.76.85-.26,1.71-.52,2.56-.79.89-.28,1.77-.59,2.66-.9,1.27-.43,2.54-.85,3.81-1.26.94-.3,1.89-.58,2.82-.92.51-.19,1.02-.39,1.53-.59-.36.43-.73.86-1.1,1.28-.31.35-.62.7-.93,1.05-1.19,1.32-2.36,2.65-3.56,3.96-.59.65-1.18,1.3-1.79,1.92-.62.63-1.25,1.24-1.88,1.85-1.3,1.23-2.56,2.5-3.84,3.75-.6.59-1.21,1.19-1.78,1.82-.62.68-1.23,1.36-1.83,2.05-.05.05-.1.11-.14.16-.02.02-.03.03-.05.05-.15.17-.29.33-.44.5.04-.05.09-.1.13-.15-.14.16-.28.32-.42.48.04-.05.09-.1.13-.15-.4.46-.8.91-1.21,1.36-.92,1.05-1.81,2.12-2.73,3.17-.98,1.1-2.01,2.15-3.03,3.22-1.13,1.2-2.29,2.37-3.44,3.55-.63.65-1.23,1.35-1.72,2.11ZM90.55,160.09c-.23,1.1-.44,2.2-.66,3.31-.14.68-.31,1.35-.49,2.01-.17.64-.34,1.28-.54,1.9-.1.29-.21.58-.31.87-.2.01-.41.03-.61.05-.7.08-1.38.25-2.08.34-.47.06-.94.09-1.41.16-.44.06-.87.13-1.31.17-.75.04-1.51.02-2.26-.02-.53-.05-1.06-.13-1.59-.23-1.1-.23-2.2-.47-3.27-.83-.54-.2-1.08-.42-1.62-.63-.46-.18-.91-.38-1.36-.59-.24-.13-.47-.27-.71-.41-.45-.32-.87-.66-1.29-1.01-.38-.32-.76-.64-1.14-.97-.34-.31-.66-.63-.97-.96-.24-.29-.46-.58-.68-.88-.26-.4-.52-.81-.77-1.21-.23-.37-.46-.73-.67-1.11-.07-.16-.14-.32-.2-.48-.13-.38-.24-.77-.36-1.15-.12-.39-.26-.78-.35-1.18-.04-.25-.08-.5-.11-.76,0-.08-.02-.15-.02-.23.02-.02.04-.05.06-.07.31-.37.61-.74.93-1.11.6-.66,1.27-1.25,1.92-1.85,1.2-1.1,2.38-2.23,3.58-3.34.62-.58,1.24-1.15,1.84-1.75.58-.58,1.14-1.18,1.68-1.79,1.13-1.27,2.27-2.51,3.43-3.76,1.19-1.29,2.34-2.61,3.58-3.85,1.26-1.26,2.54-2.51,3.83-3.74.62-.59,1.24-1.16,1.85-1.76.62-.62,1.23-1.25,1.82-1.89,1.2-1.31,2.38-2.63,3.57-3.93.57-.63,1.15-1.25,1.72-1.88.48-.54.95-1.08,1.43-1.62-.2.95-.41,1.9-.6,2.85-.03.13-.05.25-.08.38,0-.01,0-.03,0-.04-.48,2.33-.94,4.67-1.31,7.02-.17,1.09-.31,2.19-.51,3.28-.2,1.09-.42,2.18-.63,3.27-.41,2.17-.78,4.35-1.16,6.53-.19,1.11-.38,2.22-.56,3.33-.17,1.1-.33,2.2-.51,3.3-.17,1.06-.37,2.12-.56,3.17-.18,1.04-.35,2.07-.56,3.1ZM110.39,170.77c-.58.39-1.16.77-1.78,1.09-.49.24-.99.49-1.51.68-.28.09-.57.16-.87.23-.36.07-.72.13-1.08.16-.52.03-1.05.02-1.57.01-.23,0-.45,0-.68,0-.06,0-.12,0-.18,0-.78,0-1.55-.02-2.33-.06-.43-.03-.86-.06-1.29-.08-.51-.04-1.02-.1-1.53-.17-.64-.09-1.29-.17-1.92-.29-.3-.07-.59-.15-.87-.25.06.02.12.04.18.06-.52-.18-1.04-.35-1.55-.53-.14-.05-.27-.1-.41-.16-.2-.11-.4-.23-.6-.36-.26-.18-.52-.36-.76-.57-.07-.06-.14-.13-.2-.2-.08-.09-.15-.19-.22-.29.04-.16.08-.32.12-.47.19-.75.44-1.49.65-2.24.23-.83.48-1.66.69-2.49.21-.84.37-1.69.54-2.54.15-.72.31-1.45.46-2.17.14-.69.26-1.38.38-2.07.24-1.36.49-2.72.71-4.08.18-1.1.33-2.2.5-3.3.17-1.11.36-2.22.55-3.33.18-1.06.35-2.13.54-3.18.2-1.12.41-2.23.62-3.35.21-1.06.43-2.11.62-3.18.2-1.13.36-2.26.53-3.39.34-2.15.78-4.28,1.21-6.41.15-.73.3-1.46.46-2.19.21-.94.41-1.88.62-2.82.2.76.41,1.52.61,2.28.29,1.07.59,2.13.84,3.21.26,1.09.49,2.19.74,3.28.23,1.03.48,2.06.69,3.09.25,1.25.44,2.51.69,3.75.22,1.12.48,2.23.71,3.34.22,1.04.43,2.08.67,3.12.24,1.07.48,2.14.72,3.21.25,1.1.51,2.19.76,3.28.48,2.14,1.01,4.26,1.47,6.4.44,2.06,1.03,4.09,1.47,6.16.13.66.24,1.33.37,1.99.12.67.28,1.33.45,1.98.16.61.3,1.23.47,1.84.04.16.09.32.13.49-.28.16-.55.34-.82.52ZM138.19,156.03c-.03.32-.08.63-.14.94-.07.33-.18.66-.29.98-.27.75-.58,1.48-.92,2.2-.16.3-.33.58-.51.87-.28.39-.57.76-.88,1.13-.36.39-.73.76-1.12,1.12-.48.42-.97.83-1.47,1.23-.49.4-1,.77-1.52,1.13-.62.41-1.25.78-1.9,1.12-.64.31-1.3.58-1.95.88-.7.31-1.4.63-2.1.93-.7.29-1.42.56-2.12.86-.65.27-1.29.54-1.96.78-.56.19-1.12.36-1.7.48-.61.12-1.23.23-1.85.3-.18,0-.37,0-.55,0-.28-.02-.56-.06-.84-.11-.21-.05-.42-.1-.62-.17-.13-.05-.26-.11-.39-.17-.07-.04-.14-.08-.21-.12-.01,0-.03-.02-.04-.03-.19-.18-.36-.37-.59-.5-.3-.17-.64-.28-.99-.3,0-.03-.02-.07-.03-.1-.12-.43-.24-.85-.33-1.29-.17-.79-.38-1.58-.55-2.37-.12-.64-.23-1.29-.35-1.93-.13-.67-.27-1.35-.42-2.02-.28-1.26-.58-2.52-.85-3.79-.21-1.07-.39-2.14-.61-3.2-.22-1.06-.46-2.11-.68-3.17-.08-.4-.16-.8-.25-1.2-.22-1.07-.49-2.13-.73-3.19-.26-1.11-.51-2.22-.76-3.33-.23-1.01-.45-2.01-.67-3.02-.23-1.08-.49-2.15-.72-3.23-.22-1.09-.4-2.2-.63-3.29-.23-1.1-.5-2.19-.77-3.28-.25-1.04-.49-2.09-.73-3.14-.26-1.07-.53-2.14-.81-3.21-.05-.21-.11-.42-.16-.63.09.09.18.18.28.27.55.52,1.11,1.03,1.66,1.54.59.54,1.17,1.1,1.75,1.64,1.12,1.03,2.27,2.03,3.33,3.12.54.56,1.05,1.14,1.6,1.69.52.52,1.08,1,1.63,1.48.91.82,1.8,1.66,2.71,2.47.88.78,1.77,1.54,2.66,2.31.56.5,1.11,1.02,1.67,1.52.6.53,1.2,1.06,1.81,1.58,1.16.99,2.3,1.99,3.45,2.98.61.52,1.23,1.02,1.84,1.53.6.5,1.2.98,1.83,1.43,1.22.88,2.39,1.84,3.53,2.83.52.47,1.05.94,1.6,1.38.44.36.9.69,1.33,1.06.56.51,1.12,1.03,1.7,1.52.07.06.15.12.23.18-.05.25-.05.51,0,.76.03.14.06.27.1.4,0,.05,0,.09,0,.14ZM153.4,132.42c-.05.53-.12,1.04-.22,1.56-.19.85-.43,1.69-.69,2.53-.25.79-.49,1.58-.76,2.37-.31.86-.67,1.71-1.03,2.55-.36.85-.73,1.69-1.13,2.52-.2.39-.42.78-.66,1.15-.4.58-.83,1.14-1.25,1.71-.4.53-.79,1.06-1.22,1.56-.46.51-.93,1.01-1.44,1.47-.54.46-1.12.88-1.67,1.34-.54.45-1.08.92-1.66,1.34-.11.07-.22.13-.33.19-.03-.01-.05-.03-.08-.04-.1-.06-.2-.12-.3-.18-.29-.21-.58-.43-.85-.66-.54-.49-1.05-1-1.59-1.49-.59-.55-1.23-1.05-1.85-1.58-.51-.45-1.01-.92-1.53-1.36-.52-.44-1.04-.88-1.57-1.31-1.03-.85-2.15-1.59-3.19-2.44-.62-.51-1.25-1.01-1.87-1.52-.59-.48-1.17-.98-1.75-1.47-1.14-.96-2.28-1.93-3.4-2.91-.06-.05-.12-.11-.18-.16-.75-.66-1.48-1.35-2.23-2.01-.66-.57-1.32-1.14-1.98-1.71-.65-.58-1.29-1.17-1.94-1.76-.64-.57-1.28-1.12-1.93-1.68-.3-.27-.61-.54-.89-.83-.33-.33-.65-.66-.98-.99-.74-.75-1.52-1.46-2.31-2.15.06.05.11.1.17.15-1.33-1.17-2.64-2.38-3.97-3.55-.29-.26-.58-.51-.87-.77-.61-.55-1.19-1.13-1.77-1.72-.23-.24-.47-.47-.71-.7.59.14,1.17.28,1.76.41,1.04.23,2.09.42,3.15.61.98.18,1.97.35,2.96.51.49.08.99.14,1.49.22.49.08.98.18,1.47.27.96.19,1.93.27,2.9.44.58.12,1.15.26,1.74.36.55.09,1.11.15,1.66.25.63.15,1.26.33,1.9.45.52.1,1.04.16,1.56.26.44.1.88.22,1.32.33.49.12.99.23,1.49.34.47.11.93.24,1.4.35.42.1.85.19,1.28.27.52.11,1.04.25,1.56.39.49.14.98.24,1.47.34.72.16,1.43.37,2.16.51.64.12,1.29.2,1.93.32.5.1.99.2,1.49.28.43.07.86.13,1.29.21.88.15,1.77.32,2.65.47.46.08.93.16,1.4.23.44.06.89.1,1.33.15.45.05.89.12,1.34.16.47.05.94.08,1.41.1.54.04,1.07.1,1.61.14.6.04,1.19.1,1.79.14-.06,0-.13,0-.19-.01.55.04,1.1.09,1.65.16.04.06.07.13.11.19.13.26.24.53.34.8.06.18.11.36.15.54.05.26.08.52.1.78.01.53,0,1.05-.03,1.57ZM155.67,116.52c-.08,1.09-.2,2.17-.4,3.24-.13.61-.31,1.2-.49,1.8-.18.58-.32,1.16-.51,1.73-.04.11-.09.21-.13.31-.12.23-.25.45-.39.67-.07.1-.15.2-.23.3-.08.08-.15.16-.23.24-.03.02-.06.05-.09.07-.13.08-.27.17-.4.26-.15.1-.29.25-.41.4-.09,0-.17,0-.26,0-.31,0-.61-.01-.92-.03-.28-.02-.56-.05-.84-.07-.33-.03-.66-.04-.99-.08-.33-.03-.67-.07-1-.1-.41-.03-.81-.04-1.22-.07-.71-.06-1.41-.14-2.12-.19-.73-.05-1.45-.13-2.17-.23-1.44-.21-2.88-.46-4.31-.73-.45-.1-.9-.21-1.35-.32-.48-.11-.98-.18-1.46-.27-.4-.09-.8-.19-1.2-.3-.46-.13-.93-.24-1.4-.34-.45-.1-.89-.23-1.33-.36-.47-.14-.94-.26-1.43-.37-.44-.1-.89-.19-1.33-.31-.49-.13-.97-.25-1.47-.36-.49-.11-.99-.22-1.47-.34-.5-.13-1-.26-1.5-.34-.46-.08-.93-.14-1.39-.22-.65-.14-1.28-.32-1.93-.45-.67-.13-1.34-.19-2.01-.32-.66-.15-1.31-.31-1.98-.42-.57-.1-1.14-.17-1.71-.27-.7-.15-1.4-.33-2.1-.46-.67-.12-1.33-.24-2-.37-.79-.16-1.58-.34-2.37-.52-.75-.17-1.49-.34-2.23-.53.74-.31,1.49-.62,2.25-.9.89-.31,1.79-.61,2.68-.94.91-.34,1.82-.67,2.74-.99.87-.31,1.74-.64,2.59-.99.82-.34,1.64-.68,2.48-.97.58-.2,1.15-.4,1.73-.61.51-.19,1.01-.38,1.52-.56.67-.23,1.34-.46,2.01-.7.34-.12.69-.23,1.04-.33.95-.27,1.9-.54,2.85-.82.5-.15,1-.29,1.49-.44.49-.15.97-.31,1.45-.48.95-.32,1.92-.57,2.88-.86.48-.14.95-.29,1.43-.41.49-.12.98-.21,1.46-.32.97-.21,1.91-.49,2.87-.74.95-.26,1.9-.51,2.85-.75.94-.24,1.87-.51,2.8-.77.46-.12.92-.23,1.38-.37.48-.15.95-.31,1.42-.48.76-.26,1.53-.49,2.3-.72.29-.09.59-.17.88-.25.11.1.21.21.31.32.31.37.59.75.86,1.14.13.2.25.41.37.62.18.39.33.78.48,1.19.23.67.44,1.34.62,2.03.18.71.35,1.42.5,2.14.25,1.29.43,2.59.55,3.9.04.81.02,1.61-.03,2.42Z" class="cls-1"/><polygon points="109.29 77.02 109.29 77.02 109.29 77.02 109.29 77.02" class="cls-1"/><path d="M62.41,113.61s-.06-.01-.09-.02c0,0,.01,0,.02,0,.02,0,.05,0,.07.01Z" class="cls-1"/><path d="M75.45,127.87s-.01,0-.02,0c0,0-.01,0-.02,0,.01,0,.02,0,.04,0Z" class="cls-1"/><path d="M77.24,140.06s.08-.09.12-.14c0,0,0,0,0-.01-.04.05-.09.1-.13.15Z" class="cls-1"/><path d="M75.44,142.09s.08-.09.12-.14c0,0,0,0,0-.01-.04.05-.09.1-.13.15Z" class="cls-1"/></g><g><path d="M155.7,114.11c-.11-1.31-.3-2.61-.55-3.9-.15-.72-.32-1.43-.5-2.14-.18-.69-.39-1.36-.62-2.03-.14-.4-.3-.8-.48-1.19-.11-.21-.24-.42-.37-.62-.27-.39-.55-.78-.86-1.14-.1-.11-.21-.21-.31-.32-.3.08-.59.16-.88.25-.77.23-1.54.47-2.3.72-.47.17-.95.33-1.42.48-.45.14-.92.25-1.38.37-.93.25-1.86.53-2.8.77-.95.24-1.9.49-2.85.75-.95.26-1.9.53-2.87.74-.49.11-.98.2-1.46.32-.48.12-.96.27-1.43.41-.96.29-1.93.54-2.88.86-.48.16-.96.33-1.45.48-.5.15-1,.29-1.49.44-.95.29-1.89.56-2.85.82-.35.1-.69.21-1.04.33-.67.24-1.34.47-2.01.7-.51.18-1.02.37-1.52.56-.57.21-1.15.41-1.73.61-.84.3-1.66.63-2.48.97-.85.36-1.72.68-2.59.99-.91.33-1.83.65-2.74.99-.89.33-1.78.63-2.68.94-.76.28-1.51.59-2.25.9.74.19,1.49.36,2.23.53.79.18,1.58.35,2.37.52.66.13,1.33.25,2,.37.71.13,1.4.31,2.1.46.57.1,1.14.18,1.7.27.67.11,1.32.27,1.98.42.67.12,1.34.19,2.01.32.65.12,1.29.31,1.93.45.46.08.93.14,1.39.22.51.09,1.01.21,1.5.34.49.13.98.23,1.47.34.49.11.98.23,1.47.36.44.12.88.21,1.33.31.48.11.95.23,1.43.37.44.13.88.26,1.33.36.47.1.94.2,1.4.34.4.11.8.22,1.2.3.49.09.98.16,1.46.27.45.1.9.22,1.35.32,1.43.28,2.87.52,4.31.73.72.11,1.44.18,2.17.23.71.05,1.41.14,2.12.19.41.02.81.04,1.22.07.34.03.67.06,1,.1.33.03.66.05.99.08.28.02.56.05.84.07.29.02.59.03.88.03.01,0,.02,0,.04,0,.09,0,.17,0,.26,0,.12-.16.27-.3.41-.41.13-.09.27-.17.4-.26.03-.02.06-.04.09-.07.08-.08.16-.16.23-.24.08-.1.15-.2.23-.3.14-.22.27-.44.39-.67.05-.1.09-.21.13-.31.18-.57.33-1.16.51-1.73.18-.6.35-1.19.49-1.8.2-1.07.32-2.15.4-3.24.04-.81.07-1.61.03-2.42Z" class="cls-2"/><path d="M133.17,80.15c-.56.65-1.17,1.26-1.74,1.9-.53.62-1.03,1.27-1.55,1.89-.55.66-1.14,1.29-1.71,1.93-.56.66-1.08,1.34-1.58,2.05-.5.7-1.02,1.39-1.53,2.08-.51.69-1.01,1.38-1.49,2.08-.48.7-.96,1.39-1.47,2.07-.51.67-1.03,1.33-1.56,1.99-.55.68-1.09,1.37-1.63,2.06-1.09,1.38-2.22,2.73-3.35,4.09-.56.67-1.13,1.34-1.68,2.02-.56.69-1.09,1.39-1.63,2.09-.53.68-1.05,1.36-1.6,2.02-.57.69-1.16,1.38-1.73,2.07-.73.89-1.45,1.79-2.18,2.68.17-.07.34-.14.51-.21.6-.24,1.21-.44,1.82-.65.86-.3,1.7-.64,2.55-.96.86-.32,1.74-.62,2.59-.95.86-.34,1.72-.7,2.57-1.06.83-.34,1.68-.63,2.52-.92.99-.35,1.97-.72,2.97-1.05.96-.31,1.92-.65,2.9-.89.95-.24,1.9-.48,2.84-.74.51-.14,1.02-.27,1.52-.42.47-.14.94-.3,1.41-.45.96-.32,1.95-.56,2.92-.84.5-.14,1-.3,1.5-.4.53-.11,1.05-.21,1.58-.31.87-.19,1.73-.42,2.59-.65.85-.22,1.7-.44,2.56-.65.89-.21,1.78-.44,2.67-.68.42-.11.84-.21,1.26-.32.43-.11.85-.24,1.27-.39.99-.34,1.99-.67,3-.95.09-.03.18-.05.28-.08,0-.03.01-.07.02-.1.09-.42.22-.83.32-1.24.05-.3.09-.61.12-.91.03-.63.04-1.25,0-1.88-.08-.82-.2-1.63-.35-2.44-.14-.78-.28-1.56-.43-2.34-.14-.64-.27-1.28-.46-1.9-.18-.61-.38-1.21-.59-1.81-.19-.53-.39-1.06-.6-1.58-.21-.5-.45-1-.69-1.49-.49-.97-1.03-1.92-1.63-2.83-.34-.49-.7-.97-1.08-1.43-.26-.29-.53-.56-.82-.83-.39-.33-.8-.64-1.22-.93-.5-.32-1.01-.6-1.53-.87-.56-.28-1.12-.52-1.71-.73-.51-.18-1.01-.36-1.53-.49-.31-.06-.62-.09-.94-.12-.17-.01-.34-.03-.51-.06-.06.07-.12.15-.17.22-.21.26-.42.52-.63.79-.45.59-.93,1.14-1.42,1.69-.52.6-1.01,1.22-1.53,1.82Z" class="cls-2"/><path d="M111.86,77.15c-.2,1.14-.43,2.27-.68,3.4-.25,1.1-.54,2.19-.8,3.29-.26,1.07-.51,2.14-.79,3.21-.28,1.07-.57,2.14-.85,3.21-.28,1.07-.59,2.13-.87,3.21-.29,1.1-.58,2.2-.91,3.29-.32,1.06-.63,2.12-.93,3.19-.57,2.07-1.04,4.17-1.6,6.25-.28,1.04-.52,2.08-.77,3.13-.23.96-.48,1.92-.7,2.88.9-1.1,1.77-2.22,2.65-3.33,1.08-1.36,2.2-2.68,3.23-4.07.54-.73,1.08-1.46,1.62-2.19.52-.69,1.06-1.37,1.61-2.05,1.1-1.36,2.19-2.74,3.25-4.13,1.29-1.7,2.53-3.44,3.74-5.2.47-.71.94-1.43,1.43-2.12.51-.72,1.03-1.43,1.56-2.13.51-.67.99-1.35,1.49-2.03.56-.77,1.16-1.5,1.81-2.21.51-.55,1.03-1.1,1.53-1.66.58-.66,1.15-1.32,1.75-1.95.59-.62,1.22-1.2,1.82-1.81.56-.57,1.1-1.17,1.68-1.74.58-.57,1.19-1.13,1.77-1.71.21-.21.42-.43.63-.64.1-.1.2-.2.3-.3.01-.01.03-.03.04-.04-.02-.07-.04-.14-.07-.22-.08-.21-.17-.41-.27-.61-.18-.32-.36-.63-.56-.93-.35-.5-.72-.99-1.11-1.46-.33-.36-.68-.71-1.05-1.04-.58-.48-1.18-.94-1.77-1.41-.58-.47-1.16-.93-1.77-1.36-.47-.31-.95-.6-1.45-.86-.69-.34-1.4-.62-2.13-.88-.5-.17-1-.31-1.51-.42-.53-.1-1.05-.17-1.59-.22-.77-.05-1.53-.04-2.3,0-.42.04-.84.1-1.26.18-.37.09-.73.19-1.09.31-.53.19-1.05.41-1.57.63-.31.13-.61.29-.92.4,0,.01,0,.02,0,.03-.07.32-.14.64-.2.96-.14.69-.24,1.39-.38,2.08-.13.7-.31,1.39-.51,2.07-.18.65-.35,1.3-.5,1.96-.14.63-.27,1.26-.4,1.89-.21,1.05-.39,2.11-.58,3.17Z" class="cls-3"/><path d="M90,65.92c.31.8.56,1.61.8,2.44.27.93.52,1.86.71,2.81.18.87.29,1.75.46,2.62.17.81.38,1.61.55,2.42.2.94.39,1.89.57,2.84.33,1.76.6,3.53.94,5.29.22,1.04.48,2.07.69,3.11.25,1.18.46,2.37.69,3.56.45,2.15.97,4.28,1.49,6.41.54,2.23.99,4.48,1.42,6.74.05.24.09.48.14.72.03.15.06.3.09.46.12.54.24,1.08.39,1.61.15.53.3,1.05.46,1.58.24.79.45,1.58.66,2.38.04-.18.08-.35.13-.53.13-.51.26-1.02.39-1.53.14-.56.27-1.12.41-1.68.25-1.01.54-2,.82-3,.3-1.09.58-2.18.89-3.26.29-1.02.61-2.03.93-3.05.33-1.04.69-2.07.99-3.11.32-1.1.62-2.21.94-3.32.31-1.07.61-2.14.91-3.22.24-.86.48-1.72.71-2.58.26-.94.48-1.88.72-2.83.23-.92.49-1.84.72-2.76.21-.87.41-1.74.59-2.61,0-.04.02-.08.03-.12,0-.04.02-.09.03-.13,0-.03.01-.07.02-.1,0,0,0,0,0-.01,0,0,0,0,0,0,0,0,0,0,0,0,0,0,0,0,0,0,0,0,0,0,0,0h0c.14-.73.29-1.46.45-2.19.14-.68.32-1.36.48-2.03.16-.67.33-1.33.53-1.99.2-.67.45-1.33.68-1.99.3-.89.54-1.79.84-2.68.15-.44.31-.87.48-1.31-.32-.19-.61-.47-.85-.75-.18-.21-.33-.43-.49-.65-.18-.25-.37-.49-.57-.72-.31-.34-.63-.67-.97-.98-.16-.13-.32-.25-.49-.37-.22-.14-.44-.26-.66-.38-.48-.23-.97-.45-1.47-.63-.41-.14-.82-.25-1.24-.34-.84-.15-1.69-.23-2.54-.3-.68-.04-1.37-.07-2.05-.05-.64.05-1.27.15-1.9.28-.85.18-1.69.37-2.52.63-.81.25-1.64.47-2.44.74-.77.28-1.53.57-2.27.92-.31.16-.6.34-.89.53-.34.24-.67.5-.99.76-.28.25-.54.51-.81.77-.07.07-.15.15-.22.23.05.09.09.18.13.27.18.38.36.75.51,1.14Z" class="cls-6"/><path d="M66.71,82.93c.6.5,1.21.99,1.82,1.47.66.52,1.29,1.08,1.88,1.68.55.55,1.08,1.12,1.62,1.69.54.57,1.05,1.17,1.59,1.74.56.59,1.12,1.17,1.67,1.78.53.59,1.08,1.16,1.66,1.71.59.56,1.18,1.11,1.75,1.69,1.09,1.11,2.15,2.26,3.25,3.35.52.52,1.08.99,1.61,1.5.58.55,1.11,1.14,1.64,1.74.27.3.54.6.82.9.28.29.57.57.85.85.59.58,1.14,1.19,1.69,1.8.55.6,1.15,1.14,1.74,1.69.58.54,1.12,1.12,1.67,1.69.67.68,1.39,1.33,2.04,2.03.34.37.66.74,1,1.11.31.34.63.65.97.96.63.54,1.26,1.07,1.85,1.66.15.15.29.3.43.45-.48-1.82-.89-3.66-1.4-5.46-.31-1.09-.59-2.18-.83-3.28-.24-1.11-.46-2.22-.72-3.33-.26-1.11-.54-2.22-.83-3.32-.28-1.03-.59-2.06-.88-3.09-.3-1.08-.6-2.16-.88-3.24-.28-1.08-.52-2.17-.76-3.26-.23-1.06-.51-2.1-.79-3.15-.28-1.08-.52-2.16-.75-3.25-.21-1-.41-2-.6-3-.29-1.39-.62-2.78-.98-4.15-.21-.78-.4-1.57-.55-2.37-.13-.71-.25-1.41-.39-2.11-.17-.82-.36-1.64-.5-2.46-.12-.71-.22-1.43-.36-2.14-.08-.37-.16-.74-.22-1.11-.03-.18-.06-.37-.09-.55-.03-.18-.06-.37-.06-.55-.05-.02-.1-.04-.15-.06-.38-.13-.76-.24-1.15-.33-.29-.05-.58-.09-.88-.11-.28-.01-.56-.02-.83-.01-.29.03-.58.07-.87.12-.82.18-1.62.44-2.43.67-.46.14-.92.26-1.39.38-.41.1-.82.2-1.22.33-.16.06-.32.13-.47.2-.28.15-.55.32-.81.49-.94.68-1.85,1.39-2.72,2.14-.58.52-1.14,1.04-1.66,1.61-.97,1.12-1.94,2.26-2.78,3.48-.59.9-1.12,1.85-1.61,2.81-.55,1.14-1.02,2.31-1.44,3.5-.12.35-.24.7-.32,1.07-.06.33-.12.66-.16.99,0,.1,0,.2-.02.3,0,.01,0,.02,0,.03.03.02.06.04.09.06.31.21.6.45.88.69Z" class="cls-4"/><path d="M53.34,102.56c.12.54.26,1.07.43,1.6.35.98.7,1.98,1.14,2.92.12.23.26.45.4.67.11.16.23.32.35.47.11.1.21.2.3.31.26,0,.53.01.8.04.38.04.76.07,1.14.13.41.06.81.14,1.21.23.68.13,1.36.25,2.04.38.8.16,1.59.31,2.39.48,1.09.22,2.2.41,3.29.63-.09-.02-.17-.03-.25-.05.48.1.96.2,1.45.26.5.07,1,.1,1.51.14.98.1,1.96.26,2.94.42.52.08,1.03.18,1.55.26.49.08.98.12,1.47.18.51.06,1.03.14,1.54.22.48.08.95.13,1.43.18.69.07,1.36.18,2.04.3.71.12,1.43.21,2.15.32.65.1,1.29.19,1.94.28.68.09,1.35.23,2.03.37.01,0,.02,0,.03,0,.59.11,1.17.22,1.76.36.49.12.98.25,1.47.36.46.08.92.14,1.38.21.46.07.91.14,1.37.2.45.06.89.11,1.34.17-.07-.06-.14-.12-.21-.19-.42-.38-.81-.8-1.18-1.22-.14-.16-.28-.32-.42-.48-.28-.31-.56-.62-.85-.91-.28-.29-.57-.56-.85-.84-.57-.57-1.11-1.17-1.68-1.74-.57-.58-1.19-1.12-1.76-1.69-.59-.59-1.12-1.23-1.7-1.83-.44-.46-.9-.89-1.35-1.34-.46-.46-.88-.95-1.31-1.44-.25-.28-.5-.55-.76-.81-.27-.27-.55-.53-.84-.79-.61-.55-1.2-1.12-1.77-1.71-1.13-1.16-2.23-2.37-3.41-3.49-.59-.56-1.2-1.11-1.78-1.69-.56-.56-1.08-1.15-1.64-1.71-.58-.57-1.17-1.14-1.74-1.73-.55-.57-1.1-1.14-1.65-1.71-.48-.5-.95-1.02-1.43-1.53-.47-.5-.98-.96-1.45-1.45-.51-.53-.99-1.08-1.45-1.65-.21-.26-.43-.52-.64-.79-.07-.09-.14-.19-.21-.29-.25.02-.49.05-.74.09-.14.04-.28.08-.42.12-.25.1-.5.21-.75.33-.76.4-1.5.84-2.22,1.31-.48.34-.94.69-1.39,1.07-.36.34-.7.69-1.04,1.06-.34.42-.67.84-.98,1.28-.66.99-1.25,2.02-1.8,3.08-.25.5-.48,1-.68,1.52-.19.57-.33,1.15-.46,1.74-.13.73-.24,1.46-.31,2.2-.03.54-.04,1.07-.04,1.61,0,.55,0,1.11.02,1.66.06.64.14,1.28.26,1.91Z" class="cls-5"/><path d="M55.58,131.17c.05,0,.1,0,.15,0,.13-.01.27-.03.4-.06.25-.06.51-.12.76-.17.29-.06.58-.13.87-.21.6-.18,1.21-.35,1.81-.54.52-.19,1.01-.43,1.53-.62.55-.21,1.12-.37,1.68-.55.54-.18,1.07-.35,1.62-.49.54-.14,1.08-.27,1.62-.45.46-.16.92-.32,1.39-.46.48-.14.95-.28,1.43-.44.45-.16.9-.33,1.35-.48.43-.13.86-.22,1.3-.32.92-.2,1.83-.41,2.75-.64.96-.24,1.92-.47,2.87-.73.91-.26,1.81-.53,2.71-.84.9-.32,1.8-.64,2.69-.98.94-.36,1.88-.76,2.81-1.14.99-.4,1.98-.79,2.98-1.16.91-.34,1.83-.66,2.73-1.01.92-.36,1.81-.79,2.71-1.19.43-.19.86-.38,1.28-.57-.31-.04-.61-.09-.92-.13-.74-.12-1.49-.21-2.24-.29-.73-.08-1.46-.16-2.18-.25-.75-.09-1.49-.27-2.23-.43-.43-.08-.87-.14-1.3-.2-.46-.07-.92-.15-1.39-.22-.47-.07-.95-.1-1.42-.15-.49-.05-.97-.13-1.46-.2-.52-.08-1.05-.14-1.57-.22-.49-.07-.99-.17-1.48-.24-.48-.07-.97-.1-1.46-.16-.49-.05-.97-.13-1.45-.21-.61-.09-1.22-.14-1.83-.2-.59-.06-1.18-.16-1.77-.25-1.08-.16-2.16-.31-3.25-.39-.56-.03-1.11-.07-1.67-.12-.55-.05-1.09-.16-1.63-.25-.55-.1-1.11-.18-1.67-.27-.53-.08-1.07-.19-1.6-.3-.05-.01-.1-.02-.15-.03-.1-.02-.2-.04-.3-.06-.81-.16-1.62-.31-2.43-.47-.45-.09-.9-.17-1.35-.27-.37-.08-.73-.18-1.1-.26-.31-.06-.62-.13-.92-.2-.34-.09-.68-.21-1.01-.34-.05-.02-.09-.04-.14-.06-.23.1-.47.14-.71.16,0,0-.01,0-.02,0-.09.04-.18.07-.27.12-.08.04-.15.09-.22.13-.04.03-.09.07-.13.1-.16.15-.31.3-.46.47-.22.26-.43.53-.63.81-.15.23-.29.47-.42.71-.42.86-.79,1.74-1.13,2.64-.1.32-.19.63-.27.96-.1.54-.17,1.08-.21,1.63-.03.69-.03,1.37,0,2.06.05.64.12,1.28.24,1.92.16.72.38,1.43.62,2.12.09.23.18.45.28.68.31.59.66,1.16,1.02,1.72.18.25.37.49.57.73.55.6,1.15,1.15,1.74,1.7.19.17.35.36.48.58Z" class="cls-5"/><path d="M69.81,148.35c1.01-1.07,2.05-2.12,3.03-3.22.92-1.06,1.81-2.13,2.74-3.18.4-.45.8-.9,1.2-1.35.1-.11.19-.22.29-.33.06-.07.12-.14.18-.21.06-.06.11-.13.17-.19.05-.05.1-.11.14-.16.61-.69,1.21-1.38,1.83-2.05.58-.62,1.18-1.22,1.78-1.82,1.28-1.25,2.54-2.52,3.84-3.75.64-.61,1.27-1.22,1.88-1.85.61-.62,1.2-1.27,1.79-1.92,1.2-1.31,2.38-2.64,3.56-3.96.31-.35.62-.7.93-1.05.37-.42.74-.85,1.1-1.28-.51.2-1.02.41-1.53.59-.93.34-1.88.62-2.82.92-1.28.4-2.55.82-3.81,1.26-.88.31-1.76.62-2.66.9-.85.27-1.71.53-2.56.79-.9.28-1.81.51-2.72.76-.9.24-1.81.45-2.72.64-.01,0-.02,0-.04,0-.02,0-.04,0-.07.01-.02,0-.03,0-.05.01-.11.02-.22.04-.33.07-1.2.25-2.41.47-3.62.7-.35.08-.69.17-1.03.27-.39.12-.77.26-1.16.37-.39.11-.79.21-1.19.31-.4.11-.8.22-1.2.35-.37.12-.74.23-1.12.33-.38.09-.77.18-1.15.28-.4.11-.79.25-1.18.38-.34.12-.68.23-1.01.34-.71.26-1.38.63-2.09.88-.37.13-.75.25-1.12.38-.33.11-.66.22-1,.31-.35.09-.7.14-1.05.2-.34.06-.68.13-1.03.14-.04,0-.09,0-.13,0-.09,0-.18,0-.26,0,0,.01-.02.03-.03.05-.06.09-.11.19-.17.28-.1.18-.2.35-.3.54-.11.22-.2.44-.29.67-.09.29-.16.57-.23.86-.12.67-.19,1.35-.24,2.03-.04.67-.07,1.34-.04,2.02.07.82.22,1.64.38,2.45.23,1.07.47,2.15.8,3.2.15.4.31.78.49,1.17.38.74.8,1.46,1.26,2.15.49.7,1.04,1.36,1.6,2.01.29.32.59.63.91.92.57.47,1.17.92,1.77,1.34.34.22.68.42,1.04.61.48.23.96.46,1.42.71.13.07.26.15.39.22.09-.14.17-.28.26-.42.49-.77,1.08-1.46,1.72-2.11,1.15-1.18,2.31-2.35,3.44-3.55Z" class="cls-5"/><path d="M92.18,150.52c.18-1.11.37-2.22.56-3.33.37-2.18.75-4.36,1.16-6.53.21-1.09.43-2.18.63-3.27.2-1.09.34-2.19.51-3.28.36-2.32.82-4.63,1.29-6.93.03-.14.06-.28.08-.41.2-.96.4-1.92.61-2.87-.47.54-.94,1.08-1.43,1.62-.57.63-1.14,1.26-1.72,1.88-1.19,1.31-2.38,2.63-3.57,3.93-.59.65-1.2,1.28-1.82,1.89-.61.6-1.23,1.18-1.85,1.76-1.3,1.22-2.57,2.48-3.83,3.74-1.24,1.24-2.39,2.56-3.58,3.85-1.15,1.24-2.3,2.49-3.43,3.76-.55.61-1.1,1.22-1.68,1.79-.6.6-1.22,1.17-1.84,1.75-1.2,1.11-2.38,2.24-3.58,3.34-.66.6-1.32,1.19-1.92,1.85-.32.36-.62.74-.93,1.11-.02.02-.04.05-.06.07,0,.08.02.15.02.23.03.25.06.51.11.76.1.4.23.79.35,1.18.12.38.23.77.36,1.15.06.16.13.32.2.48.21.38.44.74.67,1.11.26.41.51.81.77,1.21.22.3.44.6.68.88.31.34.63.66.97.96.38.33.76.65,1.14.97.42.35.84.7,1.29,1.01.23.15.46.28.71.41.44.22.9.41,1.36.59.54.21,1.08.43,1.62.63,1.07.36,2.17.6,3.27.83.53.1,1.05.18,1.59.23.47.03.95.04,1.42.04.28,0,.56,0,.83-.02.44-.04.87-.11,1.31-.17.47-.06.94-.1,1.41-.16.7-.09,1.38-.26,2.08-.34.2-.02.4-.04.61-.05.1-.29.2-.58.31-.88.2-.63.37-1.27.54-1.9.18-.67.35-1.34.49-2.01.22-1.1.43-2.21.66-3.31.21-1.03.39-2.07.56-3.1.18-1.06.39-2.11.56-3.17.18-1.1.34-2.2.51-3.3Z" class="cls-4"/><path d="M110.61,167.93c-.17-.66-.33-1.32-.45-1.98-.12-.66-.23-1.33-.37-1.99-.44-2.07-1.02-4.1-1.47-6.16-.46-2.14-.99-4.27-1.47-6.4-.25-1.1-.51-2.19-.76-3.28-.24-1.07-.48-2.14-.72-3.21-.24-1.04-.45-2.08-.67-3.12-.23-1.12-.49-2.22-.71-3.34-.25-1.25-.44-2.51-.69-3.75-.22-1.03-.46-2.06-.69-3.09-.25-1.09-.48-2.19-.74-3.28-.25-1.08-.56-2.14-.84-3.21-.2-.76-.41-1.52-.61-2.28-.21.94-.41,1.88-.62,2.81-.16.73-.31,1.46-.46,2.19-.43,2.13-.87,4.26-1.21,6.41-.18,1.13-.34,2.26-.53,3.39-.19,1.06-.41,2.12-.62,3.18-.22,1.12-.42,2.23-.62,3.35-.19,1.06-.36,2.12-.54,3.18-.18,1.11-.37,2.22-.55,3.33-.17,1.1-.33,2.2-.5,3.3-.22,1.36-.48,2.72-.71,4.08-.12.69-.25,1.38-.38,2.07-.14.73-.31,1.45-.46,2.17-.17.85-.33,1.7-.55,2.54-.21.84-.45,1.67-.69,2.49-.21.75-.46,1.48-.65,2.24-.04.16-.08.32-.12.47.07.1.14.2.22.29.06.07.13.13.2.2.24.2.5.39.76.57.19.13.39.25.6.36.13.06.27.12.41.16.52.18,1.04.35,1.55.53-.06-.02-.12-.04-.18-.06.29.1.58.18.87.25.63.12,1.28.19,1.92.29.51.07,1.02.13,1.53.17.43.03.86.05,1.29.08.78.05,1.55.07,2.33.06.06,0,.12,0,.18,0,.23,0,.45,0,.68,0,.23,0,.46,0,.69,0,.29,0,.59,0,.88-.02.36-.03.72-.09,1.08-.16.29-.06.58-.14.87-.23.52-.19,1.01-.43,1.51-.68.62-.32,1.2-.7,1.78-1.09.27-.18.54-.36.82-.52-.04-.16-.09-.32-.13-.48-.16-.61-.3-1.23-.47-1.84Z" class="cls-6"/><path d="M138.1,154.73c-.08-.06-.15-.12-.22-.18-.59-.49-1.14-1.01-1.7-1.52-.43-.37-.89-.7-1.33-1.06-.55-.44-1.07-.91-1.6-1.38-1.14-.99-2.31-1.94-3.53-2.83-.63-.46-1.23-.94-1.83-1.43-.61-.51-1.24-1.01-1.84-1.53-1.16-.98-2.3-1.99-3.45-2.98-.61-.52-1.21-1.05-1.81-1.58-.56-.5-1.11-1.02-1.67-1.52-.89-.77-1.79-1.53-2.66-2.31-.91-.82-1.8-1.66-2.71-2.47-.55-.48-1.11-.96-1.63-1.48-.55-.55-1.06-1.13-1.6-1.69-1.05-1.1-2.21-2.09-3.33-3.12-.59-.54-1.16-1.1-1.75-1.64-.56-.51-1.11-1.02-1.66-1.54-.09-.09-.18-.17-.27-.26.05.21.11.42.16.63.27,1.07.55,2.14.81,3.21.25,1.04.48,2.09.73,3.14.26,1.09.54,2.18.77,3.28.23,1.09.42,2.19.63,3.29.23,1.08.49,2.15.72,3.23.22,1.01.44,2.02.67,3.02.25,1.11.5,2.22.76,3.33.25,1.06.51,2.12.73,3.19.08.4.16.8.25,1.2.22,1.06.46,2.11.68,3.17.22,1.06.4,2.13.61,3.2.26,1.27.56,2.52.85,3.79.15.67.29,1.34.42,2.02.13.64.23,1.29.35,1.93.17.79.38,1.58.55,2.37.09.43.21.86.33,1.29,0,.03.02.07.03.1.35.02.68.14.99.31.23.13.41.32.59.5.01,0,.02.02.04.03.07.04.14.08.21.12.13.06.26.11.39.17.2.06.41.12.62.17.28.05.56.09.84.11.1,0,.19,0,.29,0,.09,0,.18,0,.26,0,.62-.06,1.24-.18,1.85-.3.58-.13,1.14-.29,1.7-.48.66-.24,1.31-.51,1.96-.78.7-.3,1.42-.57,2.12-.86.71-.3,1.4-.61,2.1-.93.65-.29,1.31-.57,1.95-.88.65-.34,1.29-.72,1.9-1.12.52-.36,1.03-.73,1.52-1.13.49-.4.98-.82,1.47-1.23.39-.36.76-.73,1.12-1.12.31-.36.61-.74.88-1.13.18-.28.35-.57.51-.87.34-.72.65-1.45.92-2.2.11-.32.21-.65.29-.98.06-.31.11-.62.14-.94,0-.05,0-.09,0-.14-.04-.13-.07-.26-.1-.4-.04-.24-.04-.5,0-.75Z" class="cls-3"/><path d="M153.32,130.06c-.05-.18-.1-.36-.15-.54-.1-.27-.22-.54-.34-.8-.03-.06-.07-.13-.11-.19-.55-.07-1.1-.13-1.65-.16-.53-.04-1.07-.09-1.6-.12-.54-.04-1.07-.1-1.61-.14-.47-.03-.94-.05-1.41-.1-.45-.05-.89-.12-1.34-.16-.45-.05-.89-.09-1.33-.15-.47-.06-.93-.14-1.4-.23-.88-.16-1.77-.32-2.65-.47-.43-.07-.86-.14-1.29-.21-.5-.08-1-.18-1.49-.28-.64-.13-1.29-.2-1.93-.32-.73-.14-1.44-.35-2.16-.51-.5-.1-.99-.2-1.47-.34-.52-.14-1.03-.28-1.56-.39-.43-.09-.85-.17-1.28-.27-.47-.11-.93-.24-1.4-.35-.5-.11-.99-.22-1.49-.34-.44-.1-.88-.23-1.32-.33-.52-.1-1.04-.16-1.56-.26-.64-.12-1.26-.31-1.9-.45-.55-.1-1.11-.16-1.66-.25-.58-.09-1.16-.23-1.74-.36-.96-.17-1.94-.26-2.9-.44-.49-.1-.98-.19-1.47-.27-.49-.08-.99-.14-1.49-.22-.99-.16-1.97-.33-2.96-.51-1.05-.19-2.1-.38-3.15-.61-.59-.13-1.18-.27-1.76-.41.24.23.48.46.71.7.58.59,1.16,1.17,1.77,1.72.29.26.58.51.87.77,1.33,1.17,2.64,2.37,3.97,3.55-.06-.05-.11-.1-.17-.15.79.7,1.57,1.4,2.31,2.15.33.33.65.66.98.99.29.29.59.56.89.83.64.56,1.29,1.11,1.93,1.68.65.58,1.29,1.18,1.94,1.76.66.57,1.32,1.14,1.98,1.71.76.66,1.48,1.35,2.23,2.01.06.05.12.11.18.16,1.12.98,2.26,1.94,3.4,2.91.58.49,1.16.99,1.75,1.47.62.51,1.25,1.01,1.87,1.52,1.04.85,2.15,1.59,3.19,2.44.53.43,1.05.87,1.57,1.31.52.44,1.02.91,1.53,1.36.61.53,1.25,1.03,1.85,1.58.53.49,1.05,1.01,1.59,1.49.27.23.56.46.85.66.1.06.19.12.3.18.03.01.05.03.08.04.11-.06.22-.13.33-.2.58-.41,1.11-.88,1.66-1.34.55-.46,1.13-.87,1.67-1.34.51-.46.98-.96,1.44-1.47.43-.5.83-1.03,1.22-1.56.42-.57.85-1.13,1.26-1.71.24-.37.45-.76.66-1.15.4-.83.77-1.67,1.13-2.52.36-.84.71-1.69,1.03-2.55.26-.78.5-1.58.76-2.37.27-.83.5-1.67.69-2.53.1-.52.17-1.04.22-1.56.03-.52.04-1.05.03-1.57-.02-.26-.06-.52-.1-.78Z" class="cls-2"/></g></g></svg>