<?xml version="1.0" encoding="UTF-8"?>
<svg id="Layer_2" data-name="Layer 2" xmlns="http://www.w3.org/2000/svg" xmlns:xlink="http://www.w3.org/1999/xlink" viewBox="0 0 600 250.06">
  <defs>
    <style>
      .cls-1, .cls-2 {
        fill: #fff;
      }

      .cls-1, .cls-3, .cls-4, .cls-5, .cls-6 {
        opacity: .2;
        stroke: #000;
        stroke-miterlimit: 10;
      }

      .cls-1, .cls-5, .cls-6 {
        stroke-width: 2px;
      }

      .cls-2 {
        font-family: LoveDays, 'Love Days';
        font-size: 72px;
      }

      .cls-3 {
        fill: #000;
      }

      .cls-7 {
        fill: url(#linear-gradient);
        stroke-width: 0px;
      }

      .cls-8 {
        letter-spacing: -.05em;
      }

      .cls-4 {
        fill: #ff8e1d;
      }

      .cls-5 {
        fill: none;
      }

      .cls-6 {
        fill: red;
      }

      .cls-9 {
        letter-spacing: -.01em;
      }

      .cls-10 {
        letter-spacing: .02em;
      }
    </style>
    <linearGradient id="linear-gradient" x1="743.2" y1="-2.94" x2="993.27" y2="-2.94" gradientTransform="translate(-567.94 128.11)" gradientUnits="userSpaceOnUse">
      <stop offset=".27" stop-color="#ffd8d2"/>
      <stop offset="1" stop-color="#ffbf8a"/>
    </linearGradient>
  </defs>
  <rect class="cls-7" x="175.26" y="-174.83" width="250.06" height="600" transform="translate(425.47 -175.12) rotate(90)"/>
  <text class="cls-2" transform="translate(124.91 151.24)"><tspan class="cls-9" x="0" y="0">H</tspan><tspan x="38.95" y="0">e</tspan><tspan class="cls-10" x="72.94" y="0">l</tspan><tspan x="92.73" y="0">lo th</tspan><tspan class="cls-9" x="239.97" y="0">e</tspan><tspan class="cls-8" x="272.95" y="0">r</tspan><tspan x="301.82" y="0">e</tspan></text>
  <circle class="cls-4" cx="30.58" cy="205.29" r="56.41"/>
  <path class="cls-5" d="M-2.43,195.59c-1.32-4.55.91-9.2,4.97-10.38,4.07-1.18,8.43,1.55,9.75,6.11"/>
  <path class="cls-5" d="M38.3,183.77c-1.32-4.55.91-9.2,4.97-10.38,4.07-1.18,8.43,1.55,9.75,6.11"/>
  <path class="cls-5" d="M60.33,218.18c2.4,8.26-6.4,18.08-19.66,21.92-13.25,3.84-25.94.26-28.34-8"/>
  <path class="cls-5" d="M36.04,208.36c.48,1.66-1.01,3.56-3.34,4.24s-4.61-.13-5.09-1.79"/>
  <circle class="cls-4" cx="530.92" cy="51.47" r="32.77"/>
  <path class="cls-5" d="M520.34,34.52c1.18-2.49,3.94-3.64,6.16-2.58s3.06,3.93,1.88,6.42"/>
  <path class="cls-5" d="M542.58,45.11c1.18-2.49,3.94-3.64,6.16-2.58,2.22,1.06,3.06,3.93,1.88,6.42"/>
  <path class="cls-1" d="M538.86,68.55c-2.15,4.51-9.76,5.38-17,1.93-7.24-3.45-11.36-9.9-9.21-14.41l26.21,12.49Z"/>
  <path class="cls-5" d="M532.1,54.92c-.43.91-1.81,1.15-3.09.55s-1.95-1.83-1.52-2.74"/>
  <circle class="cls-4" cx="379.09" cy="207.36" r="25.14"/>
  <path class="cls-5" d="M366.58,216.22c-1.96-.8-2.97-2.86-2.25-4.6s2.87-2.52,4.83-1.72"/>
  <path class="cls-5" d="M373.71,198.71c-1.96-.8-2.97-2.86-2.25-4.6s2.87-2.52,4.83-1.72"/>
  <path class="cls-5" d="M381.68,206.3c.72.29.96,1.34.56,2.34-.41,1-1.32,1.58-2.03,1.29"/>
  <path class="cls-5" d="M389.42,200.18c1.65.62,1.34,5.52-.71,10.95-2.04,5.42-5.04,9.31-6.69,8.69"/>
  <path class="cls-6" d="M391.22,203.77c4.73.22,8.14,3.22,7.76,4.97s-4.55,2.89-9.12,1.38"/>
  <path class="cls-4" d="M97.99,47.9l-13.84-6.97,3.85-7.15c1.43-2.83.9-5.97-1.18-7.02l-.3-.15c-1.46-.74-1.05-.08-5.54,1.65l-11.86,5.69c-1.07.49-1.62,1.08-1.85,1.7-.06.09-.12.18-.17.28l-12.86,25.56c-.8,1.58-.27,3.46,1.19,4.19l21.14,10.64c1.45.73,3.27.04,4.07-1.54l18.55-22.7c.8-1.58.27-3.46-1.19-4.19Z"/>
  <rect class="cls-3" x="52.25" y="29.49" width="4.25" height="33.67" rx="1.63" ry="1.63" transform="translate(26.63 -19.5) rotate(26.72)"/>
  <path class="cls-4" d="M578.69,201.16l-28.13,10.13-4.9-14.87c-2.07-5.76-7.17-9.19-11.39-7.67l-.61.22c-2.98,1.07-1.51,1.36-5.04,9.95l-7.78,24.16c-.73,2.14-.64,3.69-.07,4.85.05.21.09.41.16.62l18.72,51.95c1.16,3.22,4.49,4.96,7.44,3.9l42.97-15.48c2.95-1.06,4.4-4.53,3.24-7.75l-7.16-56.11c-1.16-3.22-4.49-4.96-7.44-3.9Z"/>
  <rect class="cls-3" x="514.49" y="227.66" width="8.2" height="64.97" rx="1.63" ry="1.63" transform="translate(-57.47 191.16) rotate(-19.81)"/>
  <rect class="cls-3" x="193.92" y="218.56" width="6.57" height="52.09" rx="1.63" ry="1.63" transform="translate(-103.83 334.64) rotate(-67.78)"/>
  <path class="cls-4" d="M233.14,219.48l-17.22-9.18,14.46-18.71c2.02-2.62,1.54-6.38-1.08-8.4-2.62-2.02-6.38-1.54-8.4,1.08l-14.39,18.62,5.71-19.57c.95-3.27-.92-6.69-4.19-7.65-3.27-.95-6.69.92-7.65,4.19l-5.6,19.17-3.81-2.03c-1.17-.48-2.45-.04-2.87.98l-10.75,26.32c-.42,1.02.2,2.23,1.36,2.7l43.99,17.97c1.17.48,2.45.04,2.87-.98l8.91-21.82c.42-1.02-.2-2.23-1.36-2.7Z"/>
  <rect class="cls-3" x="299.36" y="35.8" width="7.76" height="61.53" rx="1.63" ry="1.63" transform="translate(358.93 371.99) rotate(-112.71)"/>
  <path class="cls-4" d="M312.33,15.58l-22.05,6.69-3.52-27.71c-.49-3.87-4.03-6.62-7.91-6.12-3.87.49-6.62,4.03-6.12,7.91l3.5,27.57-11.55-21.12c-1.93-3.53-6.36-4.83-9.88-2.9-3.53,1.93-4.83,6.35-2.9,9.88l11.32,20.7-4.88,1.48c-1.38.58-2.08,2.01-1.58,3.21l12.97,30.98c.5,1.2,2.02,1.7,3.4,1.12l51.78-21.67c1.38-.58,2.08-2.01,1.58-3.21l-10.75-25.68c-.5-1.2-2.02-1.7-3.4-1.12Z"/>
</svg>