<svg xmlns="http://www.w3.org/2000/svg" xmlns:xlink="http://www.w3.org/1999/xlink" id="Layer_2" data-name="Layer 2" viewBox="0 0 600 250.06"><defs><style>.cls-1{fill:url(#linear-gradient);stroke-width:0}.cls-2,.cls-3{opacity:.2;fill:red;stroke:#000;stroke-miterlimit:10}.cls-3{opacity:.15}</style><linearGradient id="linear-gradient" x1="395.2" x2="645.26" y1="345.21" y2="345.21" gradientTransform="translate(-220.23 -220.18)" gradientUnits="userSpaceOnUse"><stop offset=".27" stop-color="#ffcce3"/><stop offset="1" stop-color="#ff88b9"/></linearGradient></defs><rect width="250.06" height="600" x="174.97" y="-174.97" class="cls-1" transform="translate(425.03 -174.97) rotate(90)"/><path d="M96.01,171.93c-19-7.36-40.37,2.07-47.73,21.07,7.36-19-2.07-40.37-21.07-47.73s-40.37,2.07-47.73,21.07c-16.08,41.51,33.44,117.94,33.44,117.94,0,0,88.09-23.11,104.17-64.62,7.36-19-2.07-40.37-21.07-47.73Z" class="cls-2"/><path d="M387.23,36.51c-6.69-2.52-14.16.87-16.68,7.56,2.52-6.69-.87-14.16-7.56-16.68-6.69-2.52-14.16.87-16.68,7.56-5.5,14.63,12.14,41.28,12.14,41.28,0,0,30.84-8.41,36.34-23.04,2.52-6.69-.87-14.16-7.56-16.68Z" class="cls-2"/><path d="M432.08,187.33c-4.17-2.72-9.76-1.55-12.49,2.63,2.72-4.17,1.55-9.76-2.63-12.49s-9.76-1.55-12.49,2.63c-5.95,9.12,2.03,29.91,2.03,29.91,0,0,22.24-1.07,28.19-10.19,2.72-4.17,1.55-9.76-2.63-12.49Z" class="cls-2"/><path d="M506.4-5.93c-7.38,4.94-9.36,14.92-4.43,22.3-4.94-7.38-14.92-9.36-22.3-4.43-7.38,4.94-9.36,14.92-4.43,22.3,10.78,16.13,50.45,17.59,50.45,17.59,0,0,13.8-37.21,3.02-53.34-4.94-7.38-14.92-9.36-22.3-4.43Z" class="cls-2"/><path d="M55.8,61.79c-2.21-2.64-4.15-5.44-5.8-8.36-3.89-6.89-6.14-14.45-6.45-22.12-.15-3.5.11-7.02.8-10.51,3.28-2.58,6.91-4.75,10.82-6.47,5.77-2.55,12.09-3.62,19.35-4.01,8.19,7.5,13.24,16.33,15.66,26.37,0,0,0,.02,0,.03h0c2,8.32,1.76,17.05-1.15,25.42l-6.26,18.04c-6.62-2.3-12.58-5.57-17.75-9.55-3.44-2.65-6.54-5.62-9.22-8.83" class="cls-2"/><path d="M59.11,68.72c-.47-.43-.91-.91-1.34-1.39-.9-.94-1.78-1.88-2.61-2.88,0,0,0,0,0,0l-.12-.04c-.07.02-.14.02-.21.04,0,0-.01,0-.02,0-.14.03-.28.06-.43.08-.24.06-.49.09-.73.11-.17.03-.34.08-.52.08-.2.04-.4.07-.6.08,0,0-.01,0-.02,0-.35.06-.7.09-1.06.07-.16,0-.31.02-.47,0-.29.06-.58.09-.88.09-.15.02-.3.02-.45.03.06.13.11.27.16.38,1.03,2.41,1.5,3.3,4.15,7.31l5.28-3.83s-.09-.09-.13-.13Z" class="cls-2"/><path d="M55.8,61.8c-4.72.8-9.6.84-14.51.03l-18.85-3.11c1.15-6.97,3.37-13.46,6.43-19.27,2.03-3.88,4.44-7.46,7.16-10.68,2.23-2.65,4.67-5.06,7.27-7.2,6.14-5.05,13.21-8.52,20.53-9.91,4.18-.79,6.49-1.22,10.7-1.32,3.1,2.82,5.85,6.05,8.21,9.62,3.49,5.29,6.13,11.31,7.72,17.79-6.02,9.43-14.37,16.7-23.86,20.84,0,0-.02,0-.03.01h0c-3.46,1.5-7.06,2.59-10.76,3.21" class="cls-2"/><path d="M216.14-4.58c6.52,2.85,12.19,7.38,16.29,13.51l8.83,13.2c-4.84,3.24-10,5.56-15.24,6.98-3.49.96-7.01,1.51-10.48,1.69-2.86.14-5.69.03-8.46-.35-6.52-.88-12.66-3.17-17.91-6.81-2.4-1.65-4.6-3.59-6.57-5.8-.06-3.47.32-6.97,1.13-10.42,1.2-5.1,3.66-9.84,7.05-14.85,9.08-1.67,17.47-.59,25.34,2.83,0,0,.01.01.02.01h0Z" class="cls-3"/><path d="M221.98,32.57c-.52.09-1.06.15-1.59.19-1.07.12-2.14.23-3.22.28,0,0,0,0,0,0l-.09.06c-.02.05-.05.1-.08.16,0,0,0,0,0,.01-.05.11-.11.22-.16.32-.08.19-.18.37-.29.54-.07.13-.12.27-.21.39-.07.15-.15.3-.25.44,0,0,0,0,0,.01-.13.26-.29.51-.49.74-.07.11-.15.21-.23.31-.11.22-.23.43-.38.63-.06.11-.13.21-.21.31.12.03.23.06.33.08,2.11.53,2.95.66,6.93.91l.1-5.42c-.05,0-.1.01-.15.02Z" class="cls-3"/><path d="M215.53,30.81c-1.84,3.53-4.26,6.79-7.26,9.64l-11.52,10.95c-4.05-4.26-7.24-8.98-9.56-13.93-1.55-3.29-2.72-6.69-3.5-10.1-.64-2.81-1.02-5.64-1.13-8.43-.27-6.6.97-13.03,3.72-18.59,1.57-3.17,2.44-4.92,4.49-7.76,3.42-.64,6.95-.85,10.5-.62,5.26.33,10.57,1.61,15.67,3.8,3.23,8.72,3.87,17.91,1.86,26.28,0,0,0,.02,0,.02h0c-.74,3.05-1.82,5.98-3.27,8.75" class="cls-3"/><path d="M228.92,240.75c-3.46-9.42-4.36-19.62-2.11-29.77l4.85-21.87c8.02,1.78,15.41,4.78,21.98,8.72,4.37,2.62,8.38,5.66,11.94,9.04,2.93,2.77,5.58,5.78,7.89,8.95,5.46,7.5,9.12,15.99,10.52,24.88.65,4.06.82,8.19.49,12.35-3.47,3.45-7.41,6.47-11.72,9.01-6.37,3.76-13.59,5.86-22,7.3-10.56-7.63-17.64-17.23-21.83-28.59,0,0,0-.02-.01-.03h0Z" class="cls-3"/><path d="M260.98,199.35c.61.44,1.18.93,1.75,1.43,1.17.97,2.32,1.95,3.43,3,0,0,0,0,0,0l.15.04c.08-.03.16-.05.24-.07,0,0,.01,0,.02,0,.16-.06.32-.1.49-.15.27-.1.55-.18.84-.23.2-.06.39-.14.59-.17.23-.07.46-.13.69-.18,0,0,.01,0,.02,0,.4-.12.81-.21,1.23-.23.18-.03.36-.06.55-.07.33-.11.67-.18,1.01-.23.17-.04.34-.07.52-.09-.08-.15-.17-.29-.24-.42-1.52-2.67-2.2-3.65-5.83-7.95l-5.63,5.18c.06.05.11.09.17.14Z" class="cls-3"/><path d="M265.56,206.87c5.39-1.57,11.07-2.28,16.9-2.01l22.38,1.06c-.39,8.28-2.09,16.13-4.87,23.33-1.84,4.79-4.16,9.29-6.89,13.42-2.24,3.39-4.75,6.53-7.49,9.38-6.47,6.71-14.23,11.72-22.56,14.33-4.76,1.49-7.4,2.31-12.29,3-3.99-2.86-7.64-6.25-10.87-10.1-4.78-5.68-8.67-12.34-11.41-19.67,5.73-11.8,14.47-21.41,24.97-27.51,0,0,.02,0,.03-.02h0c3.82-2.22,7.87-3.97,12.1-5.2" class="cls-3"/><path d="M551.88,254.81c-10.47-6.72-19-16.12-24.38-27.84l-11.59-25.24c9.26-4.25,18.81-6.82,28.25-7.84,6.28-.69,12.52-.67,18.58-.01,4.98.55,9.84,1.53,14.51,2.94,11.01,3.32,20.99,8.98,29.04,16.72,3.68,3.52,6.95,7.48,9.74,11.84-.85,6.01-2.48,11.95-4.84,17.68-3.48,8.48-9.04,15.97-16.28,23.69-16.15.37-30.34-3.82-42.99-11.91,0,0-.02-.02-.04-.03h0Z" class="cls-3"/><path d="M552.76,190.29c.93-.02,1.87.04,2.8.11,1.88.08,3.76.19,5.64.4,0,0,0,0,0,0l.17-.08c.05-.09.12-.17.18-.25,0,0,0-.01.01-.02.11-.18.24-.34.37-.51.2-.3.41-.59.66-.86.15-.2.28-.43.46-.61.17-.24.35-.47.55-.69,0,0,0-.01.01-.02.3-.42.64-.81,1.05-1.15.16-.16.31-.33.49-.48.25-.35.52-.68.83-.98.14-.17.29-.32.44-.48-.19-.08-.39-.17-.55-.24-3.5-1.5-4.9-1.96-11.71-3.49l-1.68,9.34c.09,0,.18,0,.27,0Z" class="cls-3"/><path d="M562.73,193.87c4.16-5.59,9.23-10.55,15.2-14.64l22.92-15.71c5.81,8.48,10.01,17.52,12.66,26.7,1.77,6.12,2.84,12.3,3.24,18.42.33,5.03.2,10.02-.38,14.88-1.36,11.48-5.29,22.24-11.57,31.07-3.59,5.04-5.58,7.82-9.9,12.16-6.08.16-12.23-.46-18.31-1.84-8.98-2.03-17.81-5.7-26.01-10.9-3.17-15.95-1.72-32,4.07-45.89,0,0,.02-.03.02-.04h0c2.12-5.05,4.81-9.82,8.06-14.2" class="cls-3"/></svg>