<svg xmlns="http://www.w3.org/2000/svg" id="Camada_1" data-name="Camada 1" version="1.1" viewBox="0 0 500 500"><defs><style>.cls-1{fill:#f8d63f}.cls-1,.cls-2,.cls-3,.cls-4,.cls-5,.cls-6{stroke-width:0}.cls-2{fill:#c1272d}.cls-3{fill:#e6bf2f}.cls-4{fill:#821215}.cls-7{fill:none;stroke:#9c856b;stroke-miterlimit:10;stroke-width:5px}.cls-5{fill:#215d97}.cls-6{fill:#153c66}</style></defs><g><polygon points="371.79 232.58 371.79 226.36 278.58 255.04 281.32 260.79 371.79 232.58" class="cls-5"/><path d="M215.66,226.36c-.21-16.68-.34-27.74-.34-27.74,0,0,6.13-8.39,20.54-4.93,53.68,12.87,131.46,31.22,131.46,31.22,0,0,18.62,2.19,18.08,30.4-.85,43.74-.67,107.73-.67,151.48,0,19.44-5.61,25.58-5.61,25.58l-74.28,37.49s-16.15-4.25-17.52-33.28c-2.63-55.81,1.49-116.82-.8-165.93-.55-11.78-15.61-17.25-15.61-17.25l-141.59-36.15s-25.12,4.8-24.89,11.92c1.37,42.18,2.67,120.65,3.5,166.42.27,15.06,28.73,9.46,28.73,9.46l71.12-28.03s9.03-6.18,8.76-24.53-3.26-78.83-3.68-111.77" class="cls-7"/><polygon points="129.05 215.46 222.44 191.91 371.29 227.79 279.95 255.86 129.05 215.46" class="cls-6"/></g><g><polygon points="400.71 181.86 400.71 174.8 294.81 207.38 297.92 213.91 400.71 181.86" class="cls-1"/><path d="M223.32,174.8c-.24-18.95-.39-31.52-.39-31.52,0,0,6.96-9.53,23.34-5.6,60.99,14.63,149.36,35.47,149.36,35.47,0,0,21.16,2.49,20.54,34.54-.97,49.7,0,149.13,0,198.84,0,22.09-8.4,23.34-8.4,23.34l-82.15,39.21s-17.11,12.45-18.67-20.54c-2.99-63.41-.52-167.62-3.11-223.43-.62-13.38-17.74-19.6-17.74-19.6l-160.88-41.08s-14.27,2.49-14,10.58c1.56,47.92,2.79,153.68,3.73,205.69.31,17.11,19.6,12.45,19.6,12.45l79.04-33.3s12.14-3.42,11.82-24.27c-.17-11.56-2.83-74.01-3.09-93.28" class="cls-7"/><polygon points="124.91 162.41 231.02 135.65 400.14 176.42 296.36 208.31 124.91 162.41" class="cls-3"/></g><g><polygon points="450.89 136.42 450.89 128.47 331.66 165.15 335.16 172.51 450.89 136.42" class="cls-4"/><path d="M251.16,128.47c-.27-21.34-.44-35.49-.44-35.49,0,0,7.84-10.73,26.28-6.31,68.67,16.47,168.18,39.94,168.18,39.94,0,0,23.82,2.8,23.12,38.89-1.09,55.96,0,167.91,0,223.88,0,24.88-9.46,26.28-9.46,26.28l-92.5,44.15s-19.27,14.01-21.02-23.12c-3.37-71.4-.58-188.73-3.5-251.56-.7-15.07-19.97-22.07-19.97-22.07l-181.14-46.25s-16.06,2.81-15.77,11.91c1.75,53.96,3.14,173.04,4.2,231.59.35,19.27,22.07,14.01,22.07,14.01l88.99-37.49s13.66-3.85,13.31-27.33c-.13-8.4-2.65-48.34-2.82-60.9" class="cls-7"/><polygon points="140.36 114.52 259.83 84.39 450.25 130.29 333.41 166.2 140.36 114.52" class="cls-2"/></g></svg>