<?xml version="1.0" encoding="UTF-8"?>
<svg id="Vector_layer" data-name="Vector layer" xmlns="http://www.w3.org/2000/svg" version="1.1" xmlns:xlink="http://www.w3.org/1999/xlink" viewBox="0 0 200 200">
  <defs>
    <style>
      .cls-1 {
        fill: #d9794a;
      }

      .cls-1, .cls-2, .cls-3 {
        stroke-width: 0px;
      }

      .cls-2 {
        fill: #5a7d1e;
      }

      .cls-3 {
        fill: #f8a333;
      }

      .cls-4 {
        fill: url(#Gradiente_sem_nome_4);
        stroke: #f59c1a;
      }

      .cls-4, .cls-5 {
        stroke-miterlimit: 10;
      }

      .cls-5 {
        fill: url(#Gradiente_sem_nome_8);
        stroke: #5a7d1e;
        stroke-width: 9px;
      }
    </style>
    <linearGradient id="Gradiente_sem_nome_4" data-name="Gradiente sem nome 4" x1="51.18" y1="111.03" x2="179.81" y2="122.89" gradientUnits="userSpaceOnUse">
      <stop offset="0" stop-color="#f59c1a"/>
      <stop offset=".3" stop-color="#f59c1c"/>
      <stop offset=".46" stop-color="#f5a024"/>
      <stop offset=".59" stop-color="#f6a632"/>
      <stop offset=".71" stop-color="#f8ae45"/>
      <stop offset=".81" stop-color="#f9b85f"/>
      <stop offset=".91" stop-color="#fcc57d"/>
      <stop offset=".99" stop-color="#fed4a2"/>
      <stop offset="1" stop-color="#ffd6a5"/>
    </linearGradient>
    <linearGradient id="Gradiente_sem_nome_8" data-name="Gradiente sem nome 8" x1="123.59" y1="54.94" x2="9.43" y2="53.07" gradientUnits="userSpaceOnUse">
      <stop offset=".06" stop-color="#5a7d1e"/>
      <stop offset=".1" stop-color="#5d8120"/>
      <stop offset=".31" stop-color="#6f9c2e"/>
      <stop offset=".53" stop-color="#7baf38"/>
      <stop offset=".76" stop-color="#83ba3f"/>
      <stop offset="1" stop-color="#86be41"/>
    </linearGradient>
  </defs>
  <path class="cls-3" d="M93.5,87.59c-.09-.02-.16-.09-.21-.17-.05-.07-.07-.16-.1-.24-.05-.15-.1-.29-.15-.44-.08-.23-.17-.45-.25-.68-.09-.26-.15-.53-.2-.81-.09-.5-.15-1.01-.24-1.51-.1-.53-.19-1.05-.23-1.59-.04-.52-.05-1.05-.08-1.57-.07-.97-.22-1.93-.17-2.91.06-1.05.21-2.09.45-3.12.1-.45.24-.9.37-1.35.16-.53.34-1.05.53-1.56.34-.92.71-1.83,1.09-2.73.28-.66.57-1.31.92-1.94.34-.62.79-1.17,1.23-1.72.26-.33.54-.64.84-.93.08-.08.16-.15.24-.22-.08-.02-.16-.05-.25-.07-.33-.09-.67-.18-1-.25-.37-.07-.74-.14-1.11-.22-.31-.06-.62-.11-.93-.13-.65-.04-1.31-.04-1.96-.01-1.19.09-2.36.3-3.53.53-.66.14-1.31.34-1.95.56-.54.19-1.08.39-1.61.61-.52.22-1.03.46-1.53.71-.29.15-.59.31-.87.48-.29.18-.58.37-.87.56-.48.33-.96.66-1.43,1-.5.36-.98.74-1.46,1.13-.47.38-.94.77-1.4,1.17-.45.39-.91.76-1.37,1.14-.48.43-.91.91-1.34,1.4-.13.15-.25.3-.39.43-.15.14-.34.22-.53.22-.1,0-.21-.03-.31-.08-.23-.12-.33-.38-.33-.63,0-.22.1-.43.19-.63.16-.35.37-.68.6-.99.24-.31.48-.63.76-.91.27-.28.55-.53.83-.79.52-.48,1.01-1,1.52-1.48.58-.55,1.17-1.09,1.79-1.6.57-.47,1.17-.92,1.77-1.35.31-.23.62-.45.94-.66.31-.2.63-.38.95-.57,1.35-.76,2.79-1.35,4.26-1.84.73-.25,1.49-.39,2.24-.54.69-.13,1.38-.24,2.07-.31.76-.08,1.53-.11,2.3-.07.39.02.78.03,1.17.08.41.05.81.15,1.21.24.19.04.38.08.57.12-.03,0-.06-.01-.1-.02.35.07.7.15,1.05.24.35.1.7.21,1.04.32.33.11.65.25.97.39.06.03.13.06.19.08.01-.03.03-.06.04-.08.02-.04.04-.07.06-.11.04-.07.09-.14.13-.21.02-.03.04-.05.06-.08,0,0,0,0,.01-.01.02-.03.05-.06.07-.09.03-.03.05-.06.08-.09s.05-.06.08-.09c.02-.03.05-.05.08-.07,0,0,.01-.01.02-.02.02-.02.05-.04.07-.07,0,0,0,0,0,0-.08-.08-.17-.16-.26-.23-.09-.08-.17-.16-.26-.23-.2-.19-.41-.37-.61-.56-.2-.19-.39-.38-.6-.56-.24-.2-.48-.38-.74-.56-.51-.34-1.03-.66-1.58-.94-.35-.17-.7-.32-1.06-.46-.39-.16-.77-.32-1.16-.46-.48-.16-.96-.29-1.45-.41-.48-.12-.97-.24-1.46-.34-.62-.12-1.25-.19-1.88-.23-1.03-.06-2.07-.04-3.11-.13-.51-.04-1.03-.07-1.53-.15-.27-.04-.54-.1-.8-.17-.27-.07-.56-.2-.67-.48-.08-.2-.01-.48.19-.58.21-.11.46-.1.69-.12.38-.03.76-.06,1.14-.09-.03,0-.07,0-.1,0,.69-.05,1.39-.1,2.08-.16.72-.06,1.44-.11,2.17-.12.71,0,1.42.04,2.12.15.73.11,1.44.29,2.16.45.33.08.67.16.99.27.37.12.73.25,1.09.39.66.25,1.32.5,1.96.82.29.15.57.31.85.47.31.18.63.36.93.56.31.21.61.43.89.67.24.22.48.44.72.66.21.18.41.36.62.54.08.07.16.15.24.22.09.09.19.17.28.26.04-.06.08-.12.13-.18.06-.08.12-.17.19-.25.07-.09.14-.18.2-.27.52-.7,1.01-1.41,1.55-2.1.57-.72,1.19-1.4,1.83-2.06.6-.62,1.25-1.19,1.92-1.73.7-.57,1.43-1.09,2.21-1.57.75-.46,1.51-.9,2.32-1.25.42-.18.85-.33,1.28-.45.4-.12.82-.23,1.24-.29.21-.03.42-.02.61.08.21.11.32.35.26.58-.05.22-.25.33-.44.42-.24.11-.5.2-.75.29-.48.18-.95.38-1.41.6-.71.38-1.39.81-2.05,1.26-.51.35-1,.72-1.47,1.12-.54.49-1.05,1-1.53,1.54-.65.76-1.25,1.56-1.82,2.38-.06.08-.11.17-.17.26-.06.09-.11.17-.17.26-.06.09-.11.17-.16.26-.05.09-.11.17-.16.26.07-.03.15-.06.23-.09.04-.02.08-.03.13-.05.02,0,.04-.02.07-.03.06-.02.12-.05.18-.07.08-.03.17-.06.25-.1.13-.05.25-.1.38-.14.08-.03.17-.06.25-.09.01,0,.02,0,.03-.01.09-.03.19-.07.28-.1.02,0,.04-.01.07-.02.09-.03.18-.06.27-.09.1-.03.21-.07.31-.1,1-.33,2.02-.56,3.06-.75,1.02-.2,2.06-.31,3.1-.39,1.07-.09,2.15-.14,3.22-.15,1.09-.01,2.19.04,3.28.11,1,.07,2.02.12,3.02.25.57.08,1.12.18,1.68.32.54.14,1.07.33,1.59.52,1,.35,1.97.8,2.88,1.32.91.52,1.71,1.18,2.45,1.92.67.68,1.34,1.38,1.97,2.11.12.14.25.29.37.43.21.24.44.47.59.75.1.01.21.07.26.17.14.24-.06.58-.35.53-.11.06-.22.1-.35.1h0c-.22,0-.44-.06-.64-.15-.56-.26-1.09-.62-1.6-.95-1.11-.72-2.2-1.48-3.38-2.09-.78-.38-1.58-.7-2.39-1-.77-.25-1.54-.47-2.33-.64-.84-.15-1.68-.22-2.53-.28-1.01-.06-2.02-.14-3.04-.16-1.11-.02-2.22.01-3.33.08-.64.05-1.29.09-1.93.18-.64.09-1.28.19-1.92.32-.51.11-1.02.23-1.53.37-.53.14-1.04.31-1.56.48-.3.11-.61.22-.91.33-.1.04-.2.08-.3.12-.19.07-.37.15-.56.23.02,0,.04.01.06.02.06.02.12.04.18.06.05.02.1.04.15.05.12.04.24.09.35.14.05.02.1.04.14.06.52.23,1.03.48,1.53.75.84.45,1.7.9,2.5,1.41.92.59,1.77,1.24,2.61,1.94.79.67,1.57,1.36,2.27,2.13,1.46,1.59,2.7,3.36,3.87,5.17.54.84,1.05,1.69,1.54,2.56.52.92.98,1.87,1.35,2.87.2.54.4,1.08.57,1.62.17.53.26,1.09.35,1.65.08.49.15.98.2,1.48.02.25.04.51.06.76.01.24.03.49-.08.72-.13.29-.4.45-.69.45-.09,0-.19-.02-.29-.05-.36-.13-.57-.51-.74-.83-.18-.34-.33-.69-.47-1.04-.28-.72-.58-1.42-.92-2.11-.53-1.04-1.09-2.07-1.74-3.05-.78-1.12-1.59-2.22-2.41-3.31-.79-1.06-1.63-2.07-2.5-3.07-.49-.54-1-1.05-1.53-1.54-.79-.69-1.62-1.33-2.48-1.92-.39-.25-.79-.49-1.2-.7-.85-.41-1.73-.77-2.62-1.1-.35-.11-.7-.21-1.06-.28-.49-.1-.98-.18-1.47-.25-.45-.07-.91-.15-1.37-.19-.11,0-.22-.01-.32-.02-.24-.02-.48-.03-.72-.04-.47-.03-.94-.23-1.35-.45-.06-.03-.12-.07-.18-.11-.02-.01-.04-.03-.07-.04-.01,0-.02-.01-.03-.02-.02-.02-.04-.03-.07-.05,0,0,0,0-.01,0-.06.06-.13.12-.19.17-.02.02-.04.04-.06.05,0,0-.01.01-.02.01-.02.02-.03.03-.05.05-.03.03-.06.06-.09.09-.02.02-.04.04-.06.06-.07.07-.14.14-.21.21-.01.01-.02.02-.04.04-.07.07-.14.14-.2.21-.24.29-.46.59-.67.89-.24.37-.47.74-.68,1.14-.28.57-.52,1.15-.79,1.72-.33.7-.71,1.38-1.07,2.06-.32.65-.61,1.32-.9,1.99-.29.65-.57,1.31-.81,1.98-.13.4-.24.81-.34,1.22-.05.3-.1.59-.13.89-.04.62-.05,1.24-.13,1.86-.08.62-.17,1.23-.21,1.85-.07,1.06-.14,2.12-.08,3.18.03.43.06.85.08,1.28,0,.15.03.37-.02.54.02.11-.04.24-.19.24-.05,0-.09-.01-.13-.04Z"/>
  <path class="cls-1" d="M135.73,64.79c-.06-.09-.16-.15-.26-.17-.15-.28-.37-.51-.59-.75-.13-.14-.25-.29-.37-.43-.63-.72-1.29-1.42-1.97-2.11-.73-.74-1.54-1.4-2.45-1.92-.92-.52-1.89-.97-2.88-1.32-.52-.19-1.05-.38-1.59-.52-.55-.14-1.11-.24-1.68-.32-1-.14-2.01-.18-3.02-.25-1.09-.08-2.18-.13-3.28-.11-1.08.01-2.15.06-3.22.15-1.04.08-2.07.2-3.1.39-1.03.2-2.05.43-3.06.75-.1.03-.21.07-.31.1-.09.03-.18.06-.27.09-.02,0-.04.02-.07.02-.09.03-.19.07-.28.1-.01,0-.02,0-.03.01-.08.03-.17.06-.25.09-.13.05-.25.09-.38.14-.08.03-.17.06-.25.1-.06.02-.12.05-.18.07-.02,0-.04.02-.07.03-.04.02-.08.03-.13.05-.08.03-.15.06-.23.09h0s0,0,0,0c0,0,0,0,0,0h0c.05-.09.11-.17.16-.26.05-.09.11-.17.16-.26.05-.09.11-.17.17-.26.06-.09.11-.17.17-.26.57-.82,1.17-1.62,1.82-2.38.48-.54,1-1.05,1.53-1.54.47-.4.96-.77,1.47-1.12.67-.45,1.34-.88,2.05-1.26.46-.23.93-.42,1.41-.6.25-.09.51-.18.75-.29.19-.09.38-.2.44-.42.06-.23-.05-.47-.26-.58-.19-.1-.4-.11-.61-.08-.42.06-.83.17-1.24.29-.44.13-.87.27-1.28.45-.81.36-1.57.8-2.32,1.25-.77.47-1.51.99-2.21,1.57-.67.54-1.32,1.11-1.92,1.73-.64.66-1.26,1.34-1.83,2.06-.54.68-1.03,1.4-1.55,2.1-.07.09-.14.18-.2.27-.06.08-.12.17-.19.25-.04.06-.09.12-.13.18-.09-.09-.19-.18-.28-.26-.08-.07-.16-.15-.24-.22-.21-.18-.41-.36-.62-.54-.24-.22-.48-.44-.72-.66-.28-.25-.58-.46-.89-.67-.3-.2-.61-.38-.93-.56-.28-.16-.56-.32-.85-.47-.63-.32-1.29-.58-1.96-.82-.36-.14-.72-.27-1.09-.39-.33-.1-.66-.19-.99-.27-.71-.17-1.43-.34-2.16-.45-.7-.11-1.41-.16-2.12-.15-.72,0-1.45.06-2.17.12-.69.05-1.38.11-2.08.16.03,0,.07,0,.1,0-.38.03-.76.06-1.14.09-.23.01-.48.01-.69.12-.21.11-.28.38-.19.58.11.27.41.4.67.48.26.07.53.13.8.17.51.08,1.02.1,1.53.15,1.03.09,2.07.07,3.11.13.63.04,1.26.12,1.88.23.49.1.97.22,1.46.34.49.12.98.25,1.45.41.39.15.78.3,1.16.46.35.15.71.3,1.06.46.54.28,1.06.61,1.58.94.25.18.5.36.74.56.2.18.4.38.6.56.2.19.41.37.61.56.08.08.17.16.26.23.09.08.17.16.26.23,0,0,0,0,0,0-.03.02-.05.04-.07.07,0,0-.01.01-.02.02-.03.02-.05.05-.08.07-.03.03-.06.06-.08.09-.03.03-.05.06-.08.09-.02.03-.05.06-.07.09,0,0,0,0-.01.01-.02.03-.04.05-.06.08-.05.07-.09.14-.13.21-.02.04-.04.07-.06.11-.01.03-.03.05-.04.08,0,0,0,0,0,0,0,0,0,0,0,0-.07-.03-.13-.05-.19-.08-.32-.15-.63-.28-.97-.39-.34-.12-.69-.23-1.04-.32-.35-.1-.7-.17-1.05-.24.03,0,.06.01.1.02-.19-.04-.38-.08-.57-.12-.4-.09-.8-.19-1.21-.24-.39-.05-.78-.07-1.17-.08-.77-.03-1.53,0-2.3.07-.7.07-1.39.18-2.07.31-.75.15-1.51.29-2.24.54-1.47.49-2.91,1.08-4.26,1.84-.32.18-.64.36-.95.57-.32.21-.63.43-.94.66-.6.44-1.2.88-1.77,1.35-.62.51-1.21,1.05-1.79,1.6-.52.48-1,1-1.52,1.48-.28.26-.56.52-.83.79-.27.28-.52.6-.76.91-.23.31-.44.64-.6.99-.09.19-.19.41-.19.63,0,.25.1.5.33.63.1.06.21.08.31.08.19,0,.38-.08.53-.22.14-.13.27-.28.39-.43.43-.48.86-.96,1.34-1.4.45-.39.92-.75,1.37-1.14.46-.4.93-.79,1.4-1.17.48-.39.96-.77,1.46-1.13.47-.34.95-.67,1.43-1,.29-.19.57-.38.87-.56.28-.17.57-.33.87-.48.5-.25,1.01-.49,1.53-.71.53-.22,1.07-.42,1.61-.61.64-.22,1.29-.41,1.95-.56,1.17-.23,2.34-.44,3.53-.53.65-.03,1.31-.02,1.96.01.31.03.62.07.93.13.37.07.74.15,1.11.22.34.07.67.16,1,.25.08.02.16.05.25.07h0c-.08.07-.16.15-.24.22-.3.29-.58.61-.84.93-.44.55-.89,1.1-1.23,1.72-.35.62-.64,1.28-.92,1.94-.38.9-.75,1.81-1.09,2.73-.19.52-.37,1.04-.53,1.56-.13.45-.27.9-.37,1.35-.23,1.03-.39,2.07-.45,3.12-.05.98.1,1.94.17,2.91.03.52.03,1.05.08,1.57.05.54.13,1.06.23,1.59.09.5.15,1.01.24,1.51.05.27.11.54.2.81.08.23.17.45.25.68.05.15.09.29.15.44.03.08.05.17.1.24.05.08.12.15.21.17.04.02.08.04.13.04.15,0,.21-.13.19-.24.05-.17.03-.39.02-.54-.02-.43-.05-.85-.08-1.28-.05-1.06.02-2.12.08-3.18.05-.62.13-1.24.21-1.85.08-.62.1-1.24.13-1.86.03-.3.07-.59.13-.89.1-.41.21-.82.34-1.22.24-.67.52-1.33.81-1.98.3-.66.58-1.33.9-1.99.36-.69.74-1.36,1.07-2.06.27-.57.51-1.16.79-1.72.21-.39.44-.77.68-1.14.21-.31.43-.61.67-.89.07-.07.13-.14.2-.21.01-.01.02-.02.04-.04.07-.07.14-.14.21-.21.02-.02.04-.04.06-.06.03-.03.06-.06.09-.09.02-.02.03-.03.05-.05,0,0,.01-.01.02-.01.02-.02.04-.04.06-.05.06-.06.13-.12.19-.17,0,0,0,0,0,0,0,0,0,0,.01,0,.02.02.04.03.07.05.01,0,.02.01.03.02.02.02.04.03.07.04.06.04.12.08.18.11.41.22.88.42,1.35.45.24.02.48.03.72.04.11,0,.22.01.32.02.46.04.91.12,1.37.19.49.07.98.16,1.47.25.36.08.71.17,1.06.28.89.32,1.77.68,2.62,1.1.41.22.81.46,1.2.7.86.6,1.69,1.24,2.48,1.92.53.49,1.04,1,1.53,1.54.86,1,1.71,2.02,2.5,3.07.82,1.09,1.64,2.19,2.41,3.31.64.98,1.21,2,1.74,3.05.35.69.64,1.4.92,2.11.14.36.29.71.47,1.04.17.32.38.7.74.83.1.04.19.05.29.05.29,0,.56-.16.69-.45.1-.23.09-.48.08-.72-.02-.25-.03-.51-.06-.76-.05-.49-.12-.99-.2-1.48-.09-.55-.18-1.11-.35-1.65-.18-.55-.38-1.08-.57-1.62-.37-.99-.83-1.94-1.35-2.87-.49-.87-1-1.72-1.54-2.56-1.17-1.81-2.41-3.58-3.87-5.17-.7-.76-1.48-1.46-2.27-2.13-.83-.7-1.69-1.35-2.61-1.94-.8-.52-1.66-.96-2.5-1.41-.5-.27-1.01-.52-1.53-.75-.05-.02-.1-.04-.14-.06-.12-.05-.23-.09-.35-.14-.05-.02-.1-.04-.15-.05-.06-.02-.12-.04-.18-.06-.02,0-.04-.01-.06-.02.19-.08.37-.15.56-.23.1-.04.2-.08.3-.12.3-.12.6-.23.91-.33.52-.17,1.04-.34,1.56-.48.51-.14,1.02-.26,1.53-.37.64-.13,1.27-.23,1.92-.32.64-.08,1.29-.13,1.93-.18,1.11-.07,2.22-.09,3.33-.08,1.02.01,2.03.09,3.04.16.85.06,1.69.13,2.53.28.79.17,1.56.39,2.33.64.81.3,1.61.62,2.39,1,1.18.61,2.27,1.37,3.38,2.09.52.34,1.04.7,1.6.95.2.09.42.15.64.15h0c.13,0,.24-.04.35-.1.28.05.49-.29.35-.53Z"/>
  <path class="cls-4" d="M102.44,185.89c-.08,0-.17,0-.25,0-.13,0-.26,0-.4,0-.13,0-.26,0-.39,0-.24,0-.49-.01-.73-.02-.15,0-.29-.01-.44-.02-.11,0-.22,0-.32-.01-.24-.01-.48-.02-.72-.03-.16,0-.33-.02-.49-.03-.16,0-.32-.02-.48-.03-.18-.01-.35-.02-.53-.04-.12,0-.23-.02-.35-.03-.17-.01-.34-.03-.51-.04-.18-.02-.36-.03-.54-.05-.12-.01-.23-.02-.35-.03-.09,0-.18-.02-.27-.03-.14-.01-.28-.03-.42-.04-.14-.01-.28-.03-.42-.04-.09-.01-.18-.02-.27-.03,0,0-.01,0-.02,0-.13-.01-.25-.03-.37-.04-.15-.02-.29-.03-.44-.05-.16-.02-.32-.04-.47-.06-.08-.01-.17-.02-.25-.03-.08-.01-.17-.02-.25-.03-.16-.02-.33-.05-.49-.07-.18-.02-.35-.05-.53-.08-.17-.03-.34-.05-.51-.08-.13-.02-.25-.04-.38-.06-.06-.01-.13-.02-.19-.03-.06-.01-.13-.02-.19-.03-.08-.01-.16-.03-.25-.04-.22-.04-.44-.08-.66-.12-.16-.03-.32-.06-.48-.09-.08-.01-.16-.03-.24-.05-.18-.03-.35-.07-.53-.1-.18-.03-.35-.07-.53-.11-.11-.02-.22-.05-.33-.07-.14-.03-.29-.06-.43-.09-.04,0-.09-.02-.13-.03-.08-.02-.16-.03-.23-.05-.08-.02-.16-.03-.23-.05-.12-.03-.24-.05-.35-.08-.22-.05-.45-.1-.67-.16-.18-.04-.36-.09-.54-.13-.19-.05-.38-.09-.57-.14-.16-.04-.31-.08-.47-.12-.08-.02-.16-.04-.24-.06-.23-.06-.47-.12-.7-.19-.08-.02-.16-.04-.24-.07-.22-.06-.43-.12-.65-.18-.13-.04-.27-.08-.4-.12-.11-.03-.21-.06-.32-.09-.14-.04-.27-.08-.41-.12-.19-.06-.37-.11-.56-.17-.15-.05-.31-.1-.46-.15-.15-.05-.31-.1-.46-.15s-.3-.1-.46-.15c-.12-.04-.24-.08-.36-.12-.22-.07-.44-.15-.67-.23-.11-.04-.22-.08-.33-.12-.19-.07-.37-.13-.56-.2-.11-.04-.23-.08-.34-.13-.14-.05-.28-.1-.43-.16-.2-.08-.41-.15-.61-.23-.1-.04-.21-.08-.31-.12-.12-.05-.24-.09-.36-.14-.15-.06-.3-.12-.45-.18-.17-.07-.34-.14-.52-.21-.15-.06-.29-.12-.44-.18-.17-.07-.34-.14-.5-.21-.53-.23-1.05-.46-1.57-.7-.08-.04-.16-.07-.24-.11-.21-.09-.41-.19-.61-.29-.17-.08-.33-.16-.5-.24-.19-.09-.38-.18-.57-.28-.09-.04-.17-.09-.26-.13-.12-.06-.24-.12-.36-.18-.16-.08-.32-.16-.48-.25-.08-.04-.16-.08-.23-.12-.12-.06-.24-.12-.36-.19-.18-.09-.35-.19-.53-.28-.1-.05-.2-.11-.3-.16-.09-.05-.19-.1-.28-.15-.08-.05-.17-.09-.25-.14-.09-.05-.18-.1-.26-.15-.29-.16-.58-.32-.86-.49-.1-.06-.2-.12-.31-.18-.14-.08-.28-.16-.42-.25-.14-.08-.28-.17-.42-.25-.06-.04-.13-.08-.19-.11-.09-.05-.17-.1-.26-.16-.09-.05-.17-.1-.26-.16-.17-.1-.34-.21-.51-.31-.09-.06-.19-.12-.28-.17-.21-.13-.41-.26-.62-.39-.02-.01-.04-.03-.07-.04,0,0-.02-.01-.03-.02-.32-.2-.63-.41-.95-.62-.03-.02-.05-.04-.08-.05-.03-.02-.05-.03-.08-.05-.14-.1-.29-.19-.43-.29-.4-.27-.8-.55-1.2-.84-.02-.01-.03-.02-.05-.04-.02-.02-.05-.03-.07-.05-.39-.28-.78-.56-1.16-.85-.11-.08-.21-.16-.32-.24-.08-.06-.16-.12-.24-.18-.02-.02-.04-.03-.07-.05-.04-.03-.07-.05-.11-.08-.17-.13-.33-.25-.5-.38-.06-.05-.12-.1-.19-.15-.04-.03-.07-.05-.11-.08-.04-.03-.07-.06-.11-.08-.11-.09-.22-.18-.34-.27,0,0,0,0-.01-.01-.01,0-.03-.02-.04-.03-.21-.17-.42-.34-.62-.5-.15-.13-.31-.25-.46-.38-.11-.09-.22-.18-.32-.27-.08-.07-.16-.14-.24-.21-.09-.08-.18-.15-.27-.23-.09-.08-.18-.15-.26-.23,0,0,0,0,0,0-.09-.08-.18-.15-.26-.23-.09-.08-.18-.15-.26-.23-.08-.07-.16-.14-.24-.21-.09-.08-.17-.15-.26-.23-.51-.46-1.01-.92-1.51-1.39-.13-.12-.26-.25-.39-.37-.13-.12-.26-.25-.39-.38-.07-.07-.14-.14-.21-.2-.05-.05-.11-.11-.16-.16-.05-.05-.11-.11-.16-.16-.1-.1-.19-.19-.29-.29-.06-.06-.11-.11-.17-.17-.06-.06-.11-.12-.17-.17-.17-.17-.34-.35-.5-.52-.12-.13-.25-.26-.37-.39-.13-.14-.26-.28-.4-.42-.08-.09-.16-.18-.25-.27-.1-.11-.2-.22-.3-.33-.1-.11-.2-.22-.3-.33-.1-.11-.2-.22-.3-.33-.1-.11-.2-.22-.29-.34-.1-.11-.2-.22-.29-.34-.08-.09-.16-.19-.24-.28-.08-.09-.16-.19-.24-.28-.1-.12-.2-.23-.3-.35-.06-.07-.12-.15-.18-.22-.08-.1-.16-.19-.24-.29-.08-.1-.16-.19-.24-.29s-.16-.19-.23-.29c-.06-.07-.12-.15-.18-.22-.08-.11-.17-.21-.25-.32-.14-.18-.27-.35-.41-.53-.08-.11-.17-.22-.25-.33-.04-.05-.08-.11-.12-.16-.12-.15-.23-.31-.35-.46-.09-.12-.17-.23-.25-.35-.07-.09-.14-.19-.21-.28-.08-.11-.15-.21-.23-.32-.07-.1-.15-.2-.22-.31-.07-.1-.14-.2-.21-.3-.14-.2-.28-.41-.42-.61-.03-.04-.05-.08-.08-.12-.18-.27-.36-.54-.54-.81-.07-.1-.14-.21-.2-.31-.07-.1-.14-.21-.2-.31-.14-.21-.27-.42-.4-.63t0,0c-.1-.16-.2-.31-.29-.47-.1-.16-.2-.32-.29-.48-.06-.09-.12-.19-.17-.28-.05-.08-.09-.15-.14-.23-.2-.34-.4-.67-.59-1.01-.04-.08-.09-.16-.13-.24-.07-.12-.14-.24-.2-.36-.09-.16-.17-.31-.26-.47-.06-.11-.12-.22-.18-.33-.06-.11-.12-.22-.18-.33-.07-.14-.15-.28-.22-.42-.07-.14-.15-.28-.22-.42-.15-.29-.3-.58-.44-.87-.08-.15-.15-.31-.23-.46-.13-.26-.25-.51-.37-.77-.12-.26-.24-.52-.36-.78-.08-.17-.16-.35-.24-.52,0-.01-.01-.03-.02-.04-.08-.17-.16-.35-.23-.52-.05-.12-.11-.24-.16-.37-.05-.11-.09-.22-.14-.32-.08-.19-.16-.38-.24-.57-.04-.1-.09-.21-.13-.31-.04-.1-.08-.2-.12-.3-.01-.03-.02-.06-.04-.09-.03-.08-.07-.16-.1-.25-.07-.18-.14-.36-.21-.54-.06-.14-.11-.29-.17-.43-.25-.67-.5-1.34-.73-2.01-.03-.09-.06-.19-.1-.28-.05-.14-.09-.27-.14-.41-.07-.21-.14-.41-.2-.62-.03-.1-.06-.2-.09-.3-.03-.08-.05-.16-.07-.24-.06-.18-.11-.36-.17-.54-.04-.14-.08-.27-.12-.41-.04-.15-.09-.3-.13-.45-.03-.09-.05-.18-.08-.27-.04-.14-.08-.28-.12-.42,0-.03-.02-.06-.02-.09-.04-.13-.07-.27-.11-.4-.04-.14-.07-.27-.11-.41-.05-.19-.1-.39-.15-.59-.02-.1-.05-.19-.07-.29-.03-.12-.06-.25-.09-.37-.02-.09-.05-.19-.07-.28-.03-.14-.06-.28-.1-.41-.03-.14-.06-.27-.09-.41-.02-.1-.05-.21-.07-.31-.02-.09-.04-.18-.06-.27-.08-.36-.15-.71-.22-1.07-.02-.1-.04-.2-.06-.29-.02-.1-.04-.19-.06-.29-.03-.14-.05-.28-.08-.42,0,0,0-.01,0-.02-.02-.12-.04-.24-.06-.35,0-.05-.02-.11-.03-.16,0-.03-.01-.05-.01-.08-.03-.18-.06-.36-.09-.54-.01-.08-.02-.15-.04-.23-.03-.18-.06-.36-.08-.55-.02-.1-.03-.2-.04-.29-.02-.13-.04-.25-.05-.38-.02-.14-.04-.28-.06-.43-.02-.14-.04-.29-.06-.43,0-.03,0-.06-.01-.09-.01-.11-.03-.21-.04-.32-.03-.24-.06-.49-.08-.73-.01-.1-.02-.2-.03-.3-.02-.19-.04-.38-.06-.58,0-.1-.02-.19-.03-.29,0-.1-.02-.19-.03-.29-.01-.13-.02-.26-.03-.39-.01-.13-.02-.26-.03-.39,0-.11-.02-.23-.02-.34,0-.09-.01-.17-.02-.26-.01-.15-.02-.29-.03-.43-.01-.18-.02-.36-.03-.54-.01-.27-.03-.54-.04-.8-.01-.3-.02-.6-.03-.9,0-.3-.01-.6-.02-.9,0-.3,0-.6,0-.91,0-.15,0-.3,0-.45h0c0-.15,0-.3,0-.44v-.03c0-.15,0-.29,0-.44.02-1.23.08-2.46.17-3.67.02-.23.04-.47.06-.7,0-.07.01-.13.02-.2.01-.13.02-.26.04-.39.02-.22.04-.43.06-.65.02-.17.04-.35.06-.52.02-.19.04-.37.06-.55.01-.11.03-.22.04-.32.01-.1.02-.19.04-.29.02-.19.05-.39.08-.58.03-.19.05-.39.08-.58.03-.19.06-.39.09-.58.02-.15.05-.3.07-.46.03-.17.06-.34.09-.51.02-.09.03-.18.05-.28.03-.16.06-.32.09-.48.03-.17.06-.34.09-.5,0-.03.01-.06.02-.09.02-.09.03-.18.05-.27.02-.1.04-.2.06-.3.02-.11.05-.22.07-.33.14-.66.28-1.32.44-1.98.02-.08.04-.17.06-.25.02-.08.04-.17.06-.25.05-.18.09-.37.14-.55.1-.38.2-.75.3-1.13.05-.19.1-.37.16-.56,0,0,0,0,0,0,.05-.18.11-.37.16-.55.05-.18.11-.37.17-.55.06-.18.11-.37.17-.55,0,0,0,0,0-.01.06-.18.11-.36.17-.54.06-.18.12-.37.18-.55.06-.18.12-.36.18-.54,0,0,0-.01,0-.01.06-.18.12-.35.18-.53.06-.18.13-.36.19-.54.06-.18.13-.36.2-.54.06-.17.12-.33.19-.5,10.24-27,37.43-46.3,69.36-46.3.3,0,.59,0,.89,0,.14,0,.29,0,.43,0,.08,0,.16,0,.24,0,.22,0,.44,0,.66.02.09,0,.19,0,.28,0,.21,0,.41.01.62.02.17,0,.35.01.52.02.18,0,.35.02.53.03.18.01.37.02.55.03.17.01.34.02.51.03.11,0,.22.01.32.02.17.01.34.02.51.04.07,0,.14.01.21.02.06,0,.11,0,.17.01.1,0,.21.02.31.03.18.02.35.03.53.05.18.02.35.03.53.05.1,0,.2.02.29.03.17.02.34.04.51.06.19.02.38.04.58.07.12.01.25.03.37.04.18.02.35.04.53.07.17.02.33.04.5.07.08.01.16.02.24.03.26.04.53.07.79.12.08.01.16.02.23.04.22.03.44.07.65.1.09.01.17.03.26.04.19.03.38.06.57.1.2.03.4.07.61.11.3.05.6.11.9.17.15.03.3.06.45.09.15.03.3.06.45.09.21.04.43.09.64.14.11.02.21.05.32.07.11.02.21.05.32.07.05.01.1.02.15.03.22.05.44.1.66.15.07.02.15.03.22.05.09.02.18.04.27.06.1.02.2.05.3.07.15.04.3.07.45.11.11.03.22.06.33.08.22.06.44.12.66.17.14.04.28.07.42.11.08.02.16.04.24.07.44.12.87.25,1.31.38.22.06.43.13.65.2.13.04.25.08.38.12.09.03.18.06.27.08.19.06.37.12.55.18.06.02.12.04.18.06.19.06.37.12.56.19,1.07.36,2.13.74,3.17,1.15.21.08.41.16.62.24.09.04.18.07.27.11.11.05.23.09.34.14.02,0,.05.02.07.03.19.08.38.16.57.23.14.06.28.12.42.18.12.05.25.11.37.16.21.09.43.19.64.28.08.03.15.07.23.1.12.05.24.11.37.17.05.02.11.05.16.07.11.05.23.1.34.16.13.06.26.12.38.18.15.07.29.14.43.21.13.06.26.13.4.19.08.04.17.08.25.12.09.05.19.09.28.14.18.09.35.18.53.26.28.14.57.29.85.44.13.07.26.14.39.21.19.1.39.21.58.31.17.09.35.19.52.28.1.06.21.11.31.17.15.08.29.16.43.24.21.12.42.24.63.36.04.03.09.05.13.08.14.08.27.16.41.24.02.01.04.02.06.04.13.08.27.16.4.24.09.05.18.1.26.16.14.09.29.17.43.26.19.12.39.24.58.36.13.08.26.16.39.25.07.04.14.09.21.13.13.08.25.16.38.24.13.08.25.16.38.25.14.09.29.19.43.29.11.07.21.14.32.21.06.04.11.08.17.12s.11.08.17.12c.1.07.2.14.3.2.23.16.46.32.69.48.08.05.16.11.23.17.13.1.27.19.4.29.12.09.24.17.36.26.24.17.47.35.71.52.12.09.23.18.35.26.17.13.33.25.5.38.11.09.23.18.34.26.08.06.16.12.23.18.14.11.27.21.41.32.16.13.31.25.47.38.13.11.26.21.39.32.12.1.25.21.37.31.1.08.19.16.29.24.14.12.29.24.43.37.14.12.29.25.43.37.13.12.27.23.4.35.14.13.28.25.43.38.09.08.19.17.28.25.09.08.17.16.26.23.08.07.16.14.23.21.13.12.27.25.4.37.13.13.27.25.4.38.09.08.18.17.26.25,0,0,0,0,0,0h0s.02.01.02.02c.14.14.28.27.42.41.03.03.06.06.09.09.1.1.2.2.3.3.09.09.18.18.27.27.29.29.58.59.86.88.08.08.16.17.24.25.43.45.85.9,1.26,1.36.09.1.19.21.28.31.07.08.15.16.22.25.08.09.16.18.23.26.04.05.08.09.12.14.04.04.08.09.12.13.21.24.41.47.61.71.12.14.23.27.34.41.02.03.05.06.07.09.07.08.14.16.2.25,0,0,0,0,0,0,.07.08.14.17.2.25.4.49.78.98,1.17,1.47.03.03.05.07.08.11.17.22.34.45.51.67.12.16.24.33.36.49.08.11.17.23.25.34.11.15.22.31.33.46.28.39.55.78.82,1.18.04.06.08.12.12.18.08.12.16.24.24.36.07.1.14.21.21.31.07.1.14.21.2.31,0,0,.01.02.02.02.05.07.09.15.14.22.02.03.04.06.06.1.04.06.08.13.12.19,0,0,0,0,0,0,.03.05.06.1.09.15.21.34.43.67.63,1.01.3.49.59.98.88,1.47.11.19.22.37.32.56.05.09.1.19.16.28.11.19.21.38.32.57.05.09.1.19.15.28.05.09.1.19.15.28.06.1.11.21.17.31.08.16.17.32.25.48.22.43.44.86.65,1.29.04.08.08.16.12.25.08.17.16.34.24.51.06.12.11.23.17.35.07.14.13.27.19.41.04.09.09.19.13.28.05.11.1.22.15.33.04.08.07.16.11.24.03.05.05.11.07.17.08.18.16.35.23.53.05.12.1.24.15.35.06.14.12.27.17.41.05.12.1.25.16.37.05.12.1.24.15.36.04.1.08.21.13.31.09.22.18.44.26.66.06.16.12.32.18.48.08.21.16.42.23.63.06.16.12.32.18.49.03.08.06.17.09.25.04.12.09.25.13.37.02.05.04.11.06.16.03.08.06.16.08.24.11.33.22.66.33.99.03.09.06.19.09.28.11.34.22.69.32,1.03.03.12.07.23.1.35.03.12.07.23.1.35.03.11.06.22.09.32.03.12.07.23.1.35.05.19.1.37.15.56.06.22.11.43.17.65.07.26.13.53.2.8.04.16.08.31.11.47.03.14.07.28.1.43.12.53.24,1.06.35,1.6.03.16.06.31.09.47.02.12.05.24.07.36.02.09.03.18.05.27.02.1.04.2.06.31.02.14.05.28.07.42.05.27.09.53.13.8.01.08.03.16.04.24.04.22.07.45.1.67,0,.04.01.08.02.12.01.08.02.16.03.24.02.17.05.34.07.52.02.13.03.25.05.37.02.16.04.32.06.48.02.14.03.28.05.42.02.14.03.28.05.43,0,.06.01.13.02.19,0,.07.02.15.02.22,0,.08.02.16.02.24,0,.08.02.16.02.24,0,.1.02.19.03.29.01.15.03.3.04.45.02.19.03.39.05.59,0,.07.01.15.02.22.02.23.03.46.05.68,0,.12.01.25.02.37,0,.1.01.19.02.29,0,.13.01.25.02.38.01.26.02.52.03.79,0,.14,0,.28.01.42,0,.11,0,.22,0,.32,0,.07,0,.15,0,.22,0,.12,0,.23,0,.35,0,.1,0,.21,0,.31,0,.22,0,.45,0,.67,0,2.21-.11,4.39-.32,6.55,0,0,0,0,0,0,0,.06-.01.12-.02.17-.01.15-.03.29-.05.44-.02.15-.03.29-.05.44-.02.15-.03.29-.05.44-.01.12-.03.25-.05.37-.02.17-.04.34-.07.51-.04.29-.08.58-.12.87-.04.28-.09.57-.13.85,0,.03-.01.06-.02.09-.02.12-.04.24-.06.36-.02.14-.05.29-.07.43-.02.11-.04.23-.06.34-.02.11-.04.23-.06.34,0,0,0,0,0,0-.01.06-.02.12-.03.18-.03.18-.07.37-.11.55-.02.1-.04.21-.06.31-.06.29-.12.57-.18.86-.02.09-.04.18-.06.27,0,.02,0,.04-.01.06-.01.05-.02.1-.03.16-.03.13-.06.26-.09.38-.03.14-.06.27-.1.41-.1.43-.2.85-.31,1.27-.04.14-.07.28-.11.42-.05.17-.09.34-.14.52-.03.11-.06.22-.09.32-.04.14-.08.27-.11.4-.08.28-.16.57-.25.85-.04.14-.08.28-.13.42-.09.3-.18.59-.28.88-.03.09-.06.19-.09.28-.05.16-.1.32-.16.48-.06.17-.11.34-.17.5,0,.02-.02.05-.02.07-.05.16-.11.32-.17.47-.03.1-.07.2-.11.3t0,0c-.03.09-.07.19-.1.28-.28.77-.57,1.53-.88,2.29-.06.15-.12.3-.19.45-.06.16-.13.31-.2.47-.33.78-.67,1.55-1.03,2.31-.13.27-.26.55-.39.82,0,0,0,0,0,0-.13.26-.25.51-.38.77-.14.28-.28.56-.43.84-.07.13-.14.27-.21.4-.07.14-.15.29-.23.43-.07.13-.14.26-.21.39-.02.04-.04.07-.06.11-.06.12-.13.23-.19.35-.09.17-.19.34-.28.51-.05.08-.09.16-.14.24-.04.08-.09.16-.13.23-.07.13-.15.26-.22.39,0,0,0,0,0,0-.08.14-.16.27-.24.41-.13.23-.27.46-.41.68-.08.13-.15.25-.23.38-.09.15-.19.31-.29.46-.19.31-.39.61-.58.91-.1.15-.2.3-.3.45-.08.13-.17.26-.26.39-.04.06-.09.13-.13.19-.08.12-.16.24-.24.36-.09.14-.19.27-.28.41-.1.15-.21.3-.31.44-.1.15-.21.29-.31.44-.21.29-.42.58-.63.87-.11.14-.21.29-.32.43-.22.29-.43.57-.65.86,0,0,0,.01-.01.02-.11.14-.21.27-.32.41-.11.14-.22.28-.34.42-.11.14-.22.28-.34.42-.23.28-.46.56-.69.83-.12.14-.23.27-.35.41-.12.14-.23.27-.35.41-.24.27-.47.54-.71.81-.12.13-.24.27-.36.4-.12.13-.24.27-.36.4-.12.13-.24.26-.37.39,0,0,0,0,0,0-.12.13-.25.26-.37.39-.12.12-.23.24-.35.36-.02.02-.03.04-.05.05-.12.12-.23.24-.35.36-.25.26-.51.51-.76.77-.12.12-.24.24-.36.36-.01.01-.03.03-.04.04-.12.12-.24.24-.37.36-.13.12-.25.24-.38.36,0,0,0,0-.01.01-.12.12-.25.24-.38.35-.4.38-.81.75-1.22,1.11-.13.12-.27.24-.41.36-.14.12-.27.24-.41.36-.14.12-.27.24-.41.35-.13.11-.26.22-.39.33-.16.14-.33.28-.5.41-.12.1-.24.2-.37.3-.28.23-.56.46-.85.68-.13.11-.27.21-.4.31-.11.08-.22.17-.32.25-.09.07-.18.14-.27.21-.41.32-.83.63-1.25.94-.1.08-.2.15-.31.22-.42.3-.84.6-1.26.9-.1.07-.19.14-.29.2-.63.43-1.27.86-1.92,1.27-.11.07-.22.14-.33.21-.44.28-.88.55-1.33.82-.1.06-.2.12-.3.18-.08.04-.15.09-.23.14-.16.1-.33.2-.5.29-.11.07-.23.13-.34.2-.11.06-.21.12-.32.18-.12.07-.24.14-.37.21-.38.22-.77.43-1.16.64-.11.06-.21.11-.32.17-.69.37-1.39.73-2.1,1.08-.09.04-.18.09-.27.13-.49.24-.98.47-1.47.7-.11.05-.22.1-.32.15-.49.22-.98.44-1.48.65-.1.04-.2.08-.3.13-.11.05-.21.09-.32.14-.15.06-.3.13-.45.19-.26.1-.51.21-.77.31-.11.04-.22.09-.33.13-.16.06-.31.12-.47.18-.5.19-1,.38-1.5.56-.11.04-.23.08-.34.12-.05.02-.09.03-.14.05-.11.04-.21.07-.32.11-.31.11-.61.21-.92.31-.18.06-.36.12-.53.18,0,0,0,0,0,0-.17.06-.35.11-.52.17,0,0-.01,0-.01,0-.15.05-.29.09-.44.14-.06.02-.11.04-.17.05-.15.05-.31.09-.46.14-.17.05-.34.1-.51.15-.14.04-.28.08-.41.12-.11.03-.21.06-.32.09-.3.08-.6.17-.9.25-.07.02-.14.04-.21.06-.13.03-.25.07-.38.1-.17.04-.33.09-.49.13-.53.13-1.06.26-1.59.39-.1.02-.21.05-.31.07-.07.02-.14.03-.22.05-.09.02-.19.04-.28.06-.05.01-.1.02-.15.03-.11.03-.23.05-.34.07-.04,0-.08.02-.12.03-.13.03-.25.05-.38.08-.14.03-.29.06-.43.09-.12.02-.23.05-.35.07-.23.05-.47.09-.7.13-.09.02-.17.03-.26.05-.18.03-.36.06-.53.09-.18.03-.37.06-.55.09-.17.03-.33.05-.5.08-.38.06-.76.12-1.14.18-.1.01-.19.03-.29.04-.12.02-.23.03-.35.05,0,0-.01,0-.02,0-.17.02-.35.05-.52.07-.37.05-.74.09-1.11.14-.09.01-.18.02-.28.03-.13.01-.26.03-.39.04-.19.02-.39.04-.58.06-.19.02-.39.04-.58.06,0,0-.02,0-.02,0-.18.02-.36.03-.53.05-.03,0-.07,0-.1,0-.14.01-.28.02-.42.03-.1,0-.19.01-.29.02-.03,0-.06,0-.09,0-.14.01-.29.02-.43.03-.2.01-.41.03-.61.04-.13,0-.27.02-.4.02-.03,0-.06,0-.09,0-.18,0-.35.02-.53.03-.18,0-.36.02-.54.02-.06,0-.12,0-.18,0-.31.01-.62.02-.93.03h-.01c-.12,0-.23,0-.35,0-.13,0-.25,0-.37,0-.17,0-.35,0-.52,0-.22,0-.44,0-.66,0-.31,0-.61,0-.92,0ZM94.23,63.44c.31.03.62.07.93.13.37.07.74.15,1.11.22.34.07.67.16,1,.25.08.02.16.05.25.07-.08.07-.16.15-.24.22-.3.29-.58.61-.84.93-.44.55-.89,1.1-1.23,1.72-.35.62-.64,1.28-.92,1.94-.38.9-.75,1.81-1.09,2.73-.19.52-.37,1.04-.53,1.56-.13.45-.27.9-.37,1.35-.23,1.03-.39,2.07-.45,3.12-.05.98.1,1.94.17,2.91.03.52.03,1.05.08,1.57.05.54.13,1.06.23,1.59.09.5.15,1.01.24,1.51.05.27.11.54.2.81.08.23.17.45.25.68.05.15.09.29.15.44.03.08.05.17.1.24.05.08.12.15.21.17.04.02.08.04.13.04.15,0,.21-.13.19-.24.05-.17.03-.39.02-.54-.02-.43-.05-.85-.08-1.28-.05-1.06.02-2.12.08-3.18.05-.62.13-1.24.21-1.85.08-.62.1-1.24.13-1.86.03-.3.07-.59.13-.89.1-.41.21-.82.34-1.22.24-.67.52-1.33.81-1.98.3-.66.58-1.33.9-1.99.36-.69.74-1.36,1.07-2.06.27-.57.51-1.16.79-1.72.21-.39.44-.77.68-1.14.21-.31.43-.61.67-.89.07-.07.13-.14.2-.21.01-.01.02-.02.04-.04.07-.07.14-.14.21-.21.02-.02.04-.04.06-.06.03-.03.06-.06.09-.09.02-.02.03-.03.05-.05,0,0,.01-.01.02-.01.02-.02.04-.04.06-.05.06-.06.13-.12.19-.17,0,0,0,0,.01,0,.02.02.04.03.07.05.01,0,.02.01.03.02.02.02.04.03.07.04.06.04.12.08.18.11.41.22.88.42,1.35.45.24.02.48.03.72.04.11,0,.22.01.32.02.46.04.91.12,1.37.19.49.07.98.16,1.47.25.36.08.71.17,1.06.28.89.32,1.77.68,2.62,1.1.41.22.81.46,1.2.7.86.6,1.69,1.24,2.48,1.92.53.49,1.04,1,1.53,1.54.86,1,1.71,2.02,2.5,3.07.82,1.09,1.64,2.19,2.41,3.31.64.98,1.21,2,1.74,3.05.35.69.64,1.4.92,2.11.14.36.29.71.47,1.04.17.32.38.7.74.83.1.04.19.05.29.05.29,0,.56-.16.69-.45.1-.23.09-.48.08-.72-.02-.25-.03-.51-.06-.76-.05-.49-.12-.99-.2-1.48-.09-.55-.18-1.11-.35-1.65-.18-.55-.38-1.08-.57-1.62-.37-.99-.83-1.94-1.35-2.87-.49-.87-1-1.72-1.54-2.56-1.17-1.81-2.41-3.58-3.87-5.17-.7-.76-1.48-1.46-2.27-2.13-.83-.7-1.69-1.35-2.61-1.94-.8-.52-1.66-.96-2.5-1.41-.5-.27-1.01-.52-1.53-.75-.05-.02-.1-.04-.14-.06-.12-.05-.23-.09-.35-.14-.05-.02-.1-.04-.15-.05-.06-.02-.12-.04-.18-.06-.02,0-.04-.01-.06-.02.19-.08.37-.16.56-.23.1-.04.2-.08.3-.12.3-.12.6-.23.91-.33.52-.17,1.04-.34,1.56-.48.51-.14,1.02-.26,1.53-.37.64-.13,1.27-.23,1.92-.32.64-.08,1.29-.13,1.93-.18,1.11-.07,2.22-.09,3.33-.08,1.02.01,2.03.09,3.04.16.85.06,1.69.13,2.53.28.79.17,1.56.39,2.33.64.81.3,1.61.62,2.39,1,1.18.61,2.27,1.37,3.38,2.09.52.34,1.04.7,1.6.95.2.09.42.15.64.15h0c.13,0,.24-.04.35-.1.28.05.49-.29.35-.53-.06-.09-.16-.15-.26-.17-.15-.28-.37-.51-.59-.75-.13-.14-.25-.29-.37-.43-.63-.72-1.29-1.42-1.97-2.11-.73-.74-1.54-1.4-2.45-1.92-.92-.52-1.89-.97-2.88-1.32-.52-.19-1.05-.38-1.59-.52-.55-.14-1.11-.24-1.68-.32-1-.14-2.01-.18-3.02-.25-1.09-.08-2.18-.13-3.28-.11-1.08.01-2.15.06-3.22.15-1.04.08-2.07.2-3.1.39-1.03.2-2.05.43-3.06.75-.1.03-.21.07-.31.1-.09.03-.18.06-.27.09-.02,0-.04.02-.07.02-.09.03-.19.07-.28.1-.01,0-.02,0-.03.01-.08.03-.17.06-.25.09-.13.05-.25.09-.38.14-.08.03-.17.06-.25.1-.06.02-.12.05-.18.07-.02,0-.04.02-.07.03-.04.02-.08.03-.13.05-.08.03-.15.06-.23.09.05-.09.11-.17.16-.26.05-.09.11-.17.16-.26.05-.09.11-.17.17-.26.06-.09.11-.17.17-.26.57-.82,1.17-1.62,1.82-2.38.48-.54,1-1.05,1.53-1.54.47-.4.96-.77,1.47-1.12.67-.45,1.34-.88,2.05-1.26.46-.23.93-.42,1.41-.6.25-.09.51-.18.75-.29.19-.09.38-.2.44-.42.06-.23-.05-.47-.26-.58-.19-.1-.4-.11-.61-.08-.42.06-.83.17-1.24.29-.44.13-.87.27-1.28.45-.81.36-1.57.8-2.32,1.25-.77.47-1.51.99-2.21,1.57-.67.54-1.32,1.11-1.92,1.73-.64.66-1.26,1.34-1.83,2.06-.54.68-1.03,1.4-1.55,2.1-.07.09-.14.18-.2.27-.06.08-.12.17-.19.25-.04.06-.09.12-.13.18-.09-.09-.19-.18-.28-.26-.08-.07-.16-.15-.24-.22-.21-.18-.41-.36-.62-.54-.24-.22-.48-.44-.72-.66-.28-.25-.58-.46-.89-.67-.3-.2-.61-.38-.93-.56-.28-.16-.56-.32-.85-.47-.63-.32-1.29-.58-1.96-.82-.36-.14-.72-.27-1.09-.39-.33-.1-.66-.19-.99-.27-.71-.17-1.43-.34-2.16-.45-.7-.11-1.41-.16-2.12-.15-.72,0-1.45.06-2.17.12-.69.05-1.38.11-2.08.16.03,0,.07,0,.1,0-.38.03-.76.06-1.14.09-.23.01-.48.01-.69.12-.21.11-.28.38-.19.58.11.27.41.4.67.48.26.07.53.13.8.17.51.08,1.02.1,1.53.15,1.03.09,2.07.07,3.11.13.63.04,1.26.12,1.88.23.49.1.97.22,1.46.34.49.12.98.25,1.45.41.39.15.78.3,1.16.46.35.15.71.3,1.06.46.54.28,1.06.61,1.58.94.25.18.5.36.74.56.2.18.4.38.6.56.2.19.41.37.61.56.08.08.17.16.26.23.09.08.17.16.26.23,0,0,0,0,0,0-.03.02-.05.04-.07.07,0,0-.01.01-.02.02-.03.02-.05.05-.08.07-.03.03-.06.06-.08.09s-.05.06-.08.09c-.02.03-.05.06-.07.09,0,0,0,0-.01.01-.02.03-.04.05-.06.08-.05.07-.09.14-.13.21-.02.04-.04.07-.06.11-.01.03-.03.05-.04.08-.07-.03-.13-.05-.19-.08-.32-.15-.63-.28-.97-.39-.34-.12-.69-.23-1.04-.32-.35-.1-.7-.17-1.05-.24.03,0,.06.01.1.02-.19-.04-.38-.08-.57-.12-.4-.09-.8-.19-1.21-.24-.39-.05-.78-.07-1.17-.08-.77-.03-1.53,0-2.3.07-.7.07-1.39.18-2.07.31-.75.15-1.51.29-2.24.54-1.47.49-2.91,1.08-4.26,1.84-.32.18-.64.36-.95.57-.32.21-.63.43-.94.66-.6.44-1.2.88-1.77,1.35-.62.51-1.21,1.05-1.79,1.6-.52.48-1,1-1.52,1.48-.28.26-.56.52-.83.79-.27.28-.52.6-.76.91-.23.31-.44.64-.6.99-.09.19-.19.41-.19.63,0,.25.1.5.33.63.1.06.21.08.31.08.19,0,.38-.08.53-.22.14-.13.27-.28.39-.43.43-.48.86-.96,1.34-1.4.45-.39.92-.75,1.37-1.14.46-.4.93-.79,1.4-1.17.48-.39.96-.77,1.46-1.13.47-.34.95-.67,1.43-1,.29-.19.57-.38.87-.56.28-.17.57-.33.87-.48.5-.25,1.01-.49,1.53-.71.53-.22,1.07-.42,1.61-.61.64-.22,1.29-.41,1.95-.56,1.17-.23,2.34-.44,3.53-.53.28-.01.56-.02.84-.02.37,0,.75.01,1.12.03Z"/>
  <path class="cls-5" d="M120.18,22.82c-.49-1.25-1.6-2.29-2.9-2.61-.84-.2-1.73,0-2.53.27-.75.2-1.47.49-2.15.88-2.03,1.25-3.41,3.27-4.62,5.27-.4.68-.79,1.36-1.1,2.08-.35.83-.55,1.7-.85,2.55-.21.57-.41,1.17-.58,1.77-.27.39-.49.82-.69,1.25l-.08-.06-.09-.07-.09-.07-.09-.07-.09-.07-.09-.07-.09-.07-.09-.07-.09-.07-.09-.07-.09-.07-.1-.07-.1-.08-.1-.08-.1-.08-.1-.08-.1-.08-.1-.08-.1-.08-.1-.08-.1-.08-.1-.08-.1-.08-.11-.08-.11-.08-.11-.08-.11-.08-.11-.08-.11-.09-.12-.09-.12-.09-.13-.09-.13-.09-.13-.09-.13-.1-.14-.1-.14-.1-.14-.1-.14-.1-.14-.1-.14-.1-.15-.11-.15-.11-.15-.11-.15-.11-.15-.1-.15-.11-.16-.11-.16-.11-.16-.11-.17-.11-.17-.11-.17-.11-.17-.11-.18-.11-.18-.11-.18-.11-.18-.11-.19-.11-.19-.11-.2-.11-.2-.11-.2-.11-.2-.11-.2-.11-.2-.11-.21-.11-.21-.11-.21-.11-.21-.11-.21-.11-.22-.11-.22-.11-.22-.11-.23-.11-.23-.11-.23-.11-.23-.11-.23-.1-.23-.1-.23-.1-.23-.1-.23-.1-.23-.1-.23-.1-.23-.1-.23-.1-.23-.1-.23-.09-.23-.09-.23-.09-.24-.09-.25-.09-.24-.09-.24-.09-.25-.09-.25-.09h-.03s-.23-.09-.23-.09l-.25-.08-.24-.08-.24-.08-.25-.08-.25-.08-.25-.08-.25-.08-.24-.08-.25-.07-.26-.08-.26-.07-.26-.07-.26-.07-.25-.07-.25-.07-.26-.07-.26-.06-.26-.06-.26-.06-.25-.05-.25-.05-.26-.05-.26-.05-.27-.05-.27-.05-.26-.05-.26-.05-.27-.05-.27-.05-.27-.05-.27-.05-.26-.05-.26-.05-.27-.05-.27-.05-.27-.04-.27-.04-.26-.04-.26-.04-.27-.04-.27-.04-.27-.04-.27-.04-.27-.04-.27-.03-.28-.04-.27-.03-.27-.03-.27-.03-.26-.03-.26-.03-.27-.03-.27-.03-.28-.03-.28-.03-.28-.03-.28-.03-.29-.03-.19-.02h-.1s-.29-.03-.29-.03l-.29-.02-.28-.02-.28-.02h-.29s-.3-.02-.3-.02h-.3s-.31-.02-.31-.02h-.3s-.31,0-.31,0h-.32s-.33.01-.33.01h-.34s-.34.03-.34.03l-.33.02-.32.02-.33.02-.33.02-.33.03-.32.03-.33.03-.33.03-.34.03-.34.04-.34.04-.33.04-.33.05-.34.05-.34.06-.35.06-.35.07-.35.07-.36.08-.37.09-.37.09-.37.1-.37.1-.36.1-.36.11-.37.12-.37.12-.38.13-.38.13-.36.13-.36.13-.38.13-.38.13-.37.13-.36.13-.35.13-.35.13-.35.13-.35.13-.36.13-.36.13-.34.13-.34.12-.34.12-.34.12-.33.12-.33.12-.32.12-.32.11-.32.12h-.02s-.31.12-.31.12l-.32.11-.32.11-.31.11-.31.11-.31.11-.31.11-.31.11-.3.1-.25.09h-.04s-.28.11-.28.11l-.29.1-.29.11-.29.11-.29.11-.29.11-.29.11-.3.11-.3.12-.31.12-.31.12-.29.11-.29.11-.29.12-.29.12-.28.12-.28.12-.27.12-.26.12-.27.12-.27.13-.27.13-.27.13-.26.13-.25.13-.26.13-.26.14-.26.14-.26.14-.25.14-.25.15-.27.16-.27.17-.27.17-.28.18-.27.18-.27.19-.28.19-.28.2-.28.2-.28.2-.26.19-.26.19-.27.2-.26.21-.26.21-.26.21-.25.21-.25.21-.25.22-.25.23-.26.23-.26.24-.26.24-.26.24-.27.26-.28.26-.27.26-.27.26-.26.26-.26.26-.26.27-.27.28-.27.28-.27.28-.26.28-.25.28-.26.28-.19.21-.06.07-.26.28-.25.28-.25.28-.24.28-.25.29-.25.29-.25.29-.25.3-.24.29-.23.29-.24.3-.24.31-.23.3-.23.3-.22.3-.23.31-.23.31-.22.31-.22.31-.22.31-.21.3-.2.3-.2.31-.2.31-.19.31-.19.31-.18.3-.18.29-.17.3-.17.3-.17.29-.16.29-.16.28-.15.28-.16.29-.16.29-.16.29-.16.3-.15.29-.15.29-.15.3-.15.3-.15.31-.15.31-.15.3-.14.3-.14.3-.14.31-.13.3-.13.3-.12.29-.11.29-.11.29-.11.29-.1.28-.09.27-.09.26-.09.26-.08.25-.08.25-.07.25-.07.24-.07.24-.06.24-.06.24-.06.24-.06.24-.06.23-.06.23-.06.23-.05.23-.05.23-.05.23-.05.23-.05.23-.05.23-.05.24-.05.25-.05.25-.05.24-.05.24-.05.25-.05.25-.04.25-.04.25v.08s-.04.16-.04.16l-.04.24-.04.24-.04.24-.04.24-.04.24-.03.22v.07s-.03.15-.03.15l-.03.22-.03.21-.03.2-.03.2-.02.19-.02.19-.02.19-.02.19-.02.19-.02.19-.02.18v.19s-.02.19-.02.19v.19s-.02.19-.02.19v.19s-.02.18-.02.18v.18s-.01.18-.01.18v.18s0,.18,0,.18v.18s0,.17,0,.17v.17s0,.17,0,.17v.35s0,.17,0,.17v.17s.01.17.01.17v.17s.01.17.01.17v.17s.02.17.02.17v.17s.02.17.02.17v.17s.02.17.02.17v.18s.03.18.03.18v.17s.03.17.03.17v.18s.03.18.03.18v.18s.02.18.02.18v.18s.02.18.02.18v.18s.02.18.02.18v.18s.01.18.01.18v.18s.01.18.01.18v.18s0,.17,0,.17v.17s0,.17,0,.17v.16s0,.02,0,.02h0s0,.14,0,.14v.16s0,.16,0,.16v.16s.01.16.01.16v.15s0,.15,0,.15v.15s.01.15.01.15v.15s.01.15.01.15v.03s0,.12,0,.12v.14s.01.14.01.14v.14s.01.14.01.14v.14s.01.13.01.13v.13s0,.13,0,.13v.13s0,.13,0,.13v.13s0,.12,0,.12v.12s0,.13,0,.13v.12s0,.12,0,.12v.13s0,.13,0,.13v.13s0,.13,0,.13v.13s0,.14,0,.14v.14s0,.13,0,.13v.13s0,.13,0,.13v.13s0,.13,0,.13v.13s0,.12,0,.12v.12s0,.12,0,.12v.12s0,.11,0,.11v.11s0,.11,0,.11v.11s0,.1,0,.1v.11s0,.1,0,.1v.1s0,.1,0,.1v.1s.01.1.01.1v.11s.01.11.01.11v.11s.01.11.01.11v.11s.01.11.01.11v.11s.02.1.02.1v.1s.01.1.01.1v.1s.02.1.02.1v.1s.01.1.01.1v.09s.02.09.02.09v.09s.01.09.01.09v.09s.01.09.01.09v.08s.01.08.01.08v.08s.01.08.01.08v.08s.01.08.01.08v.08s.01.07.01.07v.07s.01.07.01.07v.07s.02.08.02.08v.08s.01.08.01.08v.08s.02.08.02.08v.07s.01.07.01.07v.07s.01.06.01.06v.06s.01.06.01.06v.05s0,.03,0,.03v.02s0,.05,0,.05v.05s0,.04,0,.04v.04s0,.04,0,.04v.04s0,.04,0,.04v.03s0,.03,0,.03v.03s0,.03,0,.03v.03s0,.03,0,.03v.03s0,.03,0,.03v.02s0,.02,0,.02v.02s0,.02,0,.02v.02s0,.02,0,.02v.02s0,.02,0,.02v.02s0,.02,0,.02v.02s0,.02,0,.02v.02s0,.02,0,.02v.02s0,.02,0,.02v.02s.01.02.01.02h0s.01.03.01.03h.01s.02.01.02.01h.02s.02,0,.02,0h.03s.03-.03.03-.03l.03-.02.03-.03.04-.03.04-.04.04-.04.04-.05.04-.05.04-.05.05-.06.05-.06.05-.06.05-.06.06-.07.06-.07.06-.08.06-.08.07-.08.07-.08.07-.09.07-.09.08-.09.08-.1.08-.1.08-.1.09-.1.09-.1.09-.1.09-.1.09-.1.07-.08.02-.02.09-.1.09-.1.09-.1.09-.1.09-.09.08-.09.09-.09.08-.09.08-.08.08-.08.08-.08.08-.07.08-.07.08-.07.08-.07.08-.07.08-.07.08-.07.08-.07.08-.07.08-.07.09-.07.09-.07.09-.08.1-.08.1-.08.11-.09.11-.09.11-.09.11-.09.11-.09.11-.09.11-.09.11-.09.11-.09.11-.08.11-.08.11-.08.11-.08.1-.07.1-.07.1-.07.1-.06.1-.06.1-.06.1-.06.1-.06.1-.06.11-.06h.01s.1-.06.1-.06l.11-.06.11-.06.11-.06.12-.06.12-.06.12-.06.12-.06.06-.03.07-.03.13-.06.13-.06.13-.06.13-.07.14-.07.13-.06.14-.06.14-.07.14-.07.15-.07.15-.07.15-.06.15-.06.16-.06.16-.06.16-.07.17-.07.16-.06.17-.07.17-.07.17-.07.17-.07.18-.07.17-.07.17-.07.17-.07.18-.07.17-.07.17-.07.17-.07.17-.07.17-.07.17-.06.17-.06.17-.06.17-.06.17-.05.17-.05.17-.05.17-.05.17-.05.17-.04.16-.04.13-.03h.04s.17-.05.17-.05l.17-.04.17-.04.17-.04.17-.04.17-.05.17-.05.17-.05.12-.03h.05s.17-.06.17-.06l.17-.04.18-.04.18-.05.18-.04.19-.04.18-.04.18-.04.19-.04.19-.04.19-.04.19-.04.18-.04.18-.04.18-.04.18-.04.17-.04.17-.04.17-.04.17-.04.17-.04.16-.04.16-.04.16-.04.16-.03.15-.03.15-.03.16-.03.15-.03.15-.03.15-.02.15-.02.15-.02.15-.02.14-.02.14-.02.14-.02h.14s.14-.03.14-.03h.14s.13-.02.13-.02h.13s.13-.02.13-.02h.13s.13-.02.13-.02h.13s.13-.02.13-.02h.13s.13-.02.13-.02h.13s.14-.02.14-.02h.14s.14-.02.14-.02h.15s.15-.02.15-.02h.15s.15-.03.15-.03h.15s.15-.03.15-.03h.15s.15-.03.15-.03h.15s.15-.03.15-.03h.15s.15-.03.15-.03l.15-.02.15-.02.15-.02.15-.02.15-.02.15-.02.15-.02.14-.02.14-.02.14-.02.15-.02.15-.02.15-.02.15-.02.15-.02.15-.02.16-.02.16-.02.16-.02.16-.02.16-.02.16-.02.16-.02.16-.02.16-.02.16-.02.16-.02.16-.02.16-.03.17-.03.17-.03.14-.02h.02s.16-.03.16-.03l.17-.03.17-.03.17-.03.17-.04.17-.04.17-.04.18-.04.18-.04.18-.04.18-.04.07-.02.1-.02.18-.04.18-.04.18-.05.18-.05.17-.05.17-.05.17-.05.17-.05.17-.05.17-.05.17-.05.16-.05.17-.05.17-.05.17-.05.17-.05.16-.05.16-.05.16-.05.17-.05.17-.05.16-.05.16-.05.16-.05.16-.05.16-.05.16-.05.16-.05.15-.05.15-.05.15-.05.15-.05.15-.05.15-.05.15-.05.15-.05.14-.05.15-.05.15-.05.15-.05.15-.05.15-.05.15-.05.16-.05.16-.05.16-.05.15-.05.16-.05.16-.05.16-.05.16-.05.16-.05.16-.05.16-.05.17-.05.17-.05.17-.05.17-.05.17-.05.16-.05.17-.05.17-.06.17-.06.17-.06.17-.06.17-.06.18-.06.18-.06.19-.06.19-.06.19-.06.19-.06.19-.06.19-.07.19-.06.19-.07.19-.07.19-.07.19-.07.19-.07.19-.07.19-.07.19-.07.19-.07.19-.07.2-.07.2-.07.2-.07.2-.07.2-.07.2-.07h.02s.19-.07.19-.07l.21-.08.21-.08.2-.07.2-.08.2-.08.2-.08.2-.08.2-.08.19-.08h.02s.17-.08.17-.08l.19-.08.19-.08.19-.08.2-.09.19-.09.19-.09.2-.09.2-.09.2-.1.21-.1.21-.1.2-.1.21-.1.21-.1.21-.1.21-.11.2-.11.2-.11.2-.11.2-.11.2-.11.2-.11.2-.11.19-.11.2-.11.2-.12.2-.11.2-.11.2-.11.19-.11.19-.11.2-.11.2-.11.19-.11.19-.11.19-.11.19-.11.19-.11.18-.11.18-.11.18-.11.18-.11.18-.12.18-.12.18-.12.18-.12.18-.12.18-.12.18-.12.18-.12.18-.12.18-.12.18-.12.17-.12.17-.12.17-.12.17-.12.17-.12.17-.11.16-.11.16-.11.16-.12.16-.12.16-.12.16-.12.16-.12.16-.12.16-.12.16-.13.16-.13.15-.13.15-.12.15-.13.15-.13.14-.13.14-.12.13-.12.13-.12.13-.12.13-.11.13-.11.05-.05.06-.06.12-.11.12-.11.12-.11.12-.11.12-.12.12-.11.11-.12.12-.12.12-.12.12-.13.12-.13.11-.12.11-.13.12-.13.12-.13.12-.13.12-.13.11-.13.11-.13.12-.13.12-.13.12-.13.12-.13.11-.13.1-.11v-.02s.13-.14.13-.14l.12-.14.12-.14.12-.14.12-.14.12-.14.12-.14.12-.14.12-.14.12-.14.12-.14.12-.14.12-.14.12-.14.12-.13.11-.13.11-.13.11-.13.11-.13.11-.13.11-.13.11-.13.1-.12.1-.12.1-.12.1-.12.1-.12.1-.12.1-.12.09-.11.09-.11.09-.11.09-.11.09-.11.08-.11.08-.11.08-.11.08-.11.08-.11.09-.12.08-.12.09-.12.09-.13.09-.13.09-.13.09-.13.09-.13.09-.13.09-.13.09-.13.09-.13.09-.13.09-.13.09-.13.09-.13.09-.13.09-.14.09-.14.09-.13.09-.14.1-.14.1-.14.09-.14.09-.14.09-.13.09-.13.09-.13.09-.13.09-.13.09-.13.08-.12.08-.12.08-.12.08-.12.08-.12.09-.12.08-.12.08-.11.08-.11.08-.11.08-.11.08-.1.07-.1.07-.1.07-.09.07-.09.08-.1.08-.1.07-.09.08-.1.08-.1.08-.1.08-.1.08-.1.08-.1.08-.1.08-.1.08-.1.08-.1.08-.1.08-.1.08-.1.08-.1.08-.1.08-.1.07-.09v-.02s.1-.1.1-.1l.08-.1.08-.11.08-.11.09-.11.08-.11.08-.11.08-.1.08-.1.08-.1.08-.1.08-.1.08-.1.07-.1.08-.1.07-.1.07-.1.07-.1.07-.1.07-.1.07-.1.07-.1.07-.1.07-.1.07-.09.06-.09.07-.09.06-.08h.01s.06-.1.06-.1l.06-.09.06-.09.06-.08.06-.08.06-.08.06-.08.06-.08.06-.08.06-.08.06-.08.07-.08.07-.08.07-.08.07-.08.07-.08.07-.08.07-.08.08-.08.08-.07.07-.07.08-.07.08-.07.08-.07.08-.07.08-.07.08-.07.08-.07.08-.07.08-.07.08-.07.08-.07.08-.06.08-.06.08-.06.07-.06.07-.06.07-.05.07-.05.07-.05.07-.05.07-.05.07-.05.07-.05.07-.05.07-.06.07-.05.07-.06.07-.05.07-.05.07-.05.07-.05.07-.05.07-.05.07-.05.07-.05.07-.05.08-.05.07-.05.08-.05.07-.05.07-.05.07-.04.07-.04.07-.04.07-.04.06-.04.06-.04.06-.04.06-.04.06-.04.06-.04.06-.04.06-.04.04-.03c-.05.19-.09.38-.13.57-.61,1.94-1.04,4.14-1.29,6.19-.51,3.08-1.36,6.14-1.24,9.28.05,1.43,0,2.85-.14,4.27-.04,1.53-.49,4.13.9,5.15.84.59,2.05.34,2.85-.21.76-.56.95-1.53,1.21-2.38.19-.75.3-1.51.44-2.26.27-1.18.68-2.33.96-3.52.35-1.25.69-2.51,1.08-3.75,1.53-3.99,2.88-8.07,4.76-11.91,1.43-2.95,3.59-5.44,5.4-8.15,1-1.49,2.04-3.06,2.44-4.83.26-1.1-.13-2.07-.84-2.81Z"/>
  <g>
    <path class="cls-2" d="M73.38,46.07s0,.02,0,.04c0,.02,0,.03,0,.05,0-.03,0-.06,0-.09Z"/>
    <path class="cls-2" d="M70.24,59.25s0,.04-.01.05c0-.01,0-.03,0-.04,0,0,0,0,0-.01Z"/>
    <path class="cls-2" d="M81.72,30.25s0,0,.01.01c.02.03.05.05.07.08-.03-.03-.05-.06-.08-.09Z"/>
    <path class="cls-2" d="M122.1,23.96c-.06-.55-.13-1.11-.37-1.62-.73-1.42-2.29-2.54-3.91-2.58-.6-.15-1.27-.13-2.13-.06-1.77-.04-3.27.98-4.66,1.96-.95.65-1.74,1.49-2.42,2.41-.53.65-1.08,1.29-1.49,2.02-1.03,1.91-1.97,3.92-2.31,6.08-.14.64-.29,1.29-.41,1.93-.03.16-.06.33-.09.5-.1.03-.21.06-.31.1-.14,0-.28-.01-.42,0-.76.01-1.52.04-2.27.13-.73.09-1.45.25-2.18.39-.29.06-.59.11-.88.16,0,0,0,0,0,0-.04-.11-.07-.22-.11-.32-.12-.31-.24-.62-.38-.92-.32-.68-.66-1.34-1.01-2-.61-1.14-1.24-2.26-1.95-3.34-.36-.56-.75-1.09-1.17-1.61-.08-.09-.15-.18-.23-.28l-.04-.02-.23-.1-.23-.1-.23-.1-.23-.1-.22-.1-.23-.1-.23-.1-.23-.1-.23-.1-.23-.1-.23-.09-.23-.09-.23-.09-.24-.09-.25-.09-.24-.09-.24-.09-.25-.09-.25-.09h-.02c.2.15.39.31.58.48.88.82,1.72,1.68,2.52,2.57.33.39.67.78.97,1.19.3.41.59.82.87,1.24.15.24.31.47.46.71.36.56.7,1.13,1.05,1.7.33.53.66,1.06.97,1.6.2.35.4.7.6,1.05,0,0,0,0,0,0-.28.05-.57.09-.85.14-1.05.18-2.1.35-3.16.5-.95.13-1.91.28-2.86.4-.55.07-1.1.15-1.65.24-.18-.22-.37-.44-.57-.65-.36-.38-.74-.74-1.12-1.1-.37-.36-.75-.71-1.14-1.05-.37-.33-.75-.64-1.12-.96-.39-.35-.76-.71-1.12-1.08-.36-.37-.69-.75-1.03-1.13.02.02.04.04.06.06-.2-.23-.4-.46-.61-.69-.42-.47-.84-.94-1.26-1.41-.88-.99-1.76-1.98-2.69-2.92-.46-.47-.92-.94-1.41-1.39-.5-.47-1.01-.94-1.54-1.36-.29-.22-.57-.45-.87-.66-.26-.19-.53-.38-.8-.55h-.1s-.29-.03-.29-.03l-.29-.02-.28-.02-.28-.02h-.29s-.3-.02-.3-.02h-.3s-.31-.02-.31-.02h-.3s-.31,0-.31,0h-.32s-.33.01-.33.01h-.34s-.34.03-.34.03l-.33.02h-.08c.33.09.65.19.98.29.24.09.48.18.72.28.2.08.4.18.6.27.25.13.49.26.73.39.25.14.5.3.75.45.34.23.68.46.99.72.34.28.68.55,1.02.84.6.54,1.19,1.09,1.76,1.65.93.91,1.82,1.87,2.7,2.82.9.98,1.79,1.97,2.7,2.94.44.47.9.94,1.38,1.37.51.45,1.05.88,1.58,1.3.52.42,1.04.85,1.55,1.28.26.22.53.44.79.66-1.88.31-3.77.56-5.65.91-1.01.19-2,.42-3,.63-1.01.22-2.02.43-3.03.64-.9.18-1.81.34-2.71.52-.1-.11-.2-.22-.3-.34-.75-.87-1.49-1.76-2.28-2.59-.74-.78-1.54-1.49-2.34-2.2-.42-.37-.83-.74-1.26-1.1-.41-.34-.82-.67-1.23-1-.43-.34-.85-.68-1.29-1.01-.47-.35-.95-.68-1.44-1.01-.43-.29-.89-.55-1.35-.78-.5-.26-1.01-.52-1.52-.76-.97-.45-1.95-.87-2.94-1.24-1.08-.4-2.16-.78-3.27-1.07-.55-.14-1.1-.27-1.66-.39l-.31.11-.32.11-.32.11-.31.11-.31.11-.31.11-.31.11-.31.11-.3.1-.25.09c.76.13,1.53.27,2.29.42.6.13,1.2.26,1.8.41.6.15,1.2.33,1.79.53.91.32,1.82.66,2.72,1.02.87.35,1.72.74,2.57,1.15.44.22.87.44,1.29.69.39.22.76.47,1.13.72.23.16.47.32.7.49.87.65,1.72,1.31,2.57,1.98.81.65,1.6,1.33,2.38,2.01.24.22.49.44.73.67.38.37.76.75,1.13,1.13.37.38.73.76,1.1,1.12.12.12.24.23.36.35,0,0,0,0,0,0-.65.14-1.29.29-1.94.42-.86.18-1.71.36-2.57.55-.85.18-1.69.38-2.53.6-.9.24-1.8.48-2.68.79-1.86.66-3.67,1.44-5.47,2.25-.34-.18-.67-.37-1.01-.56-.5-.27-1.01-.54-1.53-.78-1-.46-2.02-.88-3.06-1.25-1.25-.44-2.5-.86-3.76-1.27-1.25-.4-2.52-.8-3.81-1.08-.69-.15-1.39-.28-2.09-.37-.68-.09-1.37-.16-2.06-.2-.7-.04-1.4-.05-2.1-.06-.61,0-1.23,0-1.85.03-.75.05-1.49.1-2.23.18-.61.07-1.21.16-1.82.26-.23.04-.47.08-.7.12l-.06.07-.26.28-.25.28-.25.28-.24.28-.25.29-.25.29-.25.29-.24.29c.2-.04.4-.09.61-.13.87-.17,1.74-.34,2.62-.47.48-.07.95-.15,1.43-.2.46-.05.92-.09,1.38-.13.84-.04,1.68-.08,2.53-.06.43.01.86.02,1.29.04.39.01.78.04,1.16.06.97.09,1.93.23,2.88.42.39.09.79.17,1.18.27,1.26.35,2.5.74,3.74,1.15,1.21.4,2.43.78,3.63,1.19,1.15.4,2.29.84,3.4,1.34.06.03.12.05.17.08,0,0,0,0,0,0-.39.2-.79.4-1.17.6-.93.49-1.84,1-2.72,1.57-.9.58-1.79,1.19-2.63,1.85-.81.63-1.58,1.31-2.36,1.98-.76.66-1.56,1.27-2.34,1.92-.81.67-1.58,1.38-2.37,2.08-.4.35-.8.7-1.19,1.05-.02,0-.04,0-.06.01-.4.07-.79.19-1.18.27-.1.02-.2.04-.3.06-1.05.18-2.12.28-3.17.49-1.09.22-2.17.47-3.24.8-1.06.32-2.12.65-3.18,1-1.06.35-2.13.69-3.19,1.05-1.05.36-2.08.75-3.11,1.17-.49.2-.97.42-1.45.65-.52.25-1.04.5-1.55.78-.27.15-.54.31-.81.46l-.03.16-.04.24-.04.24-.04.24-.04.24-.04.24-.03.22v.07s.09-.06.14-.09c.51-.3,1.04-.58,1.57-.86.81-.39,1.62-.76,2.45-1.09.84-.34,1.69-.65,2.55-.96.79-.27,1.59-.53,2.38-.78.8-.26,1.59-.52,2.39-.78,1.08-.35,2.16-.69,3.25-1.02.53-.16,1.06-.29,1.6-.42.49-.12.99-.23,1.49-.34.42-.08.84-.16,1.25-.24.22-.04.44-.08.65-.13-.65.66-1.28,1.34-1.89,2.03.04-.05.08-.09.12-.14-.54.61-1.09,1.22-1.65,1.82-.51.56-.99,1.14-1.48,1.72-.58.65-1.19,1.28-1.78,1.92-.35.38-.71.76-1.05,1.15-.33.38-.65.77-.98,1.16-.62.73-1.27,1.44-1.85,2.2-.29.39-.57.78-.85,1.17,0,0,0,0,0,0-.24.02-.47.05-.71.09-.34.06-.67.13-1,.22-.16.04-.31.09-.46.15-.13.05-.27.09-.4.15-.23.1-.47.2-.7.32-.22.12-.45.23-.67.35-.24.14-.48.28-.72.42-.23.13-.44.28-.66.42-.21.13-.41.28-.61.42-.18.12-.36.25-.53.38-.4.3-.8.6-1.19.92-.25.21-.5.42-.75.63v.14s0,.16,0,.16v.16s0,.16,0,.16v.16s.01.15.01.15v.15s.01.15.01.15v.15s.01.15.01.15v.15s0,.03,0,.03c.29-.27.59-.54.89-.81.43-.36.85-.73,1.29-1.07.24-.19.48-.38.72-.56.24-.17.48-.34.72-.51.34-.22.67-.45,1.02-.66.35-.22.71-.42,1.08-.63-.02,0-.03.02-.05.02.2-.1.4-.2.6-.3.09-.04.18-.07.27-.11.1-.04.2-.08.3-.12.2-.07.39-.13.59-.19.03,0,.05-.01.08-.02-.27.4-.55.79-.82,1.19-.27.4-.53.8-.79,1.2-.81,1.17-1.64,2.32-2.29,3.59,0-.02.02-.04.03-.05-.01.02-.02.04-.03.06-.41.81-.8,1.63-1.16,2.46-.18.39-.35.79-.51,1.19-.17.44-.31.88-.47,1.33-.21.61-.43,1.21-.62,1.83-.15.48-.26.97-.38,1.45v.02s0,.05,0,.05v.05s0,.04,0,.04v.04s0,.04,0,.04v.04s0,.04,0,.04v.03s0,.03,0,.03v.03s0,.03,0,.03v.03s0,.03,0,.03v.03s0,.03,0,.03v.02s0,.02,0,.02v.02s0,.02,0,.02v.02s0,.02,0,.02v.02s0,.02,0,.02v.02s0,.02,0,.02v.02s0,.02,0,.02v.02s0,.02,0,.02v.02s0,.02,0,.02v.02s.01.02.01.02h0s.01.03.01.03h0s.01.01.01.01h.02s.02,0,.02,0h.02s.03-.02.03-.02l.03-.02.03-.02.03-.03.04-.03h0s.04-.04.04-.04l.04-.04.04-.05.04-.05.04-.05.05-.06.05-.06.05-.06.05-.06.06-.07.06-.07.06-.08.06-.08.07-.08.07-.08.07-.09.07-.09.08-.09.08-.1.08-.1.08-.1.09-.1.09-.1.09-.1.09-.1.09-.1.07-.08c.18-.52.38-1.03.57-1.54.22-.59.45-1.17.73-1.73.2-.38.39-.77.59-1.15.21-.38.42-.75.64-1.13.41-.73.81-1.46,1.27-2.15.56-.81,1.14-1.6,1.72-2.39,0,0,0,0,0,0-.04.32-.07.64-.11.97-.09.83-.18,1.65-.27,2.48-.1.82-.21,1.63-.36,2.44-.03.12-.05.24-.08.36l.1-.05.11-.06.11-.06.11-.06.12-.06.12-.06.12-.06.12-.06.06-.03c.08-.46.16-.93.22-1.4.11-.85.2-1.7.28-2.55.07-.83.12-1.65.17-2.48,0,.02,0,.03,0,.05.01-.17.02-.34.03-.51,0,0,0,0,0,0,.87-1.19,1.68-2.42,2.64-3.54.12-.14.25-.27.37-.4.31-.32.63-.64.94-.97.35-.37.69-.75,1.04-1.13.65-.7,1.32-1.38,2-2.04.72-.69,1.39-1.42,2.1-2.11.56-.54,1.12-1.07,1.7-1.6-.03.13-.06.27-.1.4-.12.5-.26,1-.4,1.5-.27.95-.6,1.87-.88,2.82-.29.96-.56,1.93-.82,2.9-.26.97-.51,1.94-.77,2.91-.27,1-.55,2-.82,3.01-.21.78-.42,1.56-.61,2.34h.04s.17-.05.17-.05l.17-.04.17-.04.17-.04.17-.04.17-.05.17-.05.17-.05.12-.03c.2-.71.42-1.42.63-2.13.29-.98.56-1.97.82-2.96.26-.98.49-1.96.75-2.94.26-.97.53-1.95.81-2.91.28-.95.59-1.9.83-2.86.25-.98.45-1.99.59-2.99,0-.03,0-.06.01-.09,0,0,0,0,0,0,.54-.47,1.07-.95,1.6-1.42.69-.6,1.39-1.19,2.09-1.79.77-.66,1.53-1.32,2.34-1.94.79-.6,1.61-1.15,2.39-1.75,1.64-1.24,3.3-2.44,5-3.6.73-.49,1.48-.96,2.23-1.42.39-.24.77-.48,1.17-.7.3-.17.61-.33.92-.49,0,0,0,0,0,0-.04.87-.03,1.74-.07,2.6-.06.69-.16,1.38-.29,2.06-.22,1.16-.45,2.32-.67,3.49-.22,1.16-.43,2.31-.66,3.47-.11.52-.23,1.03-.35,1.55-.29,1.15-.58,2.31-.91,3.45-.32,1.08-.67,2.15-1.04,3.22-.03.08-.05.15-.08.23-.4,1.11-.87,2.19-1.32,3.29-.45,1.09-.88,2.19-1.32,3.28-.13.33-.27.66-.4.99h.02s.16-.03.16-.03l.17-.03.17-.03.17-.03.17-.04.17-.04.17-.04.18-.04.18-.04.18-.04.18-.04.07-.02s.02-.04.03-.06c.45-1.07.88-2.15,1.34-3.22.24-.57.49-1.14.72-1.71.23-.56.45-1.12.65-1.69.21-.57.4-1.15.59-1.73.18-.54.35-1.07.51-1.62.33-1.14.63-2.28.9-3.43.56-2.35.92-4.75,1.3-7.13.09-.58.19-1.16.28-1.74.04-.29.08-.59.12-.89.04-.33.08-.67.1-1,.05-1.14-.05-2.29-.13-3.42,0-.05,0-.11,0-.16.76-.36,1.52-.71,2.28-1.06,1.12-.51,2.25-.99,3.4-1.41,1.04-.35,2.08-.69,3.14-.97,1.1-.29,2.2-.56,3.3-.83.79-.2,1.57-.41,2.36-.6,0,.22-.01.43-.02.65-.03,1,0,1.99.04,2.99.04,1.02.06,2.05,0,3.07-.04.5-.09.99-.16,1.48-.07.49-.15.98-.25,1.46-.05.24-.1.49-.16.73-.23,1.02-.47,2.04-.69,3.07-.22,1.03-.42,2.06-.63,3.09,0,0,0,0,0-.01,0,0,0,.02,0,.03,0,.02,0,.05-.01.07,0-.01,0-.02,0-.03-.05.23-.09.45-.14.68,0-.02,0-.04.01-.07-.08.36-.15.72-.23,1.08-.24,1.04-.48,2.08-.77,3.1-.27.99-.58,1.97-.91,2.94-.4,1.13-.85,2.25-1.31,3.36l.19-.07.21-.08.21-.08.2-.07.2-.08.2-.08.2-.08.2-.08.2-.08.19-.08h.02c.25-.62.48-1.23.7-1.85.72-2.01,1.26-4.08,1.72-6.16.23-1.06.43-2.13.63-3.2.18-1,.38-1.99.58-2.99.2-1,.43-1.99.6-2.99.08-.52.16-1.05.21-1.58.05-.54.09-1.07.12-1.61.03-.51.02-1.03.01-1.54-.01-.54-.04-1.08-.07-1.62,0-.11-.01-.22-.02-.33,0,0,0,0,0,.01,0-.13-.02-.26-.03-.38,0,.03,0,.06,0,.09-.01-.16-.02-.31-.03-.47-.04-.65-.06-1.31-.07-1.96,0-.21-.01-.42-.02-.63,0,0,0,0,0,0,.89-.2,1.78-.38,2.67-.56,1-.21,2-.42,3-.63.98-.21,1.95-.44,2.93-.64,1.19-.24,2.38-.45,3.57-.65.85-.15,1.7-.31,2.56-.47-.02.08-.03.17-.05.25-.11.56-.21,1.11-.29,1.67-.17,1.19-.27,2.4-.36,3.6-.1,1.27-.31,2.53-.54,3.78-.11.6-.23,1.19-.34,1.78-.12.63-.23,1.26-.35,1.89-.24,1.16-.52,2.3-.85,3.43-.32,1.13-.7,2.24-1.09,3.35,0,0,0,0,0,0-.05.13-.09.27-.14.4-.1.28-.21.56-.32.84l.06-.06.12-.11.12-.11.12-.11.12-.11.12-.12.12-.11.12-.12.12-.12.12-.12.12-.13.12-.13.11-.12.11-.13.12-.13.12-.13.12-.13.12-.13.11-.13.11-.13.12-.13.12-.13.12-.13.12-.13.11-.13.1-.11c.43-1.36.81-2.74,1.11-4.13.28-1.28.52-2.56.77-3.85.25-1.25.47-2.51.6-3.78.06-.63.11-1.26.18-1.88.06-.6.13-1.2.21-1.8.07-.58.15-1.15.21-1.73.03-.32.07-.63.1-.95,0-.01,0-.03,0-.04.74-.11,1.48-.2,2.21-.32,1.02-.16,2.03-.31,3.04-.48.78-.14,1.56-.28,2.33-.42-.04.5-.09.99-.15,1.49-.19,1.73-.45,3.45-.75,5.16v-.02s.1-.1.1-.1l.08-.1.08-.11.08-.11.09-.11.08-.11.08-.11.08-.1.08-.1.08-.1.08-.1.08-.1.08-.1.07-.1.07-.1.07-.1.07-.1.07-.1.07-.1.07-.1.07-.1.07-.1.07-.1.07-.1.07-.09.07-.09.07-.09.06-.08c.04-.61.07-1.22.1-1.83.03-.72.07-1.44.07-2.16,0-.03,0-.06,0-.09,0,0,0,0,0,0,.8-.16,1.59-.35,2.39-.52.54-.1,1.08-.18,1.62-.26.36-.06.73-.11,1.1-.15-.19.41-.37.82-.51,1.25-.36.87-.49,1.98-.65,2.92-.17,1.17-.46,2.32-.76,3.47-.43,1.7-.85,3.4-.99,5.15-.22,1.81-.2,3.64-.29,5.46.02,1.84-.23,3.7,0,5.54.17,1.2.86,2.41,2.1,2.72.13.02.26.03.39.04,1.09.88,2.58-1.21,3.12-2.11.68-1.05.86-2.31,1.22-3.49.34-1.13.66-2.27.98-3.4.06-.22.12-.43.18-.65.13,0,.25-.08.3-.21.13-.36.21-.73.29-1.1.23-.95.39-1.92.64-2.87.04-.13.08-.26.12-.39.66-1.78,1.31-3.57,1.86-5.39.29-.7.58-1.4.86-2.1.82-2.11,2.05-4.06,3.5-5.79.75-.98,1.56-1.92,2.29-2.92,1.01-1.42,1.79-2.97,2.51-4.54.77-1.33,1.34-2.83,1.1-4.39ZM116.36,21.5c.67-.15,1.2-.3,1.75-.13.16.06.31.13.46.22.07.05.14.1.22.16.17.11.33.23.49.36.24.22.47.47.65.73.36.66.42,1.48.44,2.23-.41.11-.79.37-1.19.51-1.35.33-2.79.16-4.1-.26-1.04-.31-1.87-1.03-2.36-2-.02-.03-.03-.05-.05-.08.36-.28.74-.54,1.11-.81.76-.56,1.66-.81,2.59-.94ZM105.56,57.81c-.3.86-.46,1.79-.98,2.55-.28.39-.56.79-.95,1.09-.13.09-.28.13-.42.21-.17.1-.3.24-.39.41-1-.84-.93-2.65-.95-3.93,0-1.39.07-2.78.14-4.17.1-3.25.88-6.45,1.59-9.61.11-.49.21-1.01.31-1.53,0-.02,0-.04.01-.05.21-.82.52-1.61.79-2.41.25-.84.45-1.7.73-2.54.31-.89.63-1.77.87-2.69.05-.24.09-.48.13-.72.11-.17.22-.34.31-.52.81-1.68,1.69-3.34,2.35-5.1.5-1.46,1.37-2.76,2.11-4.11.08-.11.16-.22.24-.32,1,2.37,3.85,3.39,6.31,3.41.57.02,1.13-.02,1.68-.15-.17.31-.33.62-.47.94-1.07,2.09-2.58,3.92-3.9,5.84-.89,1.21-1.8,2.4-2.48,3.75-.7,1.16-1.17,2.42-1.63,3.68-.02.04-.03.08-.05.12-.01.05-.03.09-.04.14-.08.21-.15.42-.23.63-.23.62-.45,1.25-.66,1.88-.82,2.11-1.74,4.18-2.43,6.34-.73,2.27-1.31,4.58-2.02,6.85Z"/>
  </g>
</svg>